<?xml version="1.0" encoding="UTF-8"?>
<svg width="1600px" height="1200px" viewBox="0 0 1600 1200" version="1.1" xmlns="http://www.w3.org/2000/svg" xmlns:xlink="http://www.w3.org/1999/xlink">
    <title>Create, teach and manage courses</title>
    <g id="Create,-teach-and-manage-courses" stroke="none" stroke-width="1" fill="none" fill-rule="evenodd">
        <g transform="translate(197.500000, 175.000000)" id="Shape">
            <path d="M1016.15065,33 L125.831784,33 C97.8180249,33 74.9824305,52.1890385 74.9824305,76.0487288 L74.9824305,618.951271 C74.9824305,642.810961 97.8180249,662 125.831784,662 L1016.15065,662 C1044.16441,662 1067,642.810961 1067,618.951271 L1067,76.0487288 C1067,52.1890385 1044.16441,33 1016.15065,33 Z M125.831784,37 L1016.15065,37 C1042.09439,37 1063,54.5672453 1063,76.0487288 L1063,618.951271 C1063,640.432755 1042.09439,658 1016.15065,658 L125.831784,658 C99.888037,658 78.9824305,640.432755 78.9824305,618.951271 L78.9824305,76.0487288 C78.9824305,54.5672453 99.888037,37 125.831784,37 Z" fill="#F0DECF" fill-rule="nonzero"></path>
            <path d="M132.971039,0 L1056.02896,0 C1065.95409,0 1074,7.12509802 1074,15.9143519 L1074,609.085648 C1074,617.874902 1065.95409,625 1056.02896,625 L132.971039,625 C123.045908,625 115,617.874902 115,609.085648 L115,15.9143519 C115,7.12509802 123.045908,0 132.971039,0 Z" fill="#E9F4F7"></path>
            <path d="M895.759451,186 C896.003895,186 896.250502,186.010947 896.497109,186.030652 C898.543847,186.194354 900.430226,187.033387 901.809153,188.351436 L902.143112,188.690814 C902.441637,189.012661 902.709876,189.358591 902.94783,189.728605 C905.398758,193.542599 904.310658,198.444741 902.147439,201.606283 C901.468188,202.600286 900.687265,203.484817 899.850099,204.288339 L911.845153,203.723465 C913.000312,203.723465 913.945639,204.638648 913.997557,205.809995 C914.0538,207.018563 913.132269,208.045407 911.938171,208.100143 L892.841267,209 C891.90243,209 891.067427,208.386959 890.779719,207.478344 C890.483358,206.532508 890.846779,205.503475 891.670965,204.969253 L892.964721,204.120644 C895.116374,202.688289 897.202679,201.141393 898.588942,199.112518 C899.886874,197.216468 900.66996,194.216944 899.32011,192.112899 C898.699266,191.145169 897.515985,190.503665 896.157483,190.396383 C896.023363,190.385436 895.891407,190.381057 895.761614,190.381057 C894.876857,190.381057 894.048344,190.617515 893.399378,191.051023 L893.501049,192.452261 C893.589741,193.656449 892.694168,194.707377 891.502234,194.794955 L891.260224,194.797418 L891.164772,194.790576 C890.109121,194.69862 889.265465,193.864446 889.187589,192.771918 L889.005879,190.2891 C888.962614,189.695764 889.159467,189.108996 889.553173,188.664541 C891.058774,186.972109 893.332318,186 895.759451,186 Z M841.614879,160 C841.905166,160 842.199885,160.056587 842.483524,160.174113 L842.911199,160.463575 L842.988756,160.422224 C843.212565,160.350402 843.440806,160.317756 843.664615,160.317756 C844.601954,160.317756 845.470598,160.909739 845.771965,161.83689 L853.122206,184.586905 C854.110512,184.841545 854.832905,185.703404 854.78637,186.745904 C854.764211,187.248655 854.544834,187.68176 854.239035,188.038692 L855.894336,193.166314 L855.962752,193.431836 L855.996268,193.697358 C856.053883,194.668037 855.44007,195.590835 854.451765,195.897709 C854.230172,195.967354 854.004147,196 853.782554,196 C853.137718,196 852.526121,195.723596 852.109526,195.251315 C851.91674,195.033674 851.766057,194.774681 851.670772,194.483042 L849.804959,188.709026 L832.826499,187.971223 L830.253804,193.888882 C829.897039,194.715918 829.077145,195.21214 828.215148,195.21214 C827.924861,195.21214 827.630142,195.157729 827.346503,195.038027 C826.22081,194.565746 825.69785,193.288193 826.178707,192.182577 L839.576223,161.323257 C839.935204,160.496222 840.752882,160 841.614879,160 Z M872.759857,181 C873.996416,181 875,181.894 875,183 C875,184.106 873.996416,185 872.759857,185 L862.240143,185 C861.003584,185 860,184.106 860,183 C860,181.894 861.003584,181 862.240143,181 L872.759857,181 Z M842.347735,166 L835,184.38507 L848,185 L842.347735,166 Z M886.2272,173 L886.323555,173.002185 L912.943845,174.634377 C914.152664,174.708667 915.070227,175.744355 914.995771,176.950473 C914.923505,178.108521 913.959954,179 912.812452,179 L912.674489,178.99563 L886.054199,177.363438 C884.84757,177.289148 883.927817,176.25346 884.004463,175.047342 C884.07454,173.876184 885.04247,173 886.2272,173 Z M870.840931,173 C871.937661,173 872.884936,173.833685 872.990433,174.91431 C873.102524,176.075137 872.216788,177.105108 871.007968,177.214859 L862.40117,177.991558 L862.194572,178 C861.073666,178 860.115402,177.181089 860.009905,176.08569 C859.895616,174.924863 860.78355,173.897003 861.992369,173.789363 L870.594772,173.012664 C870.67829,173.004221 870.759611,173 870.840931,173 Z M897.647537,145.010012 L898.996261,166.744604 C899.068348,167.920312 898.08936,168.927452 896.805747,168.995732 L896.670874,169 C895.447721,169 894.422225,168.12302 894.352463,166.98572 L893.003739,145.253262 C892.931652,144.077554 893.91064,143.068281 895.194253,143.002134 L895.29657,143 C896.531351,143 897.57545,143.868445 897.647537,145.010012 Z" fill="#E9525B"></path>
            <path d="M667.465416,238.978175 L666.892606,234.011095 C666.766064,232.913798 665.773947,232.126845 664.67665,232.253387 C663.579353,232.379928 662.7924,233.372046 662.918942,234.469343 L663.491751,239.436423 C663.618293,240.53372 664.61041,241.320673 665.707708,241.194132 C666.805005,241.06759 667.591957,240.075473 667.465416,238.978175 Z M665.4033,221.096686 L664.830491,216.129605 C664.703949,215.032308 663.711832,214.245355 662.614534,214.371897 C661.517237,214.498438 660.730285,215.490556 660.856826,216.587853 L661.429636,221.554933 C661.556178,222.652231 662.548295,223.439183 663.645592,223.312642 C664.742889,223.1861 665.529842,222.193983 665.4033,221.096686 Z M663.341185,203.215196 L662.768375,198.248115 C662.641834,197.150818 661.649716,196.363865 660.552419,196.490407 C659.455122,196.616949 658.668169,197.609066 658.794711,198.706363 L659.367521,203.673444 C659.494062,204.770741 660.48618,205.557694 661.583477,205.431152 C662.680774,205.30461 663.467727,204.312493 663.341185,203.215196 Z M661.27907,185.333706 L660.70626,180.366625 C660.579718,179.269328 659.587601,178.482375 658.490304,178.608917 C657.393007,178.735459 656.606054,179.727576 656.732595,180.824873 L657.305405,185.791954 C657.431947,186.889251 658.424064,187.676204 659.521361,187.549662 C660.618659,187.42312 661.405611,186.431003 661.27907,185.333706 Z M659.216954,167.452216 L658.644145,162.485135 C658.517603,161.387838 657.525486,160.600886 656.428188,160.727427 C655.330891,160.853969 654.543938,161.846086 654.67048,162.943383 L655.24329,167.910464 C655.369832,169.007761 656.361949,169.794714 657.459246,169.668172 C658.556543,169.54163 659.343496,168.549513 659.216954,167.452216 Z M657.154839,149.570726 L656.582029,144.603646 C656.455488,143.506348 655.46337,142.719396 654.366073,142.845937 C653.268776,142.972479 652.481823,143.964596 652.608365,145.061893 L653.181175,150.028974 C653.307716,151.126271 654.299834,151.913224 655.397131,151.786682 C656.494428,151.660141 657.281381,150.668023 657.154839,149.570726 Z M655.092724,131.689236 L654.519914,126.722156 C654.393372,125.624859 653.401255,124.837906 652.303958,124.964447 C651.206661,125.090989 650.419708,126.083106 650.546249,127.180404 L651.119059,132.147484 C651.245601,133.244781 652.237718,134.031734 653.335015,133.905192 C654.432313,133.778651 655.219265,132.786533 655.092724,131.689236 Z M653.030608,113.807746 L652.457798,108.840666 C652.331257,107.743369 651.339139,106.956416 650.241842,107.082958 C649.144545,107.209499 648.357592,108.201617 648.484134,109.298914 L649.056944,114.265994 C649.183486,115.363291 650.175603,116.150244 651.2729,116.023702 C652.370197,115.897161 653.15715,114.905043 653.030608,113.807746 Z M650.968493,95.9262565 L650.395683,90.9591759 C650.269141,89.8618788 649.277024,89.074926 648.179727,89.2014677 C647.08243,89.3280093 646.295477,90.3201267 646.422019,91.4174238 L646.994829,96.3845043 C647.12137,97.4818014 648.113488,98.2687542 649.210785,98.1422126 C650.308082,98.0156709 651.095035,97.0235536 650.968493,95.9262565 Z M648.906378,78.0447666 L648.333568,73.0776861 C648.207026,71.9803889 647.214909,71.1934361 646.117612,71.3199778 C645.020314,71.4465194 644.233362,72.4386368 644.359903,73.5359339 L644.932713,78.5030144 C645.059255,79.6003116 646.051372,80.3872644 647.148669,80.2607227 C648.245966,80.1341811 649.032919,79.1420637 648.906378,78.0447666 Z" fill="#6F97F8" fill-rule="nonzero"></path>
            <path d="M628.492925,301.468691 L628.913109,296.486378 C629.005934,295.385715 628.18892,294.418203 627.088258,294.325379 C625.987596,294.232554 625.020083,295.049568 624.927259,296.15023 L624.507075,301.132544 C624.41425,302.233206 625.231264,303.200718 626.331926,303.293543 C627.432589,303.386367 628.400101,302.569353 628.492925,301.468691 Z M630.005588,283.532363 L630.425772,278.55005 C630.518597,277.449388 629.701583,276.481876 628.600921,276.389051 C627.500258,276.296227 626.532746,277.11324 626.439922,278.213903 L626.019738,283.196216 C625.926913,284.296878 626.743927,285.26439 627.844589,285.357215 C628.945251,285.450039 629.912764,284.633026 630.005588,283.532363 Z M631.518251,265.596036 L631.938435,260.613722 C632.03126,259.51306 631.214246,258.545548 630.113583,258.452723 C629.012921,258.359899 628.045409,259.176913 627.952584,260.277575 L627.5324,265.259888 C627.439576,266.360551 628.25659,267.328063 629.357252,267.420887 C630.457914,267.513712 631.425426,266.696698 631.518251,265.596036 Z M633.030914,247.659708 L633.451098,242.677395 C633.543922,241.576732 632.726908,240.60922 631.626246,240.516396 C630.525584,240.423571 629.558072,241.240585 629.465247,242.341247 L629.045063,247.323561 C628.952239,248.424223 629.769253,249.391735 630.869915,249.48456 C631.970577,249.577384 632.938089,248.76037 633.030914,247.659708 Z M634.543577,229.72338 L634.963761,224.741067 C635.056585,223.640405 634.239571,222.672892 633.138909,222.580068 C632.038247,222.487243 631.070735,223.304257 630.97791,224.40492 L630.557726,229.387233 C630.464901,230.487895 631.281915,231.455407 632.382578,231.548232 C633.48324,231.641056 634.450752,230.824042 634.543577,229.72338 Z M636.056239,211.787052 L636.476423,206.804739 C636.569248,205.704077 635.752234,204.736565 634.651572,204.64374 C633.55091,204.550916 632.583397,205.36793 632.490573,206.468592 L632.070389,211.450905 C631.977564,212.551567 632.794578,213.51908 633.89524,213.611904 C634.995903,213.704729 635.963415,212.887715 636.056239,211.787052 Z M637.568902,193.850725 L637.989086,188.868412 C638.081911,187.767749 637.264897,186.800237 636.164235,186.707413 C635.063572,186.614588 634.09606,187.431602 634.003236,188.532264 L633.583052,193.514577 C633.490227,194.61524 634.307241,195.582752 635.407903,195.675576 C636.508565,195.768401 637.476078,194.951387 637.568902,193.850725 Z M639.081565,175.914397 L639.501749,170.932084 C639.594574,169.831422 638.77756,168.863909 637.676897,168.771085 C636.576235,168.67826 635.608723,169.495274 635.515898,170.595937 L635.095714,175.57825 C635.00289,176.678912 635.819904,177.646424 636.920566,177.739249 C638.021228,177.832073 638.98874,177.015059 639.081565,175.914397 Z M640.594228,157.978069 L641.014412,152.995756 C641.107236,151.895094 640.290222,150.927582 639.18956,150.834757 C638.088898,150.741933 637.121386,151.558947 637.028561,152.659609 L636.608377,157.641922 C636.515553,158.742584 637.332567,159.710097 638.433229,159.802921 C639.533891,159.895746 640.501403,159.078732 640.594228,157.978069 Z M642.106891,140.041742 L642.527075,135.059428 C642.619899,133.958766 641.802885,132.991254 640.702223,132.898429 C639.601561,132.805605 638.634049,133.622619 638.541224,134.723281 L638.12104,139.705594 C638.028215,140.806257 638.845229,141.773769 639.945892,141.866593 C641.046554,141.959418 642.014066,141.142404 642.106891,140.041742 Z M643.619553,122.105414 L644.039737,117.123101 C644.132562,116.022438 643.315548,115.054926 642.214886,114.962102 C641.114224,114.869277 640.146711,115.686291 640.053887,116.786953 L639.633703,121.769267 C639.540878,122.869929 640.357892,123.837441 641.458554,123.930266 C642.559217,124.02309 643.526729,123.206076 643.619553,122.105414 Z M645.132216,104.169086 L645.5524,99.186773 C645.645225,98.0861108 644.828211,97.1185986 643.727549,97.0257741 C642.626886,96.9329496 641.659374,97.7499635 641.56655,98.8506258 L641.146366,103.832939 C641.053541,104.933601 641.870555,105.901113 642.971217,105.993938 C644.071879,106.086762 645.039392,105.269749 645.132216,104.169086 Z M646.644879,86.2327586 L647.065063,81.2504453 C647.157888,80.1497831 646.340874,79.1822709 645.240211,79.0894464 C644.139549,78.9966219 643.172037,79.8136358 643.079212,80.9142981 L642.659028,85.8966113 C642.566204,86.9972736 643.383218,87.9647857 644.48388,88.0576103 C645.584542,88.1504348 646.552054,87.3334208 646.644879,86.2327586 Z" fill="#6F97F8" fill-rule="nonzero"></path>
            <path d="M635,441 L620,441 C618.895431,441 618,441.895431 618,443 L618,458 C618,459.104569 618.895431,460 620,460 L635,460 C636.104569,460 637,459.104569 637,458 L637,443 C637,441.895431 636.104569,441 635,441 Z M633,445 L633,456 L622,456 L622,445 L633,445 Z" fill="#E9525B" fill-rule="nonzero"></path>
            <path d="M86.5,441.683655 L86.5,522.183655 L65.5,522.183655 L65.5,441.683655 C65.5,435.884666 70.2010101,431.183655 76,431.183655 C81.7989899,431.183655 86.5,435.884666 86.5,441.683655 Z" fill="#585F74"></path>
            <polygon fill="#585F74" points="86.5 560.183655 86.5 849.183655 65.5 849.183655 65.5 560.183655"></polygon>
            <path d="M66.5,381.183655 C69.2614237,381.183655 71.5,383.422232 71.5,386.183655 L71.5,397.183655 C71.5,399.945079 69.2614237,402.183655 66.5,402.183655 L65.5,402.183655 L65.5,413.183655 L56.5,413.183655 L56.5,402.183655 L55.5,402.183655 C52.7385763,402.183655 50.5,399.945079 50.5,397.183655 L50.5,386.183655 C50.5,383.422232 52.7385763,381.183655 55.5,381.183655 L66.5,381.183655 Z" fill="#585F74"></path>
            <path d="M55.5,381.183655 L59.5,381.183655 C62.2614237,381.183655 64.5,383.422232 64.5,386.183655 L64.5,397.183655 C64.5,399.945079 62.2614237,402.183655 59.5,402.183655 L55.5,402.183655 C52.7385763,402.183655 50.5,399.945079 50.5,397.183655 L50.5,386.183655 C50.5,383.422232 52.7385763,381.183655 55.5,381.183655 Z" fill="#697084"></path>
            <path d="M0,539.683655 C0,536.922232 2.23857625,534.683655 5,534.683655 L16,534.683655 C18.7614237,534.683655 21,536.922232 21,539.683655 L21,540.683655 L32,540.683655 L32,549.683655 L21,549.683655 L21,550.683655 C21,553.445079 18.7614237,555.683655 16,555.683655 L5,555.683655 C2.23857625,555.683655 0,553.445079 0,550.683655 L0,539.683655 Z" fill="#697084"></path>
            <path d="M0,550.683655 L0,546.683655 C0,543.922232 2.23857625,541.683655 5,541.683655 L16,541.683655 C18.7614237,541.683655 21,543.922232 21,546.683655 L21,550.683655 C21,553.445079 18.7614237,555.683655 16,555.683655 L5,555.683655 C2.23857625,555.683655 0,553.445079 0,550.683655 Z" fill="#585F74"></path>
            <path d="M116.282727,414.497172 L83.5,410.183655 L62.6682682,410.183655 L62.6682682,462.183655 L83.5,462.183655 L116.282727,457.870139 C119.268147,457.47732 121.5,454.932565 121.5,451.921413 L121.5,420.445898 C121.5,417.434746 119.268147,414.88999 116.282727,414.497172 Z" fill="#697084"></path>
            <path d="M115.5,519.183655 L62.6682682,519.183655 L62.6682682,571.183655 L83.5,571.183655 L117.02696,562.360771 C119.662838,561.667119 121.5,559.283945 121.5,556.558324 L121.5,525.183655 C121.5,521.869947 118.813708,519.183655 115.5,519.183655 Z" fill="#697084"></path>
            <path d="M39.5,410.183655 L73.5,410.183655 C79.0228475,410.183655 83.5,414.660808 83.5,420.183655 L83.5,452.183655 C83.5,457.706503 79.0228475,462.183655 73.5,462.183655 L39.5,462.183655 C33.4248678,462.183655 28.5,457.258788 28.5,451.183655 L28.5,421.183655 C28.5,415.108523 33.4248678,410.183655 39.5,410.183655 Z" fill="#585F74"></path>
            <path d="M39.5,519.183655 L73.5,519.183655 C79.0228475,519.183655 83.5,523.660808 83.5,529.183655 L83.5,561.183655 C83.5,566.706503 79.0228475,571.183655 73.5,571.183655 L39.5,571.183655 C33.4248678,571.183655 28.5,566.258788 28.5,560.183655 L28.5,530.183655 C28.5,524.108523 33.4248678,519.183655 39.5,519.183655 Z" fill="#585F74"></path>
            <circle fill="#697084" cx="56.5" cy="545.183655" r="15"></circle>
            <circle fill="#697084" cx="56.5" cy="436.183655" r="15"></circle>
            <path d="M109,425.183655 L203.5,425.183655 L203.5,446.183655 L109,446.183655 C103.20101,446.183655 98.5,441.482645 98.5,435.683655 C98.5,429.884666 103.20101,425.183655 109,425.183655 Z" fill="#585F74"></path>
            <path d="M222.5,375.183655 L245.456462,378.350064 C248.92007,378.827803 251.5,381.788011 251.5,385.284412 L251.5,487.870438 C251.5,491.457555 248.78837,494.464169 245.220294,494.83328 L222.5,497.183655 L222.5,375.183655 Z" fill="#585F74"></path>
            <path d="M392.178991,291.486676 L392.178991,601.880635 C392.178991,614.601281 384.336559,624.087194 374.662429,623.068013 C366.449694,623.381982 360.853219,623.381982 357.873005,623.068013 C335.458838,620.706656 302.963742,616.693666 260.387716,611.029045 C250.713586,610.009864 242.871154,599.781635 242.871154,588.183655 L242.871154,305.183655 C242.871154,293.585676 250.713586,283.357446 260.387716,282.338266 C304.011987,276.615354 336.99189,272.577361 359.327426,270.224287 C361.562506,269.988819 366.309003,269.938756 373.566916,270.074097 C383.895314,270.266717 392.178991,279.796804 392.178991,291.486676 Z" fill="#506D7C" fill-rule="nonzero"></path>
            <path d="M362.291275,270.299298 C371.965405,269.280117 379.807836,278.766029 379.807836,291.486676 L379.807836,601.880635 C379.807836,614.601281 371.965405,624.087194 362.291275,623.068013 L248.016562,611.029045 C238.342432,610.009864 230.5,599.781635 230.5,588.183655 L230.5,305.183655 C230.5,293.585676 238.342432,283.357446 248.016562,282.338266 L362.291275,270.299298 Z" fill="#607D8C" fill-rule="nonzero"></path>
            <ellipse fill="#506D7C" cx="283" cy="290.683655" rx="2.5" ry="3.5"></ellipse>
            <path d="M361.950055,281.034847 L362.190622,281.015087 C367.146832,280.691598 371.125397,285.607898 371.125397,292.132997 L371.125397,600.996568 L371.122304,601.311049 C370.994744,607.783677 366.937021,612.587769 361.950055,612.094718 L247.675342,600.796609 L247.434775,600.769076 C242.478565,600.124929 238.5,594.84101 238.5,588.829977 L238.5,304.299588 L238.503092,304.009337 C238.630653,298.023147 242.688375,292.826007 247.675342,292.332956 L270.352616,290.090899 L271.784432,295.588907 C272.309772,297.60931 273.831098,298.900203 275.57728,298.83417 L275.765196,298.821874 L334.694322,293.339513 C336.518485,293.169805 338.130984,291.499053 338.675086,289.213704 L340.106068,283.194517 L361.950055,281.034847 Z" fill="#E9F0F6" fill-rule="nonzero"></path>
            <path d="M328.569075,381.087557 C329.855949,392.023104 327.499591,400.818521 321.5,407.473807 C322.055163,420.270034 326.445821,430.778765 334.671973,439 C349.470475,430.659091 362.079818,421.030092 372.5,410.113005 C364.003084,398.55235 359.728005,386.181349 359.674761,373 L336.9871,377.659655 L328.569075,381.087557 Z" fill="#CDE2F4"></path>
            <path d="M308.067126,431 C300.026467,419.069234 298.393676,406.065635 303.168754,391.989201 C310.331371,370.87455 320.655008,376.179661 320.655008,354.642699 C320.655008,340.284725 325.069551,331.737159 333.898636,329 L354.469023,334.001965 L371.5,380.4329 L345.609841,396.792872 L333.898636,402.270114 C333.753169,405.601743 333.407269,408.01903 332.860936,409.521975 C331.87317,412.239289 323.608567,419.39863 308.067126,431 Z" fill="#A1BDD5"></path>
            <path d="M333.5,413 C321.791271,415.546176 312.820868,420.627182 306.588791,428.243018 C297.240674,439.666772 273.170303,475.5612 282.685994,493.772987 C284.817915,497.41784 287.296444,499.636398 290.121581,500.428663 C293.385004,501.343838 299.446728,501.34201 308.306751,500.42318 C309.305899,528.328849 305.346895,551.685721 296.429741,570.493796 C310.755839,576.875432 320.56595,574.545664 325.860074,563.504493 C328.835297,557.29951 327.89212,543.39426 325.379602,525.321575 C321.185944,495.156349 305.777622,460.435141 305.777622,453.374545 C305.777622,445.84737 315.018415,432.389189 333.5,413 Z" fill="#B9D5EE"></path>
            <path d="M316.688181,540 L327.496841,540.624183 L371.5,540.1 L371.181762,602.030967 C371.153383,607.553741 366.653283,612.007829 361.130509,611.979584 C360.822549,611.977867 360.514828,611.962059 360.208327,611.932077 L317.525073,607.756742 C316.336431,584.444928 308.81458,560 316.336431,540.470328 L316.688181,540 Z" fill="#A1BDD5" fill-rule="nonzero"></path>
            <path d="M333.745525,411 C331.853444,414.991044 329.817906,418.581488 327.63891,421.771332 C330.958501,427.167242 333.745531,430.794071 336,432.651819 L337.724338,431.87846 C350.528906,426.083737 360.454127,420.412165 367.5,414.863744 C353.602165,435.322593 347.954048,453.122955 350.555649,468.264831 L351.003436,470.759534 C353.695126,486.106486 356.363389,509.853308 359.008225,542 L318.477944,542 C316.268804,542 314.477943,540.20914 314.477943,538 C314.477943,537.663129 314.520498,537.327607 314.604597,537.001402 C317.033654,527.579614 317.722437,516.336746 316.670944,503.272799 C314.80453,480.084115 304.5,454.472231 304.5,453.094476 L304.506708,452.857823 C304.603175,450.939888 305.835664,442.909579 314.240678,432.100783 C320.117355,424.543413 326.618971,417.509819 333.745525,411 Z" fill="#A1BDD5"></path>
            <path d="M370.418531,410 L371.499,410.344 L371.500135,575.899565 C367.145731,576.220014 362.231017,575.773642 356.755992,574.560448 L356.181816,574.430879 C362.581571,551.187817 352.493177,492.215439 349.782061,467.063889 C347.994085,450.476486 354.706546,431.683691 369.919445,410.685505 L370.418531,410 Z" fill="#B9D5EE"></path>
            <path d="M371.498609,444.001 L371.498609,503.97004 C369.142985,504.15436 366.729229,504.070441 364.293771,503.691915 L320.381856,496.86701 L308.395174,498.991067 L302.552719,497.419864 L299.5,472.965724 L354.93698,474.696218 L371.498609,444.001 Z" fill="#B9D5EE"></path>
            <path d="M335.507629,329 L352.880434,337.102939 L360.454234,356.391151 C360.495219,350.419414 366.810444,350.651637 371.498912,354.510978 L371.499486,377.837915 C370.282055,379.003882 368.841255,380.00499 367.177087,380.841239 C371.722,384.274054 370.095895,387.397007 362.298772,390.210098 L360.717532,390.774275 C353.236608,393.414372 344.33042,396.15628 333.998968,399 C329.215028,398.357647 316.567321,379.524361 317.962893,370.44966 C318.86508,364.583186 318.120457,358.034929 315.729022,350.804887 L315.5,350.125073 L323.421938,334.780854 L335.507629,329 Z" fill="#CDE2F4"></path>
            <path d="M364.607532,328.980248 C367.237593,329.493301 369.535226,330.30181 371.500431,331.405774 L371.499225,380.15408 L371.244052,380.546802 C367.066854,386.849671 362.446851,387.631979 359.805007,375.13975 C365.119353,369.827391 366.924872,365.417074 365.221566,361.908801 C362.666607,356.646391 355.700151,356.442349 353.58358,361.908801 L352.720221,365.598201 L352.720221,365.598201 C349.013833,360.465717 348.051751,355.824589 349.833974,351.674819 C341.586718,352.189247 335.328996,349.466882 331.060808,343.507723 C326.855068,347.70029 321.58427,351.521276 315.248416,354.97068 C310.380523,351.674819 304.611019,329.372894 324.071158,321.382657 C343.531296,313.392419 364.607532,321.043576 364.607532,328.980248 Z" fill="#A1BDD5"></path>
            <path d="M371.498,366.002 L371.498724,411.99981 C370.168432,411.801975 368.797444,411.630136 367.38576,411.484291 L366.319367,411.379782 C350.168231,409.881469 348.174357,398.030658 360.337743,375.827349 L371.498,366.002 Z" fill="#A1BDD5"></path>
            <path d="M330.576923,285.186928 L290.423077,288.862306 C289.913276,288.908969 289.5,289.466234 289.5,290.106992 C289.5,290.74775 289.913276,291.228312 290.423077,291.180357 L330.576923,287.403239 C331.086724,287.355284 331.5,286.820794 331.5,286.209423 C331.5,285.598051 331.086724,285.140265 330.576923,285.186928 Z" fill="#506D7C"></path>
            <path d="M222.5,375.183655 L211.5,375.183655 C207.081722,375.183655 203.5,378.765377 203.5,383.183655 L203.5,489.183655 C203.5,493.601933 207.081722,497.183655 211.5,497.183655 L222.5,497.183655 L222.5,375.183655 Z" fill="#697084"></path>
            <path d="M387.5,375.183655 L410.456462,378.350064 C413.92007,378.827803 416.5,381.788011 416.5,385.284412 L416.5,487.870438 C416.5,491.457555 413.78837,494.464169 410.220294,494.83328 L387.5,497.183655 L387.5,375.183655 Z" fill="#585F74"></path>
            <path d="M387.5,375.183655 L376.5,375.183655 C372.081722,375.183655 368.5,378.765377 368.5,383.183655 L368.5,489.183655 C368.5,493.601933 372.081722,497.183655 376.5,497.183655 L387.5,497.183655 L387.5,375.183655 Z" fill="#697084"></path>
            <path d="M497,66 L211,66 C204.372583,66 199,71.372583 199,78 L199,132 L509,132 L509,78 C509,71.372583 503.627417,66 497,66 Z M497,70 L497.249179,70.0038068 C501.552162,70.1354571 505,73.6650857 505,78 L505,128 L203,128 L203,78 C203,73.581722 206.581722,70 211,70 L497,70 Z" fill="#E9525B" fill-rule="nonzero"></path>
            <polygon fill="#E9525B" fill-rule="nonzero" points="356 75.1440356 356 257 352 257 352 75.1440356"></polygon>
            <path d="M203,75.1440356 L203,353.516617 C203,357.851531 206.447838,361.38116 210.750821,361.51281 L211,361.516617 L215,361.516617 L215,365.516617 L211,365.516617 C204.474543,365.516617 199.165607,360.308072 199.0038,353.821591 L199,353.516617 L199,75.1440356 L203,75.1440356 Z" fill="#E9525B" fill-rule="nonzero"></path>
            <path d="M509,75.1440356 L509,353.516617 C509,360.042073 503.791456,365.351009 497.304975,365.512817 L497,365.516617 L403.011671,365.516617 L403.011671,361.516617 L497,361.516617 C501.334914,361.516617 504.864543,358.068779 504.996193,353.765796 L505,353.516617 L505,75.1440356 L509,75.1440356 Z" fill="#E9525B" fill-rule="nonzero"></path>
            <path d="M430.720712,115 C432.26523,115 433.678538,114.698879 434.960637,114.096636 C436.242737,113.494393 437.333646,112.641821 438.233365,111.538918 C439.133083,110.436016 439.819119,109.133575 440.291471,107.631596 C440.763824,106.129617 441,104.478892 441,102.67942 C441,100.241425 440.576382,98.1335752 439.729147,96.3558707 C438.881912,94.5781662 437.689784,93.2213061 436.152765,92.2852902 C434.615745,91.3492744 432.827554,90.8812665 430.788191,90.8812665 C429.018744,90.8812665 427.534208,91.1896438 426.334583,91.8063984 C425.134958,92.423153 423.957826,93.3120053 422.803187,94.4729551 L422.803187,94.4729551 L422.803187,85.3957784 C422.803187,84.3073879 422.548266,83.4693272 422.038425,82.8815963 C421.528585,82.2938654 420.801312,82 419.856607,82 C418.956888,82 418.255858,82.3083773 417.753515,82.9251319 C417.251172,83.5418865 417,84.4525066 417,85.6569921 L417,85.6569921 L417,111.604222 C417,112.721636 417.258669,113.566953 417.776007,114.140172 C418.293346,114.713391 418.986879,115 419.856607,115 C420.71134,115 421.41612,114.713391 421.970947,114.140172 C422.525773,113.566953 422.803187,112.721636 422.803187,111.604222 L422.803187,111.604222 L422.803187,111.016491 C423.477976,111.771108 424.021556,112.337071 424.433927,112.71438 C424.846298,113.091689 425.344892,113.458113 425.929709,113.813654 C426.514527,114.169195 427.223055,114.455805 428.055295,114.673483 C428.887535,114.891161 429.776007,115 430.720712,115 Z M429.689655,110 C427.989783,110 426.616539,109.370504 425.569923,108.111511 C424.523308,106.852518 424,105.05036 424,102.705036 C424,101.107914 424.245849,99.7302158 424.737548,98.5719424 C425.229246,97.4136691 425.903576,96.528777 426.760536,95.9172662 C427.617497,95.3057554 428.59387,95 429.689655,95 C430.757344,95 431.691571,95.3057554 432.492337,95.9172662 C433.293103,96.528777 433.911239,97.3956835 434.346743,98.5179856 C434.782248,99.6402878 435,100.978417 435,102.532374 C435,104.935252 434.476692,106.780576 433.430077,108.068345 C432.383461,109.356115 431.136654,110 429.689655,110 Z" fill="#E9525B"></path>
            <path d="M275.099237,87.9296875 C278.076336,87.9296875 280.416667,88.2736623 282.120229,88.961612 C283.823791,89.6495616 285.027036,90.7381407 285.729962,92.2273494 C286.388955,93.6234825 286.739045,95.4464225 286.780232,97.6961696 L286.784351,98.1518098 L286.774374,101.766359 L286.774374,101.766359 L286.734733,105.727349 L286.734733,105.727349 C286.734733,106.973752 286.945611,108.272763 287.367366,109.624382 L287.595115,110.377565 C287.865038,111.304759 288,111.923752 288,112.234544 C288,112.9144 287.673346,113.533554 287.020038,114.092008 C286.36673,114.650461 285.62659,114.929688 284.799618,114.929688 C284.104962,114.929688 283.418575,114.609993 282.740458,113.970605 C282.062341,113.331216 281.342875,112.404508 280.582061,111.190479 C278.944656,112.436882 277.361005,113.371684 275.831107,113.994885 C274.301209,114.618087 272.585242,114.929688 270.683206,114.929688 C268.946565,114.929688 267.420802,114.593806 266.105916,113.922044 C264.791031,113.250281 263.77799,112.339759 263.066794,111.190479 C262.355598,110.041198 262,108.794795 262,107.45127 C262,105.638321 262.58715,104.092457 263.76145,102.81368 C264.862357,101.614827 266.348484,100.785873 268.219831,100.326818 L269.143922,100.122737 L269.143922,100.122737 L272.899185,99.3619417 C273.96261,99.1437163 274.917609,98.9380808 275.764183,98.7450352 L276.178435,98.6495616 C277.394084,98.3662882 278.713104,98.0223134 280.135496,97.6176371 C280.052799,95.8694357 279.693066,94.586612 279.056298,93.7691659 C278.419529,92.9517199 277.100509,92.5429969 275.099237,92.5429969 C273.379135,92.5429969 272.084924,92.7777091 271.216603,93.2471335 C270.348282,93.716558 269.604008,94.4206947 268.983779,95.3595436 L268.424194,96.1918278 C268.091568,96.6756407 267.839801,97.0173674 267.668893,97.2170076 C267.412532,97.5164681 266.862595,97.6661983 266.019084,97.6661983 C265.25827,97.6661983 264.600827,97.4274393 264.046756,96.9499213 C263.492684,96.4724033 263.215649,95.8613422 263.215649,95.1167379 C263.215649,93.9512702 263.637405,92.8181767 264.480916,91.7174573 C265.324427,90.6167379 266.639313,89.710263 268.425573,88.9980328 C270.211832,88.2858026 272.436387,87.9296875 275.099237,87.9296875 Z M280,101.929688 L279.786993,102.006446 C278.908191,102.314719 277.708129,102.637885 276.186805,102.975944 L273.71307,103.521696 C272.957967,103.693296 272.381838,103.831546 271.984683,103.936444 C271.278629,104.122931 270.604668,104.487796 269.962801,105.031039 C269.320934,105.574282 269,106.33239 269,107.305363 C269,108.310769 269.377097,109.166174 270.131291,109.871579 C270.885485,110.576985 271.872356,110.929688 273.091904,110.929688 C274.391685,110.929688 275.591174,110.64185 276.690372,110.066174 C277.78957,109.490498 278.595915,108.748606 279.109409,107.840498 C279.670152,106.890949 279.966099,105.362821 279.997251,103.256114 L280,102.878336 L280,101.929688 Z" fill="#E9525B"></path>
            <path d="M985.594086,212.651342 C985.659291,246.521338 977.574801,272.334408 961.340614,290.090554 C966.259743,319.536374 979.848808,345.226315 1002.10781,367.160377 C1046.07751,351.356995 1082.16025,328.892038 1110.35604,299.765506 C1083.43769,262.471984 1069.90648,226.241459 1069.76241,191.073931 L1008.37227,203.50578 L985.594086,212.651342 Z" fill="#FDB4A3"></path>
            <path d="M1070.21028,201.694094 C1072.75725,233.524222 1086.13917,266.214693 1110.35604,299.765506 C1083.03447,327.988959 1048.30744,349.957523 1006.17495,365.671196 C1003.90993,340.330718 1046,316.926526 1046,298 C1046,284.8 1032.2786,274.867 1004.8358,268.201 L1004,268 L1046,252 L1046.00305,251.373442 C1046.18367,232.796417 1054.39015,215.202816 1068.50764,203.1266 L1068.98575,202.721632 L1070.21028,201.694094 Z" fill="#F69883"></path>
            <path d="M921.207935,360.751454 C898.035936,326.21682 893.330474,288.576774 907.091547,247.831316 C927.733157,186.713129 957.484362,202.069232 957.484362,139.728632 C957.484362,98.1682318 970.206425,73.4265602 995.650552,65.5036171 L1054.93138,79.9822372 L1104.01216,214.380603 L1029.40052,261.735959 L995.650552,277.59031 C995.231338,287.234 994.234505,294.231047 992.660053,298.581451 C989.813456,306.44695 965.996083,327.170284 921.207935,360.751454 Z" fill="#583E40"></path>
            <path d="M992.899375,298.198941 C955.398433,304.460654 927.18226,319.417343 908.250854,343.069008 C879.853746,378.546506 806.734315,490.019882 835.640471,546.578229 C842.116684,557.897647 849.645801,564.787581 858.227822,567.248029 C868.14124,570.090187 886.555154,570.084511 913.469564,567.231001 C916.504711,653.894572 904.478304,726.431441 877.390346,784.84161 C920.909246,804.660356 950.709772,797.425053 966.791922,763.135701 C975.829864,743.865568 972.964742,700.681562 965.332377,644.555208 C952.593151,550.874383 905.78674,443.044544 905.78674,421.117229 C905.78674,397.74091 934.824285,356.768147 992.899375,298.198941 Z" fill="#EC9564"></path>
            <path d="M1136.2629,693.730443 C1158.61244,744.218288 1165.17966,796.308178 1155.96457,850.000114 L910.822906,850.000114 L910.515349,846.353273 C905.679586,787.580158 907.459621,737.139109 915.855457,695.030126 L916.117231,693.730443 L955.542772,695.698353 L1136.2629,693.730443 Z" fill="#506D7C" fill-rule="nonzero"></path>
            <polygon fill="#CB7545" points="869 483.608938 886.146221 422.730443 902 485.730443"></polygon>
            <path d="M992.899375,298.198941 C987.373298,310.598597 978.944361,319.285142 972.580309,329.195573 L973.933459,331.516835 C983.035319,347.004271 990.724166,357.498604 997,362.999836 L999.64243,361.744513 C1038.19875,343.342169 1067.9846,325.338863 1089,307.734593 C1047.96345,371.996077 1031.55377,427.815461 1039.77096,475.192744 L1040.2639,478.069544 C1048.31383,525.615251 1056.29207,600.502217 1064.19863,702.730443 L915.944957,702.730443 C913.572054,702.730443 911.648436,700.802356 911.648436,698.423954 C911.648436,698.009033 911.708261,697.59629 911.826056,697.198522 C921.068661,665.988294 933.975604,627.725472 930.546884,582.410056 C925.095771,510.365823 905,430.793022 905,426.512517 L905.007849,426.069696 C905.182949,420.679996 908.475887,395.450899 933.448965,361.287837 C950.612592,337.80807 972.085311,318.424104 992.899375,298.198941 Z" fill="#F6BE67"></path>
            <polygon fill="#CB7545" points="914 585 944 572 1052 579 942 560 914 567"></polygon>
            <path d="M942,560 L1052,579 L944,572 L930.194444,577.982145 C929.787547,573.106663 929.317317,568.20466 928.794398,563.301513 L942,560 Z" fill="#D38F23"></path>
            <path d="M1101.43578,289.730443 C1053.49041,355.990196 1032.30143,415.231221 1037.86884,467.453518 C1046.21995,545.786962 1077.29543,729.453946 1057.58214,801.843481 C1103.73025,812.561487 1137.13754,805.649574 1157.804,781.107741 C1188.80369,744.294992 1107.98331,647.12077 1134.39747,496.7079 C1152.00691,396.432654 1159.80909,333.489098 1157.804,307.877234 L1101.43578,289.730443 Z" fill="#EC9564"></path>
            <path d="M1157.04095,312.730443 C1192.39976,323.36592 1208.2068,361.378366 1204.46209,426.767781 C1201.42796,479.749009 1193.73863,526.514804 1181.3941,567.065166 C1176.56459,582.929545 1160.85926,592.841397 1144.503,590.347655 L950.652438,560.792411 L913.540399,567.243534 L895.45154,562.471523 L886,488.200161 L1057.63876,493.455963 L1157.04095,312.730443 Z" fill="#EC9564"></path>
            <polygon fill="#CB7545" points="1116 526 993 570 944 560"></polygon>
            <path d="M1052.21918,576.858191 L1128.71718,587.408392 L1129,589 L1130.40344,590.587005 C1131.08402,598.4437 1131.98893,606.086942 1133.06501,613.515 C1083.97407,606.385334 1057.02533,594.166877 1052.21918,576.858191 Z M1130.1241,418.9851 L1131,419 L1118,527 L1118.43018,529.430392 L1116,527 L1080.00445,535.099123 C1083.24932,516.228752 1082.50069,492.988576 1084,468 C1085.9602,435.33 1101.04855,418.990132 1129.26504,418.980397 L1130.1241,418.9851 Z" fill="#CB7545"></path>
            <path d="M1086.3738,498.586938 C1098.89583,487.483539 1110.43789,485.761172 1121,493.419839 L1117.71073,527.883821 L1079,534.730443 C1083.91587,525.983124 1086.3738,520.321558 1086.3738,517.745745 C1086.3738,515.169932 1086.3738,508.783663 1086.3738,498.586938 Z" fill="#FDB4A3"></path>
            <path d="M1121,493 C1114.33333,513.666667 1101,527.666667 1081,535 L1118,528 L1121,493 Z" fill="#F69883"></path>
            <path d="M905.464458,368.448994 C906.172182,367.600938 907.433392,367.487176 908.281448,368.194901 C909.129505,368.902625 909.243267,370.163835 908.535542,371.011891 L907.600439,372.13912 C894.508086,388.017497 888,400.039026 888,407.935243 C888,416.38769 893.246482,441.618449 903.700605,483.24327 C903.969663,484.314569 903.319318,485.401143 902.248019,485.670201 C901.17672,485.939259 900.090146,485.288914 899.821088,484.217615 L898.884965,480.47853 C888.949839,440.666646 884,416.602449 884,407.935243 C884,398.629542 891.182048,385.563413 905.464458,368.448994 Z" fill="#9D5C38" fill-rule="nonzero"></path>
            <path d="M1128.0152,418.484327 C1128.15113,417.388153 1129.14994,416.609718 1130.24612,416.745644 C1131.34229,416.88157 1132.12073,417.880385 1131.9848,418.976559 L1131.05781,426.495752 C1127.20699,457.913129 1123.50166,490.423059 1119.94181,524.025509 L1119.36035,529.534525 L1077.38159,537.693703 C1076.29731,537.904448 1075.24749,537.196309 1075.03674,536.112031 C1074.83557,535.077038 1075.47166,534.073438 1076.47294,533.801046 L1076.61841,533.767183 L1115.693,526.172 L1115.96408,523.603972 C1119.66869,488.635097 1123.53088,454.847565 1127.55068,422.241341 L1128.0152,418.484327 Z" fill="#9D5C38" fill-rule="nonzero"></path>
            <path d="M1115.01388,527.495243 C1115.14378,526.398338 1116.1383,525.614423 1117.2352,525.744321 C1137.44921,528.138102 1148,535.414509 1148,547.730443 C1148,548.835012 1147.10457,549.730443 1146,549.730443 C1144.89543,549.730443 1144,548.835012 1144,547.730443 C1144,537.95869 1135.21746,531.901763 1116.7648,529.716565 C1115.66789,529.586667 1114.88398,528.592147 1115.01388,527.495243 Z" fill="#9D5C38" fill-rule="nonzero"></path>
            <path d="M1116.20762,526.843104 C1116.69768,525.853199 1117.89743,525.447998 1118.88734,525.938062 C1126.87236,529.891137 1131,535.894982 1131,543.730443 C1131,544.835012 1130.10457,545.730443 1129,545.730443 C1127.89543,545.730443 1127,544.835012 1127,543.730443 C1127,537.493473 1123.79431,532.830651 1117.11266,529.522824 C1116.12276,529.03276 1115.71756,527.833009 1116.20762,526.843104 Z" fill="#9D5C38" fill-rule="nonzero"></path>
            <path d="M955.342372,327.611395 C955.960405,326.695912 957.203565,326.454781 958.119048,327.072815 C959.034531,327.690848 959.275661,328.934008 958.657628,329.849491 L955.379759,334.715556 C929.584839,373.094891 914.063661,398.291881 908.882423,410.167844 C903.725357,421.988402 909.102717,446.37939 925.272527,482.921133 C925.719496,483.931228 925.262993,485.112412 924.252898,485.559382 C923.242803,486.006351 922.061618,485.549848 921.614649,484.539753 L920.630803,482.301213 C904.778301,445.980793 899.559134,421.534829 905.216152,408.568326 C910.748563,395.887437 927.432362,368.954044 955.342372,327.611395 Z" fill="#CA8E31" fill-rule="nonzero"></path>
            <path d="M1077.43392,324.486504 C1078.12092,323.62158 1079.37901,323.477351 1080.24394,324.164359 C1081.10886,324.851368 1081.25309,326.109457 1080.56608,326.974381 C1047.2236,368.951631 1034.43417,419.406817 1042.20035,478.469707 C1042.34435,479.56485 1041.5733,480.569374 1040.47815,480.713374 C1039.38301,480.857375 1038.37849,480.086321 1038.23449,478.991178 C1030.33092,418.883411 1043.39655,367.338597 1077.43392,324.486504 Z" fill="#CA8E31" fill-rule="nonzero"></path>
            <path d="M1055.90813,327.054788 C1056.83357,326.451765 1058.07263,326.713134 1058.67566,327.638573 C1059.27868,328.564012 1059.01731,329.803075 1058.09187,330.406098 L1052.90517,333.773482 C1036.84589,344.159874 1024.25627,351.915035 1015.12615,357.043985 L1014.17786,357.574175 C1002.63829,363.99444 997.253566,366.135257 995.055228,363.798476 L994.971184,363.705166 C992.786042,361.171982 984.639641,349.970456 970.369697,329.888938 C969.729877,328.988546 969.941113,327.739959 970.841505,327.100139 C971.741897,326.46032 972.990484,326.671556 973.630303,327.571948 L980.900792,337.776142 C989.766937,350.180528 995.316142,357.772817 997.481486,360.465729 L997.687,360.719 L997.840617,360.700482 C998.491014,360.606271 999.467106,360.312988 1000.72954,359.816742 L1001.32316,359.577209 C1003.97212,358.482296 1007.61638,356.647363 1012.23311,354.078754 L1013.62982,353.296043 C1023.60313,347.668412 1037.70027,338.919169 1055.90813,327.054788 Z" fill="#CA8E31" fill-rule="nonzero"></path>
            <path d="M942.019464,561.452097 C942.166202,560.407996 943.094358,559.666147 944.129772,559.734566 L944.278346,559.749907 L1129.27835,585.749907 C1130.37217,585.903633 1131.13426,586.914969 1130.98054,588.008788 C1130.8338,589.052889 1129.90564,589.794738 1128.87023,589.72632 L1128.72165,589.710979 L943.721654,563.710979 C942.627834,563.557253 941.865738,562.545917 942.019464,561.452097 Z" fill="#9D5C38" fill-rule="nonzero"></path>
            <path d="M936,487.730443 C923.746875,471.198826 915.851128,461.080864 912.312761,457.376555 C908.774393,453.672247 893.067049,456.219896 865.190731,465.019504 L850,482.807095 C857.44574,484.552663 864.487132,482.504656 868.553493,477.410764 L871.040629,474.295152 L898.653738,470.475295" fill="#FDB4A3"></path>
            <path d="M899.667735,474.619419 L882.917395,469.730443 L867.748822,474.619419 L863,487.730443 L867.589986,487.730443 C873.049898,487.730443 876.948801,483.972495 876.927562,478.730443 L890.172429,480.406111 L912,485.87547" fill="#FDB4A3"></path>
            <polygon fill="#FDB4A3" points="872.331889 476.250035 870 483.604169 936 487.730443 910.178045 463.730443 872.78453 463.730443"></polygon>
            <path d="M879.083812,483.731426 L1078.37764,492.091117 C1082.03484,492.24451 1085.28143,494.481488 1086.73592,497.847889 C1088.26112,501.377927 1089,506.211361 1089,512.37865 C1089,521.404048 1086.22037,528.943578 1080.66537,534.890447 C1079.36419,536.283426 1077.67913,537.252562 1075.82853,537.677115 L1075.47966,537.750307 L923.405488,566.695171 C922.320399,566.901701 921.273335,566.189487 921.066805,565.104397 C920.869664,564.06863 921.509642,563.06751 922.511975,562.799012 L922.65758,562.765714 L1074.73175,533.82085 C1075.8848,533.601386 1076.93897,533.019944 1077.74227,532.159972 C1082.58217,526.97865 1085,520.420473 1085,512.37865 C1085,506.709929 1084.33886,502.385021 1083.064,499.434388 C1082.24917,497.548481 1080.47032,496.273759 1078.44479,496.102445 L1078.21002,496.087603 L878.916188,487.728686 C877.812589,487.682398 876.955469,486.75023 877.001757,485.646631 C877.045941,484.593196 877.8973,483.764341 878.934451,483.731426 L879.083812,483.731426 Z" fill="#9D5C38" fill-rule="nonzero"></path>
            <path d="M1003.01425,795.492152 C1003.14585,794.395451 1004.14159,793.613085 1005.23829,793.744689 C1006.28514,793.870311 1007.04558,794.783296 1006.99809,795.819881 L1006.98575,795.968733 L1000.76732,847.789043 C1000.63571,848.885744 999.639974,849.66811 998.543272,849.536506 C997.496421,849.410884 996.735979,848.4979 996.783472,847.461315 L996.795809,847.312462 L1003.01425,795.492152 Z" fill="#607D8C" fill-rule="nonzero"></path>
            <path d="M942.927263,126.490706 C950.238247,148.14263 952.57158,167.701337 949.927263,185.166826 C945.960788,211.365059 981.907931,265.735868 995.504781,267.59031 C1026.96612,258.79422 1053.77722,250.335543 1075.9381,242.21428 C1098.09898,234.093016 1102.72067,225.077198 1089.80318,215.166826 C1107.42272,206.173506 1116.23248,190.575672 1116.23248,168.373322 C1116.23248,135.069798 1070.88096,117.143364 1070.69558,144.580576 L1049.16943,88.8964183 L999.792675,65.5036171 L965.442888,82.1926697 L942.927263,126.490706 Z" fill="#FDB4A3"></path>
            <path d="M1077,196 L1094.15817,231.989348 C1090.91762,235.542141 1084.84426,238.950451 1075.9381,242.21428 C1064.5994,246.369557 1052.04331,250.613166 1038.26984,254.945107 L1046,252 L1046.00305,251.373442 C1046.18367,232.796417 1054.39015,215.202816 1068.50764,203.1266 L1068.98575,202.721632 L1077,196 Z" fill="#FDB4A3"></path>
            <path d="M1077,196 L1094.15817,231.989348 C1090.91762,235.542141 1084.84426,238.950451 1075.9381,242.21428 C1064.5994,246.369557 1052.04331,250.613166 1038.26984,254.945107 L1046,252 L1046.00305,251.373442 C1046.18367,232.796417 1054.39015,215.202816 1068.50764,203.1266 L1068.98575,202.721632 L1077,196 Z" fill="#F69883"></path>
            <path d="M1011.85866,212.9495 C1012.76629,211.983518 1014.28515,211.936213 1015.25113,212.84384 C1016.21711,213.751466 1016.26442,215.270326 1015.35679,216.236307 C1005.53419,226.690436 993.112345,229.869286 978.480674,225.723897 C977.205385,225.362587 976.464459,224.035861 976.825769,222.760573 C977.187079,221.485284 978.513804,220.744358 979.789093,221.105668 C992.729543,224.771907 1003.28959,222.069505 1011.85866,212.9495 Z" fill="#583E40" fill-rule="nonzero"></path>
            <ellipse fill="#583E40" cx="961.340614" cy="163.182586" rx="4.48767123" ry="6.98738739"></ellipse>
            <ellipse fill="#583E40" cx="1008.21185" cy="162.184387" rx="4.48767123" ry="6.98738739"></ellipse>
            <path d="M981.295237,163.492539 C981.675344,162.222726 983.012869,161.501477 984.282682,161.881584 C985.552495,162.261692 986.273744,163.599216 985.893636,164.869029 L984.565283,169.286225 C980.687974,182.116618 977.77989,191.157651 975.826242,196.44702 L975.52,197.265 L975.594259,197.361788 C979.121717,201.853898 983.2025,202.820183 988.439968,200.470227 L988.743417,200.330975 C989.943465,199.768133 991.37257,200.284691 991.935411,201.484739 C992.498253,202.684787 991.981695,204.113891 990.781647,204.676733 C982.834049,208.404284 975.918086,206.411073 970.828437,198.973141 C970.376724,198.313016 970.283572,197.471235 970.580023,196.728318 L970.944142,195.794975 C973.030018,190.338376 976.488565,179.550039 981.295237,163.492539 Z" fill="#583E40" fill-rule="nonzero"></path>
            <path d="M1026.28741,143.252796 L1024.85659,142.667867 L1023.44835,142.098899 C1009.40156,136.458734 1001.1824,134.238354 998.790883,135.437758 C994.603333,137.537915 1000.5087,143.939328 1010.99172,145.180291 C1015.92564,145.764361 1020.69867,145.942269 1025.31081,145.714015 L1026.078,145.672205 C1027.12675,145.609799 1027.72654,144.966752 1027.41767,144.23592 C1027.24983,143.838776 1026.8349,143.477862 1026.28741,143.252796 Z" fill="#583E40"></path>
            <path d="M948.179049,143.959562 L949.370094,143.429991 L950.542581,142.915451 L951.59263,142.460815 C962.651685,137.704974 969.18374,135.94483 971.188795,137.180381 C974.809358,139.411436 970.034575,145.551833 961.200678,146.412067 C957.042929,146.816943 953.007077,146.82466 949.093122,146.435219 L948.441927,146.366628 C947.551568,146.267656 947.02089,145.608653 947.256624,144.894704 C947.384725,144.506736 947.723356,144.163436 948.179049,143.959562 Z" fill="#583E40"></path>
            <path d="M990.410819,104.461793 C978.150526,116.700677 962.78545,127.854846 944.315591,137.924299 C930.125033,128.303066 913.306161,63.1995946 970.035057,39.8746044 C1026.76395,16.5496142 1088.20399,38.8847657 1088.20399,62.0533873 C1120.67842,68.3970707 1135.76721,90.2142716 1133.47035,127.50499 C1130.02507,183.441068 1089.99398,271.569974 1074.20399,196.801572 C1089.69601,181.293805 1094.95934,168.41927 1089.99398,158.177967 C1082.54593,142.816013 1062.23779,142.220377 1056.0677,158.177967 C1054.38983,165.357999 1053.55089,168.948014 1053.55089,168.948014 C1042.74628,153.965336 1039.94168,140.417021 1045.1371,128.303066 C1021.09525,129.80478 1002.85316,121.857689 990.410819,104.461793 Z" fill="#583E40"></path>
            <path d="M1053.70249,243.935407 C1054.57123,243.253226 1055.8285,243.404459 1056.51068,244.273195 C1057.19286,245.141932 1057.04163,246.399199 1056.17289,247.08138 C1044.39227,256.332191 1024.31933,263.790162 995.902108,269.550446 C994.819555,269.769883 993.764083,269.07019 993.544646,267.987637 C993.325208,266.905084 994.024901,265.849612 995.107454,265.630175 L996.95245,265.251298 C1023.83179,259.659354 1042.76467,252.524408 1053.70249,243.935407 Z" fill="#583E40" fill-rule="nonzero"></path>
            <path d="M1065.11628,156.133 C1076.4877,152.283605 1083.53594,157.129726 1084.92272,169.589888 C1085.06934,170.907237 1084.12028,172.094017 1082.80293,172.240634 C1081.48558,172.387252 1080.2988,171.438186 1080.15218,170.120837 L1080.07056,169.446198 C1078.8977,160.495901 1074.84058,157.908745 1066.65536,160.679563 C1065.39986,161.104568 1064.03754,160.43132 1063.61254,159.175821 C1063.18753,157.920323 1063.86078,156.558005 1065.11628,156.133 Z" fill="#583E40" fill-rule="nonzero"></path>
            <path d="M1131.06817,146.721625 C1129.36345,176.102703 1140.43406,204.603997 1164.28002,232.225505 C1200.04895,273.657767 1203.03693,308.454187 1180.69424,342.670038 C1164.82564,318.906131 1134.78864,304.829456 1090.58324,300.440013 C1046.37785,296.05057 1040.92064,261.332533 1074.21164,196.285904 L1105.76709,166.546964 L1131.06817,146.721625 Z" fill="#583E40"></path>
            <polygon fill="#E9525B" fill-rule="nonzero" points="324 148.86126 324 152.86126 235.371154 152.86126 235.371154 148.86126"></polygon>
            <path d="M259.876382,164 L259.876382,168 L235.371154,168 L235.371154,164 L259.876382,164 Z M294,164 L294,168 L279.215125,168 L279.215125,164 L294,164 Z" fill="#E9525B" fill-rule="nonzero"></path>
            <path d="M297.8017,199.5 L297.8017,203.5 L235.371154,203.5 L235.371154,199.5 L297.8017,199.5 Z M324,199.5 L324,203.5 L310.909704,203.5 L310.909704,199.5 L324,199.5 Z" fill="#E9525B" fill-rule="nonzero"></path>
            <polygon fill="#E9525B" fill-rule="nonzero" points="294 214.63874 294 218.63874 235.371154 218.63874 235.371154 214.63874"></polygon>
            <path d="M276.863544,250.5 L276.863544,254.5 L235.371154,254.5 L235.371154,250.5 L276.863544,250.5 Z M324,250.5 L324,254.5 L291.961835,254.5 L291.961835,250.5 L324,250.5 Z" fill="#E9525B" fill-rule="nonzero"></path>
            <polygon fill="#E9525B" fill-rule="nonzero" points="294 265.63874 294 269.63874 235.371154 269.63874 235.371154 265.63874"></polygon>
            <polygon fill="#E9525B" fill-rule="nonzero" points="481.628846 148.86126 481.628846 152.86126 393 152.86126 393 148.86126"></polygon>
            <path d="M420.741001,164 L420.741001,168 L393,168 L393,164 L420.741001,164 Z M451.628846,164 L451.628846,168 L431.049504,168 L431.049504,164 L451.628846,164 Z" fill="#E9525B" fill-rule="nonzero"></path>
            <path d="M419.870514,199.5 L419.870514,203.5 L393,203.5 L393,199.5 L419.870514,199.5 Z M481.628846,199.5 L481.628846,203.5 L436.018882,203.5 L436.018882,199.5 L481.628846,199.5 Z" fill="#E9525B" fill-rule="nonzero"></path>
            <polygon fill="#E9525B" fill-rule="nonzero" points="451.628846 214.63874 451.628846 218.63874 393 218.63874 393 214.63874"></polygon>
            <polygon fill="#E9525B" fill-rule="nonzero" points="481.628846 250.5 481.628846 254.5 393 254.5 393 250.5"></polygon>
            <path d="M427.022448,265.63874 L427.022448,269.63874 L393,269.63874 L393,265.63874 L427.022448,265.63874 Z M451.628846,265.63874 L451.628846,269.63874 L439.811414,269.63874 L439.811414,265.63874 L451.628846,265.63874 Z" fill="#E9525B" fill-rule="nonzero"></path>
            <path d="M664.91867,237.287274 L558.455244,268.333933 C556.678667,268.852015 556.498069,271.297461 558.179266,272.070902 L625.664108,303.117561 C626.101776,303.318912 626.597416,303.355515 627.059914,303.220642 L733.52334,272.173983 C735.299917,271.655901 735.480515,269.210456 733.799318,268.437015 L666.314476,237.390356 C665.876808,237.189005 665.381168,237.152401 664.91867,237.287274 Z M665.321,241.336 L727.262,269.832 L626.657,299.171 L564.714,270.674 L665.321,241.336 Z" fill="#6F97F8" fill-rule="nonzero"></path>
            <path d="M644.136812,67.2099067 C644.808153,65.6487368 646.971834,65.5983764 647.739455,67.0588257 L647.811456,67.2099067 L734.78559,269.463865 L731.110946,271.044052 L645.974,73.063 L560.837322,271.044052 L557.162678,269.463865 L644.136812,67.2099067 Z" fill="#6F97F8" fill-rule="nonzero"></path>
            <path d="M761.19815,60.6310311 C780.816873,52.0451308 790.96885,64.2797997 791.169928,95.1493165 L791.172975,96.0904581 C791.172975,102.322735 791.066726,107.91837 790.819376,115.860067 L790.42678,127.775412 C789.821347,146.947501 789.939049,153.681691 791.193832,161.29078 C792.889313,171.572296 796.715548,177.2198 803.836348,179.357967 C805.582792,179.882373 805.773853,182.279224 804.132539,183.073679 C793.997281,187.97951 788.745175,208.195107 789.040376,243.638461 L789.084748,248.233897 C789.297251,275.836511 788.122093,290.789086 784.69953,300.290936 C780.943442,310.718731 774.266483,314.895267 762.451158,315 L762,315 L762,311 C781.196858,311 785.506934,300.100104 785.08306,248.004022 L785.051279,244.762735 C784.669152,211.224189 789.034612,190.313499 798.631826,181.970882 L798.963,181.689 L798.674723,181.536349 C792.52126,178.194884 788.980082,171.904413 787.334991,162.459898 L787.162382,161.418732 C785.902939,153.508657 785.822174,146.420883 786.467874,126.422763 L786.799503,116.430289 C787.053918,108.385781 787.166649,102.771621 787.172715,96.6191963 L787.172975,96.0904581 C787.172975,67.2509569 779.373943,57.3110739 763.291726,64.0850878 L762.80185,64.2954746 L761.19815,60.6310311 Z" fill="#E9525B" fill-rule="nonzero"></path>
            <path d="M747.918192,57.1347678 L742.918192,57.1347678 C741.813622,57.1347678 740.918192,58.0301983 740.918192,59.1347678 C740.918192,60.2393373 741.813622,61.1347678 742.918192,61.1347678 L747.918192,61.1347678 C749.022761,61.1347678 749.918192,60.2393373 749.918192,59.1347678 C749.918192,58.0301983 749.022761,57.1347678 747.918192,57.1347678 Z M729.918192,57.1347678 L724.918192,57.1347678 C723.813622,57.1347678 722.918192,58.0301983 722.918192,59.1347678 C722.918192,60.2393373 723.813622,61.1347678 724.918192,61.1347678 L729.918192,61.1347678 C731.022761,61.1347678 731.918192,60.2393373 731.918192,59.1347678 C731.918192,58.0301983 731.022761,57.1347678 729.918192,57.1347678 Z M711.918192,57.1347678 L706.918192,57.1347678 C705.813622,57.1347678 704.918192,58.0301983 704.918192,59.1347678 C704.918192,60.2393373 705.813622,61.1347678 706.918192,61.1347678 L711.918192,61.1347678 C713.022761,61.1347678 713.918192,60.2393373 713.918192,59.1347678 C713.918192,58.0301983 713.022761,57.1347678 711.918192,57.1347678 Z M693.918192,57.1347678 L688.918192,57.1347678 C687.813622,57.1347678 686.918192,58.0301983 686.918192,59.1347678 C686.918192,60.2393373 687.813622,61.1347678 688.918192,61.1347678 L693.918192,61.1347678 C695.022761,61.1347678 695.918192,60.2393373 695.918192,59.1347678 C695.918192,58.0301983 695.022761,57.1347678 693.918192,57.1347678 Z M675.918192,57.1347678 L670.918192,57.1347678 C669.813622,57.1347678 668.918192,58.0301983 668.918192,59.1347678 C668.918192,60.2393373 669.813622,61.1347678 670.918192,61.1347678 L675.918192,61.1347678 C677.022761,61.1347678 677.918192,60.2393373 677.918192,59.1347678 C677.918192,58.0301983 677.022761,57.1347678 675.918192,57.1347678 Z M657.918192,57.1347678 L652.918192,57.1347678 C651.813622,57.1347678 650.918192,58.0301983 650.918192,59.1347678 C650.918192,60.2393373 651.813622,61.1347678 652.918192,61.1347678 L657.918192,61.1347678 C659.022761,61.1347678 659.918192,60.2393373 659.918192,59.1347678 C659.918192,58.0301983 659.022761,57.1347678 657.918192,57.1347678 Z M639.918192,57.1347678 L634.918192,57.1347678 C633.813622,57.1347678 632.918192,58.0301983 632.918192,59.1347678 C632.918192,60.2393373 633.813622,61.1347678 634.918192,61.1347678 L639.918192,61.1347678 C641.022761,61.1347678 641.918192,60.2393373 641.918192,59.1347678 C641.918192,58.0301983 641.022761,57.1347678 639.918192,57.1347678 Z" fill="#E9525B" fill-rule="nonzero"></path>
            <path d="M747.631155,311 L742.631155,311 C741.526586,311 740.631155,311.895431 740.631155,313 C740.631155,314.104569 741.526586,315 742.631155,315 L747.631155,315 C748.735725,315 749.631155,314.104569 749.631155,313 C749.631155,311.895431 748.735725,311 747.631155,311 Z M729.631155,311 L724.631155,311 C723.526586,311 722.631155,311.895431 722.631155,313 C722.631155,314.104569 723.526586,315 724.631155,315 L729.631155,315 C730.735725,315 731.631155,314.104569 731.631155,313 C731.631155,311.895431 730.735725,311 729.631155,311 Z M711.631155,311 L706.631155,311 C705.526586,311 704.631155,311.895431 704.631155,313 C704.631155,314.104569 705.526586,315 706.631155,315 L711.631155,315 C712.735725,315 713.631155,314.104569 713.631155,313 C713.631155,311.895431 712.735725,311 711.631155,311 Z M693.631155,311 L688.631155,311 C687.526586,311 686.631155,311.895431 686.631155,313 C686.631155,314.104569 687.526586,315 688.631155,315 L693.631155,315 C694.735725,315 695.631155,314.104569 695.631155,313 C695.631155,311.895431 694.735725,311 693.631155,311 Z M675.631155,311 L670.631155,311 C669.526586,311 668.631155,311.895431 668.631155,313 C668.631155,314.104569 669.526586,315 670.631155,315 L675.631155,315 C676.735725,315 677.631155,314.104569 677.631155,313 C677.631155,311.895431 676.735725,311 675.631155,311 Z M657.631155,311 L652.631155,311 C651.526586,311 650.631155,311.895431 650.631155,313 C650.631155,314.104569 651.526586,315 652.631155,315 L657.631155,315 C658.735725,315 659.631155,314.104569 659.631155,313 C659.631155,311.895431 658.735725,311 657.631155,311 Z M639.631155,311 L634.631155,311 C633.526586,311 632.631155,311.895431 632.631155,313 C632.631155,314.104569 633.526586,315 634.631155,315 L639.631155,315 C640.735725,315 641.631155,314.104569 641.631155,313 C641.631155,311.895431 640.735725,311 639.631155,311 Z" fill="#E9525B" fill-rule="nonzero"></path>
            <path d="M450,426 L450,578 C450,579.104569 450.895431,580 452,580 L702,580 C704.022284,580 704.766992,577.341678 703.039026,576.291075 L453.039026,424.291075 C451.706211,423.480723 450,424.440171 450,426 Z M454,429.556 L694.861,576 L454,576 L454,429.556 Z" fill="#6F97F8" fill-rule="nonzero"></path>
            <path d="M474,554 L452,554 C450.895431,554 450,554.895431 450,556 L450,578 C450,579.104569 450.895431,580 452,580 L474,580 C475.104569,580 476,579.104569 476,578 L476,556 C476,554.895431 475.104569,554 474,554 Z M472,558 L472,576 L454,576 L454,558 L472,558 Z" fill="#6F97F8" fill-rule="nonzero"></path>
            <path d="M619.5,373 C572.831939,373 535,410.831939 535,457.5 C535,504.168061 572.831939,542 619.5,542 C666.168061,542 704,504.168061 704,457.5 C704,410.831939 666.168061,373 619.5,373 Z M619.5,377 C663.958922,377 700,413.041078 700,457.5 C700,501.958922 663.958922,538 619.5,538 C575.041078,538 539,501.958922 539,457.5 C539,413.041078 575.041078,377 619.5,377 Z" fill="#E9525B" fill-rule="nonzero"></path>
            <path d="M618,377 L618,382 C618,383.104569 618.895431,384 620,384 C621.104569,384 622,383.104569 622,382 L622,377 C622,375.895431 621.104569,375 620,375 C618.895431,375 618,375.895431 618,377 Z M618,395 L618,400 C618,401.104569 618.895431,402 620,402 C621.104569,402 622,401.104569 622,400 L622,395 C622,393.895431 621.104569,393 620,393 C618.895431,393 618,393.895431 618,395 Z M618,413 L618,418 C618,419.104569 618.895431,420 620,420 C621.104569,420 622,419.104569 622,418 L622,413 C622,411.895431 621.104569,411 620,411 C618.895431,411 618,411.895431 618,413 Z M618,431 L618,436 C618,437.104569 618.895431,438 620,438 C621.104569,438 622,437.104569 622,436 L622,431 C622,429.895431 621.104569,429 620,429 C618.895431,429 618,429.895431 618,431 Z M618,449 L618,454 C618,455.104569 618.895431,456 620,456 C621.104569,456 622,455.104569 622,454 L622,449 C622,447.895431 621.104569,447 620,447 C618.895431,447 618,447.895431 618,449 Z M629,460 L634,460 C635.104569,460 636,459.104569 636,458 C636,456.895431 635.104569,456 634,456 L629,456 C627.895431,456 627,456.895431 627,458 C627,459.104569 627.895431,460 629,460 Z M647,460 L652,460 C653.104569,460 654,459.104569 654,458 C654,456.895431 653.104569,456 652,456 L647,456 C645.895431,456 645,456.895431 645,458 C645,459.104569 645.895431,460 647,460 Z M665,460 L670,460 C671.104569,460 672,459.104569 672,458 C672,456.895431 671.104569,456 670,456 L665,456 C663.895431,456 663,456.895431 663,458 C663,459.104569 663.895431,460 665,460 Z M683,460 L688,460 C689.104569,460 690,459.104569 690,458 C690,456.895431 689.104569,456 688,456 L683,456 C681.895431,456 681,456.895431 681,458 C681,459.104569 681.895431,460 683,460 Z" fill="#E9525B" fill-rule="nonzero"></path>
            <path d="M633.040752,353 C633.594566,353 634.059561,352.841742 634.435737,352.525225 C634.811912,352.208709 635,351.830931 635,351.391892 C635,350.998799 634.74537,350.429828 634.236111,349.684979 L630.219436,344.055856 L633.652038,339.537838 C633.965517,339.13964 634.198015,338.795045 634.34953,338.504054 C634.501045,338.213063 634.576803,337.909309 634.576803,337.592793 C634.576803,337.153754 634.391327,336.778529 634.020376,336.467117 C633.649425,336.155706 633.181818,336 632.617555,336 C632.126437,336 631.716301,336.132733 631.387147,336.398198 C631.057994,336.663664 630.668757,337.102703 630.219436,337.715315 L627.523511,341.421622 L624.749216,337.715315 C624.310345,337.123123 623.926332,336.689189 623.597179,336.413514 C623.268025,336.137838 622.852665,336 622.351097,336 C621.776385,336 621.31139,336.158258 620.956113,336.474775 C620.600836,336.791291 620.423197,337.163964 620.423197,337.592793 C620.423197,338.144144 620.721003,338.792492 621.316614,339.537838 L624.749216,344.055856 L620.877743,349.477477 C620.292581,350.294294 620,350.922222 620,351.361261 C620,351.79009 620.1907,352.17042 620.5721,352.502252 C620.953501,352.834084 621.415883,353 621.959248,353 C622.450366,353 622.855277,352.867267 623.173981,352.601802 C623.492685,352.336336 623.881923,351.892192 624.341693,351.269369 L627.523511,346.812613 L630.626959,351.269369 C631.065831,351.871772 631.455068,352.310811 631.794671,352.586486 C632.134274,352.862162 632.549634,353 633.040752,353 Z M660,339 C660,337.895431 659.104569,337 658,337 L646,337 C644.895431,337 644,337.895431 644,339 C644,340.104569 644.895431,341 646,341 L658,341 C659.104569,341 660,340.104569 660,339 Z M660,345 C660,343.895431 659.104569,343 658,343 L646,343 C644.895431,343 644,343.895431 644,345 C644,346.104569 644.895431,347 646,347 L658,347 C659.104569,347 660,346.104569 660,345 Z M683.957115,353 C684.643275,353 685.155296,352.823277 685.493177,352.469831 C685.831059,352.116384 686,351.684972 686,351.175593 C686,350.603842 685.786875,350.151638 685.360624,349.818983 C684.934373,349.486328 684.315789,349.32 683.504873,349.32 L675.364522,349.32 C675.57245,349.003977 675.77705,348.724547 675.978324,348.481708 L676.128655,348.306441 C676.638077,347.68791 677.523595,346.850505 678.78521,345.794227 L680.803081,344.130221 C681.627018,343.444714 682.25731,342.905826 682.693957,342.513559 C683.359324,341.915819 684.011696,341.089379 684.651072,340.034237 C685.290448,338.979096 685.610136,337.807006 685.610136,336.517966 C685.610136,335.696723 685.45679,334.904068 685.150097,334.14 C684.843405,333.375932 684.414555,332.702825 683.863548,332.120678 C683.312541,331.538531 682.673164,331.08113 681.945419,330.748475 C680.822612,330.249492 679.465887,330 677.875244,330 C676.554906,330 675.403509,330.194915 674.421053,330.584746 C673.438596,330.974576 672.62768,331.486554 671.988304,332.120678 C671.348928,332.754802 670.868096,333.461695 670.545809,334.241356 C670.223522,335.021017 670.062378,335.769492 670.062378,336.48678 C670.062378,337.079322 670.233918,337.547119 670.576998,337.890169 C670.920078,338.23322 671.351527,338.404746 671.871345,338.404746 C672.463938,338.404746 672.91358,338.217627 673.220273,337.84339 C673.526966,337.469153 673.802469,336.933785 674.046784,336.237288 L674.184951,335.851824 C674.357947,335.381116 674.48603,335.08339 674.569201,334.958644 C675.348928,333.763164 676.419753,333.165424 677.781676,333.165424 C678.426251,333.165424 679.021442,333.31096 679.567251,333.602034 C680.11306,333.893107 680.544509,334.30113 680.861598,334.826102 C681.178687,335.351073 681.337232,335.946215 681.337232,336.611525 C681.337232,337.224859 681.189084,337.851186 680.892788,338.490508 C680.596491,339.129831 680.165042,339.753559 679.598441,340.361695 C679.031839,340.969831 678.322287,341.575367 677.469786,342.178305 C676.991553,342.500565 676.196231,343.173672 675.083821,344.197627 C673.97141,345.221582 672.723847,346.450847 671.341131,347.885424 C671.008447,348.23887 670.701754,348.724859 670.421053,349.34339 C670.140351,349.961921 670,350.458305 670,350.832542 C670,351.414689 670.218324,351.921469 670.654971,352.352881 C671.091618,352.784294 671.699805,353 672.479532,353 L683.957115,353 Z M701.907443,353 C702.448155,353 702.932093,352.824191 703.359256,352.472572 C703.786419,352.120953 704,351.731115 704,351.303058 C704,351.058453 703.862118,350.510641 703.586355,349.659622 C703.310592,348.808603 703.17271,347.990707 703.17271,347.205935 L703.201015,344.306563 C703.203773,343.758491 703.205153,343.135021 703.205153,342.436151 C703.205153,340.88699 702.97535,339.643585 702.515744,338.705935 C702.056139,337.768285 701.269402,337.082884 700.155534,336.64973 C699.041667,336.216577 697.51145,336 695.564885,336 C693.823791,336 692.369275,336.224221 691.201336,336.672662 C690.033397,337.121103 689.173664,337.691847 688.622137,338.384892 C688.070611,339.077938 687.794847,339.791367 687.794847,340.52518 C687.794847,340.994005 687.975986,341.378747 688.338263,341.679406 C688.700541,341.980066 689.130407,342.130396 689.627863,342.130396 C690.179389,342.130396 690.538963,342.036121 690.706584,341.847572 L690.835954,341.692052 C691.007447,341.475821 691.250901,341.137823 691.566317,340.678058 C691.971851,340.08693 692.458492,339.643585 693.02624,339.348022 C693.593989,339.052458 694.440204,338.904676 695.564885,338.904676 C696.87341,338.904676 697.735846,339.16202 698.152195,339.676709 C698.568543,340.191397 698.803753,340.999101 698.857824,342.09982 C697.927799,342.354616 697.065363,342.571193 696.270515,342.74955 L695.644472,342.886663 C695.425821,342.933481 695.197201,342.981415 694.958612,343.030463 L691.314885,343.750899 L691.314885,343.750899 C689.973919,344.026079 688.919529,344.566247 688.151718,345.371403 C687.383906,346.176559 687,347.14988 687,348.291367 C687,349.13729 687.232506,349.922062 687.697519,350.645683 C688.162532,351.369305 688.824905,351.942596 689.684637,352.365558 C690.54437,352.788519 691.541985,353 692.677481,353 C693.92112,353 695.043098,352.803807 696.043416,352.411421 C697.043734,352.019035 698.079198,351.430456 699.149809,350.645683 C699.647265,351.410072 700.117684,351.993555 700.561069,352.396133 C701.004453,352.798711 701.453244,353 701.907443,353 Z M694.603939,350 C693.827863,350 693.199854,349.804054 692.719912,349.412162 C692.239971,349.02027 692,348.545045 692,347.986486 C692,347.445946 692.20423,347.024775 692.612691,346.722973 C693.021152,346.421171 693.450036,346.218468 693.899344,346.114865 L694.468636,345.991742 C694.755835,345.932307 695.105527,345.862706 695.517711,345.782939 L696.327133,345.628378 C697.496353,345.407658 698.387309,345.198198 699,345 L699,345.527027 C699,346.806306 698.811087,347.725225 698.43326,348.283784 C698.106492,348.788288 697.593363,349.20045 696.893873,349.52027 C696.194384,349.84009 695.431072,350 694.603939,350 Z M715.718838,354 C716.812871,354 717.813964,353.781003 718.722118,353.343008 C719.630272,352.905013 720.402999,352.28496 721.0403,351.48285 C721.677601,350.680739 722.163543,349.733509 722.498126,348.641161 C722.832709,347.548813 723,346.348285 723,345.039578 C723,343.266491 722.699938,341.733509 722.099813,340.440633 C721.499688,339.147757 720.655264,338.16095 719.566542,337.480211 C718.477819,336.799472 717.211184,336.459103 715.766635,336.459103 C714.513277,336.459103 713.461731,336.683377 712.611996,337.131926 C711.762262,337.580475 710.92846,338.226913 710.11059,339.07124 L710.11059,332.469657 C710.11059,331.6781 709.930022,331.068602 709.568885,330.641161 C709.207748,330.21372 708.692596,330 708.02343,330 C707.386129,330 706.889566,330.224274 706.533739,330.672823 C706.177913,331.121372 706,331.783641 706,332.659631 L706,351.530343 C706,352.343008 706.183224,352.957784 706.549672,353.37467 C706.91612,353.791557 707.407373,354 708.02343,354 C708.628866,354 709.128085,353.791557 709.521087,353.37467 C709.914089,352.957784 710.11059,352.343008 710.11059,351.530343 L710.11059,351.102902 L710.451646,351.488786 C710.775275,351.848945 711.046626,352.131926 711.265698,352.337731 C711.557794,352.612137 711.910965,352.878628 712.325211,353.137203 C712.739456,353.395778 713.241331,353.604222 713.830834,353.762533 C714.420337,353.920844 715.049672,354 715.718838,354 Z M715.137931,351 C713.90166,351 712.902937,350.496403 712.141762,349.489209 C711.380587,348.482014 711,347.040288 711,345.164029 C711,343.886331 711.178799,342.784173 711.536398,341.857554 C711.893997,340.930935 712.384419,340.223022 713.007663,339.733813 C713.630907,339.244604 714.340996,339 715.137931,339 C715.914432,339 716.59387,339.244604 717.176245,339.733813 C717.758621,340.223022 718.208174,340.916547 718.524904,341.814388 C718.841635,342.71223 719,343.782734 719,345.025899 C719,346.948201 718.619413,348.42446 717.858238,349.454676 C717.097063,350.484892 716.190294,351 715.137931,351 Z M738.831148,346 C739.568852,346 740.114754,345.814661 740.468852,345.443983 C740.822951,345.073306 741,344.594744 741,344.008299 C741,343.410788 740.820492,342.926694 740.461475,342.556017 C740.102459,342.185339 739.559016,342 738.831148,342 L734.168852,342 C733.440984,342 732.897541,342.185339 732.538525,342.556017 C732.179508,342.926694 732,343.410788 732,344.008299 C732,344.594744 732.184426,345.073306 732.553279,345.443983 C732.922131,345.814661 733.460656,346 734.168852,346 L738.831148,346 Z M757.75,354 C758.979167,354 760.101562,353.799733 761.117188,353.399199 C762.132812,352.998665 763.010417,352.443258 763.75,351.732977 C764.489583,351.022697 765.049479,350.213618 765.429688,349.305741 C765.809896,348.397864 766,347.457944 766,346.485981 C766,345.674232 765.859375,344.918558 765.578125,344.218959 C765.296875,343.519359 764.877604,342.881175 764.320312,342.304406 C763.763021,341.727637 763.078125,341.214953 762.265625,340.766355 C763.109375,340.040053 763.757812,339.29506 764.210938,338.531375 C764.664062,337.76769 764.890625,336.851802 764.890625,335.783712 C764.890625,334.971963 764.734375,334.213618 764.421875,333.508678 C764.109375,332.803738 763.645833,332.184246 763.03125,331.6502 C762.416667,331.116155 761.692708,330.70761 760.859375,330.424566 C760.026042,330.141522 759.104167,330 758.09375,330 C756.9375,330 755.890625,330.168224 754.953125,330.504673 C754.015625,330.841121 753.231771,331.287049 752.601562,331.842457 C751.971354,332.397864 751.492188,332.982644 751.164062,333.596796 C750.835938,334.210948 750.671875,334.795728 750.671875,335.351135 C750.671875,335.927904 750.846354,336.389853 751.195312,336.736983 C751.544271,337.084112 751.927083,337.257677 752.34375,337.257677 C752.697917,337.257677 753.010417,337.193591 753.28125,337.065421 C753.552083,336.93725 753.739583,336.761015 753.84375,336.536716 C754.020833,336.12016 754.216146,335.676903 754.429688,335.206943 C754.643229,334.736983 754.869792,334.35247 755.109375,334.053405 C755.348958,333.754339 755.674479,333.514019 756.085938,333.332443 C756.497396,333.150868 757.020833,333.06008 757.65625,333.06008 C758.59375,333.06008 759.338542,333.356475 759.890625,333.949266 C760.442708,334.542056 760.71875,335.249666 760.71875,336.072096 C760.71875,337.150868 760.372396,337.978638 759.679688,338.555407 C758.986979,339.132176 758.161458,339.420561 757.203125,339.420561 L756.5625,339.420561 C755.822917,339.420561 755.265625,339.578104 754.890625,339.893191 C754.515625,340.208278 754.328125,340.622163 754.328125,341.134846 C754.328125,341.658211 754.484375,342.066756 754.796875,342.360481 C755.109375,342.654206 755.552083,342.801068 756.125,342.801068 L756.331543,342.792056 C756.452637,342.784045 756.612793,342.770694 756.812012,342.752003 L756.96875,342.736983 C757.40625,342.694259 757.729167,342.672897 757.9375,342.672897 C759.125,342.672897 760.052083,343.028037 760.71875,343.738318 C761.385417,344.448598 761.71875,345.428571 761.71875,346.678238 C761.71875,347.522029 761.523438,348.264352 761.132812,348.905207 C760.742188,349.546061 760.247396,350.029372 759.648438,350.35514 C759.049479,350.680908 758.427083,350.843792 757.78125,350.843792 C756.65625,350.843792 755.783854,350.483311 755.164062,349.76235 C754.544271,349.041389 753.963542,347.938585 753.421875,346.453939 C753.338542,346.208278 753.161458,345.99733 752.890625,345.821095 C752.619792,345.64486 752.338542,345.556742 752.046875,345.556742 C751.463542,345.556742 750.976562,345.746328 750.585938,346.125501 C750.195312,346.504673 750,347.004005 750,347.623498 C750,348.104139 750.164062,348.712951 750.492188,349.449933 C750.820312,350.186916 751.304688,350.899866 751.945312,351.588785 C752.585938,352.277704 753.401042,352.851802 754.390625,353.311081 C755.380208,353.77036 756.5,354 757.75,354 Z M777.718838,354 C778.812871,354 779.813964,353.781003 780.722118,353.343008 C781.630272,352.905013 782.402999,352.28496 783.0403,351.48285 C783.677601,350.680739 784.163543,349.733509 784.498126,348.641161 C784.832709,347.548813 785,346.348285 785,345.039578 C785,343.266491 784.699938,341.733509 784.099813,340.440633 C783.499688,339.147757 782.655264,338.16095 781.566542,337.480211 C780.477819,336.799472 779.211184,336.459103 777.766635,336.459103 C776.513277,336.459103 775.461731,336.683377 774.611996,337.131926 C773.762262,337.580475 772.92846,338.226913 772.11059,339.07124 L772.11059,332.469657 C772.11059,331.6781 771.930022,331.068602 771.568885,330.641161 C771.207748,330.21372 770.692596,330 770.02343,330 C769.386129,330 768.889566,330.224274 768.533739,330.672823 C768.177913,331.121372 768,331.783641 768,332.659631 L768,351.530343 C768,352.343008 768.183224,352.957784 768.549672,353.37467 C768.91612,353.791557 769.407373,354 770.02343,354 C770.628866,354 771.128085,353.791557 771.521087,353.37467 C771.914089,352.957784 772.11059,352.343008 772.11059,351.530343 L772.11059,351.102902 L772.451646,351.488786 C772.775275,351.848945 773.046626,352.131926 773.265698,352.337731 C773.557794,352.612137 773.910965,352.878628 774.325211,353.137203 C774.739456,353.395778 775.241331,353.604222 775.830834,353.762533 C776.420337,353.920844 777.049672,354 777.718838,354 Z M776.137931,351 C774.90166,351 773.902937,350.496403 773.141762,349.489209 C772.380587,348.482014 772,347.040288 772,345.164029 C772,343.886331 772.178799,342.784173 772.536398,341.857554 C772.893997,340.930935 773.384419,340.223022 774.007663,339.733813 C774.630907,339.244604 775.340996,339 776.137931,339 C776.914432,339 777.59387,339.244604 778.176245,339.733813 C778.758621,340.223022 779.208174,340.916547 779.524904,341.814388 C779.841635,342.71223 780,343.782734 780,345.025899 C780,346.948201 779.619413,348.42446 778.858238,349.454676 C778.097063,350.484892 777.190294,351 776.137931,351 Z" fill="#E9525B"></path>
            <path d="M858.843264,383.398886 L853.843264,383.398886 C852.738695,383.398886 851.843264,384.294316 851.843264,385.398886 C851.843264,386.503455 852.738695,387.398886 853.843264,387.398886 L858.843264,387.398886 C859.947834,387.398886 860.843264,386.503455 860.843264,385.398886 C860.843264,384.294316 859.947834,383.398886 858.843264,383.398886 Z M840.843264,383.398886 L835.843264,383.398886 C834.738695,383.398886 833.843264,384.294316 833.843264,385.398886 C833.843264,386.503455 834.738695,387.398886 835.843264,387.398886 L840.843264,387.398886 C841.947834,387.398886 842.843264,386.503455 842.843264,385.398886 C842.843264,384.294316 841.947834,383.398886 840.843264,383.398886 Z M822.843264,383.398886 L817.843264,383.398886 C816.738695,383.398886 815.843264,384.294316 815.843264,385.398886 C815.843264,386.503455 816.738695,387.398886 817.843264,387.398886 L822.843264,387.398886 C823.947834,387.398886 824.843264,386.503455 824.843264,385.398886 C824.843264,384.294316 823.947834,383.398886 822.843264,383.398886 Z M804.843264,383.398886 L799.843264,383.398886 C798.738695,383.398886 797.843264,384.294316 797.843264,385.398886 C797.843264,386.503455 798.738695,387.398886 799.843264,387.398886 L804.843264,387.398886 C805.947834,387.398886 806.843264,386.503455 806.843264,385.398886 C806.843264,384.294316 805.947834,383.398886 804.843264,383.398886 Z M786.843264,383.398886 L781.843264,383.398886 C780.738695,383.398886 779.843264,384.294316 779.843264,385.398886 C779.843264,386.503455 780.738695,387.398886 781.843264,387.398886 L786.843264,387.398886 C787.947834,387.398886 788.843264,386.503455 788.843264,385.398886 C788.843264,384.294316 787.947834,383.398886 786.843264,383.398886 Z M768.843264,383.398886 L763.843264,383.398886 C762.738695,383.398886 761.843264,384.294316 761.843264,385.398886 C761.843264,386.503455 762.738695,387.398886 763.843264,387.398886 L768.843264,387.398886 C769.947834,387.398886 770.843264,386.503455 770.843264,385.398886 C770.843264,384.294316 769.947834,383.398886 768.843264,383.398886 Z M750.843264,383.398886 L745.843264,383.398886 C744.738695,383.398886 743.843264,384.294316 743.843264,385.398886 C743.843264,386.503455 744.738695,387.398886 745.843264,387.398886 L750.843264,387.398886 C751.947834,387.398886 752.843264,386.503455 752.843264,385.398886 C752.843264,384.294316 751.947834,383.398886 750.843264,383.398886 Z M739,393.555622 L739,398.555622 C739,399.660191 739.895431,400.555622 741,400.555622 C742.104569,400.555622 743,399.660191 743,398.555622 L743,393.555622 C743,392.451052 742.104569,391.555622 741,391.555622 C739.895431,391.555622 739,392.451052 739,393.555622 Z M739,411.555622 L739,416.555622 C739,417.660191 739.895431,418.555622 741,418.555622 C742.104569,418.555622 743,417.660191 743,416.555622 L743,411.555622 C743,410.451052 742.104569,409.555622 741,409.555622 C739.895431,409.555622 739,410.451052 739,411.555622 Z M739,429.555622 L739,434.555622 C739,435.660191 739.895431,436.555622 741,436.555622 C742.104569,436.555622 743,435.660191 743,434.555622 L743,429.555622 C743,428.451052 742.104569,427.555622 741,427.555622 C739.895431,427.555622 739,428.451052 739,429.555622 Z M739,447.555622 L739,452.555622 C739,453.660191 739.895431,454.555622 741,454.555622 C742.104569,454.555622 743,453.660191 743,452.555622 L743,447.555622 C743,446.451052 742.104569,445.555622 741,445.555622 C739.895431,445.555622 739,446.451052 739,447.555622 Z M739,465.555622 L739,470.555622 C739,471.660191 739.895431,472.555622 741,472.555622 C742.104569,472.555622 743,471.660191 743,470.555622 L743,465.555622 C743,464.451052 742.104569,463.555622 741,463.555622 C739.895431,463.555622 739,464.451052 739,465.555622 Z M739,483.555622 L739,488.555622 C739,489.660191 739.895431,490.555622 741,490.555622 C742.104569,490.555622 743,489.660191 743,488.555622 L743,483.555622 C743,482.451052 742.104569,481.555622 741,481.555622 C739.895431,481.555622 739,482.451052 739,483.555622 Z M739,501.555622 L739,506.555622 C739,507.660191 739.895431,508.555622 741,508.555622 C742.104569,508.555622 743,507.660191 743,506.555622 L743,501.555622 C743,500.451052 742.104569,499.555622 741,499.555622 C739.895431,499.555622 739,500.451052 739,501.555622 Z M739,519.555622 L739,524.555622 C739,525.660191 739.895431,526.555622 741,526.555622 C742.104569,526.555622 743,525.660191 743,524.555622 L743,519.555622 C743,518.451052 742.104569,517.555622 741,517.555622 C739.895431,517.555622 739,518.451052 739,519.555622 Z M739,537.555622 L739,542.555622 C739,543.660191 739.895431,544.555622 741,544.555622 C742.104569,544.555622 743,543.660191 743,542.555622 L743,537.555622 C743,536.451052 742.104569,535.555622 741,535.555622 C739.895431,535.555622 739,536.451052 739,537.555622 Z M739,555.555622 L739,560.555622 C739,561.660191 739.895431,562.555622 741,562.555622 C742.104569,562.555622 743,561.660191 743,560.555622 L743,555.555622 C743,554.451052 742.104569,553.555622 741,553.555622 C739.895431,553.555622 739,554.451052 739,555.555622 Z M739,573.555622 L739,578 C739,579.104569 739.895431,580 741,580 L741.555622,580 C742.660191,580 743.555622,579.104569 743.555622,578 C743.555622,576.895431 742.660191,576 741.555622,576 L741,576 L741,578 L743,578 L743,573.555622 C743,572.451052 742.104569,571.555622 741,571.555622 C739.895431,571.555622 739,572.451052 739,573.555622 Z M754.555622,580 L759.555622,580 C760.660191,580 761.555622,579.104569 761.555622,578 C761.555622,576.895431 760.660191,576 759.555622,576 L754.555622,576 C753.451052,576 752.555622,576.895431 752.555622,578 C752.555622,579.104569 753.451052,580 754.555622,580 Z M772.555622,580 L777.555622,580 C778.660191,580 779.555622,579.104569 779.555622,578 C779.555622,576.895431 778.660191,576 777.555622,576 L772.555622,576 C771.451052,576 770.555622,576.895431 770.555622,578 C770.555622,579.104569 771.451052,580 772.555622,580 Z M790.555622,580 L795.555622,580 C796.660191,580 797.555622,579.104569 797.555622,578 C797.555622,576.895431 796.660191,576 795.555622,576 L790.555622,576 C789.451052,576 788.555622,576.895431 788.555622,578 C788.555622,579.104569 789.451052,580 790.555622,580 Z M808.555622,580 L813.555622,580 C814.660191,580 815.555622,579.104569 815.555622,578 C815.555622,576.895431 814.660191,576 813.555622,576 L808.555622,576 C807.451052,576 806.555622,576.895431 806.555622,578 C806.555622,579.104569 807.451052,580 808.555622,580 Z M826.555622,580 L831.555622,580 C832.660191,580 833.555622,579.104569 833.555622,578 C833.555622,576.895431 832.660191,576 831.555622,576 L826.555622,576 C825.451052,576 824.555622,576.895431 824.555622,578 C824.555622,579.104569 825.451052,580 826.555622,580 Z M844.555622,580 L849.555622,580 C850.660191,580 851.555622,579.104569 851.555622,578 C851.555622,576.895431 850.660191,576 849.555622,576 L844.555622,576 C843.451052,576 842.555622,576.895431 842.555622,578 C842.555622,579.104569 843.451052,580 844.555622,580 Z" fill="#E9525B" fill-rule="nonzero"></path>
        </g>
    </g>
</svg>