<?xml version="1.0" encoding="UTF-8"?>
<svg width="1600px" height="1200px" viewBox="0 0 1600 1200" version="1.1" xmlns="http://www.w3.org/2000/svg" xmlns:xlink="http://www.w3.org/1999/xlink">
    <title>Future Education</title>
    <g id="Future-Education" stroke="none" stroke-width="1" fill="none" fill-rule="evenodd">
        <g transform="translate(241.000000, 92.000000)" id="Shape">
            <path d="M697.143449,37.646624 L659.636408,15.9919235 L622.129366,37.646624 L622.129366,80.9560251 L659.636408,102.610726 L697.143449,80.9560251 L697.143449,37.646624 Z M659.636,20.6097524 L693.143,39.9557524 L693.143,78.6457524 L659.636,97.9917524 L626.129,78.6457524 L626.129,39.9557524 L659.636,20.6097524 Z" fill="#F0DECF" fill-rule="nonzero"></path>
            <path d="M730.382006,11.4090756 C732.531636,10.1617924 735.285378,10.8932888 736.532661,13.0429185 C737.742148,15.127408 737.090964,17.7799516 735.090317,19.0760929 L734.898818,19.1935736 L655.793957,65.0927167 C654.094541,66.0787713 651.961062,65.8449732 650.517062,64.5380063 L650.35357,64.3824482 L615.762,29.7907524 L515.037392,80.938055 C512.888577,82.0291777 510.276563,81.2307957 509.094236,79.16085 L508.98764,78.9630862 C507.896517,76.8142712 508.694899,74.2022577 510.764845,73.0199311 L510.962608,72.9133343 L614.599016,20.2889642 C616.268447,19.4412625 618.280024,19.7184765 619.656342,20.9651053 L619.818388,21.119344 L654.27,55.5707524 L730.382006,11.4090756 Z" fill="#E9525B" fill-rule="nonzero"></path>
            <path d="M708.813356,3.7193356 C709.23259,1.3417405 711.447067,-0.268396991 713.81694,0.0371562057 L714.026408,0.0691175116 L740.616217,4.75761831 C742.993812,5.17685247 744.60395,7.39132931 744.298396,9.76120203 L744.266435,9.97067 L739.577934,36.5604793 C739.14637,39.0080037 736.812407,40.642262 734.364883,40.2106974 C731.987287,39.7914633 730.37715,37.5769864 730.682703,35.2071137 L730.714664,34.9976457 L734.621,12.8397524 L712.463574,8.93238729 C710.085979,8.51315312 708.475841,6.29867629 708.781395,3.92880357 L708.813356,3.7193356 Z" fill="#E9525B" fill-rule="nonzero"></path>
            <path d="M350.5,252.500752 C156.924195,252.500752 0,409.424948 0,603.000752 C0,796.576557 156.924195,953.500752 350.5,953.500752 C544.075805,953.500752 701,796.576557 701,603.000752 C701,409.424948 544.075805,252.500752 350.5,252.500752 Z M350.5,256.500752 C541.866666,256.500752 697,411.634087 697,603.000752 C697,794.367418 541.866666,949.500752 350.5,949.500752 C159.133334,949.500752 4,794.367418 4,603.000752 C4,411.634087 159.133334,256.500752 350.5,256.500752 Z" fill="#F0DECF" fill-rule="nonzero"></path>
            <polygon fill="#F0DECF" fill-rule="nonzero" points="1049 623.500752 1049 946.500752 526 946.500752 526 625.500752 530 625.500752 530 942.500752 1045 942.500752 1045 627.500752 926.388359 627.500752 926.388359 623.500752"></polygon>
            <polygon fill="#6F97F8" fill-rule="nonzero" points="613.477163 230.144485 946.89608 336.697868 823.785117 554.71251 495.45656 449.303685"></polygon>
            <polygon fill="#4757A4" fill-rule="nonzero" points="620.541326 247.643392 516.515019 440.815911 816.960995 537.273318 925.48152 345.095318"></polygon>
            <path d="M591.459654,352.21001 C591.900973,350.960152 593.234756,350.280926 594.492622,350.635307 L594.649389,350.685021 L855.723891,442.869195 C857.025826,443.328902 857.708586,444.756995 857.248879,446.05893 C856.80756,447.308788 855.473777,447.988014 854.215912,447.633633 L854.059144,447.583918 L592.984643,355.399745 C591.682708,354.940038 590.999947,353.511945 591.459654,352.21001 Z" fill="#FFFFFF" fill-rule="nonzero"></path>
            <path d="M798.262924,315.940603 C798.848429,314.690183 800.336739,314.151163 801.587159,314.736667 C802.785478,315.297775 803.330446,316.688023 802.858456,317.903443 L802.791095,318.060902 L723.884849,486.575347 C723.299345,487.825767 721.811034,488.364788 720.560614,487.779283 C719.362295,487.218175 718.817327,485.827927 719.289317,484.612507 L719.356678,484.455048 L798.262924,315.940603 Z" fill="#FFFFFF" fill-rule="nonzero"></path>
            <path d="M843.432416,336.383441 C844.04949,335.148295 845.55101,334.647249 846.786156,335.264323 C847.969838,335.855686 848.47932,337.259327 847.976613,338.462366 L847.905274,338.618064 L767.05408,500.451193 C766.437006,501.686338 764.935485,502.187384 763.70034,501.570311 C762.516658,500.978948 762.007176,499.575307 762.509883,498.372267 L762.581222,498.21657 L843.432416,336.383441 Z" fill="#FFFFFF" fill-rule="nonzero"></path>
            <path d="M881.140379,351.932682 C881.753249,350.695446 883.253058,350.189297 884.490295,350.802168 C885.67598,351.389502 886.190232,352.791403 885.691618,353.996144 L885.620809,354.152083 L806.991064,512.886405 C806.378193,514.123642 804.878385,514.629791 803.641148,514.01692 C802.455463,513.429586 801.941211,512.027685 802.439825,510.822943 L802.510633,510.667004 L881.140379,351.932682 Z" fill="#FFFFFF" fill-rule="nonzero"></path>
            <path d="M674.323602,333.986416 C674.553305,334.070021 674.781295,334.164652 675.006291,334.267513 C676.873606,335.121369 678.359257,336.554981 679.204225,338.265163 L679.40197,338.698295 C679.572413,339.102833 679.70616,339.519645 679.803211,339.948729 C680.801868,344.370978 678.102757,348.605332 674.988685,350.836345 C674.010428,351.538085 672.974074,352.102181 671.912574,352.570917 L683.377436,356.142659 C684.462931,356.537747 685.038236,357.721059 684.686399,358.839522 C684.325896,359.99444 683.108738,360.644176 681.967933,360.287205 L663.714944,354.601269 C662.832725,354.280167 662.257752,353.418509 662.298159,352.466288 C662.343165,351.476132 663.03662,350.633454 663.993816,350.413338 L665.49979,350.058398 C668.011577,349.448332 670.501132,348.708284 672.497709,347.275895 C674.365854,345.93811 676.127611,343.387311 675.578794,340.948479 C675.326374,339.826769 674.433861,338.819247 673.193979,338.253799 C673.071692,338.197641 672.949191,338.148394 672.827226,338.104002 C671.995826,337.801398 671.136405,337.740228 670.378308,337.925633 L669.994596,339.277139 C669.666083,340.439041 668.465081,341.120286 667.315076,340.794916 L667.086818,340.714458 L666.999463,340.675383 C666.038926,340.227918 665.531453,339.155503 665.83194,338.102228 L666.510362,335.706994 C666.67264,335.134643 667.058307,334.650589 667.580283,334.367593 C669.573931,333.292173 672.042844,333.156288 674.323602,333.986416 Z M632.336872,291.035874 C632.609653,291.135158 632.867244,291.289132 633.093581,291.49658 L633.396462,291.914859 L633.483485,291.902528 C633.718361,291.911585 633.944003,291.95897 634.154315,292.035518 C635.035125,292.356106 635.648914,293.209483 635.615001,294.183793 L634.741006,318.075745 C635.582617,318.653048 635.966671,319.710004 635.566387,320.673718 C635.373613,321.13857 635.019335,321.470525 634.609901,321.701341 L634.411624,327.085876 L634.385101,327.358785 L634.325782,327.619757 C634.04793,328.551602 633.155519,329.208812 632.121859,329.159159 C631.88981,329.148815 631.66625,329.102187 631.458021,329.026398 C630.852073,328.805851 630.371896,328.336938 630.141955,327.750655 C630.035233,327.480203 629.982217,327.185292 629.992425,326.878652 L630.213964,320.814706 L614.511774,314.314423 L610.070273,318.99529 C609.452161,319.650428 608.511994,319.836304 607.701982,319.541483 C607.429201,319.442199 607.170866,319.290271 606.945273,319.080777 C606.048997,318.251968 605.994525,316.872599 606.824526,315.998122 L629.968581,291.582068 C630.588776,290.927687 631.52686,290.741053 632.336872,291.035874 Z M713.550291,316.33843 C714.447722,316.800534 714.887966,317.94874 714.56154,318.955702 L709.957733,333.120266 C712.518634,331.868548 715.540508,331.461941 718.209362,332.433325 C719.048323,332.738682 719.849651,333.179821 720.593349,333.772822 C721.985795,334.881249 722.94922,336.428185 723.393787,338.206427 L723.502102,338.696981 C723.637665,339.393291 723.69334,340.121249 723.666634,340.868272 C723.550649,344.173008 721.868366,347.311722 719.279139,349.062297 C718.406315,349.653173 717.450519,350.115754 716.440488,350.448821 L715.591917,350.122677 C715.876646,350.236118 716.159489,350.344794 716.440488,350.448821 C713.495027,351.422769 710.072981,351.303017 706.785836,350.106594 C705.996837,349.819422 705.216367,349.469957 704.453502,349.059166 C703.888393,349.5495 703.082738,349.742075 702.313127,349.492323 L702.23535,349.46635 C701.452597,349.181451 700.922494,348.500364 700.801293,347.732206 C700.748408,347.404655 700.77149,347.062712 700.877022,346.727423 L710.348248,317.583347 C710.483807,317.165561 710.736016,316.815925 711.055972,316.558679 C711.891462,316.491408 712.722208,316.417739 713.550291,316.33843 Z M738.093146,346.337225 C738.55003,344.346547 737.887817,341.797695 736.191845,340.945069 L735.898896,340.818832 C734.267234,340.224955 732.251701,341.253433 731.098232,342.584068 C729.597088,344.315157 728.835977,346.728835 728.103966,349.062563 C727.747825,350.195873 726.541957,350.83186 725.387984,350.493103 L725.342373,350.476502 C724.218662,350.067504 723.565658,348.952277 723.869472,347.820816 L730.051776,324.868026 C730.365455,323.70301 731.572479,323.018691 732.749918,323.33813 L732.956829,323.401832 C734.012122,323.785927 734.605918,324.928358 734.310642,326.023459 L731.340062,337.049245 C733.193243,336.221692 735.318902,335.980842 737.436784,336.735437 C741.698015,338.316579 743.301856,343.36703 742.390639,347.334922 C742.306423,347.708223 742.203548,348.074733 742.084832,348.433155 C741.412084,350.475041 740.255096,352.273354 739.030004,353.85883 C739.784947,354.384337 740.163527,355.343964 739.892532,356.269142 C739.556047,357.425857 738.335006,358.08418 737.165775,357.742191 L734.677125,357.012836 L734.540871,356.967887 C733.885718,356.729431 733.378313,356.201158 733.177477,355.533738 C732.959553,354.822953 733.122261,354.053373 733.605506,353.493322 C734.413539,352.55699 735.267509,351.565409 736.020965,350.520993 C736.967615,349.210266 737.754538,347.815866 738.093146,346.337225 Z M716.569923,335.528508 C714.42841,334.749061 711.531045,335.803535 709.765178,337.588732 C709.17001,338.191562 708.645348,338.866438 708.176387,339.591892 L707.834879,340.14513 C707.149926,341.31151 706.588512,342.585666 706.095631,343.882351 L707.323581,343.805051 C707.625492,343.786898 707.914652,343.829331 708.179518,343.925735 C708.933051,344.199998 709.493287,344.896739 709.585007,345.75634 C711.92584,346.262868 714.452259,346.061459 716.470999,344.629212 C717.909572,343.609087 718.899457,341.681575 718.995412,339.7186 L719.001821,339.333629 L718.995388,339.117673 L718.995388,339.117673 L718.968153,338.771332 C718.87155,337.91237 718.550628,336.877544 717.655233,336.14337 C717.325579,335.873604 716.960036,335.670498 716.569923,335.528508 Z M654.421154,321.421628 C655.58314,321.844557 656.220435,323.027888 655.84216,324.067188 C655.463886,325.106488 654.215059,325.603327 653.053074,325.180399 L643.167777,321.582445 C642.005791,321.159517 641.368497,319.976186 641.746771,318.936886 C642.125045,317.897586 643.373872,317.400746 644.535857,317.823675 L654.421154,321.421628 Z M630.97341,296.924681 L617.780734,311.687922 L629.786419,316.712029 L630.97341,296.924681 Z M669.812479,318.51019 L669.902276,318.545199 L694.358923,329.183633 C695.469432,329.666883 695.977434,330.953937 695.494951,332.061852 C695.030967,333.125344 693.820622,333.633506 692.742323,333.241037 L692.614175,333.189745 L668.157527,322.551311 C667.049076,322.06881 666.539017,320.781007 667.023557,319.673841 C667.489967,318.59728 668.699197,318.104989 669.812479,318.51019 Z M655.354116,313.247776 C656.384704,313.62288 656.989715,314.730275 656.719254,315.781812 C656.427558,316.91097 655.242969,317.575887 654.069513,317.265578 L645.716121,315.051738 L645.519095,314.98901 C644.465788,314.605638 643.845398,313.508368 644.120912,312.442947 C644.410542,311.313038 645.596475,310.650856 646.769209,310.963148 L655.11847,313.175485 C655.199839,313.196116 655.277699,313.219963 655.354116,313.247776 Z M688.595503,293.421319 C689.755818,293.843639 690.439924,295.016813 690.117224,296.11419 L683.950943,316.999317 C683.616567,318.128776 682.352157,318.740344 681.122601,318.365486 L680.994403,318.323367 C679.845014,317.905023 679.181308,316.730192 679.504733,315.637619 L685.670285,294.754498 C686.004661,293.625039 687.269801,293.011466 688.498627,293.388329 L688.595503,293.421319 Z M712.632052,316.546949 C712.698124,316.570997 712.760993,316.598136 712.821809,316.630913 C712.088131,316.710798 711.352151,316.785589 710.612033,316.854616 C711.051023,316.492948 711.632744,316.324999 712.207922,316.43189 L712.453591,316.494764 C712.515057,316.508623 712.575156,316.52624 712.632052,316.546949 Z" fill="#FFFFFF"></path>
            <path d="M857.51092,526.534791 C856.867945,510.387996 854.393194,494.867814 850.086665,479.974246 C845.780136,465.080678 844.622138,453.004057 846.612671,443.744383 C847.51013,435.922703 849.1692,431.275123 851.589882,429.801645 C855.220906,427.591427 865.679712,441.840382 867.681606,457.761991 C867.681606,457.761991 868.892861,461.627259 871.315371,469.357795 L877.895449,457.761991 L901.805567,416.317886 C911.097045,446.370573 916.15106,467.589359 916.967613,479.974246 C917.569415,489.101938 910.122053,514.902378 910.122053,519.724978 C910.122053,534.362878 908.621455,546.025389 905.620259,554.71251 L857.51092,526.534791 Z" fill="#F6A388"></path>
            <path d="M901.042634,528.605866 L900.82958,529.869629 L900.621651,531.158582 C899.823086,536.230594 899.422415,540.29771 899.422415,543.385676 C899.422415,551.818662 902.849925,559.016018 909.669646,560.599712 C914.520719,561.726241 917.230202,555.608689 918.443253,546.021484 C919.460258,537.983702 919.014285,529.550825 917.103086,525.992355 C915.849687,523.658645 913.591218,522.032343 910.980511,521.583547 C906.297082,520.778438 901.847743,523.922438 901.042634,528.605866 Z M910.302827,525.525722 C911.699885,525.765885 912.908452,526.636162 913.579178,527.884991 C914.956662,530.449734 915.377777,537.942936 914.52848,545.082731 L914.474892,545.519375 C913.584589,552.55578 911.638192,556.950414 910.57446,556.703392 C906.02611,555.647162 903.422415,550.179716 903.422415,543.385676 C903.422415,540.295117 903.871741,536.000501 904.775053,530.527804 L904.985894,529.277174 C905.415644,526.777324 907.796602,525.094887 910.302827,525.525722 Z" fill="#FFFFFF" fill-rule="nonzero"></path>
            <path d="M899.724998,530.984736 C885.989105,531.684317 875.126258,530.346956 867.136457,526.972653 L859.3498,543.562326 L884.922738,548.919785 L901.822675,544.174941 L902.861158,534.294431 C903.034339,532.646656 901.838951,531.170475 900.191177,530.997287 C900.036345,530.981014 899.880482,530.976817 899.724998,530.984736 Z" fill="#2E363A"></path>
            <path d="M516.410904,419.509024 C541.253896,404.989007 553.675391,395.709374 553.675391,391.670125 C553.675391,387.630875 551.373366,384.510544 546.769314,382.309132 L531.441413,382.309132 L556.605127,337.500752 C505.150659,357.203016 477.716755,370.871062 474.303413,378.504888 C470.890072,386.138714 466.122268,391.91553 460,395.835334 L504.461845,439.66783 L516.410904,419.509024 Z" fill="#E49378"></path>
            <polygon fill="#D19C49" points="513.309757 419.584291 520.448088 426.641517 501.075132 494.311447 418 483.767706 418 382.139793 448.963189 368.500752 468.847911 375.751795"></polygon>
            <path d="M514.383671,416.317886 L573.256405,675.295372 L573.301798,680.931001 C574.102103,771.55598 578.125662,838.689978 585.372475,882.332997 L585.809722,884.915519 C587.723343,896.006963 590.700803,910.704927 594.742103,929.00941 C598.085108,944.151072 591.63187,959.771032 578.576548,968.13788 C529.355389,999.682562 465.386796,1015.35473 386.670768,1015.15629 C307.729886,1014.95347 246.40906,994.41766 202.708289,953.546946 L201.389416,952.302216 C190.81659,942.232675 187.164563,926.900206 192.02686,913.164938 L194.553123,906.267272 L194.553123,906.267272 C224.004539,825.282159 236.405684,776.070217 231.756556,758.631445 C224.022706,729.621952 165.411816,560.984387 165.411816,488.651136 C165.411816,440.428969 182.01861,394.152585 215.232197,349.821984 C254.418451,328.822617 297.430414,321.074897 344.268088,326.578825 C391.105761,332.082752 447.810956,361.995772 514.383671,416.317886 Z" fill="#F6BE67"></path>
            <path d="M213.671118,374.067987 C223.881591,342.500481 242.034629,323.682017 268.130231,317.612596 C294.225833,311.543175 308.594172,313.960418 311.235249,324.864327 L291.082091,326.995553 C272.736022,341.301859 262.662868,361.091658 260.862629,386.36495 L224.506889,389.808736 L213.671118,374.067987 Z" fill="#717569"></path>
            <path d="M217.074921,364.729217 L262.460142,374.14424 C261.696223,378.064423 261.163719,382.137993 260.862629,386.36495 L224.506889,389.808736 L213.671118,374.067987 C214.721641,370.820106 215.856242,367.707183 217.074921,364.729217 Z" fill="#626658"></path>
            <path d="M307.762765,738.035234 L461.261652,806.890527 C464.360559,852.46446 456.808224,884.620528 438.604645,903.358732 C413.298107,929.408503 324.401953,961.23517 197.963657,896.828402 L197.963657,896.818283 L199.564425,892.330977 C225.402004,819.612826 236.132715,775.046316 231.756556,758.631445 L231.436704,757.45622 C231.283755,756.904163 231.116552,756.312748 230.93563,755.683128 L230.925431,755.680601 C253.198186,749.551822 278.810631,743.670033 307.762765,738.035234 Z" fill="#D19C49"></path>
            <path d="M516.515019,544.63803 L557.664654,606.71103 L573.256405,675.295372 C572.209973,699.804971 571.993199,724.000972 572.606083,747.883375 C500.877886,625.883986 481.836103,558.264364 515.479399,545.02265 L516.515019,544.63803 Z" fill="#D19C49"></path>
            <path d="M462.517905,533.705407 L462.517905,803.245784 C462.517905,817.282166 458.778158,831.065102 451.683446,843.176463 C437.213017,867.878888 418.837319,883.607365 396.556353,890.361893 C337.575089,908.242205 233.845922,887.949648 146.191263,825.159957 C134.382853,808.848026 128.657702,789.868313 129.015811,768.220818 C129.552973,735.749575 148.339902,458.059242 165.411816,416.317886 C176.793092,388.490315 209.147043,388.490315 262.473668,416.317886 L462.517905,533.705407 Z" fill="#717569"></path>
            <path d="M462.517905,550.448121 L462.517905,803.245784 C462.517905,817.282166 458.778158,831.065102 451.683446,843.176463 C437.213017,867.878888 418.837319,883.607365 396.556353,890.361893 C370.852496,898.154079 336.650161,898.696512 298.983384,891.631288 L309.450431,889.350586 C316.337222,887.865152 322.170975,886.645915 323.322204,886.519546 L323.552869,886.504195 C325.096698,886.355695 337.589411,882.568951 361.031008,875.143961 C370.988989,867.357107 380.045595,858.862815 388.200824,849.661086 C396.19295,840.643392 402.427737,802.757197 406.905188,736.002503 L407.177122,731.87941 L424.205806,550.448121 L462.517905,550.448121 Z" fill="#626658"></path>
            <path d="M574.743028,186.721262 L573.928715,196.028729 C572.065228,217.724153 571.133484,231.674375 571.133484,237.879395 C571.133484,252.068529 580.877809,273.396687 577.629701,280.012145 C575.464295,284.422451 570.080298,286.178834 561.477708,285.281294 L560.880086,288.021187 C551.12586,332.320742 541.712069,354.470519 532.638713,354.470519 C523.380186,354.470519 510.608821,352.438804 494.324617,348.375376 L485.545162,381.22682 L466.608956,375.431798 C385.915501,350.698939 347.296394,338.332509 350.751633,338.332509 C354.466945,338.332509 367.210668,296.210508 388.982803,211.966506 L428.62674,83.7970487 L428.62674,83.7970487 L436.320712,84.4546346 C461.659889,86.6410505 540.995334,93.6601217 542.876754,95.991642 L542.987414,96.1364192 C544.110017,97.6651755 548.652578,105.289509 556.615098,119.00942 L561.733953,127.853257 C572.022989,145.670398 576.565857,166.227554 574.743028,186.721262 Z" fill="#F6A388"></path>
            <path d="M462.156738,258.49652 C460.60569,284.300718 461.964924,302.972029 466.23444,314.510453 C470.503955,326.048876 479.867348,337.337184 494.324617,348.375376 L489.550953,366.507137 L395.819774,331.818088 C382.08642,325.446986 374.435949,315.189328 372.868362,301.045114 C371.300776,286.900899 401.063568,272.718035 462.156738,258.49652 Z" fill="#E49378"></path>
            <path d="M551.127749,307.587902 C541.470687,304.838208 534.835416,299.711193 531.221934,292.206856 C527.391498,290.478695 526.632092,291.922739 528.943717,296.538988 C531.033554,300.712332 539.257388,307.919398 549.656144,310.567177 C550.39187,310.754511 550.882405,309.76142 551.127749,307.587902 Z" fill="#583E40"></path>
            <path d="M474.723745,232.92378 C475.042398,231.866172 476.158078,231.267131 477.215686,231.585784 C486.217685,234.298054 489.444106,240.638492 486.454576,249.686106 C486.108029,250.734905 484.976879,251.304193 483.92808,250.957647 C482.87928,250.611101 482.309992,249.47995 482.656538,248.431151 C484.944904,241.505563 482.893429,237.474083 476.06174,235.41572 C475.004132,235.097067 474.405092,233.981387 474.723745,232.92378 Z" fill="#583E40" fill-rule="nonzero"></path>
            <path d="M537.038445,175.070564 C571.888466,168.880371 589.313476,154.641366 589.313476,132.353548 C589.313476,98.9218219 518.391319,17.8583914 464.391921,58.7847417 C413.347796,54.8000305 375.243383,74.106245 350.078684,116.703385 C312.331634,180.599095 357.350042,242.178575 357.350042,259.643392 L357.350042,281.720228 L357.350042,281.720228 C357.350042,294.698835 366.92112,305.689683 379.776559,307.473484 L407.559386,311.328587 C419.827781,313.03093 431.573224,305.844131 435.663685,294.191651 L435.791624,293.818252 C441.813906,275.802557 450.353239,263.996595 461.409625,258.400368 C457.552495,241.067583 461.43533,229.0031 473.058132,222.20692 C490.492335,212.012649 495.089701,229.679162 495.089701,240.250401 C500.44446,237.198909 503.510221,234.763118 504.286984,232.943028 L504.394213,232.68368 C505.188929,230.705549 506.547758,226.158872 508.4707,219.043652 L513.266618,214.102958 C522.146145,204.955382 529.194649,194.194306 534.032449,182.399399 L537.038445,175.070564 Z" fill="#80424C"></path>
            <path d="M311.676678,331.818088 C311.940871,317.671352 318.153274,310.597984 330.313886,310.597984 C342.474499,310.597984 390.647171,326.076645 474.831901,357.033968 C505.780734,371.38228 518.964657,391.143586 514.383671,416.317886 C472.076528,405.716347 433.175332,393.129197 397.680082,378.556435 C362.184833,363.983673 333.517031,348.404224 311.676678,331.818088 Z" fill="#F6BE67"></path>
            <path d="M310.083914,330.608501 C310.75195,329.728841 312.006606,329.557287 312.886265,330.225323 C334.575117,346.696405 363.094124,362.194993 398.439668,376.706292 C433.843021,391.241325 472.653069,403.798983 514.869811,414.377868 C515.941253,414.646356 516.592176,415.732583 516.323689,416.804025 C516.055202,417.875468 514.968974,418.526391 513.897532,418.257904 C471.499988,407.633712 432.507643,395.017069 396.920496,380.406578 C361.275541,365.772354 332.458946,350.112043 310.467091,333.410853 C309.587431,332.742816 309.415877,331.48816 310.083914,330.608501 Z" fill="#CA8E31" fill-rule="nonzero"></path>
            <path d="M514.383671,416.317886 L517.871612,417.483602 C574.364402,436.492615 607.489188,453.981967 617.24597,469.951659 C627.201871,486.247263 658.301679,550.350735 710.545395,662.262073 L720.297234,652.251829 C796.886791,573.719816 839.272496,532.386481 847.45435,528.251823 C860.238497,521.791419 923.872723,526.145227 934.622124,597.307828 L770.261082,782.37077 C732.99073,824.335464 668.761623,828.137793 626.801356,790.863509 C621.193218,785.881668 616.153856,780.294137 611.775377,774.20304 L608.699023,769.912663 C559.396299,700.978727 531.02944,652.761691 523.598446,625.261556 L523.375296,624.417642 C519.288617,608.610612 511.076579,589.731037 509.300557,564.362454 L509.198214,562.812336 C507.594616,537.023483 509.323102,488.192 514.383671,416.317886 Z" fill="#F6BE67"></path>
            <path d="M395.819774,441.215939 C432.460683,414.176393 465.672944,402.905358 495.45656,407.402835 C525.240175,411.900313 553.368221,423.520744 579.840699,442.26413 C513.476937,432.972694 466.667665,443.268146 439.412883,473.150487 L399.771211,457.407047 L395.819774,441.215939 Z" fill="#717569"></path>
            <path d="M407.289242,433.192959 L453.590752,460.599117 C448.389222,464.306546 443.663266,468.490336 439.412883,473.150487 L399.771211,457.407047 L395.819774,441.215939 C399.681005,438.366503 403.504161,435.692176 407.289242,433.192959 Z" fill="#626658"></path>
            <path d="M431.717927,459.184296 C472.478094,431.137998 516.731147,421.774611 564.354896,431.126523 C565.438766,431.339363 566.144874,432.390554 565.932034,433.474424 C565.719194,434.558293 564.668003,435.264402 563.584133,435.051561 C517.022484,425.908214 473.863616,435.040086 433.985343,462.479569 C433.075378,463.105699 431.830128,462.875605 431.203998,461.96564 C430.577869,461.055675 430.807963,459.810425 431.717927,459.184296 Z" fill="#2E363A" fill-rule="nonzero"></path>
            <path d="M909.186516,625.947145 L770.261082,782.37077 C743.169618,812.874507 701.833962,823.214403 665.160808,812.271193 L720.473694,788.957644 C730.818359,784.597523 740.355021,778.526675 748.68373,770.999699 L909.186516,625.947145 Z" fill="#D19C49"></path>
            <path d="M532.352644,212.382681 C533.133642,215.997892 535.211892,218.02133 538.587392,218.452996 C545.628298,219.353402 567.427145,203.239718 566.492849,196.890964 C565.869985,192.658461 558.83047,194.047034 545.374304,201.056682 L535.635287,205.699731 C533.12406,206.89696 531.765194,209.663395 532.352644,212.382681 Z" fill="#80424C"></path>
            <path d="M556.976245,240.22795 C559.648341,240.181308 561.753055,236.623113 561.677254,232.280498 C561.601454,227.937883 559.373843,224.455309 556.701746,224.50195 C554.02965,224.548592 551.924936,228.106787 552.000737,232.449402 C552.076538,236.792017 554.304148,240.274591 556.976245,240.22795 Z" fill="#583E40"></path>
            <path d="M534.798135,483.522251 C551.061666,469.391554 572.850276,462.116974 589.015676,464.235279 C590.110882,464.378794 590.88238,465.382976 590.738865,466.478183 C590.59535,467.573389 589.591167,468.344887 588.495961,468.201372 C573.51107,466.23776 552.851466,473.135398 537.421633,486.54173 C518.586816,502.906509 508.850025,526.859901 511.828958,556.839269 C516.251975,601.351594 533.166136,651.817947 562.592609,708.221632 C563.103525,709.200938 562.723819,710.409001 561.744514,710.919916 C560.765208,711.430831 559.557146,711.051126 559.04623,710.071821 C529.400169,653.247235 512.327223,602.307122 507.84856,557.234786 C504.740163,525.952523 514.992695,500.730363 534.798135,483.522251 Z" fill="#CA8E31" fill-rule="nonzero"></path>
            <path d="M837.09894,554.003141 C837.490713,552.970384 838.645524,552.450764 839.678281,552.842537 C871.200196,564.800283 895.276479,584.795705 911.843191,612.78673 C912.405786,613.737288 912.09128,614.963941 911.140722,615.526536 C910.190164,616.089131 908.963511,615.774626 908.400916,614.824068 C892.300867,587.621513 868.941722,568.221676 838.259544,556.582482 C837.226787,556.190708 836.707167,555.035898 837.09894,554.003141 Z" fill="#CA8E31" fill-rule="nonzero"></path>
            <path d="M162.501604,363.522948 C165.107139,363.522948 278.109633,383.609116 327.693082,403.607832 C378.580329,424.132415 435.383326,452.087205 466.23444,480.658296 L445.572138,561.326532 C387.254785,527.296212 332.176341,496.549745 281.344747,473.980417 L279.071207,472.973679 C230.765612,451.641571 154.494873,431.978964 152.560889,431.035479 L151.821299,430.925792 L151.871986,430.677686 C143.518455,426.072029 138.02539,413.18364 138.850892,398.004429 C139.886554,378.960833 150.475339,363.522948 162.501604,363.522948 Z" fill="#717569"></path>
            <ellipse fill="#717569" cx="455.139619" cy="520.20196" rx="25.4047267" ry="44.1604938"></ellipse>
            <path d="M162.501604,361.522948 C163.606174,361.522948 164.501604,362.418378 164.501604,363.522948 C164.501604,364.627517 163.606174,365.522948 162.501604,365.522948 C151.763318,365.522948 141.832947,380.000901 140.847941,398.113036 C140.084452,412.151956 144.970254,424.362735 152.565232,428.772098 L152.837628,428.926248 L153.155,429.100752 L153.437795,429.237971 C153.560202,429.297687 155.687975,429.910525 160.901918,431.375198 L170.768326,434.158489 C173.428614,434.914241 175.877515,435.616177 178.635744,436.413589 L179.756767,436.738 C199.582021,442.480608 218.264541,448.266797 235.925013,454.309957 L238.632501,455.241394 C253.874429,460.513421 267.401166,465.680631 278.87401,470.702242 L282.156348,472.152494 L284.870443,473.363097 C329.277059,493.260764 377.54236,519.313042 446.580142,559.599128 C447.534161,560.155833 447.856248,561.380517 447.299543,562.334537 C446.742837,563.288556 445.518153,563.610643 444.564134,563.053937 L436.22728,558.199731 C371.716865,520.7234 325.676596,496.030919 283.239006,477.015274 L280.534973,475.80915 L278.263266,474.803224 L276.258008,473.925548 C264.435609,468.796268 250.431934,463.501718 234.62999,458.09452 C217.770964,452.325604 199.963191,446.787521 181.109048,441.296089 L175.124876,439.569646 C168.422742,437.655316 157.750896,434.642273 153.503188,433.393861 L152.199,433.003752 L149.439102,432.594369 L149.63,431.654752 L149.393076,431.496451 C141.114545,425.835851 136.169991,412.934653 136.827958,398.415058 L136.853843,397.895822 C137.940161,377.920765 149.18736,361.522948 162.501604,361.522948 Z" fill="#2E363A" fill-rule="nonzero"></path>
            <path d="M455.139619,474.041466 C470.571051,474.041466 482.544345,494.854387 482.544345,520.20196 C482.544345,545.549533 470.571051,566.362454 455.139619,566.362454 C451.804976,566.362454 448.561704,565.378496 445.534188,563.497974 C444.595892,562.915157 444.307719,561.682052 444.890536,560.743757 C445.473352,559.805461 446.706457,559.517288 447.644753,560.100104 C450.057029,561.598474 452.575219,562.362454 455.139619,562.362454 C467.769472,562.362454 478.544345,543.632722 478.544345,520.20196 C478.544345,496.771198 467.769472,478.041466 455.139619,478.041466 C442.509765,478.041466 431.734892,496.771198 431.734892,520.20196 C431.734892,525.930109 432.37901,531.496953 433.6124,536.660295 C433.869034,537.734638 433.206149,538.813607 432.131805,539.07024 C431.057462,539.326873 429.978493,538.663989 429.72186,537.589645 C428.415098,532.119152 427.734892,526.24041 427.734892,520.20196 C427.734892,494.854387 439.708186,474.041466 455.139619,474.041466 Z" fill="#2E363A" fill-rule="nonzero"></path>
            <path d="M455.139619,487.955047 C465.284303,487.955047 472.866354,502.537454 472.866354,520.20196 C472.866354,537.866467 465.284303,552.448874 455.139619,552.448874 C452.892264,552.448874 450.718914,551.719339 448.713891,550.341386 C447.803574,549.715769 447.572778,548.470649 448.198394,547.560332 C448.82401,546.650014 450.069131,546.419218 450.979448,547.044834 C452.341916,547.981191 453.735185,548.448874 455.139619,548.448874 C462.366207,548.448874 468.866354,535.947272 468.866354,520.20196 C468.866354,504.456649 462.366207,491.955047 455.139619,491.955047 C447.91303,491.955047 441.412883,504.456649 441.412883,520.20196 C441.412883,524.09112 441.807999,527.869378 442.563988,531.370993 C442.79709,532.450686 442.110793,533.514917 441.0311,533.74802 C439.951407,533.981122 438.887176,533.294825 438.654073,532.215132 C437.837587,528.433298 437.412883,524.372114 437.412883,520.20196 C437.412883,502.537454 444.994935,487.955047 455.139619,487.955047 Z" fill="#2E363A" fill-rule="nonzero"></path>
            <path d="M455.139619,501.263689 C456.422813,501.263689 457.593233,501.835719 458.590032,502.833153 C459.370832,503.61445 459.370429,504.88078 458.589131,505.66158 C457.848955,506.401285 456.673459,506.439855 455.887882,505.777553 L455.760704,505.660679 C455.462315,505.3621 455.260958,505.263689 455.139619,505.263689 C454.624973,505.263689 453.617517,506.456944 452.746017,508.897403 C451.701523,511.822295 451.090874,515.865181 451.090874,520.20196 C451.090874,524.538739 451.701523,528.581626 452.746017,531.506517 C453.617517,533.946976 454.624973,535.140232 455.139619,535.140232 C455.654264,535.140232 456.66172,533.946976 457.533221,531.506517 C458.577714,528.581626 459.188363,524.538739 459.188363,520.20196 C459.188363,518.042297 459.037744,515.945252 458.749938,514.004297 C458.587922,512.911674 459.342329,511.894589 460.434952,511.732574 C461.527575,511.570559 462.54466,512.324965 462.706675,513.417588 C463.023667,515.555365 463.188363,517.848407 463.188363,520.20196 L463.182061,521.020274 C463.026841,531.061267 460.01354,539.140232 455.139619,539.140232 C450.13397,539.140232 447.090874,530.618665 447.090874,520.20196 C447.090874,509.785255 450.13397,501.263689 455.139619,501.263689 Z" fill="#2E363A" fill-rule="nonzero"></path>
            <path d="M246.59999,553.886764 C256.761085,538.888307 264.287022,516.092333 268.656306,485.435654 L268.973542,483.155073 L303.680796,494.156029 C299.556054,524.546923 293.729105,543.507021 283.475138,562.830291 L283.123852,563.489197 C282.145817,565.315225 280.817162,567.563745 279.137888,570.234756 C276.808307,573.940128 272.150772,575.432338 268.101648,573.770615 L250.407318,566.509026 C246.067426,564.727954 243.993072,559.76594 245.774127,555.42604 C245.995783,554.885929 246.272534,554.37011 246.59999,553.886764 Z" fill="#2E363A" fill-rule="nonzero"></path>
            <path d="M266.069636,462.379459 L261.923494,486.21749 C261.317774,489.70142 263.405548,493.089974 266.789732,494.115624 L297.090254,503.298848 C300.790061,504.420154 304.698346,502.329866 305.819652,498.630058 C305.91231,498.324328 305.983931,498.012614 306.034011,497.697102 L310.199454,471.454199 C310.780923,467.790857 308.403885,464.309914 304.780166,463.518177 L274.432995,456.887698 C270.656099,456.062493 266.92536,458.455311 266.100155,462.232207 L266.069636,462.379459 L266.069636,462.379459 Z" fill="#FFFFFF"></path>
            <path d="M327.667104,409.081444 C317.506008,424.079901 309.980072,446.875875 305.610788,477.532554 L305.293551,479.813135 L270.073666,471.018127 L270.073666,471.018127 C274.196202,440.643486 280.519766,419.533068 290.775297,400.169826 L291.143241,399.479012 C292.121276,397.652983 293.449931,395.404463 295.129205,392.733452 C297.458786,389.02808 302.116321,387.53587 306.165445,389.197593 L323.859775,396.459182 C328.199667,398.240254 330.274021,403.202268 328.492967,407.542168 C328.27131,408.082279 327.99456,408.598098 327.667104,409.081444 Z" fill="#2E363A" fill-rule="nonzero"></path>
            <polygon fill="#2E363A" fill-rule="nonzero" points="269.415258 479.040679 268.130231 486.540706 300.724437 495.294295 302.671888 487.29779"></polygon>
            <path d="M288.472697,318.457271 C289.528316,318.132091 290.647675,318.72423 290.972854,319.779849 C291.298033,320.835468 290.705895,321.954827 289.650276,322.280006 C272.423321,327.586703 260.170778,345.960595 253.069768,377.705211 C252.828644,378.783141 251.75934,379.461507 250.68141,379.220383 C249.60348,378.979258 248.925115,377.909954 249.166239,376.832024 C256.547815,343.833155 269.590927,324.273727 288.472697,318.457271 Z" fill="#2E363A" fill-rule="nonzero"></path>
            <path d="M424.198198,562.510597 C425.29733,562.620059 426.099617,563.599818 425.990155,564.69895 L421.748833,607.344112 C408.271585,743.052123 401.402937,814.294402 401.253605,819.857477 L401.251116,820.018585 C401.251116,827.264171 396.740696,841.156489 388.405389,852.962207 C375.845776,870.751022 356.157772,883.17052 328.305625,887.477263 C327.214029,887.646055 326.192282,886.897974 326.02349,885.806378 C325.854697,884.714781 326.602778,883.693034 327.694375,883.524242 C354.462813,879.385072 373.197225,867.567114 385.13776,850.65513 C392.88072,839.688384 397.11951,826.830886 397.248101,820.319144 L397.251116,820.018585 C397.251116,815.233767 405.453401,730.549947 422.009845,564.302554 C422.114331,563.253383 423.011795,562.474684 424.049127,562.499975 L424.198198,562.510597 Z" fill="#2E363A" fill-rule="nonzero"></path>
            <path d="M585.985979,884.149255 L586.418671,886.656856 C588.259594,897.147393 591.008211,910.71471 594.664524,927.358808 L595.116774,929.412238 C598.460562,944.556463 592.004717,960.178972 578.945609,968.544866 C529.769978,1000.04764 465.864594,1015.69897 387.229456,1015.50075 C378.258348,1015.47603 369.514995,1015.19039 360.999397,1014.64193 C438.888105,990.363822 490.165433,968.938342 514.833,950.363652 C543.951297,928.43756 564.602758,875.149979 576.787385,790.50091 L577.021531,794.744996 C579.086325,831.268558 582.074805,861.070756 585.985979,884.149255 Z" fill="#D19C49"></path>
            <polygon fill="#2E363A" points="290 825.500752 335 835.223178 331.103084 853.500752 290 843.908567"></polygon>
            <path d="M440.295156,166.197148 C466.313842,161.660268 488.218207,166.223677 505.865023,179.920827 C506.737592,180.5981 506.89591,181.854494 506.218638,182.727063 C505.541365,183.599631 504.284971,183.75795 503.412403,183.080677 C486.703037,170.111161 465.940735,165.785681 440.982269,170.13769 C439.894118,170.327431 438.858182,169.599126 438.668442,168.510975 C438.478701,167.422825 439.207006,166.386889 440.295156,166.197148 Z" fill="#FFFFFF" fill-rule="nonzero"></path>
            <path d="M439.116578,208.203407 C451.942473,193.155179 472.986422,188.321241 501.991562,193.520012 C503.078806,193.714885 503.802214,194.754246 503.607341,195.84149 C503.412468,196.928733 502.373107,197.652142 501.285863,197.457269 C473.549581,192.485923 453.926863,196.993394 442.160848,210.798098 C441.444344,211.63875 440.18202,211.739392 439.341368,211.022888 C438.500716,210.306384 438.400074,209.044059 439.116578,208.203407 Z" fill="#FFFFFF" fill-rule="nonzero"></path>
            <path d="M565.165802,496.119587 L567.229471,500.670263 C567.68606,501.676046 568.871547,502.121256 569.87733,501.664667 C570.883114,501.208077 571.328324,500.02259 570.871734,499.016807 L568.809368,494.469003 C568.353572,493.46286 567.168436,493.016716 566.162293,493.472512 C565.15615,493.928308 564.710006,495.113444 565.165802,496.119587 Z M572.620806,512.512805 L574.699713,517.060847 C575.159355,518.065239 576.346189,518.506846 577.350581,518.047205 C578.354973,517.587563 578.79658,516.40073 578.336939,515.396338 L576.259487,510.851481 C575.800725,509.846687 574.614278,509.40404 573.609484,509.862802 C572.60469,510.321564 572.162044,511.508011 572.620806,512.512805 Z M580.12824,528.88594 L582.222882,533.428289 C582.685922,534.431119 583.874245,534.868705 584.877074,534.405665 C585.879904,533.942625 586.31749,532.754302 585.85445,531.751473 L583.761448,527.212681 C583.29939,526.209398 582.111497,525.770648 581.108214,526.232706 C580.104931,526.694764 579.666182,527.882657 580.12824,528.88594 Z M587.681451,545.209027 L589.797572,549.753184 C590.264424,550.754246 591.454402,551.187308 592.455463,550.720456 C593.456524,550.253604 593.889586,549.063626 593.422734,548.062565 L591.308483,543.522421 C590.84274,542.520844 589.653242,542.086465 588.651664,542.552208 C587.650087,543.017952 587.215708,544.20745 587.681451,545.209027 Z M595.308549,561.523931 L597.435267,566.040671 C597.906438,567.039706 599.098275,567.467626 600.097311,566.996455 C601.096347,566.525285 601.524266,565.333447 601.053095,564.334412 L598.928519,559.82222 C598.458604,558.822593 597.267306,558.393177 596.267679,558.863091 C595.268052,559.333006 594.838635,560.524304 595.308549,561.523931 Z M603.0081,577.804169 L605.162651,582.322774 C605.638783,583.319454 606.832733,583.741443 607.829414,583.265312 C608.826095,582.78918 609.248083,581.59523 608.771952,580.598549 L606.619905,576.085197 C606.145224,575.087824 604.951889,574.664099 603.954516,575.13878 C602.957144,575.613461 602.533419,576.806796 603.0081,577.804169 Z M610.792405,594.047003 L612.970147,598.548439 C613.452041,599.542346 614.648414,599.957415 615.642322,599.475522 C616.636229,598.993628 617.051298,597.797254 616.569404,596.803347 L614.394629,592.308043 C613.914429,591.313316 612.718764,590.89621 611.724037,591.376411 C610.72931,591.856611 610.312204,593.052276 610.792405,594.047003 Z M618.682624,610.259677 L620.892914,614.751268 C621.381632,615.741837 622.580832,616.148668 623.571402,615.659949 C624.561971,615.17123 624.968802,613.97203 624.480083,612.981461 L622.273389,608.497178 C621.786689,607.505615 620.58832,607.096344 619.596757,607.583045 C618.605195,608.069745 618.195923,609.268114 618.682624,610.259677 Z M626.675821,626.388891 L628.924228,630.866116 C629.421175,631.852584 630.623719,632.249419 631.610187,631.752472 C632.596654,631.255526 632.993489,630.052981 632.496542,629.066514 L630.252607,624.598193 C629.75812,623.61049 628.556568,623.210661 627.568865,623.705148 C626.581163,624.199636 626.181333,625.401188 626.675821,626.388891 Z M634.823088,642.473695 C635.593544,643.975887 636.357473,645.459679 637.114877,646.925073 C637.622046,647.906324 638.828649,648.290643 639.8099,647.783474 C640.791151,647.276304 641.17547,646.069702 640.6683,645.088451 L639.148636,642.140587 C638.893904,641.645184 638.638446,641.147734 638.38226,640.648238 C637.878174,639.6654 636.672784,639.277295 635.689946,639.781381 C634.707107,640.285467 634.319002,641.490857 634.823088,642.473695 Z M643.142068,658.458486 L644.714817,661.42336 C644.9752,661.912593 645.234712,662.39937 645.493353,662.88369 C646.013678,663.858029 647.225342,664.22608 648.199681,663.705755 C649.17402,663.18543 649.54207,661.973766 649.021746,660.999427 L647.464637,658.073779 C647.203371,657.581252 646.941231,657.086266 646.678216,656.58882 C646.161922,655.612339 644.951789,655.239285 643.975309,655.755579 C642.998828,656.271873 642.625774,657.482006 643.142068,658.458486 Z M651.701445,674.341018 L653.328238,677.283695 C653.597194,677.767999 653.865061,678.249231 654.13184,678.727393 C654.670013,679.691988 655.888247,680.037671 656.852842,679.499498 C657.817437,678.961324 658.16312,677.74309 657.624947,676.778495 L656.018718,673.886185 C655.748825,673.39798 655.477838,672.906698 655.205757,672.412341 C654.673168,671.444651 653.456952,671.091934 652.489262,671.624523 C651.521573,672.157113 651.168856,673.373329 651.701445,674.341018 Z M660.575761,690.043582 C661.436549,691.521734 662.28433,692.963137 663.119111,694.367799 C663.683418,695.317342 664.910636,695.629637 665.860179,695.06533 C666.809721,694.501023 667.122017,693.273806 666.55771,692.324263 L665.304878,690.205088 C664.883988,689.489487 664.459818,688.764677 664.03237,688.03066 C663.476516,687.076143 662.25212,686.752963 661.297604,687.308817 C660.343088,687.86467 660.019908,689.089066 660.575761,690.043582 Z M669.954459,705.505472 C670.885421,706.967988 671.79704,708.375658 672.689343,709.728509 C673.297512,710.650574 674.538012,710.905037 675.460077,710.296868 C676.382143,709.688699 676.636606,708.448199 676.028437,707.526134 C675.148246,706.191647 674.248365,704.802103 673.328822,703.357526 C672.735683,702.425721 671.499471,702.151179 670.567667,702.744318 C669.635862,703.337457 669.361319,704.573668 669.954459,705.505472 Z M680.236252,720.473572 C681.326268,721.909737 682.37926,723.239193 683.395539,724.462133 C684.101504,725.311655 685.362475,725.428032 686.211997,724.722068 C687.061519,724.016103 687.177896,722.755132 686.471932,721.90561 C685.494559,720.729488 684.477967,719.445989 683.42247,718.055305 C682.754684,717.175455 681.500077,717.003543 680.620227,717.671329 C679.740378,718.339115 679.568466,719.593722 680.236252,720.473572 Z M693.367687,733.797317 C695.011146,734.745748 696.886409,735.311749 698.973909,735.501977 C700.073921,735.602217 701.046918,734.791743 701.147159,733.691731 C701.247399,732.59172 700.436925,731.618723 699.336913,731.518482 C697.808244,731.379179 696.491469,730.981744 695.36702,730.332831 C694.41033,729.78073 693.187212,730.108716 692.635111,731.065407 C692.08301,732.022098 692.410995,733.245216 693.367687,733.797317 Z M712.533123,732.860937 C714.037203,732.261532 715.604531,731.562763 717.235644,730.764768 C718.227837,730.279354 718.638663,729.081517 718.153249,728.089324 C717.667835,727.097131 716.469997,726.686305 715.477804,727.171719 C713.934899,727.92656 712.459553,728.58432 711.052305,729.145136 C710.026214,729.554053 709.525897,730.717356 709.934813,731.743446 C710.34373,732.769536 711.507033,733.269854 712.533123,732.860937 Z M728.776599,724.158627 C730.147655,723.276846 731.552586,722.343718 732.991458,721.359231 C733.903068,720.7355 734.136441,719.49086 733.51271,718.57925 C732.88898,717.667639 731.64434,717.434266 730.732729,718.057997 C729.324714,719.021371 727.951414,719.933491 726.612896,720.794346 C725.683875,721.391837 725.415116,722.629318 726.012607,723.558339 C726.610097,724.487359 727.847578,724.756118 728.776599,724.158627 Z M743.539329,713.689652 C744.839854,712.69376 746.163108,711.663682 747.509108,710.599411 C748.375552,709.914321 748.522569,708.656554 747.837479,707.79011 C747.152389,706.923666 745.894622,706.776649 745.028178,707.461739 C743.698231,708.513316 742.391305,709.530685 741.107413,710.51384 C740.230437,711.185395 740.06391,712.440728 740.735465,713.317704 C741.40702,714.19468 742.662353,714.361207 743.539329,713.689652 Z M757.635673,702.310209 C758.891092,701.250234 760.163495,700.164787 761.452887,699.053865 C762.289698,698.332879 762.383594,697.070035 761.662608,696.233223 C760.941623,695.396412 759.678779,695.302516 758.841967,696.023502 C757.562584,697.125801 756.300318,698.202601 755.055173,699.2539 C754.211197,699.966486 754.104683,701.228328 754.817269,702.072304 C755.529854,702.916281 756.791696,703.022794 757.635673,702.310209 Z M771.256066,690.411673 C772.480845,689.30896 773.719174,688.18595 774.971056,687.042642 C775.786671,686.297763 775.844015,685.032732 775.099136,684.217116 C774.354257,683.4015 773.089227,683.344157 772.273611,684.089036 C771.028669,685.226005 769.797349,686.342658 768.579655,687.438993 C767.758772,688.178063 767.69245,689.442655 768.43152,690.263538 C769.170591,691.084421 770.435183,691.150743 771.256066,690.411673 Z M784.524789,678.171659 C785.725666,677.039206 786.93779,675.889918 788.161162,674.723794 C788.960694,673.961677 788.991024,672.69571 788.228907,671.896178 C787.46679,671.096647 786.200823,671.066316 785.401291,671.828433 C784.183065,672.989652 782.976129,674.134021 781.780484,675.261539 C780.976877,676.019358 780.939758,677.285144 781.697577,678.088751 C782.455396,678.892358 783.721181,678.929477 784.524789,678.171659 Z M797.552928,665.656755 L799.930471,663.326991 C800.328864,662.935502 800.728325,662.542415 801.128853,662.14773 C801.91562,661.372442 801.924926,660.106146 801.149638,659.319379 C800.37435,658.532612 799.108054,658.523307 798.321287,659.298595 C797.123699,660.47871 795.93575,661.644435 794.757441,662.795768 C793.967401,663.56772 793.952738,664.833965 794.724691,665.624005 C795.496643,666.414045 796.762888,666.428708 797.552928,665.656755 Z M810.372072,652.946319 L812.716809,650.584015 C813.10946,650.187512 813.503043,649.789616 813.897557,649.390328 C814.673893,648.604595 814.666277,647.338288 813.880544,646.561952 C813.094812,645.785615 811.828505,645.793232 811.052168,646.578964 L807.536384,650.125172 C806.757346,650.908225 806.760601,652.174551 807.543654,652.953589 C808.326708,653.732628 809.593034,653.729373 810.372072,652.946319 Z M822.934851,640.167596 L825.253227,637.778174 C825.641276,637.377465 826.030151,636.975521 826.419853,636.57234 C827.187512,635.778129 827.165988,634.511982 826.371776,633.744322 C825.577564,632.976662 824.311417,632.998187 823.543758,633.792398 L821.220797,636.191145 C820.835293,636.588463 820.450617,636.984544 820.066769,637.379388 C819.296826,638.171387 819.314707,639.437591 820.106706,640.207533 C820.898705,640.977476 822.164909,640.959595 822.934851,640.167596 Z M835.429113,627.185734 L837.723568,624.774987 C838.10746,624.370978 838.492093,623.965861 838.877468,623.559635 C839.63768,622.758292 839.604336,621.492401 838.802992,620.732189 C838.001648,619.971977 836.735757,620.005321 835.975546,620.806665 L833.676684,623.22599 C833.295025,623.626993 832.914109,624.026886 832.533936,624.42567 C831.771765,625.225151 831.802011,626.49112 832.601492,627.25329 C833.400973,628.015461 834.666942,627.985215 835.429113,627.185734 Z M847.814702,614.081879 L851.233445,610.427415 C851.987198,609.619993 851.943691,608.354411 851.136268,607.600658 C850.328846,606.846905 849.063264,606.890413 848.309511,607.697835 C847.165792,608.922989 846.028137,610.139085 844.896546,611.346122 C844.141088,612.151949 844.181919,613.41762 844.987746,614.173079 C845.793572,614.928537 847.059244,614.887706 847.814702,614.081879 Z M860.080126,600.901133 L860.538491,600.404922 C861.287883,599.59345 861.237556,598.32812 860.426085,597.578729 C859.614613,596.829338 858.349283,596.879664 857.599892,597.691136 L857.142215,598.186602 C856.392618,598.997883 856.442623,600.263226 857.253905,601.012823 C858.065186,601.76242 859.330529,601.712415 860.080126,600.901133 Z" fill="#D19C49" fill-rule="nonzero"></path>
            <path d="M528.902275,660.483439 L528.882642,665.471801 C528.878055,666.576361 529.769759,667.475503 530.874319,667.480142 C531.978879,667.484677 532.87802,666.592972 532.882607,665.488412 L532.902248,660.498321 C532.906357,659.393759 532.014264,658.495003 530.909703,658.490851 C529.805141,658.486784 528.906385,659.378877 528.902275,660.483439 Z M528.82105,678.484217 L528.79329,683.472684 C528.786926,684.577235 529.677155,685.477837 530.781706,685.484235 C531.886257,685.490633 532.786859,684.600405 532.793257,683.495854 L532.821022,678.505517 C532.826875,677.400963 531.936225,676.500777 530.831671,676.494809 C529.727118,676.489014 528.826932,677.379663 528.82105,678.484217 Z M528.709752,696.486618 L528.673152,701.488537 C528.664787,702.593075 529.553411,703.495261 530.657949,703.503684 C531.762486,703.51199 532.664672,702.623367 532.673037,701.518829 L532.709653,696.514872 C532.717455,695.41033 531.828371,694.508597 530.72383,694.500744 C529.619288,694.492993 528.717555,695.382076 528.709752,696.486618 Z M528.566017,714.465166 L528.519918,719.459571 C528.509415,720.564091 529.396291,721.467995 530.500811,721.478498 C531.605331,721.489 532.509235,720.602124 532.519737,719.497605 L532.565856,714.500979 C532.575746,713.396454 531.688368,712.493042 530.583843,712.483071 C529.479318,712.473264 528.575906,713.360641 528.566017,714.465166 Z M528.386582,732.458776 L528.329888,737.464087 C528.317039,738.568582 529.201992,739.474368 530.306487,739.487218 C531.410982,739.500067 532.316768,738.615114 532.329617,737.510619 L532.386339,732.502864 C532.398514,731.398361 531.513007,730.493116 530.408505,730.480941 C529.304002,730.468767 528.398757,731.354274 528.386582,732.458776 Z M528.167879,750.4689 L528.099718,755.467205 C528.084282,756.571667 528.967113,757.479523 530.071574,757.494958 C531.176036,757.510394 532.083892,756.627563 532.099327,755.523102 L532.167526,750.522101 C532.182217,749.417629 531.298775,748.510369 530.194303,748.495678 C529.089831,748.480986 528.18257,749.364428 528.167879,750.4689 Z M527.90624,768.463212 L527.825224,773.465325 C527.806919,774.569743 528.687388,775.479889 529.791806,775.498193 C530.896224,775.516498 531.80637,774.636029 531.824674,773.531611 L531.905739,768.526496 C531.923215,767.422065 531.042063,766.51258 529.937632,766.495104 C528.833201,766.477629 527.923716,767.358781 527.90624,768.463212 Z M527.59678,786.452101 L527.501579,791.448505 C527.48007,792.552865 528.357894,793.465563 529.462254,793.487072 C530.566614,793.508581 531.479312,792.630757 531.500821,791.526397 L531.596086,786.526631 C531.616667,785.422254 530.738076,784.510294 529.633698,784.489713 C528.52932,784.469132 527.617361,785.347723 527.59678,786.452101 Z M527.233842,804.432363 L527.122647,809.424866 C527.097523,810.52915 527.972356,811.444715 529.076639,811.469838 C530.180923,811.494962 531.096489,810.62013 531.121612,809.515846 L531.232892,804.519541 C531.256966,803.415233 530.381263,802.5005 529.276956,802.476427 C528.172649,802.452353 527.257916,803.328055 527.233842,804.432363 Z M526.809811,822.430463 L526.680069,827.431648 C526.650817,828.53583 527.522221,829.454659 528.626403,829.483911 C529.730585,829.513162 530.649414,828.641759 530.678666,827.537577 L530.808521,822.532031 C530.836568,821.427817 529.964163,820.509939 528.85995,820.481892 C527.755737,820.453844 526.837858,821.326249 526.809811,822.430463 Z M526.316938,840.406368 L526.166343,845.398655 C526.132335,846.502701 526.999773,847.425275 528.103819,847.459282 C529.207865,847.49329 530.130439,846.625852 530.164446,845.521806 L530.315194,840.524469 C530.347807,839.420381 529.479205,838.498903 528.375117,838.466291 C527.271029,838.433678 526.349551,839.30228 526.316938,840.406368 Z M525.743726,858.382274 L525.568537,863.372287 C525.528953,864.476147 526.39172,865.403091 527.49558,865.442675 C528.59944,865.482259 529.526384,864.619492 529.565968,863.515632 L529.741366,858.519667 C529.779306,857.41575 528.91516,856.490091 527.811243,856.452151 C526.707325,856.414211 525.781666,857.278357 525.743726,858.382274 Z M525.075772,876.361178 L524.871077,881.353703 C524.824828,882.457304 525.681982,883.389441 526.785583,883.435689 C527.889183,883.481938 528.82132,882.624784 528.867569,881.521183 L529.072558,876.521491 C529.116828,875.417809 528.258004,874.48721 527.154322,874.442941 C526.05064,874.398672 525.120041,875.257496 525.075772,876.361178 Z M524.294352,894.333838 L524.054046,899.320903 C523.99965,900.424132 524.849896,901.362573 525.953126,901.41697 C527.056355,901.471367 527.994796,900.62112 528.049193,899.517891 L528.210349,896.198963 C528.236986,895.641916 528.263511,895.082922 528.289924,894.521981 C528.341879,893.418634 527.489557,892.482077 526.38621,892.430123 C525.282863,892.378169 524.346306,893.230491 524.294352,894.333838 Z M523.373534,912.291812 L523.184033,915.631207 C523.152188,916.183173 523.120212,916.732841 523.088105,917.280209 C523.023425,918.382883 523.864886,919.329211 524.96756,919.39389 C526.070234,919.45857 527.016561,918.617109 527.081241,917.514435 L527.367318,912.514728 C527.428874,911.411875 526.584737,910.467935 525.481884,910.406378 C524.379031,910.344822 523.43509,911.18896 523.373534,912.291812 Z M522.27511,930.233421 L522.0468,933.570344 C522.008431,934.120911 521.969904,934.668685 521.931217,935.213665 C521.853004,936.315461 522.682782,937.272049 523.784579,937.350262 C524.886376,937.428476 525.842963,936.598697 525.921177,935.4969 L526.152097,932.183376 C526.190263,931.625543 526.228269,931.064921 526.266115,930.50151 C526.340146,929.399424 525.506743,928.445993 524.404657,928.371962 C523.302571,928.297931 522.34914,929.131335 522.27511,930.233421 Z M520.939224,948.15676 L520.728007,950.66652 C520.657147,951.495089 520.585832,952.31564 520.514064,953.128172 C520.416879,954.228458 521.230052,955.199199 522.330338,955.296384 C523.430624,955.393569 524.401366,954.580396 524.498551,953.48011 L524.713445,951.007516 C524.784616,950.175318 524.855326,949.335118 524.925576,948.486916 C525.016746,947.386116 524.198278,946.419833 523.097478,946.328662 C521.996677,946.237492 521.030394,947.05596 520.939224,948.15676 Z M519.264983,966.030447 C519.084752,967.725166 518.902033,969.375702 518.716831,970.982044 C518.590318,972.079344 519.377297,973.071441 520.474597,973.197954 C521.571898,973.324466 522.563994,972.537487 522.690507,971.440187 L522.968446,968.979853 C523.060453,968.148732 523.151822,967.3066 523.242553,966.453457 C523.359364,965.355081 522.563649,964.369978 521.465273,964.253167 C520.366898,964.136356 519.381794,964.932071 519.264983,966.030447 Z" fill="#D19C49" fill-rule="nonzero"></path>
            <ellipse fill="#CB3E47" cx="717" cy="210.000752" rx="78" ry="77.5"></ellipse>
            <path d="M769.034791,259.645159 L771.60866,259.632868 L770.115016,259.952715 C735.362803,267.421479 716.268719,260.955491 745.881981,259.826216 C753.559966,259.533423 761.309984,259.66325 769.034791,259.645159 Z M785.296627,246.724251 C784.139063,248.789596 782.888158,250.796866 781.54953,252.740514 L779.403958,253.077248 C766.482122,255.071146 749.806757,257.062416 744.250506,257.44331 L741.613006,257.629374 C721.005372,259.120871 691.640707,262.05579 663.138364,262.875181 C662.232215,262.757532 661.329906,262.637003 660.431522,262.513627 C657.839176,259.820611 655.442796,256.941344 653.264275,253.899228 C662.092768,253.55083 670.909763,253.173821 679.70878,252.742289 C710.40343,251.236925 740.851081,249.113502 771.482156,247.445904 L784.050259,246.782671 L784.050259,246.782671 L785.296627,246.724251 Z M791.619057,231.995058 C790.927582,234.233221 790.135611,236.428119 789.248332,238.574626 L783.343396,238.817847 C736.005764,240.726597 686.693804,241.748599 662.853952,241.999156 L658.410075,242.036801 C654.061036,242.064284 650.001897,242.060912 646.281147,242.02336 C645.156654,239.650231 644.153271,237.209818 643.276576,234.711001 C656.620047,235.126169 673.947652,237.245832 685.852128,236.804482 L704.339759,236.106182 C741.000536,234.692289 764.355622,233.594001 786.485869,232.298998 L791.619057,231.995058 Z M794.902491,213.384783 C794.827495,214.875017 794.709582,216.3541 794.549947,217.820851 L786.333188,218.059452 C776.748967,218.343015 767.176663,218.659419 757.667984,219.162543 C718.58545,221.230482 680.041479,224.682047 640.935924,226.621425 C640.208064,223.460488 639.678248,220.227006 639.358668,216.932936 C672.102471,216.68702 704.83518,216.355479 737.522077,215.644234 C752.915555,215.309281 768.23265,214.658798 783.53265,213.93327 L794.902491,213.384783 Z M793.216412,193.058318 L793.288269,193.38192 C793.580765,194.73758 793.83712,196.106443 794.056291,197.487479 C777.702385,198.19369 761.114647,198.22714 744.813084,199.099644 C729.002573,199.945866 713.735785,201.95042 697.874413,202.658063 C678.415891,203.52619 658.711034,204.738017 639.162128,204.486192 C639.427558,200.420721 640.011669,196.442387 640.890656,192.574083 L664.333214,192.564902 C707.310469,192.553097 750.281666,192.591805 793.216412,193.058318 Z M794.577033,201.433445 C794.675666,202.368662 794.757341,203.308855 794.821751,204.253719 L794.410301,204.186122 C789.563131,203.365655 788.002581,202.217576 793.915603,201.508187 L794.577033,201.433445 Z M786.65885,174.818937 C787.93825,177.31823 789.083686,179.895733 790.08584,182.542247 C748.344328,181.650021 708.110989,182.086457 665.320565,183.851629 L661.606762,184.007886 C659.246353,184.109132 657.250787,182.27772 657.149541,179.917311 C657.048294,177.556902 658.879707,175.561336 661.240116,175.460089 L661.373411,175.456452 L661.373411,175.456452 L661.506754,175.456971 C670.913415,175.640224 680.322108,175.731843 689.732834,175.731843 L698.33619,175.719998 C720.734513,175.660498 749.089643,175.37684 783.40158,174.869026 L786.65885,174.818937 Z M652.512762,169.097814 L650.572578,169.121635 C652.060688,166.740995 653.676447,164.446373 655.410432,162.247072 L656.783738,162.236074 C824.745884,161.197398 734.178555,167.893608 654.91107,169.064051 L652.512762,169.097814 Z M762.387221,154.500019 C765.931737,154.877485 769.424516,155.298185 772.860822,155.760417 C773.849764,156.761572 774.811089,157.789451 775.743821,158.842636 C772.080702,158.904038 768.409308,158.901398 764.751128,158.845891 L762.45552,158.804154 L722.045564,157.199781 C721.31299,157.184278 720.141057,156.559224 720.866964,156.519979 C733.431145,155.840713 746.024474,155.23918 758.629461,154.66874 L762.387221,154.500019 Z" fill="#EF8389"></path>
            <ellipse fill="#3CB49F" cx="851" cy="117.000752" rx="53" ry="52.5"></ellipse>
            <path d="M853.934683,164.704796 C850.115442,166.096821 846.28427,167.46639 842.44552,168.821695 C840.512746,168.509747 838.615531,168.095641 836.759341,167.583974 L853.179557,164.300349 C853.558086,164.21276 854.297582,164.572527 853.934683,164.704796 Z M897.835867,141.596342 C896.452526,144.175717 894.858384,146.627231 893.076197,148.928341 C890.549816,149.698102 888.015692,150.443172 885.469075,151.153066 C790.687413,177.574338 855.463862,152.809705 897.316773,141.731724 L897.835867,141.596342 Z M882.835169,135.973452 C883.49889,137.902013 882.473534,140.003473 880.544973,140.667194 C880.426785,140.707868 880.306608,140.742517 880.184907,140.771005 C875.299623,141.914533 870.433974,143.135554 865.587954,144.434041 L861.548802,145.525281 L856.322683,146.960211 C845.738468,149.889186 832.923628,153.564633 817.878164,157.986552 C815.822089,156.356007 813.892549,154.575969 812.104925,152.663869 C833.745227,147.685264 854.293267,141.807604 875.844854,134.469437 L878.141427,133.683256 C880.069988,133.019535 882.171448,134.044891 882.835169,135.973452 Z M903.700491,113.35464 L903.873407,113.343537 C903.95734,114.551823 904,115.771353 904,117.000752 C904,117.708957 903.985844,118.413886 903.957796,119.115277 C871.355553,127.829803 838.801393,136.757153 806.072653,144.863582 C805.423756,143.840478 804.811032,142.794798 804.234484,141.72707 L803.246884,142.08797 C812.704304,138.544222 822.66566,135.985548 832.173009,132.529742 C840.078988,129.656014 847.448109,125.892224 855.411052,123.126927 C866.771269,119.181856 878.198327,114.803998 890.00257,112.447227 C894.868028,111.475816 898.953734,113.558621 903.700491,113.35464 Z M803.627702,138.414913 L802.733341,138.718886 C802.249015,137.664416 801.798871,136.591285 801.384309,135.500882 L801.761119,135.43768 C807.690353,134.480079 811.792464,135.568183 803.627702,138.414913 L803.627702,138.414913 Z M896.155765,89.5003539 C897.841567,92.210687 899.285642,95.0842823 900.458221,98.0916521 L889.931696,101.037653 C870.634379,106.442414 851.352115,111.890276 832.214052,117.75125 C821.125715,121.147021 810.258329,125.051795 799.371129,128.914964 C799.070421,127.63319 798.817622,126.333755 798.614117,125.018239 C806.140283,122.591072 813.717172,120.26555 821.114465,117.584977 C842.539945,109.820979 863.263297,100.761543 884.876908,93.3831339 L887.970794,92.3408325 C889.330965,91.8888487 890.760832,91.3950239 892.23882,90.8779777 L896.155765,89.5003539 Z M886.627818,82.0827291 L886.623086,82.1553138 L885.249476,83.5212122 C884.510644,90.2679572 864.268557,89.5967937 853.946665,93.0406406 L846.061974,95.6795334 L838.346971,98.2816454 C820.720219,104.25501 809.612989,108.235199 798.186877,112.569656 C798.366614,110.430151 798.676642,108.327088 799.108401,106.268209 L802.388376,105.144709 C825.422442,97.2958687 849.812147,89.8288299 862.742897,86.0835912 L864.562309,85.5594866 C877.797355,81.7695462 886.658,80.0216339 886.627818,82.0827291 Z M866.875347,66.8958341 L866.959561,66.9227835 C870.347416,67.9811891 873.588309,69.3676065 876.644274,71.0444298 L876.734137,71.0153339 C868.97209,73.5936217 861.221331,76.1940185 853.535522,78.924919 C838.497874,84.2680549 823.712985,90.0708884 808.75084,95.5526013 L801.508041,98.1784116 C802.485128,95.6590701 803.65262,93.2332499 804.993061,90.9182424 L806.624791,90.05366 C811.690304,87.3957251 816.958618,84.8640272 819.241557,83.9438096 L820.714682,83.3617734 L822.114342,82.8003215 C833.269815,78.2942852 848.855939,71.3216619 864.022278,66.9121817 C864.979127,66.8952477 865.930282,66.8898366 866.875347,66.8958341 Z M818.0748,82.1035664 C815.189189,83.0718465 812.230481,83.8495208 809.272337,84.6286676 C810.101331,83.5810419 810.97008,82.5654763 811.875959,81.5841077 L812.615999,81.2075205 C824.585702,75.2332141 830.704601,77.8655771 818.0748,82.1035664 Z" fill="#50C4B0"></path>
            <path d="M895.869419,144.956301 C893.180946,149.181451 889.90108,153.000311 886.144928,156.298859 L884.949201,156.946809 C881.395676,158.859025 878.189882,160.464296 876.542628,161.161699 L874.407737,162.049714 L872.915354,162.683323 C868.612791,164.522838 863.69022,166.726833 858.407955,168.989557 C855.987103,169.327368 853.513992,169.500752 851,169.500752 C846.047794,169.500752 841.254224,168.827961 836.707361,167.569617 C838.508839,166.925 840.306186,166.272572 842.099678,165.611888 C857.276798,160.020966 872.175088,153.885212 887.2748,148.141643 L894.185305,145.541392 C894.72698,145.342309 895.29214,145.141428 895.805959,144.975486 L895.869419,144.956301 Z M903.061553,126.887872 C902.538339,129.607513 901.803323,132.252761 900.874153,134.806135 L898.51336,135.657773 C873.230228,144.735476 844.89021,153.559117 831.315754,157.500919 L828.926735,158.186082 L827.369661,158.621005 C825.069572,159.255937 822.93144,159.811474 820.983714,160.275955 C818.554031,158.618795 816.270088,156.765812 814.155872,154.740085 C820.807765,152.039937 833.679065,152.132924 841.169882,149.56053 L849.524546,146.680774 C873.993755,138.211154 886.682507,133.469736 901.295333,127.598318 L903.061553,126.887872 Z M903.188142,107.796248 C903.466955,109.357969 903.676072,110.943524 903.812196,112.549646 C893.741243,116.110431 883.406607,119.116478 873.427974,122.873592 C851.991522,130.944758 831.317301,140.52513 809.668335,148.134088 L808.599411,148.505093 C806.490639,145.724707 804.654088,142.730168 803.128957,139.560306 C822.889988,133.994282 842.636245,128.386163 862.213893,122.280022 C875.420644,118.160923 888.283607,113.207748 901.249345,108.496735 L903.188142,107.796248 Z M896.617197,90.2563883 C897.087831,91.0423668 897.538352,91.8415524 897.968058,92.6532492 L895.749748,93.5869437 C893.723773,94.4316345 891.868883,95.1831398 890.576765,95.6880377 C881.156155,99.369161 871.190771,101.912806 861.716539,105.492202 C853.838097,108.468702 846.534209,112.475944 838.594294,115.327184 C827.26693,119.394864 815.88785,123.951781 804.054217,126.198861 C802.228956,126.545459 800.498362,126.410139 798.796399,126.108122 C798.272346,123.150347 798,120.107055 798,117.000752 C798,116.630933 798.00386,116.262006 798.011543,115.89401 L821.07186,109.698685 C844.133512,103.510426 867.209463,97.3899165 890.392344,91.7561409 L896.617197,90.2563883 Z M899.846469,96.59227 C900.519806,98.1716606 901.117354,99.790497 901.634601,101.444307 C899.669622,101.750605 897.802132,102.097538 896.075006,102.506804 L894.790124,102.823892 L894.358439,102.923414 C887.321002,104.487699 881.044943,103.058374 890.856775,99.6594704 L895.62856,98.0199099 L899.846469,96.59227 Z M882.638059,74.8768926 C885.296409,76.8392048 887.762699,79.042611 890.003931,81.4544232 C864.960711,86.6797488 841.750917,93.1821191 817.287454,101.787741 L815.257,102.505803 C813.053594,103.289136 810.632363,102.137938 809.84903,99.9345312 C809.065697,97.7311243 810.216895,95.3098935 812.420302,94.5265607 C812.575116,94.4715229 812.733002,94.4255428 812.893159,94.3888538 C817.798593,93.2650759 822.68126,92.0521024 827.541152,90.7498981 L830.888243,89.8459242 L833.749333,89.0629852 C844.952904,85.9803834 858.871136,81.9624182 875.504029,77.0090896 L882.638059,74.8768926 Z M805.620001,89.8685073 C807.58775,86.6417464 809.897948,83.6431326 812.499337,80.9203124 L812.511941,80.9169308 C891.040725,59.1587378 847.450856,77.4217755 808.027403,89.1584835 L805.620001,89.8685073 Z M851,64.5007524 C853.510186,64.5007524 855.979615,64.6736127 858.396815,65.0079718 L839.346475,68.6328839 C838.96744,68.7185899 838.207604,68.2829098 838.569226,68.1458751 C841.753348,66.9392699 844.946476,65.7508266 848.145862,64.5750016 C849.090804,64.5259071 850.042436,64.5007524 851,64.5007524 Z" fill="#229581"></path>
            <path d="M872.389857,68.9518216 C891.006985,77.0958238 904,95.545262 904,117.000752 C904,145.995702 880.271092,169.500752 851,169.500752 C829.178596,169.500752 810.437318,156.437578 802.311209,137.775188 C811.381071,150.323288 826.225915,158.500752 843,158.500752 C870.614237,158.500752 893,136.338848 893,109.000752 C893,92.5978953 884.941125,78.0584667 872.529351,69.051381 L872.389857,68.9518216 Z" fill="#229581" opacity="0.592726935"></path>
            <path d="M993.249837,322.642461 C994.087031,320.900168 996.178118,320.166441 997.92041,321.003635 C999.602623,321.81196 1000.34463,323.789193 999.640261,325.492792 L999.559236,325.674208 L968.573247,390.159459 C967.822504,391.721836 966.048186,392.490851 964.407161,391.994346 L964.225432,391.933947 L874.653,359.453752 L812.656599,408.270409 C811.190254,409.424992 809.088273,409.220788 807.868722,407.83837 L807.741502,407.685754 C806.586919,406.219409 806.791123,404.117428 808.173541,402.897877 L808.326157,402.770657 L871.852326,352.750876 C872.743646,352.049061 873.915552,351.825559 874.995919,352.140258 L875.210662,352.210391 L963.634,384.273752 L993.249837,322.642461 Z" fill="#B9CDFF" fill-rule="nonzero"></path>
            <path d="M963.109999,386.012881 C964.511008,384.78344 966.617288,384.873648 967.909141,386.184383 L968.049252,386.335038 L1011.87421,436.275743 C1013.14918,437.728641 1013.00495,439.94002 1011.55205,441.214996 C1010.15104,442.444437 1008.04476,442.354229 1006.75291,441.043494 L1006.6128,440.892839 L962.787843,390.952134 C961.512867,389.499236 961.657101,387.287857 963.109999,386.012881 Z" fill="#B9CDFF" fill-rule="nonzero"></path>
            <circle fill="#719CFD" cx="875.991378" cy="358.000752" r="20.5"></circle>
            <path d="M857.491378,351.000752 C857.491378,363.427159 867.564971,373.500752 879.991378,373.500752 C884.88809,373.500752 889.419455,371.936516 893.113042,369.280474 C889.445251,374.835178 883.146385,378.500752 875.991378,378.500752 C864.669541,378.500752 855.491378,369.32259 855.491378,358.000752 C855.491378,354.759568 856.243571,351.694067 857.582917,348.969292 C857.521973,349.638262 857.491378,350.315934 857.491378,351.000752 Z" fill="#547ACE"></path>
            <path d="M880.241378,353.763892 C885.263451,356.663387 890.565862,356.881362 892.084645,354.250752 C893.603428,351.620143 890.763451,347.137108 885.741378,344.237613 C880.719305,341.338118 875.416894,341.120143 873.898111,343.750752 C872.379328,346.381362 875.219305,350.864397 880.241378,353.763892 Z" fill="#B9CDFF"></path>
            <circle fill="#F6BE67" cx="995.991378" cy="320.000752" r="20.5"></circle>
            <path d="M977.491378,313.000752 C977.491378,325.427159 987.564971,335.500752 999.991378,335.500752 C1004.88809,335.500752 1009.41945,333.936516 1013.11304,331.280474 C1009.44525,336.835178 1003.14638,340.500752 995.991378,340.500752 C984.669541,340.500752 975.491378,331.32259 975.491378,320.000752 C975.491378,316.759568 976.243571,313.694067 977.582917,310.969292 C977.521973,311.638262 977.491378,312.315934 977.491378,313.000752 Z" fill="#D19C49"></path>
            <path d="M1000.24138,315.763892 C1005.26345,318.663387 1010.56586,318.881362 1012.08464,316.250752 C1013.60343,313.620143 1010.76345,309.137108 1005.74138,306.237613 C1000.71931,303.338118 995.416894,303.120143 993.898111,305.750752 C992.379328,308.381362 995.219305,312.864397 1000.24138,315.763892 Z" fill="#F9D8A4"></path>
            <circle fill="#3CB49F" cx="1013.99138" cy="441.000752" r="20.5"></circle>
            <path d="M995.491378,434.000752 C995.491378,446.427159 1005.56497,456.500752 1017.99138,456.500752 C1022.88809,456.500752 1027.41945,454.936516 1031.11304,452.280474 C1027.44525,457.835178 1021.14638,461.500752 1013.99138,461.500752 C1002.66954,461.500752 993.491378,452.32259 993.491378,441.000752 C993.491378,437.759568 994.243571,434.694067 995.582917,431.969292 C995.521973,432.638262 995.491378,433.315934 995.491378,434.000752 Z" fill="#229581"></path>
            <path d="M1018.24138,436.763892 C1023.26345,439.663387 1028.56586,439.881362 1030.08464,437.250752 C1031.60343,434.620143 1028.76345,430.137108 1023.74138,427.237613 C1018.71931,424.338118 1013.41689,424.120143 1011.89811,426.750752 C1010.37933,429.381362 1013.21931,433.864397 1018.24138,436.763892 Z" fill="#50C4B0"></path>
            <path d="M828.487067,413.496441 C836.492815,405.490693 836.492815,392.510811 828.487067,384.505063 C820.481319,376.499315 807.501437,376.499315 799.495689,384.505063 C791.489941,392.510811 791.489941,405.490693 799.495689,413.496441 C807.501437,421.502189 820.481319,421.502189 828.487067,413.496441 Z" fill="#F6BE67"></path>
            <path d="M795.960155,407.13248 C804.746952,415.919277 818.993164,415.919277 827.77996,407.13248 C831.242458,403.669982 833.340535,399.359741 834.07419,394.869875 C835.408439,401.391165 833.546421,408.437088 828.487067,413.496441 C820.481319,421.502189 807.501437,421.502189 799.495689,413.496441 C797.203825,411.204578 795.56807,408.505061 794.588423,405.631294 C795.018363,406.147421 795.475916,406.648241 795.960155,407.13248 Z" fill="#D19C49"></path>
            <path d="M814.000669,392.999636 C819.602063,391.498747 823.505566,387.903507 822.719386,384.969444 C821.933206,382.03538 816.755054,380.873563 811.15366,382.374452 C805.552266,383.875341 801.648763,387.47058 802.434943,390.404644 C803.221123,393.338707 808.399275,394.500525 814.000669,392.999636 Z" fill="#F9D8A4"></path>
            <path d="M979.487067,401.496441 C987.492815,393.490693 987.492815,380.510811 979.487067,372.505063 C971.481319,364.499315 958.501437,364.499315 950.495689,372.505063 C942.489941,380.510811 942.489941,393.490693 950.495689,401.496441 C958.501437,409.502189 971.481319,409.502189 979.487067,401.496441 Z" fill="#E9525B"></path>
            <path d="M946.960155,395.13248 C955.746952,403.919277 969.993164,403.919277 978.77996,395.13248 C982.242458,391.669982 984.340535,387.359741 985.07419,382.869875 C986.408439,389.391165 984.546421,396.437088 979.487067,401.496441 C971.481319,409.502189 958.501437,409.502189 950.495689,401.496441 C948.203825,399.204578 946.56807,396.505061 945.588423,393.631294 C946.018363,394.147421 946.475916,394.648241 946.960155,395.13248 Z" fill="#CB3E47"></path>
            <path d="M965.000669,380.999636 C970.602063,379.498747 974.505566,375.903507 973.719386,372.969444 C972.933206,370.03538 967.755054,368.873563 962.15366,370.374452 C956.552266,371.875341 952.648763,375.47058 953.434943,378.404644 C954.221123,381.338707 959.399275,382.500525 965.000669,380.999636 Z" fill="#E98086"></path>
            <path d="M743.187981,277.305143 L744.242337,277.290148 L743.50806,277.721028 C726.423837,287.782543 717.037167,279.071914 731.595076,277.550616 C735.439479,277.148877 739.320618,277.337749 743.187981,277.305143 Z M753.67731,260.36808 L755.675483,264.366532 C752.487994,267.473643 735.564516,273.359513 730.997949,274.300057 L729.557518,274.57905 C718.653841,276.736867 702.73506,281.166161 687.727513,281.858455 C681.051734,279.170926 674.83512,275.59154 669.227827,271.269013 L675.867044,270.614827 C683.612045,269.846971 691.352201,269.043991 699.064264,268.007534 C714.279531,265.962689 729.37134,263.071295 744.556623,260.816497 L750.42217,259.970401 C752.315157,259.713556 754.556548,259.511013 753.67731,260.36808 Z M791.459216,233.155397 C790.345837,236.693623 788.98404,240.122805 787.394117,243.422781 C759.955496,249.77177 710.41109,252.934845 691.346737,253.518082 L689.443693,253.568947 C677.436529,253.833195 669.677182,252.848637 670.175981,249.861445 L670.197921,249.751262 L671.756358,248.245262 C674.037767,238.361463 692.010707,247.560419 702.08434,246.536984 L707.298798,246.001834 C737.996301,242.817224 750.469717,240.872819 769.904473,237.241813 L791.459216,233.155397 Z M784.132511,213.341245 L784.368973,215.627262 C780.651194,217.484649 776.531501,218.566145 772.424184,219.190677 C760.818132,220.955418 749.007003,221.086164 737.389087,222.770719 C716.089134,225.859133 695.11458,231.238412 673.728516,233.593176 L671.435544,233.833656 C662.965565,234.67682 651.542755,236.944377 643.354962,235.59773 C641.661026,230.786557 640.431563,225.759901 639.719263,220.569747 C668.980163,219.824261 698.269973,219.773087 727.485339,218.031043 C745.647217,216.948093 763.592807,213.416761 781.725023,211.915601 C782.654041,211.838688 784.966734,212.92447 784.132511,213.341245 Z M793.599608,195.305305 C794.457493,199.746223 794.93389,204.321898 794.993596,208.997354 L794.998076,209.739383 C784.975844,209.043427 771.90871,204.316691 762.496613,203.934176 L761.339376,203.901275 C754.470395,203.625218 748.773312,199.379666 758.575254,198.344972 C766.912265,197.464917 775.26567,196.757505 783.622917,196.090555 L793.599608,195.305305 Z M775.784434,188.434742 L776.100096,188.455668 C780.827976,188.856463 764.799902,192.112528 759.277726,193.015089 C749.954556,194.538896 740.416393,194.37218 731.069605,195.743069 C723.297142,196.883053 715.791974,199.58348 707.994508,200.536778 C696.870365,201.896786 685.582455,203.882951 674.441792,202.666237 C669.496621,202.126157 666.211877,196.605741 661.374154,195.445194 C656.456628,194.265503 646.70856,196.358966 640.383251,195.404569 C640.938681,192.498679 641.65926,189.650714 642.533254,186.870051 C686.956015,187.246569 731.421127,186.195307 775.784434,188.434742 Z M758.894154,162.725911 L764.153929,163.315578 C771.619591,164.168268 777.177244,164.877817 780.826889,165.444224 C783.18992,168.778003 785.294107,172.305803 787.111505,175.998385 L786.503632,176.027968 C784.002117,176.125473 780.654539,175.970591 776.251318,175.475884 L775.695403,175.41227 C746.744328,172.040043 720.478081,171.973921 691.883785,175.213903 L690.165294,175.41227 C686.988252,175.785707 684.11002,173.512937 683.736582,170.335895 C683.363145,167.158853 685.635915,164.280621 688.812957,163.907183 C689.142071,163.868498 689.473898,163.858129 689.804785,163.876188 C694.532847,164.134207 699.261951,164.263234 703.992099,164.263234 L707.370449,164.252905 C720.356894,164.175784 737.531462,163.666786 758.894154,162.725911 Z M662.115274,154.934435 L662.699019,154.364939 C665.451594,151.71223 668.400399,149.2594 671.52172,147.030012 C676.939085,146.552292 682.359937,146.174556 687.79429,146.082465 C789.700315,144.355551 698.020227,158.50021 662.115274,154.934435 Z M739.292417,135.712106 C743.865336,137.064796 748.26247,138.822957 752.441586,140.944625 L751.7318,141.01951 L751.7318,141.01951 L751.030594,141.10449 C747.608895,141.552483 744.133238,141.660318 740.682945,141.507307 L739.742644,141.459169 L719.87707,139.297843 C719.516935,139.276958 718.940812,138.43492 719.297668,138.382051 C725.731589,137.428853 732.181058,136.58928 738.636357,135.792318 L739.292417,135.712106 Z" fill="#E9525B"></path>
            <path d="M771.971556,155.018972 C786.194149,169.057777 795,188.507498 795,210.000752 C795,252.802821 760.07821,287.500752 717,287.500752 C694.873829,287.500752 674.899433,278.346965 660.703574,263.642904 C671.414759,268.683484 683.378375,271.500752 696,271.500752 C741.839634,271.500752 779,234.340387 779,188.500752 C779,177.040844 776.677477,166.12339 772.477449,156.193407 L771.971556,155.018972 Z" fill="#A43239" opacity="0.592726935"></path>
            <path d="M871.623759,270.9722 L897.311005,175.355236 L813.81423,255.522561 L871.623759,270.9722 Z M889.721,188.185752 L868.796,266.075752 L821.705,253.490752 L889.721,188.185752 Z" fill="#F0DECF" fill-rule="nonzero"></path>
            <path d="M555.149131,414.285627 C585.435577,392.587139 609.676247,385.392865 627.906112,393.146658 C634.317487,395.873638 638.890359,400.566361 642.229364,407.207454 L642.548485,407.853191 C644.691525,412.266867 646.084385,416.758742 648.019159,424.69978 L649.275295,429.930006 C651.290285,438.221068 652.535116,442.18492 654.60179,446.26467 C657.422528,451.832992 661.150429,455.417844 666.483303,457.258917 C682.539782,462.802112 703.443831,453.181591 729.098391,427.842512 C730.080723,426.872259 731.663605,426.882052 732.633857,427.864384 C733.604109,428.846716 733.594316,430.429598 732.611984,431.399851 C705.74511,457.936337 683.190684,468.316399 664.851646,461.985194 C658.199849,459.688788 653.514925,455.183636 650.141435,448.524146 L649.860238,447.960678 C647.741112,443.648368 646.444276,439.450495 644.432691,431.176832 L643.17307,425.932041 C641.225856,417.936908 639.875065,413.655808 637.762206,409.45345 C634.924135,403.808688 631.190347,399.97704 625.949105,397.747758 C609.716526,390.84348 587.075542,397.562991 558.061123,418.350145 C556.938737,419.154269 555.376993,418.896267 554.572868,417.773882 C553.768744,416.651496 554.026746,415.089752 555.149131,414.285627 Z" fill="#FFFFFF" fill-rule="nonzero"></path>
            <polygon fill="#F0DECF" fill-rule="nonzero" points="1048.62166 672.009816 1048.62166 676.009816 910.122053 676.009816 910.122053 672.009816"></polygon>
            <path d="M1016.61298,101.445307 C1019.02725,101.445307 1020.99747,103.346543 1021.10808,105.733471 L1021.11298,105.945307 L1021.11298,278.678062 C1021.11298,281.163344 1019.09826,283.178062 1016.61298,283.178062 C1014.1987,283.178062 1012.22849,281.276826 1012.11787,278.889898 L1012.11298,278.678062 L1012.11298,105.945307 C1012.11298,103.460025 1014.1277,101.445307 1016.61298,101.445307 Z" fill="#F0DECF" fill-rule="nonzero"></path>
            <path d="M1094.36298,187.945307 C1096.84826,187.945307 1098.86298,189.960025 1098.86298,192.445307 C1098.86298,194.85958 1096.96174,196.829796 1094.57481,196.940409 L1094.36298,196.945307 L938.362976,196.945307 C935.877695,196.945307 933.862976,194.930588 933.862976,192.445307 C933.862976,190.031033 935.764213,188.060818 938.151141,187.950205 L938.362976,187.945307 L1094.36298,187.945307 Z" fill="#F0DECF" fill-rule="nonzero"></path>
            <path d="M1111.3541,101.203851 C1113.72721,100.465639 1116.24944,101.790988 1116.98765,104.164101 C1117.72586,106.537214 1116.40051,109.059442 1114.0274,109.797654 C1064.45454,125.218449 1040.19075,153.224279 1040.19075,194.375944 C1040.19075,235.513031 1064.43504,263.260094 1113.98906,278.192112 C1116.36866,278.909151 1117.71643,281.41947 1116.99939,283.799067 C1116.28235,286.178663 1113.77203,287.526432 1111.39243,286.809393 C1058.27979,270.805059 1031.19075,239.80225 1031.19075,194.375944 C1031.19075,148.964215 1058.26029,117.719917 1111.3541,101.203851 Z" fill="#E9525B" fill-rule="nonzero"></path>
            <path d="M915.703098,104.164101 C916.441311,101.790988 918.963538,100.465639 921.336651,101.203851 C974.430456,117.719917 1001.5,148.964215 1001.5,194.375944 C1001.5,239.80225 974.410962,270.805059 921.298314,286.809393 C918.918718,287.526432 916.408399,286.178663 915.69136,283.799067 C914.974321,281.41947 916.322089,278.909151 918.701686,278.192112 C968.255705,263.260094 992.5,235.513031 992.5,194.375944 C992.5,153.224279 968.236211,125.218449 918.663349,109.797654 C916.290235,109.059442 914.964886,106.537214 915.703098,104.164101 Z" fill="#719CFD" fill-rule="nonzero"></path>
        </g>
    </g>
</svg>