<?xml version="1.0" encoding="UTF-8"?>
<svg width="1600px" height="1200px" viewBox="0 0 1600 1200" version="1.1" xmlns="http://www.w3.org/2000/svg" xmlns:xlink="http://www.w3.org/1999/xlink">
    <title>Keep track of student progress</title>
    <g id="Keep-track-of-student-progress" stroke="none" stroke-width="1" fill="none" fill-rule="evenodd">
        <g transform="translate(189.500000, 180.500000)" id="Shape">
            <path d="M810.5,0 C647.852141,0 516,131.852141 516,294.5 C516,457.147859 647.852141,589 810.5,589 C973.147859,589 1105,457.147859 1105,294.5 C1105,131.852141 973.147859,0 810.5,0 Z M810.5,4 C970.93872,4 1101,134.06128 1101,294.5 C1101,454.93872 970.93872,585 810.5,585 C650.06128,585 520,454.93872 520,294.5 C520,134.06128 650.06128,4 810.5,4 Z" fill="#F0DECF" fill-rule="nonzero"></path>
            <circle fill="#E9F4F7" cx="810.5" cy="294.5" r="246.5"></circle>
            <circle fill="#F9F5E8" cx="307.5" cy="461.5" r="246.5"></circle>
            <path d="M241.768156,100 C128.549782,100 36.7681561,191.781626 36.7681561,305 C36.7681561,418.218374 128.549782,510 241.768156,510 C354.98653,510 446.768156,418.218374 446.768156,305 C446.768156,191.781626 354.98653,100 241.768156,100 Z M241.768156,104 C352.777391,104 442.768156,193.990765 442.768156,305 C442.768156,416.009235 352.777391,506 241.768156,506 C130.758921,506 40.7681561,416.009235 40.7681561,305 C40.7681561,193.990765 130.758921,104 241.768156,104 Z" fill="#F0DECF" fill-rule="nonzero"></path>
            <path d="M874.746383,488.308619 L893.751376,498.379335 C894.752376,498.909763 895.982914,498.56974 896.576017,497.625664 L896.673099,497.454385 L896.673099,497.454385 L896.689331,497.421774 L897.588543,498.598772 C898.862954,500.266877 901.196497,500.662613 902.942999,499.541588 L903.12151,499.420199 L903.436738,499.828405 C905.663088,502.711426 909.642175,503.541926 912.825789,501.824544 L913.051803,501.697534 L909.668095,495.215268 C904.267175,484.922147 901.370617,479.706039 900.97842,479.566942 L900.857835,479.566605 C899.800225,479.600641 891.797961,479.97929 876.851042,480.702553 L874.746383,488.308619 Z" fill="#F69883"></path>
            <path d="M895.801336,461.747111 L915.77414,482.269586 L925.224986,502.552195 C925.804623,503.796163 925.263159,505.273131 924.015592,505.851097 C923.871971,505.917632 923.722314,505.970359 923.568652,506.008561 L921.701599,506.472727 C918.707751,507.217024 915.539114,506.413684 913.265398,504.333908 L893.433984,486.194049 L875.968889,488.557453 C873.873565,490.07611 871.016654,497.279268 870.824389,498.285219 C870.090695,502.123989 872.25449,505.942568 875.943923,507.319968 L895.906862,514.772862 C901.021089,516.68219 904.590568,521.128073 905.486962,526.265955 L905.541621,526.601997 C905.787056,528.228623 904.667378,529.746228 903.040752,529.991662 C902.717695,530.040407 902.388819,530.035669 902.067295,529.97767 L873.147288,524.757964 C872.4311,524.628701 871.585603,524.428146 870.610796,524.156299 L870.185105,524.035428 C864.919707,522.514665 859.387656,522.150861 853.968446,522.968973 L850.914506,523.430011 L850.91649,523.407806 L823.567868,537.643118 L672.646746,665.468806 L623.768156,574.552427 C738.348911,526.154199 798.022176,500.562955 802.787951,497.778692 L833.419799,474.090859 C843.933126,465.960827 856.324216,460.591013 869.458123,458.47326 L880.505256,456.691985 C886.125881,455.785698 891.836232,457.672883 895.801336,461.747111 Z" fill="#FDB4A3"></path>
            <path d="M899.582342,595.560378 C902.29223,595.371703 905.002118,593.850044 907.712006,590.9954 L907.712006,581.704029 L901.716163,584.726088 L899.582342,595.560378 Z" fill="#4F576C"></path>
            <path d="M890.094225,504.081303 L918.282674,504.081303 L918.282674,568.914737 C918.282674,572.028347 915.758594,574.552427 912.644984,574.552427 L895.731915,574.552427 C892.618304,574.552427 890.094225,572.028347 890.094225,568.914737 L890.094225,504.081303 Z" fill="#4F576C"></path>
            <path d="M876,503.845077 C876,485.661762 890.740489,470.921273 908.923804,470.921273 L911.732985,470.921273 C920.797519,470.921273 925.329786,476.206494 925.329786,486.776936 C925.329786,497.347379 917.368387,508.418463 901.445588,519.990189 C884.481863,517.053726 876,511.672023 876,503.845077 Z" fill="#D12F38"></path>
            <path d="M913.635206,574.428837 C916.345094,574.240163 919.054982,572.718504 921.764869,569.86386 L921.764869,560.572489 L915.769027,563.594548 L913.635206,574.428837 Z" fill="#4F576C"></path>
            <path d="M918.282674,506.765917 L925.329786,497.270416 L925.329786,559.144517 C925.329786,562.983972 924.09439,566.721538 921.80623,569.804676 C921.163007,570.671375 919.938973,570.852538 919.072274,570.209315 C918.575541,569.840664 918.282674,569.258602 918.282674,568.640017 L918.282674,506.765917 Z" fill="#697084"></path>
            <path d="M876,525.22264 L904.188449,525.22264 L904.188449,590.056074 C904.188449,593.169684 901.66437,595.693764 898.55076,595.693764 L881.63769,595.693764 C878.52408,595.693764 876,593.169684 876,590.056074 L876,525.22264 Z" fill="#4F576C"></path>
            <path d="M904.188449,527.907254 L911.235562,518.411753 L911.235562,582.005491 C911.235562,584.728232 910.359483,587.378718 908.73684,589.565119 L907.712006,590.946013 C907.068782,591.812712 905.844748,591.993875 904.978049,591.350652 C904.481316,590.982001 904.188449,590.399939 904.188449,589.781354 L904.188449,527.907254 Z" fill="#697084"></path>
            <path d="M914.759118,484.070948 C916.814715,481.513831 920.554058,481.107269 923.111174,483.162866 C924.513887,484.29047 925.329786,485.993187 925.329786,487.792935 L925.329786,520.064628 L904.188449,546.363977 L904.188449,514.092284 C904.188449,503.17306 907.917853,492.581327 914.759118,484.070948 Z" fill="#E9525B"></path>
            <path d="M890.094225,497.220622 C882.310199,497.220622 876,503.530822 876,511.314847 L876,546.363977 L904.188449,546.363977 L904.188449,511.314847 C904.188449,503.530822 897.87825,497.220622 890.094225,497.220622 Z" fill="#D12F38"></path>
            <polygon fill="#D12F38" points="876 503.845077 890.094225 503.845077 890.094225 539.080639 876 539.080639"></polygon>
            <path d="M880.983061,503.845077 L885.111164,503.845077 C888.301764,503.845077 891.361686,502.577616 893.617781,500.321521 C894.423843,499.515459 894.423843,498.208574 893.617781,497.402512 C893.230696,497.015427 892.705697,496.797965 892.158276,496.797965 L888.030173,496.797965 C884.839573,496.797965 881.779651,498.065426 879.523556,500.321521 C878.717494,501.127583 878.717494,502.434468 879.523556,503.240531 C879.910641,503.627615 880.43564,503.845077 880.983061,503.845077 Z" fill="#D12F38"></path>
            <path d="M886.877935,552.720528 C889.587823,552.531854 892.297711,551.010194 895.007599,548.15555 L895.007599,538.864179 L889.011757,541.886238 L886.877935,552.720528 Z" fill="#F69883"></path>
            <path d="M893.617781,500.261429 C894.433665,499.459459 895.745194,499.470739 896.547163,500.286623 C896.927956,500.674023 897.141337,501.195502 897.141337,501.738717 L897.141337,532.153711 L890.094225,539.080639 L890.094225,508.665644 C890.094225,505.505081 891.363787,502.476982 893.617781,500.261429 Z" fill="#E9525B"></path>
            <path d="M890.094225,533.640573 L897.141337,526.713645 L897.141337,543.884275 C897.141337,545.396292 896.533977,546.844938 895.455664,547.904861 L893.617781,549.7114 C892.801897,550.513369 891.490368,550.502089 890.688399,549.686206 C890.307605,549.298805 890.094225,548.777327 890.094225,548.234112 L890.094225,533.640573 Z" fill="#FDB4A3"></path>
            <path d="M876,533.640573 L890.094225,533.640573 L890.094225,547.630872 C890.094225,550.707649 887.627356,553.21621 884.551012,553.267771 L881.732167,553.315016 C878.713333,553.365613 876.208989,551.03383 876.012406,548.053817 L876,547.678117 L876,547.678117 L876,533.640573 Z" fill="#F69883"></path>
            <path d="M886.814771,470.626315 L886.814771,465.683774 C886.814771,462.475879 887.909085,459.363957 889.916924,456.862123 L892.777294,453.298006 L908.750796,451.863755 L905.331299,473.51206 L886.814771,470.626315 Z" fill="#F69883"></path>
            <path d="M890.094225,497.220622 C886.364316,497.220622 883.340627,494.196933 883.340627,490.467024 C883.340627,488.928014 883.866268,487.435162 884.83051,486.235666 L888.310827,481.906229 C893.893899,474.961013 902.324517,470.921273 911.235562,470.921273 C914.965471,470.921273 917.98916,473.944962 917.98916,477.674871 C917.98916,479.213882 917.463519,480.706734 916.499277,481.906229 L913.018959,486.235666 C907.435887,493.180882 899.00527,497.220622 890.094225,497.220622 Z" fill="#D12F38"></path>
            <path d="M900.264349,472.10013 C900.264349,464.739848 902.778216,457.600316 907.389683,451.863755 C908.775291,450.140088 911.295857,449.866038 913.019523,451.251647 C913.965045,452.011727 914.515016,453.159471 914.515016,454.372621 L914.515016,464.753266 C914.515016,467.307531 914.176935,470.277028 913.500773,473.661755 L913.361028,474.344236 C911.783648,481.86786 905.303488,487.342711 897.653233,487.66941 L897.299328,487.680822 L897.299328,487.680822 L896.684643,487.687522 L894.431393,487.683809 C890.305341,487.677045 886.948728,484.3958 886.818682,480.301289 L886.814771,480.054662 L886.814771,480.054662 L886.814771,467.452298 C886.814771,463.7383 889.825562,460.727509 893.53956,460.727509 C897.253559,460.727509 900.264349,463.7383 900.264349,467.452298 L900.264349,472.10013 Z" fill="#FDB4A3"></path>
            <path d="M906.099399,447.228267 C910.747216,447.228267 914.515016,450.996067 914.515016,455.643884 L914.515016,458.606255 L902.929815,452.967047 L906.099399,447.228267 Z" fill="#F69883"></path>
            <path d="M893.53956,460.727509 C897.857681,460.727509 902.011562,459.072425 905.146466,456.102822 L908.331298,453.085923 C909.692049,451.796924 909.750215,449.648877 908.461215,448.288126 C907.820291,447.611525 906.92933,447.228267 905.997358,447.228267 C900.617856,447.228267 895.534301,449.690675 892.199454,453.911792 L890.983586,455.450789 C889.868346,456.862415 890.108615,458.910844 891.52024,460.026083 C892.09528,460.480387 892.806715,460.727509 893.53956,460.727509 Z" fill="#F69883"></path>
            <ellipse fill="#583E40" cx="911.476757" cy="463.841169" rx="1" ry="2.1141337"></ellipse>
            <ellipse fill="#583E40" cx="906.531266" cy="469.898506" rx="1" ry="2.1141337"></ellipse>
            <path d="M912.31067,469.018932 C912.718691,469.090288 912.991612,469.4789 912.920255,469.886921 C912.530031,472.118258 911.870915,473.806898 910.917893,474.951503 C909.944473,476.120608 908.523914,476.893161 906.684834,477.277878 C906.279397,477.362691 905.88197,477.102774 905.797156,476.697337 C905.712343,476.291899 905.97226,475.894472 906.377697,475.809659 C907.904849,475.490194 909.024463,474.881306 909.765157,473.991712 C910.52625,473.077619 911.093762,471.623667 911.442681,469.628518 C911.50809,469.254498 911.840083,468.994001 912.209241,469.008144 L912.31067,469.018932 Z" fill="#583E40" fill-rule="nonzero"></path>
            <path d="M900.264349,474.818275 L902.929815,465.955303 L902.929815,460.727509 C909.077958,459.291394 914.195578,457.272391 918.282674,454.670501 C919.152463,448.042864 915.843497,444.426097 908.355776,443.820201 C897.124195,442.911357 888.846667,446.553123 890.094225,452.917261 C885.525088,455.635162 884.366765,459.778925 886.619256,465.348553 L886.814771,480.915753 L893.617781,476.543768 L892.47761,473.317331 C891.988043,471.931964 892.564827,470.39515 893.844999,469.673986 C895.091737,468.971656 896.669389,469.354258 897.455896,470.549679 L900.264349,474.818275 Z" fill="#583E40"></path>
            <path d="M875.943923,507.319968 L895.906862,514.772862 C901.021089,516.68219 904.590568,521.128073 905.486962,526.265955 L905.541621,526.601997 C905.787056,528.228623 904.667378,529.746228 903.040752,529.991662 C902.717695,530.040407 902.388819,530.035669 902.067295,529.97767 L873.147288,524.757964 C872.4311,524.628701 871.585603,524.428146 870.610796,524.156299 L870.185105,524.035428 C866.185334,522.880206 862.031694,522.392599 857.890532,522.583545 L871.896133,504.01277 C872.813723,505.48668 874.210419,506.672788 875.943923,507.319968 Z" fill="#FDB4A3"></path>
            <path d="M387.243126,258.468806 C379.594493,224.184107 370.015456,193.30153 358.506015,165.821076 C341.241854,124.600395 355.527683,70.9113358 403.175947,58.1734113 C420.027352,24.8090582 455.579062,18.6355783 509.831078,39.6529717 C591.209102,71.1790617 607.564623,153.36909 551.33294,184.855112 C513.845151,205.845794 459.148546,230.383691 387.243126,258.468806 Z" fill="#80424C"></path>
            <polygon fill="#FDB4A3" points="488.45749 318.605462 488.45749 301.007503 488.45749 253.251425 394.960731 235.468806 369.45749 286.337439 449.423392 403.468806 459.284794 397.908853"></polygon>
            <path d="M407.185442,195.269708 C414.134443,198.551292 415.558877,205.48378 413.931361,216.606587 L413.855621,217.107243 C411.183033,234.218641 447.478258,284.094267 488.45749,295.468806 L468.423485,298.930082 C457.227964,300.543315 449.460008,310.926881 451.073268,322.122399 C451.182422,322.879896 451.333928,323.63053 451.527024,324.37078 L451.679632,324.923966 C455.959888,339.632388 470.737966,346.392139 471.0331,378.917903 L471.037585,379.911454 L439.909295,406.794952 L377.598831,313.925772 L367,290.591553 C386.560646,255.336687 400.386501,224.078907 406.004944,196.278798 L407.185442,195.269708 Z" fill="#F69883"></path>
            <path d="M353.180107,298.712176 L402.608613,295.468806 L414.264467,319.960163 L450.493225,397.78014 L488.276888,317.022734 L492.165563,319.507018 C555.091808,359.769401 589.16813,384.633602 594.39453,394.09962 C606.966587,416.870041 599.398306,525.843987 594.39453,576.040861 L595.162018,576.644822 C596.661815,577.841801 597.998684,579.010484 599.172626,580.15087 C601.984184,567.61052 606.93437,562.158105 614.022879,563.793427 C625.204535,566.373039 684.465956,675.816493 681.338078,679.681838 L679.914341,681.449872 C676.758192,685.314443 671.882212,690.543522 661.748468,693.528998 C650.150366,696.945885 646.579528,709.813595 636.27816,710.227794 L635.766044,710.238027 C625.067479,710.238027 612.486759,721.240209 607.065555,722.354507 L606.658755,722.431258 C602.82142,723.096425 594.228362,723.070842 580.879582,722.354507 L580.150526,720.316652 C566.936058,719.015627 554.407512,713.591398 544.379299,704.73911 L543.890356,704.302995 L543.890356,720.001876 L189.844558,720.005545 L186.760405,720.97485 C181.058801,722.754852 170.345095,723.582028 154.619288,723.456378 L153.756546,723.44858 C126.253863,723.171448 104.183079,700.640062 104.45749,673.123321 C104.504335,668.72583 105.130291,664.353557 106.321623,660.120454 L109.425602,649.116245 C159.752594,471.108961 191.883795,377.779515 205.819206,369.127907 C221.343547,359.489834 269.641597,336.388634 350.713355,299.824307 L353.180107,298.712176 Z" fill="#717569"></path>
            <path d="M543.45749,470 C551.51619,622.653279 564.691885,701.28931 582.984575,705.908093 C601.277265,710.526876 618.949073,708.36838 636,699.432605 L636.518568,710.215804 L636.27816,710.227794 L636.27816,710.227794 L635.766044,710.238027 C625.067479,710.238027 612.486759,721.240209 607.065555,722.354507 L606.658755,722.431258 L606.259169,722.495472 C602.243266,723.093952 593.783403,723.046964 580.879582,722.354507 L580.150526,720.316652 C566.936058,719.015627 554.407512,713.591398 544.379299,704.73911 L543.890356,704.302995 L543.890356,720.001876 L542.972959,720.001 L543.45749,470 Z" fill="#626658"></path>
            <path d="M279.45749,476.468806 C290.15374,494.175418 293.719157,514.846298 290.15374,538.481445 C284.805615,573.934166 332.925833,638.269288 427.151167,619.189333 C386.059604,652.023523 366.686061,685.648178 369.030538,720.063299 L239.838707,720.063299 L239.838707,715.468806 C251.235011,718.125716 261.107939,716.792382 269.45749,711.468806 C274.33658,711.125106 277.318678,709.167228 278.403784,705.595171 L282.012552,678.017167 L262.574125,603.589212 L250.45749,593.626042 L250.45749,589.468806 L279.45749,476.468806 Z" fill="#626658"></path>
            <path d="M542.95749,460.468806 C544.011852,460.468806 544.875655,461.284683 544.952005,462.319543 L544.95749,462.468806 L544.95749,701.468806 C544.95749,702.573375 544.06206,703.468806 542.95749,703.468806 C541.903128,703.468806 541.039325,702.652928 540.962976,701.618068 L540.95749,701.468806 L540.95749,462.468806 C540.95749,461.364236 541.852921,460.468806 542.95749,460.468806 Z" fill="#2E363A" fill-rule="nonzero"></path>
            <path d="M277.520268,475.971642 C277.794844,474.901744 278.884755,474.257008 279.954653,474.531584 C280.97592,474.793679 281.609797,475.798672 281.426503,476.820028 L281.394712,476.965969 L252.394712,589.965969 C252.120137,591.035867 251.030225,591.680603 249.960327,591.406027 C248.939061,591.143933 248.305184,590.138939 248.488478,589.117583 L248.520268,588.971642 L277.520268,475.971642 Z" fill="#2E363A" fill-rule="nonzero"></path>
            <path d="M451.261237,395.468771 C452.31462,395.425231 453.212777,396.20313 453.333647,397.233739 L453.345559,397.382626 L458.000988,505.322615 C458.308619,512.455293 457.866546,519.600559 456.682041,526.64092 L455.683733,532.584596 C439.542458,628.851178 431.45749,685.255965 431.45749,701.468806 C431.45749,702.573375 430.56206,703.468806 429.45749,703.468806 C428.352921,703.468806 427.45749,702.573375 427.45749,701.468806 C427.45749,684.58914 435.874003,626.208887 452.737479,525.977267 C453.812309,519.588791 454.250875,513.110412 454.047296,506.637227 L454.004703,505.494974 L449.349274,397.554985 C449.301679,396.451441 450.157694,395.518259 451.261237,395.468771 Z" fill="#2E363A" fill-rule="nonzero"></path>
            <path d="M232.011283,619.519216 C233.088011,619.272783 234.160646,619.94587 234.40708,621.022598 L236.417909,629.765761 C240.157757,645.951736 244.446994,664.119204 249.285575,684.267938 L249.591524,685.520133 C252.307052,696.4426 255.364794,703.691528 258.629659,707.184091 C261.535798,710.292909 264.390103,710.25671 268.121157,706.906004 C268.94297,706.167967 270.207478,706.235882 270.945514,707.057694 C271.68355,707.879507 271.615636,709.144015 270.793823,709.882051 C265.511929,714.625503 260.173655,714.693203 255.707584,709.915661 C251.795882,705.73115 248.459978,697.743745 245.556985,685.865843 L243.51367,677.347036 C238.569796,656.674939 234.234557,638.197687 230.507901,621.915013 C230.261467,620.838284 230.934554,619.76565 232.011283,619.519216 Z" fill="#2E363A" fill-rule="nonzero"></path>
            <path d="M216.246158,635.266562 L219.912952,652.789196 C220.711779,656.575777 221.417677,659.861411 222.111909,663.010444 L222.956966,666.801106 C226.00778,680.324676 228.7735,690.75775 231.546954,698.656926 L231.727846,699.168503 C234.994237,708.340621 238.165276,713.301838 240.347392,713.464664 L240.45749,713.468806 C241.56206,713.468806 242.45749,714.364236 242.45749,715.468806 C242.45749,716.573375 241.56206,717.468806 240.45749,717.468806 C232.579478,717.468806 226.608319,701.144058 219.114067,667.944016 L218.369386,664.6125 C217.517441,660.76424 216.65822,656.756564 215.641953,651.918131 L212.333162,636.096295 L211.446153,631.966865 C209.803788,624.435571 208.700168,620.107461 207.825571,617.917888 C204.815358,610.381753 196.976096,609.322242 183.259719,615.328431 C182.247903,615.77149 181.068493,615.310421 180.625434,614.298605 C180.182376,613.286788 180.643445,612.107379 181.655261,611.66432 L182.579741,611.266596 C197.577355,604.93104 207.559651,606.46874 211.540198,616.434128 L211.726344,616.918891 C212.83412,619.913465 214.156917,625.41376 216.246158,635.266562 Z" fill="#2E363A" fill-rule="nonzero"></path>
            <path d="M508.212016,572.45671 C507.478322,576.29548 509.642117,580.114059 513.33155,581.491459 L533.294489,588.944353 C538.408716,590.853681 541.978195,595.299563 542.874589,600.437446 L542.929248,600.773487 L542.929248,600.773487 C543.174683,602.400114 542.055005,603.917719 540.428379,604.163153 C540.105322,604.211898 539.776446,604.20716 539.454922,604.149161 L510.534915,598.929455 C509.818727,598.800192 508.97323,598.599637 507.998423,598.327789 L507.572732,598.206919 C502.307334,596.686156 496.775283,596.322352 491.356073,597.140463 L488.302133,597.601502 L488.668271,593.359372 C488.886201,590.665885 488.957094,589.287068 488.88095,589.222921 L475.761935,574.98303 L509.229141,569.639077 C508.751925,570.503308 508.404281,571.450759 508.212016,572.45671 Z" fill="#F69883"></path>
            <path d="M542.039832,662.029183 C544.74972,661.840509 547.459608,660.31885 550.169496,657.464206 L550.169496,648.172834 L544.173654,651.194893 L542.039832,662.029183 Z" fill="#4F576C"></path>
            <path d="M532.551715,570.550109 L560.740164,570.550109 L560.740164,635.383542 C560.740164,638.497152 558.216085,641.021232 555.102474,641.021232 L538.189405,641.021232 C535.075795,641.021232 532.551715,638.497152 532.551715,635.383542 L532.551715,570.550109 Z" fill="#4F576C"></path>
            <path d="M518.45749,570.313883 C518.45749,552.130568 533.197979,537.390079 551.381294,537.390079 L554.190476,537.390079 C563.25501,537.390079 567.787277,542.6753 567.787277,553.245742 C567.787277,563.816184 559.825877,574.887268 543.903078,586.458994 C526.939353,583.522532 518.45749,578.140828 518.45749,570.313883 Z" fill="#F8B853" fill-rule="nonzero"></path>
            <path d="M556.092696,640.897643 C558.802584,640.708969 561.512472,639.18731 564.22236,636.332666 L564.22236,627.041294 L558.226518,630.063353 L556.092696,640.897643 Z" fill="#4F576C"></path>
            <path d="M560.740164,573.234723 L567.787277,563.739222 L567.787277,625.613322 C567.787277,629.452778 566.55188,633.190343 564.263721,636.273482 C563.620497,637.140181 562.396463,637.321344 561.529764,636.678121 C561.033031,636.309469 560.740164,635.727408 560.740164,635.108823 L560.740164,573.234723 Z" fill="#697084"></path>
            <path d="M518.45749,591.691446 L546.64594,591.691446 L546.64594,656.524879 C546.64594,659.638489 544.12186,662.162569 541.00825,662.162569 L524.09518,662.162569 C520.98157,662.162569 518.45749,659.638489 518.45749,656.524879 L518.45749,591.691446 Z" fill="#4F576C"></path>
            <path d="M546.64594,594.37606 L553.693052,584.880559 L553.693052,648.474297 C553.693052,651.197038 552.816973,653.847524 551.19433,656.033925 L550.169496,657.414819 C549.526273,658.281518 548.302239,658.462681 547.435539,657.819458 C546.938806,657.450806 546.64594,656.868745 546.64594,656.25016 L546.64594,594.37606 Z" fill="#697084"></path>
            <path d="M557.216608,550.539753 C559.272205,547.982637 563.011548,547.576075 565.568664,549.631672 C566.971378,550.759275 567.787277,552.461992 567.787277,554.261741 L567.787277,586.533434 L546.64594,612.832783 L546.64594,580.56109 C546.64594,569.641865 550.375344,559.050133 557.216608,550.539753 Z" fill="#F6BE67"></path>
            <path d="M532.551715,563.689428 C524.76769,563.689428 518.45749,569.999627 518.45749,577.783652 L518.45749,612.832783 L546.64594,612.832783 L546.64594,577.783652 C546.64594,569.999627 540.33574,563.689428 532.551715,563.689428 Z" fill="#F8B853" fill-rule="nonzero"></path>
            <polygon fill="#F8B853" fill-rule="nonzero" points="518.45749 570.313883 532.551715 570.313883 532.551715 605.549445 518.45749 605.549445"></polygon>
            <path d="M523.440551,570.313883 L527.568654,570.313883 C530.759254,570.313883 533.819176,569.046422 536.075271,566.790327 C536.881333,565.984264 536.881333,564.677379 536.075271,563.871317 C535.688186,563.484232 535.163187,563.26677 534.615766,563.26677 L530.487664,563.26677 C527.297063,563.26677 524.237142,564.534231 521.981046,566.790327 C521.174984,567.596389 521.174984,568.903274 521.981046,569.709336 C522.368131,570.096421 522.893131,570.313883 523.440551,570.313883 Z" fill="#6088E8"></path>
            <path d="M529.335426,619.189333 C532.045314,619.000659 534.755201,617.479 537.465089,614.624356 L537.465089,605.332984 L531.469247,608.355043 L529.335426,619.189333 Z" fill="#F69883"></path>
            <path d="M536.075271,566.730234 C536.891155,565.928265 538.202684,565.939545 539.004653,566.755429 C539.385447,567.142829 539.598827,567.664307 539.598827,568.207522 L539.598827,598.622517 L532.551715,605.549445 L532.551715,575.13445 C532.551715,571.973886 533.821277,568.945787 536.075271,566.730234 Z" fill="#F6BE67"></path>
            <path d="M532.551715,600.109379 L539.598827,593.182451 L539.598827,610.353081 C539.598827,611.865098 538.991467,613.313743 537.913154,614.373666 L536.075271,616.180205 C535.259387,616.982175 533.947858,616.970895 533.145889,616.155011 C532.765096,615.767611 532.551715,615.246132 532.551715,614.702917 L532.551715,600.109379 Z" fill="#FDB4A3"></path>
            <path d="M518.45749,600.109379 L532.551715,600.109379 L532.551715,614.099678 C532.551715,617.176454 530.084847,619.685015 527.008502,619.736576 L524.189657,619.783821 C521.170823,619.834418 518.666479,617.502636 518.469896,614.522622 L518.45749,614.146923 L518.45749,614.146923 L518.45749,600.109379 Z" fill="#F69883"></path>
            <path d="M529.272261,537.09512 L529.272261,532.152579 C529.272261,528.944685 530.366575,525.832763 532.374414,523.330928 L535.234784,519.766811 L551.208287,518.33256 L547.78879,539.980865 L529.272261,537.09512 Z" fill="#F69883"></path>
            <path d="M532.551715,563.689428 C528.821806,563.689428 525.798117,560.665739 525.798117,556.93583 C525.798117,555.396819 526.323758,553.903967 527.288,552.704471 L530.768317,548.375035 C536.35139,541.429818 544.782007,537.390079 553.693052,537.390079 C557.422961,537.390079 560.44665,540.413768 560.44665,544.143677 C560.44665,545.682687 559.921009,547.175539 558.956767,548.375035 L555.47645,552.704471 C549.893377,559.649688 541.46276,563.689428 532.551715,563.689428 Z" fill="#F8B853" fill-rule="nonzero"></path>
            <path d="M542.72184,538.568936 C542.72184,531.208653 545.235706,524.069121 549.847173,518.33256 C551.232782,516.608894 553.753347,516.334844 555.477014,517.720453 C556.422536,518.480532 556.972506,519.628277 556.972506,520.841427 L556.972506,531.222071 C556.972506,533.776337 556.634425,536.745833 555.958263,540.13056 L555.818519,540.813041 C554.241138,548.336666 547.760978,553.811516 540.110724,554.138216 L539.756818,554.149627 L539.756818,554.149627 L539.142134,554.156327 L536.888883,554.152615 C532.762831,554.14585 529.406218,550.864605 529.276172,546.770094 L529.272261,546.523467 L529.272261,546.523467 L529.272261,533.921104 C529.272261,530.207105 532.283052,527.196315 535.99705,527.196315 C539.711049,527.196315 542.72184,530.207105 542.72184,533.921104 L542.72184,538.568936 Z" fill="#FDB4A3"></path>
            <path d="M548.55689,513.697073 C553.204706,513.697073 556.972506,517.464873 556.972506,522.112689 L556.972506,525.07506 L545.387305,519.435853 L548.55689,513.697073 Z" fill="#F69883"></path>
            <path d="M535.99705,527.196315 C540.315171,527.196315 544.469052,525.541231 547.603956,522.571628 L550.788788,519.554729 C552.149539,518.265729 552.207705,516.117682 550.918705,514.756931 C550.277781,514.080331 549.38682,513.697073 548.454848,513.697073 C543.075347,513.697073 537.991792,516.159481 534.656944,520.380597 L533.441076,521.919595 C532.325837,523.33122 532.566105,525.379649 533.977731,526.494889 C534.55277,526.949192 535.264205,527.196315 535.99705,527.196315 Z" fill="#F69883"></path>
            <ellipse fill="#583E40" cx="553.934247" cy="530.309975" rx="1" ry="2.1141337"></ellipse>
            <ellipse fill="#583E40" cx="548.988756" cy="536.367312" rx="1" ry="2.1141337"></ellipse>
            <path d="M554.76816,535.487738 C555.176181,535.559094 555.449102,535.947706 555.377746,536.355727 C554.987522,538.587063 554.328405,540.275704 553.375383,541.420309 C552.401963,542.589413 550.981405,543.361966 549.142325,543.746683 C548.736887,543.831497 548.33946,543.57158 548.254647,543.166142 C548.169833,542.760705 548.42975,542.363278 548.835188,542.278464 C550.362339,541.959 551.481953,541.350112 552.222647,540.460518 C552.98374,539.546424 553.551252,538.092472 553.900171,536.097323 C553.965581,535.723304 554.297574,535.462806 554.666732,535.47695 L554.76816,535.487738 Z" fill="#583E40" fill-rule="nonzero"></path>
            <path d="M542.72184,541.28708 L545.387305,532.424109 L545.387305,527.196315 C551.535448,525.7602 556.653068,523.741197 560.740164,521.139306 C561.609953,514.511669 558.300987,510.894903 550.813266,510.289007 C539.581685,509.380163 531.304157,513.021928 532.551715,519.386067 C527.982578,522.103967 526.824256,526.247731 529.076746,531.817358 L529.272261,547.384558 L536.075271,543.012574 L534.9351,539.786136 C534.445534,538.400769 535.022318,536.863955 536.302489,536.142791 C537.549227,535.440461 539.126879,535.823064 539.913387,537.018484 L542.72184,541.28708 Z" fill="#583E40"></path>
            <path d="M253.187327,597.468806 L273.946045,593.518458 C379.264171,573.44951 436.19558,562.164021 444.740274,559.661993 L482.186619,545.375564 C494.102709,540.82937 506.889099,539.022963 519.598233,540.090212 L533.423295,541.251171 C537.973852,541.633304 542.052055,544.210799 544.350024,548.157055 L559.638605,574.411819 L563.996955,596.93498 C564.206802,598.019433 563.497795,599.06867 562.413342,599.278518 C562.288139,599.302745 562.160905,599.314942 562.03338,599.314942 L559.517832,599.314942 C556.432913,599.314942 553.553235,597.769124 551.84849,595.198021 L537.018527,572.831418 L519.498692,570.911713 C513.089214,570.209405 506.621783,571.55161 501.021087,574.746425 L499.871316,575.402291 C495.486203,577.903698 493.108561,582.843729 493.86597,587.813136 L493.9174,588.12374 C494.767075,592.876031 491.766242,597.46726 487.072485,598.596357 L456.77572,605.884333 L279.392063,693.468806 C279.263675,677.276413 277.231705,662.146712 273.296153,648.079705 C269.360601,634.012698 262.657659,617.142398 253.187327,597.468806 Z" fill="#FDB4A3"></path>
            <path d="M208.087772,604.051164 C225.261433,587.91019 239.633136,583.385138 250.923313,591.162883 C258.425074,596.330808 266.862228,618.470183 273.721043,647.425479 L274.138977,649.206682 C280.62412,677.10987 283.394799,701.450581 279.858763,706.600828 C279.233564,707.511433 277.988549,707.742799 277.077945,707.1176 C276.212871,706.523661 275.960809,705.370339 276.473796,704.475762 L276.561173,704.336783 C279.106712,700.629198 276.345083,676.367995 270.242822,650.11221 L269.841285,648.401255 C263.247891,620.57757 254.966492,598.805494 248.654078,594.456904 C239.309055,588.019165 226.793287,591.959861 210.827208,606.965867 C210.022335,607.722341 208.756613,607.683106 208.000139,606.878233 C207.243665,606.07336 207.282899,604.807638 208.087772,604.051164 Z" fill="#2E363A" fill-rule="nonzero"></path>
            <path d="M488.030968,597.468806 L520.778169,580.747219 L532.816163,585.970513 C539.61293,588.919635 547.480051,587.775225 553.150397,583.042205 L553.45749,582.780484 L531.146701,565.468806 L510.210464,565.468806 L484.45749,580.747219 L488.030968,597.468806 Z" fill="#FDB4A3"></path>
            <polygon fill="#818676" points="403.45749 295.594541 400.635456 341.468806 351.45749 299.918921 361.600142 282.468806"></polygon>
            <polygon fill="#626658" points="403.181947 295.468806 414.45749 319.85181 405.253244 324.150532 400.45749 341.468806"></polygon>
            <path d="M454.429042,284.065667 L468.53395,288.537849 L469.983776,289.084644 C487.739632,295.708013 500.858005,297.875661 509.338896,295.587588 C518.049001,293.237675 534.088532,246.204603 557.45749,154.488371 C547.417918,138.401897 524.37598,127.062042 488.331677,120.468806 C478.108174,141.616877 463.183596,152.296921 443.557943,152.508938 L443.050214,153.65417 C436.580293,168.182778 431.878938,176.222612 428.946147,177.773669 L424.036676,154.488371 C413.223962,148.614383 403.665948,149.658137 395.362633,157.619633 C382.90766,169.561876 398.483793,192.612364 407.223952,191.079554 L406.135014,195.015812 C395.666693,232.856359 417.003365,272.199268 454.429042,284.065667 Z" fill="#FDB4A3"></path>
            <path d="M471.784271,240.411918 C472.661345,239.74049 473.916654,239.907198 474.588082,240.784271 C482.924405,251.673844 493.129319,256.070895 505.462592,254.144311 C506.553926,253.973834 507.576827,254.720336 507.747305,255.81167 C507.917782,256.903005 507.17128,257.925906 506.079946,258.096383 C492.258645,260.255412 480.616046,255.238898 471.411918,243.215729 C470.74049,242.338655 470.907198,241.083346 471.784271,240.411918 Z" fill="#583E40" fill-rule="nonzero"></path>
            <path d="M520.85629,192.006916 C521.957039,192.098695 522.774972,193.065431 522.683193,194.166181 C521.674062,206.269141 521.641753,215.396724 522.208555,226.052396 L522.545674,231.949972 C522.627412,233.467668 522.673272,234.614964 522.687071,235.623139 L522.699013,236.998979 L521.7694,237.594854 C512.594424,243.475937 503.970926,242.499845 496.552823,234.723244 C495.790414,233.92399 495.820283,232.658012 496.619537,231.895604 C497.418791,231.133195 498.684769,231.163064 499.447177,231.962318 C505.166482,237.958022 511.251963,238.970978 518.245703,235.04816 L518.667,234.805 L518.660717,234.572308 C518.644336,234.079464 518.621261,233.538702 518.591093,232.929789 L518.27355,227.348213 C517.637325,216.054869 517.637059,206.546459 518.697025,193.833819 C518.784632,192.783103 519.669462,191.990079 520.707088,191.99971 L520.85629,192.006916 Z" fill="#2E363A" fill-rule="nonzero"></path>
            <path d="M473.219496,159.205657 L474.858973,158.285428 L476.47401,157.392049 C492.590968,148.545212 502.251223,145.346914 505.454776,147.797155 C511.064192,152.087525 505.146146,163.190109 492.486532,164.35468 C486.528176,164.902796 480.681742,164.723851 474.947229,163.817847 L473.992515,163.660103 C472.686318,163.434845 471.810044,162.193357 472.035302,160.887161 C472.157709,160.177358 472.592439,159.560062 473.219496,159.205657 Z" fill="#80424C"></path>
            <path d="M556.716426,177.769132 L555.935114,176.413035 L555.369189,175.442241 L554.797779,174.472292 C547.23512,161.705086 541.917674,155.555963 538.84544,156.024923 C533.380358,156.859138 533.280497,167.47992 541.543335,173.579403 C545.432311,176.450177 549.51724,178.739583 553.798124,180.44762 L554.513422,180.726901 C555.495603,181.102054 556.563729,180.551358 556.899149,179.496888 C557.08142,178.923876 557.014341,178.2896 556.716426,177.769132 Z" fill="#80424C"></path>
            <path d="M494.678005,193.74144 C497.397477,194.220957 500.185131,191.30283 500.904405,187.223623 C501.623679,183.144416 500.002199,179.44884 497.282728,178.969324 C494.563256,178.489808 491.775602,181.407934 491.056328,185.487141 C490.337053,189.566349 491.958534,193.261924 494.678005,193.74144 Z" fill="#2E363A"></path>
            <path d="M535.792251,200.823687 C538.511722,201.303203 541.299377,198.385077 542.018651,194.30587 C542.737925,190.226663 541.116445,186.531087 538.396974,186.051571 C535.677502,185.572055 532.889848,188.490181 532.170574,192.569388 C531.451299,196.648595 533.072779,200.344171 535.792251,200.823687 Z" fill="#2E363A"></path>
            <path d="M516.596992,564.032141 C521.035219,562.977834 525.702489,563.649045 529.65794,565.899475 L530.038472,566.122184 L549.094241,577.589942 C550.321279,578.328373 551.239184,579.486411 551.677989,580.849626 C552.68019,583.96312 550.96865,587.29955 547.855156,588.301751 C547.736663,588.339893 547.614868,588.366889 547.491356,588.382387 C537.503009,589.635757 528.753756,587.915439 521.326228,583.206951 L521.001,582.996 L490.394849,599.235542 C489.465571,599.728579 488.323211,599.415254 487.769323,598.541414 L487.690754,598.406164 C487.197716,597.476887 487.511041,596.334527 488.384882,595.780638 L488.520131,595.702069 L520.184722,578.90212 C520.847759,578.550339 521.651942,578.599409 522.26729,579.029194 C528.992341,583.726251 537.007033,585.549911 546.404205,584.483901 L546.777,584.439 L546.905524,584.381304 C547.694158,583.985223 548.118667,583.090563 547.910912,582.22003 L547.870386,582.075254 C547.745758,581.688077 547.502066,581.35189 547.17627,581.113321 L547.031724,581.017189 L527.975955,569.549431 C524.949982,567.728401 521.352075,567.120723 517.903944,567.838616 L517.521471,567.923842 L500.925993,571.866119 C499.851329,572.121407 498.773191,571.457172 498.517903,570.382508 C498.274219,569.356693 498.868365,568.327711 499.857561,568.014253 L500.001514,567.974418 L516.596992,564.032141 Z" fill="#583E40" fill-rule="nonzero"></path>
            <path d="M524.645095,552.841255 C529.356619,552.584149 533.989667,554.08944 537.646605,557.054654 L537.986556,557.33691 L563.058201,578.650366 C565.162151,580.438916 565.417818,583.594414 563.629255,585.698353 C563.10253,586.317955 562.432623,586.799729 561.677616,587.101905 C558.264523,588.467924 553.291327,588.793082 546.687179,588.154757 C545.587734,588.04849 544.782603,587.071067 544.88887,585.971621 C544.995137,584.872175 545.97256,584.067045 547.072006,584.173312 C553.096512,584.755611 557.493233,584.468144 560.19132,583.388291 C560.342323,583.327856 560.476306,583.2315 560.581651,583.107579 C560.911849,582.719158 560.89368,582.15154 560.557963,581.78516 L560.467436,581.697978 L535.395782,560.384514 C532.569814,557.982153 528.957908,556.71505 525.259596,556.818926 L524.86305,556.835313 L501.566467,558.1066 C500.463539,558.166786 499.520648,557.321477 499.460461,556.218548 C499.403011,555.165753 500.170609,554.258777 501.199771,554.126153 L501.348513,554.112542 L524.645095,552.841255 Z" fill="#583E40" fill-rule="nonzero"></path>
            <polygon fill="#818676" points="488.45749 306.468806 493.378895 337.468806 505.45749 327.954389"></polygon>
            <polygon fill="#626658" points="492.45749 331.468806 481.45749 331.468806 488.319427 306.468806"></polygon>
            <path d="M873.745936,455.888349 C874.702378,455.335817 875.925643,455.663251 876.478176,456.619694 C877.004397,457.530591 876.732463,458.683505 875.87916,459.268539 L875.746831,459.351934 L865.61992,465.202201 C864.663478,465.754733 863.440213,465.427299 862.88768,464.470857 C862.361459,463.559959 862.633393,462.407045 863.486696,461.822011 L863.619025,461.738617 L873.745936,455.888349 Z" fill="#583E40" fill-rule="nonzero"></path>
            <path d="M605.87763,563.715837 C613.022578,559.791297 619.664889,563.259868 625.290058,573.178024 L625.500524,573.552976 L638.721615,596.469355 C639.273596,597.426115 638.945458,598.649192 637.988698,599.201173 C637.077498,599.72687 635.92474,599.454272 635.340198,598.600633 L635.256879,598.468256 L622.019869,575.523762 C617.272438,566.978954 612.706306,564.528705 607.803353,567.221774 C602.729728,570.008589 600.692524,574.884193 601.706813,582.281109 L601.771,582.724 L652.634392,664.411668 C653.189041,665.302443 652.957914,666.460143 652.129489,667.074256 L651.993749,667.166586 C651.102974,667.721235 649.945274,667.490108 649.331161,666.661683 L649.238831,666.525943 L598.160511,584.493319 C598.020935,584.269159 597.927132,584.019578 597.884513,583.758977 C596.343186,574.334315 599.001955,567.492474 605.87763,563.715837 Z" fill="#2E363A" fill-rule="nonzero"></path>
            <path d="M593.222865,576.155242 C593.493253,575.084278 594.580634,574.435282 595.651598,574.70567 C596.673882,574.963767 597.311686,575.966273 597.132389,576.988338 L597.10117,577.134402 L580.879174,641.387223 C580.608786,642.458187 579.521406,643.107183 578.450442,642.836795 C577.428158,642.578698 576.790353,641.576192 576.969651,640.554127 L577.00087,640.408063 L593.222865,576.155242 Z" fill="#2E363A" fill-rule="nonzero"></path>
            <path d="M598.565999,619.752276 C599.55474,619.259869 600.755448,619.662226 601.247856,620.650967 L605.071654,628.357824 C617.321054,653.143726 626.240053,672.17784 631.833096,685.472143 L632.25149,686.470801 C635.330963,693.852763 637.348093,699.405618 638.309819,703.17036 C638.82422,705.184017 639.05333,706.735704 638.973726,707.907115 C638.848835,709.744945 637.851514,711.140231 636,711.140231 C631.860379,711.140231 624.842544,714.793867 615.256983,722.159795 C614.38114,722.832828 613.125528,722.668418 612.452495,721.792575 C611.779463,720.916732 611.943873,719.66112 612.819716,718.988088 C622.377846,711.643239 629.650497,707.696351 634.88919,707.194939 L634.982,707.186 L634.974719,707.047252 C634.933388,706.481384 634.805784,705.719581 634.586358,704.781196 L634.434276,704.160391 L634.269109,703.53615 C633.332993,700.109674 631.513301,695.128853 628.815338,688.625016 L628.144243,687.018873 C622.025295,672.474952 611.864339,650.941374 597.667309,622.434133 C597.174901,621.445392 597.577259,620.244684 598.565999,619.752276 Z" fill="#2E363A" fill-rule="nonzero"></path>
            <path d="M645.421765,608.81106 C646.345628,608.205624 647.585369,608.46376 648.190804,609.387623 C679.242032,656.770163 688.834314,682.942674 675.362507,688.832518 C664.143845,693.737292 655.016831,699.891141 647.965644,707.28807 C647.203504,708.08758 645.937536,708.117874 645.138026,707.355734 C644.338516,706.593594 644.308222,705.327626 645.070362,704.528116 C652.505886,696.728006 662.074426,690.27646 673.760161,685.167482 C683.192751,681.043575 674.089479,656.205326 644.845202,611.580098 C644.239767,610.656236 644.497903,609.416495 645.421765,608.81106 Z" fill="#2E363A" fill-rule="nonzero"></path>
            <path d="M405.8353,159.305813 C410.833562,157.046248 416.131545,158.267199 421.467212,162.708846 C422.316137,163.415529 422.431446,164.676598 421.724764,165.525523 C421.018081,166.374447 419.757012,166.489757 418.908087,165.783074 C414.659285,162.246182 410.93828,161.388655 407.483032,162.950669 C404.165553,164.450403 402.663543,168.290084 403.187509,174.942971 C403.274234,176.044131 402.451872,177.007101 401.350712,177.093826 C400.249553,177.180551 399.286582,176.358189 399.199857,175.257029 C398.557624,167.102483 400.69927,161.627659 405.8353,159.305813 Z" fill="#2E363A" fill-rule="nonzero"></path>
            <polygon fill="#719CFE" points="91.4469515 725.767664 790.446951 725.767664 768.884685 756.11574 69.8846853 756.11574"></polygon>
            <polygon fill="#E9525B" points="64.2784961 764.006239 953.278496 764.006239 931.71623 794.354315 42.7162299 794.354315"></polygon>
            <polygon fill="#F6BE67" points="37.1100407 802.244814 576.110041 802.244814 554.547775 832.59289 15.5477745 832.59289"></polygon>
            <path d="M401.585927,58.3021899 C401.975375,57.2685539 403.129014,56.7463369 404.16265,57.1357856 C426.737673,65.6415016 443.025102,76.4376554 452.988417,89.5741577 C453.655905,90.454233 453.48357,91.7087816 452.603495,92.3762703 C451.723419,93.043759 450.468871,92.8714235 449.801382,91.9913482 C440.347908,79.5270643 424.677065,69.1396157 402.752331,60.8789128 C401.718695,60.4894641 401.196478,59.3358259 401.585927,58.3021899 Z" fill="#FFFFFF" fill-rule="nonzero"></path>
            <path d="M1217.93661,719.5 C1219.04118,719.5 1219.93661,720.395431 1219.93661,721.5 C1219.93661,722.554362 1219.12073,723.418165 1218.08587,723.494514 L1217.93661,723.5 L83.9366115,723.5 C82.832042,723.5 81.9366115,722.604569 81.9366115,721.5 C81.9366115,720.445638 82.7524893,719.581835 83.7873492,719.505486 L83.9366115,719.5 L1217.93661,719.5 Z" fill="#D8EAEF" fill-rule="nonzero"></path>
            <path d="M775.582342,755.676117 C778.29223,755.487443 781.002118,753.965784 783.712006,751.11114 L783.712006,741.819768 L777.716163,744.841828 L775.582342,755.676117 Z" fill="#4F576C"></path>
            <path d="M766.094225,664.197043 L794.282674,664.197043 L794.282674,729.030476 C794.282674,732.144087 791.758594,734.668166 788.644984,734.668166 L771.731915,734.668166 C768.618304,734.668166 766.094225,732.144087 766.094225,729.030476 L766.094225,664.197043 Z" fill="#4F576C"></path>
            <path d="M752,663.960817 C752,645.777502 766.740489,631.037013 784.923804,631.037013 L787.732985,631.037013 C796.797519,631.037013 801.329786,636.322234 801.329786,646.892676 C801.329786,657.463118 793.368387,668.534202 777.445588,680.105929 C760.481863,677.169466 752,671.787762 752,663.960817 Z" fill="#6088E8"></path>
            <path d="M789.635206,734.544577 C792.345094,734.355903 795.054982,732.834244 797.764869,729.9796 L797.764869,720.688228 L791.769027,723.710288 L789.635206,734.544577 Z" fill="#4F576C"></path>
            <path d="M794.282674,666.881657 L801.329786,657.386156 L801.329786,719.260256 C801.329786,723.099712 800.09439,726.837277 797.80623,729.920416 C797.163007,730.787115 795.938973,730.968278 795.072274,730.325055 C794.575541,729.956403 794.282674,729.374342 794.282674,728.755757 L794.282674,666.881657 Z" fill="#697084"></path>
            <path d="M752,685.33838 L780.188449,685.33838 L780.188449,750.171813 C780.188449,753.285424 777.66437,755.809503 774.55076,755.809503 L757.63769,755.809503 C754.52408,755.809503 752,753.285424 752,750.171813 L752,685.33838 Z" fill="#4F576C"></path>
            <path d="M780.188449,688.022994 L787.235562,678.527493 L787.235562,742.121231 C787.235562,744.843972 786.359483,747.494458 784.73684,749.680859 L783.712006,751.061753 C783.068782,751.928452 781.844748,752.109615 780.978049,751.466392 C780.481316,751.09774 780.188449,750.515679 780.188449,749.897094 L780.188449,688.022994 Z" fill="#697084"></path>
            <path d="M790.759118,644.186687 C792.814715,641.629571 796.554058,641.223009 799.111174,643.278606 C800.513887,644.406209 801.329786,646.108927 801.329786,647.908675 L801.329786,680.180368 L780.188449,706.479717 L780.188449,674.208024 C780.188449,663.2888 783.917853,652.697067 790.759118,644.186687 Z" fill="#719CFE"></path>
            <path d="M766.094225,657.336362 C758.310199,657.336362 752,663.646561 752,671.430587 L752,706.479717 L780.188449,706.479717 L780.188449,671.430587 C780.188449,663.646561 773.87825,657.336362 766.094225,657.336362 Z" fill="#6088E8"></path>
            <polygon fill="#6088E8" points="752 663.960817 766.094225 663.960817 766.094225 699.196379 752 699.196379"></polygon>
            <path d="M756.983061,663.960817 L761.111164,663.960817 C764.301764,663.960817 767.361686,662.693356 769.617781,660.437261 C770.423843,659.631199 770.423843,658.324314 769.617781,657.518251 C769.230696,657.131167 768.705697,656.913705 768.158276,656.913705 L764.030173,656.913705 C760.839573,656.913705 757.779651,658.181166 755.523556,660.437261 C754.717494,661.243323 754.717494,662.550208 755.523556,663.35627 C755.910641,663.743355 756.43564,663.960817 756.983061,663.960817 Z" fill="#6088E8"></path>
            <path d="M762.877935,712.836267 C765.587823,712.647593 768.297711,711.125934 771.007599,708.27129 L771.007599,698.979919 L765.011757,702.001978 L762.877935,712.836267 Z" fill="#F69883"></path>
            <path d="M769.617781,660.377169 C770.433665,659.575199 771.745194,659.586479 772.547163,660.402363 C772.927956,660.789763 773.141337,661.311241 773.141337,661.854457 L773.141337,692.269451 L766.094225,699.196379 L766.094225,668.781384 C766.094225,665.620821 767.363787,662.592722 769.617781,660.377169 Z" fill="#719CFE"></path>
            <path d="M766.094225,693.756313 L773.141337,686.829385 L773.141337,704.000015 C773.141337,705.512032 772.533977,706.960678 771.455664,708.020601 L769.617781,709.82714 C768.801897,710.629109 767.490368,710.617829 766.688399,709.801945 C766.307605,709.414545 766.094225,708.893067 766.094225,708.349852 L766.094225,693.756313 Z" fill="#FDB4A3"></path>
            <path d="M752,693.756313 L766.094225,693.756313 L766.094225,707.746612 C766.094225,710.823389 763.627356,713.331949 760.551012,713.38351 L757.732167,713.430755 C754.713333,713.481353 752.208989,711.14957 752.012406,708.169557 L752,707.793857 L752,707.793857 L752,693.756313 Z" fill="#F69883"></path>
            <path d="M762.814771,630.742055 L762.814771,625.799514 C762.814771,622.591619 763.909085,619.479697 765.916924,616.977863 L768.777294,613.413746 L784.750796,611.979494 L781.331299,633.627799 L762.814771,630.742055 Z" fill="#F69883"></path>
            <path d="M766.094225,657.336362 C762.364316,657.336362 759.340627,654.312673 759.340627,650.582764 C759.340627,649.043754 759.866268,647.550901 760.83051,646.351406 L764.310827,642.021969 C769.893899,635.076753 778.324517,631.037013 787.235562,631.037013 C790.965471,631.037013 793.98916,634.060702 793.98916,637.790611 C793.98916,639.329621 793.463519,640.822474 792.499277,642.021969 L789.018959,646.351406 C783.435887,653.296622 775.00527,657.336362 766.094225,657.336362 Z" fill="#6088E8"></path>
            <path d="M776.264349,632.21587 C776.264349,624.855587 778.778216,617.716056 783.389683,611.979494 C784.775291,610.255828 787.295857,609.981778 789.019523,611.367387 C789.965045,612.127467 790.515016,613.275211 790.515016,614.488361 L790.515016,624.869006 C790.515016,627.423271 790.176935,630.392767 789.500773,633.777495 L789.361028,634.459976 C787.783648,641.9836 781.303488,647.45845 773.653233,647.78515 L773.299328,647.796562 L773.299328,647.796562 L772.684643,647.803262 L770.431393,647.799549 C766.305341,647.792784 762.948728,644.511539 762.818682,640.417028 L762.814771,640.170401 L762.814771,640.170401 L762.814771,627.568038 C762.814771,623.85404 765.825562,620.843249 769.53956,620.843249 C773.253559,620.843249 776.264349,623.85404 776.264349,627.568038 L776.264349,632.21587 Z" fill="#FDB4A3"></path>
            <path d="M782.099399,607.344007 C786.747216,607.344007 790.515016,611.111807 790.515016,615.759624 L790.515016,618.721994 L778.929815,613.082787 L782.099399,607.344007 Z" fill="#F69883"></path>
            <path d="M769.53956,620.843249 C773.857681,620.843249 778.011562,619.188165 781.146466,616.218562 L784.331298,613.201663 C785.692049,611.912663 785.750215,609.764616 784.461215,608.403866 C783.820291,607.727265 782.92933,607.344007 781.997358,607.344007 C776.617856,607.344007 771.534301,609.806415 768.199454,614.027532 L766.983586,615.566529 C765.868346,616.978155 766.108615,619.026583 767.52024,620.141823 C768.09528,620.596127 768.806715,620.843249 769.53956,620.843249 Z" fill="#F69883"></path>
            <ellipse fill="#583E40" cx="787.476757" cy="623.956909" rx="1" ry="2.1141337"></ellipse>
            <ellipse fill="#583E40" cx="782.531266" cy="630.014246" rx="1" ry="2.1141337"></ellipse>
            <path d="M788.31067,629.134672 C788.718691,629.206028 788.991612,629.59464 788.920255,630.002661 C788.530031,632.233998 787.870915,633.922638 786.917893,635.067243 C785.944473,636.236348 784.523914,637.0089 782.684834,637.393618 C782.279397,637.478431 781.88197,637.218514 781.797156,636.813077 C781.712343,636.407639 781.97226,636.010212 782.377697,635.925399 C783.904849,635.605934 785.024463,634.997046 785.765157,634.107452 C786.52625,633.193359 787.093762,631.739407 787.442681,629.744258 C787.50809,629.370238 787.840083,629.109741 788.209241,629.123884 L788.31067,629.134672 Z" fill="#583E40" fill-rule="nonzero"></path>
            <path d="M776.264349,634.934014 L778.929815,626.071043 L778.929815,620.843249 C785.077958,619.407134 790.195578,617.388131 794.282674,614.78624 C795.152463,608.158604 791.843497,604.541837 784.355776,603.935941 C773.124195,603.027097 764.846667,606.668862 766.094225,613.033001 C761.525088,615.750901 760.366765,619.894665 762.619256,625.464292 L762.814771,641.031492 L769.617781,636.659508 L768.47761,633.433071 C767.988043,632.047704 768.564827,630.51089 769.844999,629.789725 C771.091737,629.087395 772.669389,629.469998 773.455896,630.665418 L776.264349,634.934014 Z" fill="#583E40"></path>
            <path d="M1190.76816,757.738575 C1191.87273,757.738575 1192.76816,758.634005 1192.76816,759.738575 C1192.76816,760.792937 1191.95228,761.65674 1190.91742,761.733089 L1190.76816,761.738575 L56.7681561,761.738575 C55.6635866,761.738575 54.7681561,760.843144 54.7681561,759.738575 C54.7681561,758.684213 55.5840339,757.82041 56.6188938,757.744061 L56.7681561,757.738575 L1190.76816,757.738575 Z" fill="#D8EAEF" fill-rule="nonzero"></path>
            <path d="M1163.16846,796.584111 C1164.27302,796.584111 1165.16846,797.479542 1165.16846,798.584111 C1165.16846,799.638473 1164.35258,800.502277 1163.31772,800.578626 L1163.16846,800.584111 L29.1684554,800.584111 C28.0638859,800.584111 27.1684554,799.688681 27.1684554,798.584111 C27.1684554,797.52975 27.9843332,796.665946 29.0191931,796.589597 L29.1684554,796.584111 L1163.16846,796.584111 Z" fill="#D8EAEF" fill-rule="nonzero"></path>
            <path d="M1136,834.822686 C1137.10457,834.822686 1138,835.718117 1138,836.822686 C1138,837.877048 1137.18412,838.740852 1136.14926,838.817201 L1136,838.822686 L2,838.822686 C0.8954305,838.822686 0,837.927256 0,836.822686 C0,835.768325 0.815877791,834.904521 1.85073766,834.828172 L2,834.822686 L1136,834.822686 Z" fill="#D8EAEF" fill-rule="nonzero"></path>
            <polygon fill="#4F576C" fill-rule="nonzero" points="1134.50001 668.494059 1138.49999 668.505941 1137.99999 836.828627 1134.00001 836.816746"></polygon>
            <polygon fill="#4F576C" fill-rule="nonzero" points="1216.18662 552.86391 1220.1866 552.875792 1219.6866 721.198479 1215.68662 721.186597"></polygon>
            <path d="M1146.72377,681.104874 L1146.72377,694.604874 L1136.5,709 L1136.5,695.5 L1146.72377,681.104874 Z M1146.72377,654.104874 L1146.72377,667.604874 L1136.5,682 L1136.5,668.5 L1146.72377,654.104874 Z M1156.94753,653.209749 L1156.94753,666.709749 L1146.72377,681.104874 L1146.72377,667.604874 L1156.94753,653.209749 Z M1167.1713,652.314623 L1167.1713,665.814623 L1156.94753,680.209749 L1156.94753,666.709749 L1167.1713,652.314623 Z M1167.1713,625.314623 L1167.1713,638.814623 L1156.94753,653.209749 L1156.94753,639.709749 L1167.1713,625.314623 Z M1177.39506,624.419497 L1177.39506,637.919497 L1167.1713,652.314623 L1167.1713,638.814623 L1177.39506,624.419497 Z M1187.61883,623.524372 L1187.61883,637.024372 L1177.39506,651.419497 L1177.39506,637.919497 L1187.61883,623.524372 Z M1187.61883,596.524372 L1187.61883,610.024372 L1177.39506,624.419497 L1177.39506,610.919497 L1187.61883,596.524372 Z M1197.84259,595.629246 L1197.84259,609.129246 L1187.61883,623.524372 L1187.61883,610.024372 L1197.84259,595.629246 Z M1208.06636,594.734121 L1208.06636,608.234121 L1197.84259,622.629246 L1197.84259,609.129246 L1208.06636,594.734121 Z M1208.06636,567.734121 L1208.06636,581.234121 L1197.84259,595.629246 L1197.84259,582.129246 L1208.06636,567.734121 Z M1218.29013,566.838995 L1218.29013,580.338995 L1208.06636,594.734121 L1208.06636,581.234121 L1218.29013,566.838995 Z" fill="#4F576C"></path>
            <path d="M1146.72377,667.604874 L1146.72377,681.104874 L1136.5,695.5 L1136.5,682 L1146.72377,667.604874 Z M1156.94753,666.709749 L1156.94753,680.209749 L1146.72377,694.604874 L1146.72377,681.104874 L1156.94753,666.709749 Z M1156.94753,639.709749 L1156.94753,653.209749 L1146.72377,667.604874 L1146.72377,654.104874 L1156.94753,639.709749 Z M1167.1713,638.814623 L1167.1713,652.314623 L1156.94753,666.709749 L1156.94753,653.209749 L1167.1713,638.814623 Z M1177.39506,637.919497 L1177.39506,651.419497 L1167.1713,665.814623 L1167.1713,652.314623 L1177.39506,637.919497 Z M1177.39506,610.919497 L1177.39506,624.419497 L1167.1713,638.814623 L1167.1713,625.314623 L1177.39506,610.919497 Z M1187.61883,610.024372 L1187.61883,623.524372 L1177.39506,637.919497 L1177.39506,624.419497 L1187.61883,610.024372 Z M1197.84259,609.129246 L1197.84259,622.629246 L1187.61883,637.024372 L1187.61883,623.524372 L1197.84259,609.129246 Z M1197.84259,582.129246 L1197.84259,595.629246 L1187.61883,610.024372 L1187.61883,596.524372 L1197.84259,582.129246 Z M1208.06636,581.234121 L1208.06636,594.734121 L1197.84259,609.129246 L1197.84259,595.629246 L1208.06636,581.234121 Z M1218.29013,580.338995 L1218.29013,593.838995 L1208.06636,608.234121 L1208.06636,594.734121 L1218.29013,580.338995 Z M1218.29013,553.338995 L1218.29013,566.838995 L1208.06636,581.234121 L1208.06636,567.734121 L1218.29013,553.338995 Z" fill="#E8E8E8"></path>
            <path d="M401.46192,296.335767 C401.595201,294.336557 404.229678,293.778589 405.187827,295.464284 L405.261759,295.605895 L416.265481,318.61372 L453.155407,396.61372 C453.627658,397.612246 453.201027,398.804546 452.202502,399.276796 C451.251525,399.726558 450.12479,399.361009 449.61169,398.462611 L449.539426,398.323891 L412.653222,320.331717 L404.945,304.215 L402.453061,341.601844 C402.382925,342.65387 401.511395,343.461489 400.473749,343.468831 L400.324452,343.464376 C399.272426,343.394241 398.464807,342.522711 398.457465,341.485064 L398.46192,341.335767 L401.46192,296.335767 Z" fill="#2E363A" fill-rule="nonzero"></path>
            <path d="M486.531562,305.929546 C487.103985,303.885179 490.007769,304.04213 490.414233,306.05047 L490.441046,306.212863 L494.441046,337.212863 C494.582399,338.30835 493.808921,339.311008 492.713433,339.452361 C491.66774,339.587289 490.70663,338.888662 490.498476,337.872081 L490.473935,337.724748 L487.732,316.478 L483.383418,332.008065 C483.099131,333.023378 482.080563,333.635204 481.063444,333.429697 L480.91823,333.394734 C479.902918,333.110446 479.291091,332.091878 479.496599,331.074759 L479.531562,330.929546 L486.531562,305.929546 Z" fill="#2E363A" fill-rule="nonzero"></path>
            <path d="M444.430764,611.98075 L279.392063,693.468806 C279.284351,679.884063 277.8368,667.047297 275.049412,654.958509 L275.781476,655.865072 C286.600879,669.128177 295.660444,674.192276 302.959245,671.058246 L308.119444,668.870714 C324.041022,662.159988 369.478129,643.196667 444.430764,611.98075 Z" fill="#F69883"></path>
            <path d="M826.065738,535.496627 L826.065738,536.342627 L823.567868,537.643118 L672.646746,665.468806 L652.119935,627.287627 L631.687935,585.842752 C661.298305,621.2682 682.635019,635.28732 695.698077,627.900112 C708.761136,620.512904 752.217022,589.711743 826.065738,535.496627 Z" fill="#F69883"></path>
            <circle fill="#E9525B" cx="725.842543" cy="187.795752" r="27.5933399"></circle>
            <circle fill="#719CFE" cx="725.842543" cy="284.622432" r="27.5933399"></circle>
            <circle fill="#F6BE67" cx="725.842543" cy="381.449111" r="27.5933399"></circle>
            <path d="M922.332295,167.295752 L781.667705,167.295752 C774.671525,167.295752 769,172.967276 769,179.963457 C769,186.959637 774.671525,192.631162 781.667705,192.631162 L922.332295,192.631162 C929.328475,192.631162 935,186.959637 935,179.963457 C935,172.967276 929.328475,167.295752 922.332295,167.295752 Z M781.667705,171.295752 L922.332295,171.295752 C927.119336,171.295752 931,175.176415 931,179.963457 C931,184.750498 927.119336,188.631162 922.332295,188.631162 L781.667705,188.631162 C776.880664,188.631162 773,184.750498 773,179.963457 C773,175.176415 776.880664,171.295752 781.667705,171.295752 Z" fill="#F0DECF" fill-rule="nonzero"></path>
            <polygon fill="#F0DECF" fill-rule="nonzero" points="905.778341 203.50642 905.778341 207.50642 771 207.50642 771 203.50642"></polygon>
            <path d="M922.332295,264.122432 L781.667705,264.122432 C774.671525,264.122432 769,269.793956 769,276.790137 C769,283.786317 774.671525,289.457842 781.667705,289.457842 L922.332295,289.457842 C929.328475,289.457842 935,283.786317 935,276.790137 C935,269.793956 929.328475,264.122432 922.332295,264.122432 Z M781.667705,268.122432 L922.332295,268.122432 C927.119336,268.122432 931,272.003095 931,276.790137 C931,281.577178 927.119336,285.457842 922.332295,285.457842 L781.667705,285.457842 C776.880664,285.457842 773,281.577178 773,276.790137 C773,272.003095 776.880664,268.122432 781.667705,268.122432 Z" fill="#F0DECF" fill-rule="nonzero"></path>
            <polygon fill="#F0DECF" fill-rule="nonzero" points="905.778341 300.3331 905.778341 304.3331 771 304.3331 771 300.3331"></polygon>
            <path d="M922.332295,361.122432 L781.667705,361.122432 C774.671525,361.122432 769,366.793956 769,373.790137 C769,380.786317 774.671525,386.457842 781.667705,386.457842 L922.332295,386.457842 C929.328475,386.457842 935,380.786317 935,373.790137 C935,366.793956 929.328475,361.122432 922.332295,361.122432 Z M781.667705,365.122432 L922.332295,365.122432 C927.119336,365.122432 931,369.003095 931,373.790137 C931,378.577178 927.119336,382.457842 922.332295,382.457842 L781.667705,382.457842 C776.880664,382.457842 773,378.577178 773,373.790137 C773,369.003095 776.880664,365.122432 781.667705,365.122432 Z" fill="#F0DECF" fill-rule="nonzero"></path>
            <polygon fill="#F0DECF" fill-rule="nonzero" points="905.778341 397.3331 905.778341 401.3331 771 401.3331 771 397.3331"></polygon>
            <polygon fill="#F0DECF" fill-rule="nonzero" points="322 158 322 162 56 162 56 158"></polygon>
            <path d="M197.438344,118 C189.154073,118 182.438344,124.715729 182.438344,133 C182.438344,141.284271 189.154073,148 197.438344,148 C205.722616,148 212.438344,141.284271 212.438344,133 C212.438344,124.715729 205.722616,118 197.438344,118 Z M197.438344,122 C203.513477,122 208.438344,126.924868 208.438344,133 C208.438344,139.075132 203.513477,144 197.438344,144 C191.363212,144 186.438344,139.075132 186.438344,133 C186.438344,126.924868 191.363212,122 197.438344,122 Z" fill="#F0DECF" fill-rule="nonzero"></path>
            <path d="M251.832284,119.575758 L224.19592,119.575758 L224.19592,147.212121 L251.832284,147.212121 L251.832284,119.575758 Z M247.832,123.575 L247.832,143.212 L228.195,143.212 L228.195,123.575 L247.832,123.575 Z" fill="#F0DECF" fill-rule="nonzero"></path>
            <polygon fill="#F0DECF" fill-rule="nonzero" points="299.097968 143.212121 299.097968 147.212121 265.5502 147.212121 265.5502 143.212121"></polygon>
        </g>
    </g>
</svg>