<?xml version="1.0" encoding="UTF-8"?>
<svg width="1600px" height="1200px" viewBox="0 0 1600 1200" version="1.1" xmlns="http://www.w3.org/2000/svg" xmlns:xlink="http://www.w3.org/1999/xlink">
    <title>Learning automation</title>
    <g id="Learning-automation" stroke="none" stroke-width="1" fill="none" fill-rule="evenodd">
        <g transform="translate(119.000000, 181.500000)" id="Shape">
            <circle fill="#E9F4F7" cx="839.5" cy="315.5" r="281.5"></circle>
            <path d="M508,0 C324.641463,0 176,148.641463 176,332 C176,515.358537 324.641463,664 508,664 C691.358537,664 840,515.358537 840,332 C840,148.641463 691.358537,0 508,0 Z M508,4 C689.149398,4 836,150.850602 836,332 C836,513.149398 689.149398,660 508,660 C326.850602,660 180,513.149398 180,332 C180,150.850602 326.850602,4 508,4 Z" fill="#F0DECF" fill-rule="nonzero"></path>
            <circle fill="#FEF6E7" cx="455.5" cy="546.168224" r="281.5"></circle>
            <path d="M453.440232,22 C443.499106,22 435.440232,30.0588745 435.440232,40 C435.440232,49.9411255 443.499106,58 453.440232,58 C463.381357,58 471.440232,49.9411255 471.440232,40 C471.440232,30.0588745 463.381357,22 453.440232,22 Z M453.440232,26 C461.172218,26 467.440232,32.2680135 467.440232,40 C467.440232,47.7319865 461.172218,54 453.440232,54 C445.708245,54 439.440232,47.7319865 439.440232,40 C439.440232,32.2680135 445.708245,26 453.440232,26 Z" fill="#F0DECF" fill-rule="nonzero"></path>
            <path d="M519.92508,23.9393939 L486.834171,23.9393939 L486.834171,57.030303 L519.92508,57.030303 L519.92508,23.9393939 Z M515.925,27.939 L515.925,53.03 L490.834,53.03 L490.834,27.939 L515.925,27.939 Z" fill="#F0DECF" fill-rule="nonzero"></path>
            <path d="M148,486.5 L100,486.5 L100,602.5 L148,602.5 L148,486.5 Z M144,490.5 L144,598.5 L104,598.5 L104,490.5 L144,490.5 Z" fill="#D4CCBE" fill-rule="nonzero"></path>
            <path d="M1269.5,486.5 L1221.5,486.5 L1221.5,602.5 L1269.5,602.5 L1269.5,486.5 Z M1265.5,490.5 L1265.5,598.5 L1225.5,598.5 L1225.5,490.5 L1265.5,490.5 Z" fill="#D4CCBE" fill-rule="nonzero"></path>
            <path d="M243.5,678.5 L269.5,678.5 C271.432997,678.5 273,680.067003 273,682 C273,683.932997 271.432997,685.5 269.5,685.5 L243.5,685.5 C241.567003,685.5 240,683.932997 240,682 C240,680.067003 241.567003,678.5 243.5,678.5 Z" fill="#FFFFFF"></path>
            <path d="M1090,678.5 L1116,678.5 C1117.933,678.5 1119.5,680.067003 1119.5,682 C1119.5,683.932997 1117.933,685.5 1116,685.5 L1090,685.5 C1088.067,685.5 1086.5,683.932997 1086.5,682 C1086.5,680.067003 1088.067,678.5 1090,678.5 Z" fill="#FFFFFF"></path>
            <path d="M284,717.3 L284,744.5 L229,744.5 L229,717.3 L284,717.3 Z M280,721.3 L233,721.3 L233,740.5 L280,740.5 L280,721.3 Z M284,672.5 L284,699.7 L229,699.7 L229,672.5 L284,672.5 Z M280,676.5 L233,676.5 L233,695.7 L280,695.7 L280,676.5 Z" fill="#D4CCBE" fill-rule="nonzero"></path>
            <path d="M1130.5,717.3 L1130.5,744.5 L1075.5,744.5 L1075.5,717.3 L1130.5,717.3 Z M1126.5,721.3 L1079.5,721.3 L1079.5,740.5 L1126.5,740.5 L1126.5,721.3 Z M1130.5,672.5 L1130.5,699.7 L1075.5,699.7 L1075.5,672.5 L1130.5,672.5 Z M1126.5,676.5 L1079.5,676.5 L1079.5,695.7 L1126.5,695.7 L1126.5,676.5 Z" fill="#D4CCBE" fill-rule="nonzero"></path>
            <path d="M1040.44657,235 L319.553429,235 C297.708673,235 280,252.701826 280,274.538136 L280,797.461864 C280,819.298174 297.708673,837 319.553429,837 L1040.44657,837 C1062.29133,837 1080,819.298174 1080,797.461864 L1080,274.538136 C1080,252.701826 1062.29133,235 1040.44657,235 Z" fill="#D49E44" fill-rule="nonzero"></path>
            <path d="M1040.44657,215 L319.553429,215 C297.708673,215 280,232.701826 280,254.538136 L280,777.461864 C280,799.298174 297.708673,817 319.553429,817 L1040.44657,817 C1062.29133,817 1080,799.298174 1080,777.461864 L1080,254.538136 C1080,232.701826 1062.29133,215 1040.44657,215 Z" fill="#F7C066" fill-rule="nonzero"></path>
            <path d="M320.035775,241 L1040.96422,241 C1048.71597,241 1055,247.281486 1055,255.030093 L1055,777.969907 C1055,785.718514 1048.71597,792 1040.96422,792 L320.035775,792 C312.284031,792 306,785.718514 306,777.969907 L306,255.030093 C306,247.281486 312.284031,241 320.035775,241 Z" fill="#229581" fill-rule="nonzero"></path>
            <path d="M320.035775,241 L1040.96422,241 C1048.71597,241 1055,247.281486 1055,255.030093 L1055,777.969907 C1055,785.718514 1048.71597,792 1040.96422,792 L320.035775,792 C312.284031,792 306,785.718514 306,777.969907 L306,255.030093 C306,247.281486 312.284031,241 320.035775,241 Z" fill="#229581" fill-rule="nonzero"></path>
            <path d="M1006.74296,270.658589 C1007.75879,271.092376 1008.23062,272.26752 1007.79684,273.283346 C1007.36305,274.299172 1006.18791,274.771008 1005.17208,274.33722 C1003.88409,273.787213 1002.49295,273.5 1001.05802,273.5 C999.953453,273.5 999.058022,272.604569 999.058022,271.5 C999.058022,270.395431 999.953453,269.5 1001.05802,269.5 C1003.03538,269.5 1004.96064,269.897487 1006.74296,270.658589 Z M1015.53993,287.497584 C1015.53993,288.602154 1014.64451,289.4976 1013.53994,289.4976 C1012.43537,289.4976 1011.53994,288.602185 1011.53993,287.497615 L1011.5399,283.954517 C1011.53904,283.536537 1011.51377,283.122054 1011.46456,282.712347 C1011.33283,281.615661 1012.11508,280.619834 1013.21177,280.488105 C1014.30846,280.356377 1015.30428,281.13863 1015.43601,282.235317 C1015.5039,282.800481 1015.5387,283.37147 1015.53993,283.950343 L1015.53993,287.497584 Z M1015.53993,305.4976 C1015.53993,306.602169 1014.6445,307.4976 1013.53993,307.4976 C1012.43536,307.4976 1011.53993,306.602169 1011.53993,305.4976 L1011.53993,300.4976 C1011.53993,299.39303 1012.43536,298.4976 1013.53993,298.4976 C1014.6445,298.4976 1015.53993,299.39303 1015.53993,300.4976 L1015.53993,305.4976 Z M1015.53993,323.4976 C1015.53993,324.602169 1014.6445,325.4976 1013.53993,325.4976 C1012.43536,325.4976 1011.53993,324.602169 1011.53993,323.4976 L1011.53993,318.4976 C1011.53993,317.39303 1012.43536,316.4976 1013.53993,316.4976 C1014.6445,316.4976 1015.53993,317.39303 1015.53993,318.4976 L1015.53993,323.4976 Z M1015.53993,341.4976 C1015.53993,342.602169 1014.6445,343.4976 1013.53993,343.4976 C1012.43536,343.4976 1011.53993,342.602169 1011.53993,341.4976 L1011.53993,336.4976 C1011.53993,335.39303 1012.43536,334.4976 1013.53993,334.4976 C1014.6445,334.4976 1015.53993,335.39303 1015.53993,336.4976 L1015.53993,341.4976 Z M1015.53993,359.4976 C1015.53993,360.602169 1014.6445,361.4976 1013.53993,361.4976 C1012.43536,361.4976 1011.53993,360.602169 1011.53993,359.4976 L1011.53993,354.4976 C1011.53993,353.39303 1012.43536,352.4976 1013.53993,352.4976 C1014.6445,352.4976 1015.53993,353.39303 1015.53993,354.4976 L1015.53993,359.4976 Z M1015.53993,377.4976 C1015.53993,378.602169 1014.6445,379.4976 1013.53993,379.4976 C1012.43536,379.4976 1011.53993,378.602169 1011.53993,377.4976 L1011.53993,372.4976 C1011.53993,371.39303 1012.43536,370.4976 1013.53993,370.4976 C1014.6445,370.4976 1015.53993,371.39303 1015.53993,372.4976 L1015.53993,377.4976 Z M1015.53993,395.4976 C1015.53993,396.602169 1014.6445,397.4976 1013.53993,397.4976 C1012.43536,397.4976 1011.53993,396.602169 1011.53993,395.4976 L1011.53993,390.4976 C1011.53993,389.39303 1012.43536,388.4976 1013.53993,388.4976 C1014.6445,388.4976 1015.53993,389.39303 1015.53993,390.4976 L1015.53993,395.4976 Z M1015.53993,413.4976 C1015.53993,414.602169 1014.6445,415.4976 1013.53993,415.4976 C1012.43536,415.4976 1011.53993,414.602169 1011.53993,413.4976 L1011.53993,408.4976 C1011.53993,407.39303 1012.43536,406.4976 1013.53993,406.4976 C1014.6445,406.4976 1015.53993,407.39303 1015.53993,408.4976 L1015.53993,413.4976 Z M1015.53993,431.4976 C1015.53993,432.602169 1014.6445,433.4976 1013.53993,433.4976 C1012.43536,433.4976 1011.53993,432.602169 1011.53993,431.4976 L1011.53993,426.4976 C1011.53993,425.39303 1012.43536,424.4976 1013.53993,424.4976 C1014.6445,424.4976 1015.53993,425.39303 1015.53993,426.4976 L1015.53993,431.4976 Z M1015.53993,449.4976 C1015.53993,450.602169 1014.6445,451.4976 1013.53993,451.4976 C1012.43536,451.4976 1011.53993,450.602169 1011.53993,449.4976 L1011.53993,444.4976 C1011.53993,443.39303 1012.43536,442.4976 1013.53993,442.4976 C1014.6445,442.4976 1015.53993,443.39303 1015.53993,444.4976 L1015.53993,449.4976 Z M1015.53993,467.4976 C1015.53993,468.602169 1014.6445,469.4976 1013.53993,469.4976 C1012.43536,469.4976 1011.53993,468.602169 1011.53993,467.4976 L1011.53993,462.4976 C1011.53993,461.39303 1012.43536,460.4976 1013.53993,460.4976 C1014.6445,460.4976 1015.53993,461.39303 1015.53993,462.4976 L1015.53993,467.4976 Z M1015.53993,485.4976 C1015.53993,486.602169 1014.6445,487.4976 1013.53993,487.4976 C1012.43536,487.4976 1011.53993,486.602169 1011.53993,485.4976 L1011.53993,480.4976 C1011.53993,479.39303 1012.43536,478.4976 1013.53993,478.4976 C1014.6445,478.4976 1015.53993,479.39303 1015.53993,480.4976 L1015.53993,485.4976 Z M1015.53993,503.4976 C1015.53993,504.602169 1014.6445,505.4976 1013.53993,505.4976 C1012.43536,505.4976 1011.53993,504.602169 1011.53993,503.4976 L1011.53993,498.4976 C1011.53993,497.39303 1012.43536,496.4976 1013.53993,496.4976 C1014.6445,496.4976 1015.53993,497.39303 1015.53993,498.4976 L1015.53993,503.4976 Z M1015.53993,521.4976 C1015.53993,522.602169 1014.6445,523.4976 1013.53993,523.4976 C1012.43536,523.4976 1011.53993,522.602169 1011.53993,521.4976 L1011.53993,516.4976 C1011.53993,515.39303 1012.43536,514.4976 1013.53993,514.4976 C1014.6445,514.4976 1015.53993,515.39303 1015.53993,516.4976 L1015.53993,521.4976 Z M1015.53993,539.4976 C1015.53993,540.602169 1014.6445,541.4976 1013.53993,541.4976 C1012.43536,541.4976 1011.53993,540.602169 1011.53993,539.4976 L1011.53993,534.4976 C1011.53993,533.39303 1012.43536,532.4976 1013.53993,532.4976 C1014.6445,532.4976 1015.53993,533.39303 1015.53993,534.4976 L1015.53993,539.4976 Z M1015.53993,557.4976 C1015.53993,558.602169 1014.6445,559.4976 1013.53993,559.4976 C1012.43536,559.4976 1011.53993,558.602169 1011.53993,557.4976 L1011.53993,552.4976 C1011.53993,551.39303 1012.43536,550.4976 1013.53993,550.4976 C1014.6445,550.4976 1015.53993,551.39303 1015.53993,552.4976 L1015.53993,557.4976 Z M1015.53993,575.4976 C1015.53993,576.602169 1014.6445,577.4976 1013.53993,577.4976 C1012.43536,577.4976 1011.53993,576.602169 1011.53993,575.4976 L1011.53993,570.4976 C1011.53993,569.39303 1012.43536,568.4976 1013.53993,568.4976 C1014.6445,568.4976 1015.53993,569.39303 1015.53993,570.4976 L1015.53993,575.4976 Z M1015.53993,593.4976 C1015.53993,594.602169 1014.6445,595.4976 1013.53993,595.4976 C1012.43536,595.4976 1011.53993,594.602169 1011.53993,593.4976 L1011.53993,588.4976 C1011.53993,587.39303 1012.43536,586.4976 1013.53993,586.4976 C1014.6445,586.4976 1015.53993,587.39303 1015.53993,588.4976 L1015.53993,593.4976 Z M1015.53993,611.4976 C1015.53993,612.602169 1014.6445,613.4976 1013.53993,613.4976 C1012.43536,613.4976 1011.53993,612.602169 1011.53993,611.4976 L1011.53993,606.4976 C1011.53993,605.39303 1012.43536,604.4976 1013.53993,604.4976 C1014.6445,604.4976 1015.53993,605.39303 1015.53993,606.4976 L1015.53993,611.4976 Z M1015.53993,629.4976 C1015.53993,630.602169 1014.6445,631.4976 1013.53993,631.4976 C1012.43536,631.4976 1011.53993,630.602169 1011.53993,629.4976 L1011.53993,624.4976 C1011.53993,623.39303 1012.43536,622.4976 1013.53993,622.4976 C1014.6445,622.4976 1015.53993,623.39303 1015.53993,624.4976 L1015.53993,629.4976 Z M1015.53993,647.4976 C1015.53993,648.602169 1014.6445,649.4976 1013.53993,649.4976 C1012.43536,649.4976 1011.53993,648.602169 1011.53993,647.4976 L1011.53993,642.4976 C1011.53993,641.39303 1012.43536,640.4976 1013.53993,640.4976 C1014.6445,640.4976 1015.53993,641.39303 1015.53993,642.4976 L1015.53993,647.4976 Z M1015.53993,665.4976 C1015.53993,666.602169 1014.6445,667.4976 1013.53993,667.4976 C1012.43536,667.4976 1011.53993,666.602169 1011.53993,665.4976 L1011.53993,660.4976 C1011.53993,659.39303 1012.43536,658.4976 1013.53993,658.4976 C1014.6445,658.4976 1015.53993,659.39303 1015.53993,660.4976 L1015.53993,665.4976 Z M1015.53993,683.4976 C1015.53993,684.602169 1014.6445,685.4976 1013.53993,685.4976 C1012.43536,685.4976 1011.53993,684.602169 1011.53993,683.4976 L1011.53993,678.4976 C1011.53993,677.39303 1012.43536,676.4976 1013.53993,676.4976 C1014.6445,676.4976 1015.53993,677.39303 1015.53993,678.4976 L1015.53993,683.4976 Z M1015.53993,701.4976 C1015.53993,702.602169 1014.6445,703.4976 1013.53993,703.4976 C1012.43536,703.4976 1011.53993,702.602169 1011.53993,701.4976 L1011.53993,696.4976 C1011.53993,695.39303 1012.43536,694.4976 1013.53993,694.4976 C1014.6445,694.4976 1015.53993,695.39303 1015.53993,696.4976 L1015.53993,701.4976 Z M1015.53993,719.4976 C1015.53993,720.602169 1014.6445,721.4976 1013.53993,721.4976 C1012.43536,721.4976 1011.53993,720.602169 1011.53993,719.4976 L1011.53993,714.4976 C1011.53993,713.39303 1012.43536,712.4976 1013.53993,712.4976 C1014.6445,712.4976 1015.53993,713.39303 1015.53993,714.4976 L1015.53993,719.4976 Z M1015.53993,737.4976 C1015.53993,738.602169 1014.6445,739.4976 1013.53993,739.4976 C1012.43536,739.4976 1011.53993,738.602169 1011.53993,737.4976 L1011.53993,732.4976 C1011.53993,731.39303 1012.43536,730.4976 1013.53993,730.4976 C1014.6445,730.4976 1015.53993,731.39303 1015.53993,732.4976 L1015.53993,737.4976 Z M1013.61456,756.24003 C1013.06309,757.197083 1011.84018,757.525868 1010.88313,756.974393 C1009.92608,756.422918 1009.59729,755.200015 1010.14877,754.242963 C1010.85109,753.024129 1011.3014,751.675157 1011.46761,750.26198 C1011.59664,749.164973 1012.59053,748.380268 1013.68754,748.509293 C1014.78455,748.638319 1015.56925,749.632215 1015.44023,750.729223 C1015.21025,752.68455 1014.58634,754.55357 1013.61456,756.24003 Z M996.062822,763.499999 C994.958253,763.499999 994.062822,762.604569 994.062822,761.499999 C994.062822,760.395431 994.958253,759.499999 996.062822,759.499999 L1001.06175,759.499999 C1002.16632,759.499617 1003.06206,760.394737 1003.06244,761.499307 C1003.0628,762.553669 1002.24723,763.417754 1001.21239,763.494462 L1001.05802,763.499999 L996.062822,763.499999 Z M978.062822,763.5 C976.958253,763.5 976.062822,762.604569 976.062822,761.5 C976.062822,760.395431 976.958253,759.5 978.062822,759.5 L983.062822,759.5 C984.167392,759.5 985.062822,760.395431 985.062822,761.5 C985.062822,762.604569 984.167392,763.5 983.062822,763.5 L978.062822,763.5 Z M960.062822,763.5 C958.958253,763.5 958.062822,762.604569 958.062822,761.5 C958.062822,760.395431 958.958253,759.5 960.062822,759.5 L965.062822,759.5 C966.167392,759.5 967.062822,760.395431 967.062822,761.5 C967.062822,762.604569 966.167392,763.5 965.062822,763.5 L960.062822,763.5 Z M942.062822,763.5 C940.958253,763.5 940.062822,762.604569 940.062822,761.5 C940.062822,760.395431 940.958253,759.5 942.062822,759.5 L947.062822,759.5 C948.167392,759.5 949.062822,760.395431 949.062822,761.5 C949.062822,762.604569 948.167392,763.5 947.062822,763.5 L942.062822,763.5 Z M924.062822,763.5 C922.958253,763.5 922.062822,762.604569 922.062822,761.5 C922.062822,760.395431 922.958253,759.5 924.062822,759.5 L929.062822,759.5 C930.167392,759.5 931.062822,760.395431 931.062822,761.5 C931.062822,762.604569 930.167392,763.5 929.062822,763.5 L924.062822,763.5 Z M906.062822,763.5 C904.958253,763.5 904.062822,762.604569 904.062822,761.5 C904.062822,760.395431 904.958253,759.5 906.062822,759.5 L911.062822,759.5 C912.167392,759.5 913.062822,760.395431 913.062822,761.5 C913.062822,762.604569 912.167392,763.5 911.062822,763.5 L906.062822,763.5 Z M888.062822,763.5 C886.958253,763.5 886.062822,762.604569 886.062822,761.5 C886.062822,760.395431 886.958253,759.5 888.062822,759.5 L893.062822,759.5 C894.167392,759.5 895.062822,760.395431 895.062822,761.5 C895.062822,762.604569 894.167392,763.5 893.062822,763.5 L888.062822,763.5 Z M870.062822,763.5 C868.958253,763.5 868.062822,762.604569 868.062822,761.5 C868.062822,760.395431 868.958253,759.5 870.062822,759.5 L875.062822,759.5 C876.167392,759.5 877.062822,760.395431 877.062822,761.5 C877.062822,762.604569 876.167392,763.5 875.062822,763.5 L870.062822,763.5 Z M852.062822,763.5 C850.958253,763.5 850.062822,762.604569 850.062822,761.5 C850.062822,760.395431 850.958253,759.5 852.062822,759.5 L857.062822,759.5 C858.167392,759.5 859.062822,760.395431 859.062822,761.5 C859.062822,762.604569 858.167392,763.5 857.062822,763.5 L852.062822,763.5 Z M834.062822,763.5 C832.958253,763.5 832.062822,762.604569 832.062822,761.5 C832.062822,760.395431 832.958253,759.5 834.062822,759.5 L839.062822,759.5 C840.167392,759.5 841.062822,760.395431 841.062822,761.5 C841.062822,762.604569 840.167392,763.5 839.062822,763.5 L834.062822,763.5 Z M816.062822,763.5 C814.958253,763.5 814.062822,762.604569 814.062822,761.5 C814.062822,760.395431 814.958253,759.5 816.062822,759.5 L821.062822,759.5 C822.167392,759.5 823.062822,760.395431 823.062822,761.5 C823.062822,762.604569 822.167392,763.5 821.062822,763.5 L816.062822,763.5 Z M798.062822,763.5 C796.958253,763.5 796.062822,762.604569 796.062822,761.5 C796.062822,760.395431 796.958253,759.5 798.062822,759.5 L803.062822,759.5 C804.167392,759.5 805.062822,760.395431 805.062822,761.5 C805.062822,762.604569 804.167392,763.5 803.062822,763.5 L798.062822,763.5 Z M780.062822,763.5 C778.958253,763.5 778.062822,762.604569 778.062822,761.5 C778.062822,760.395431 778.958253,759.5 780.062822,759.5 L785.062822,759.5 C786.167392,759.5 787.062822,760.395431 787.062822,761.5 C787.062822,762.604569 786.167392,763.5 785.062822,763.5 L780.062822,763.5 Z M762.062822,763.5 C760.958253,763.5 760.062822,762.604569 760.062822,761.5 C760.062822,760.395431 760.958253,759.5 762.062822,759.5 L767.062822,759.5 C768.167392,759.5 769.062822,760.395431 769.062822,761.5 C769.062822,762.604569 768.167392,763.5 767.062822,763.5 L762.062822,763.5 Z M744.062822,763.5 C742.958253,763.5 742.062822,762.604569 742.062822,761.5 C742.062822,760.395431 742.958253,759.5 744.062822,759.5 L749.062822,759.5 C750.167392,759.5 751.062822,760.395431 751.062822,761.5 C751.062822,762.604569 750.167392,763.5 749.062822,763.5 L744.062822,763.5 Z M726.062822,763.5 C724.958253,763.5 724.062822,762.604569 724.062822,761.5 C724.062822,760.395431 724.958253,759.5 726.062822,759.5 L731.062822,759.5 C732.167392,759.5 733.062822,760.395431 733.062822,761.5 C733.062822,762.604569 732.167392,763.5 731.062822,763.5 L726.062822,763.5 Z M708.062822,763.5 C706.958253,763.5 706.062822,762.604569 706.062822,761.5 C706.062822,760.395431 706.958253,759.5 708.062822,759.5 L713.062822,759.5 C714.167392,759.5 715.062822,760.395431 715.062822,761.5 C715.062822,762.604569 714.167392,763.5 713.062822,763.5 L708.062822,763.5 Z M690.062822,763.5 C688.958253,763.5 688.062822,762.604569 688.062822,761.5 C688.062822,760.395431 688.958253,759.5 690.062822,759.5 L695.062822,759.5 C696.167392,759.5 697.062822,760.395431 697.062822,761.5 C697.062822,762.604569 696.167392,763.5 695.062822,763.5 L690.062822,763.5 Z M672.062822,763.5 C670.958253,763.5 670.062822,762.604569 670.062822,761.5 C670.062822,760.395431 670.958253,759.5 672.062822,759.5 L677.062822,759.5 C678.167392,759.5 679.062822,760.395431 679.062822,761.5 C679.062822,762.604569 678.167392,763.5 677.062822,763.5 L672.062822,763.5 Z M654.062822,763.5 C652.958253,763.5 652.062822,762.604569 652.062822,761.5 C652.062822,760.395431 652.958253,759.5 654.062822,759.5 L659.062822,759.5 C660.167392,759.5 661.062822,760.395431 661.062822,761.5 C661.062822,762.604569 660.167392,763.5 659.062822,763.5 L654.062822,763.5 Z M636.062822,763.5 C634.958253,763.5 634.062822,762.604569 634.062822,761.5 C634.062822,760.395431 634.958253,759.5 636.062822,759.5 L641.062822,759.5 C642.167392,759.5 643.062822,760.395431 643.062822,761.5 C643.062822,762.604569 642.167392,763.5 641.062822,763.5 L636.062822,763.5 Z M618.062822,763.5 C616.958253,763.5 616.062822,762.604569 616.062822,761.5 C616.062822,760.395431 616.958253,759.5 618.062822,759.5 L623.062822,759.5 C624.167392,759.5 625.062822,760.395431 625.062822,761.5 C625.062822,762.604569 624.167392,763.5 623.062822,763.5 L618.062822,763.5 Z M600.062822,763.5 C598.958253,763.5 598.062822,762.604569 598.062822,761.5 C598.062822,760.395431 598.958253,759.5 600.062822,759.5 L605.062822,759.5 C606.167392,759.5 607.062822,760.395431 607.062822,761.5 C607.062822,762.604569 606.167392,763.5 605.062822,763.5 L600.062822,763.5 Z M582.062822,763.5 C580.958253,763.5 580.062822,762.604569 580.062822,761.5 C580.062822,760.395431 580.958253,759.5 582.062822,759.5 L587.062822,759.5 C588.167392,759.5 589.062822,760.395431 589.062822,761.5 C589.062822,762.604569 588.167392,763.5 587.062822,763.5 L582.062822,763.5 Z M564.062822,763.5 C562.958253,763.5 562.062822,762.604569 562.062822,761.5 C562.062822,760.395431 562.958253,759.5 564.062822,759.5 L569.062822,759.5 C570.167392,759.5 571.062822,760.395431 571.062822,761.5 C571.062822,762.604569 570.167392,763.5 569.062822,763.5 L564.062822,763.5 Z M546.062822,763.5 C544.958253,763.5 544.062822,762.604569 544.062822,761.5 C544.062822,760.395431 544.958253,759.5 546.062822,759.5 L551.062822,759.5 C552.167392,759.5 553.062822,760.395431 553.062822,761.5 C553.062822,762.604569 552.167392,763.5 551.062822,763.5 L546.062822,763.5 Z M528.062822,763.5 C526.958253,763.5 526.062822,762.604569 526.062822,761.5 C526.062822,760.395431 526.958253,759.5 528.062822,759.5 L533.062822,759.5 C534.167392,759.5 535.062822,760.395431 535.062822,761.5 C535.062822,762.604569 534.167392,763.5 533.062822,763.5 L528.062822,763.5 Z M510.062822,763.5 C508.958253,763.5 508.062822,762.604569 508.062822,761.5 C508.062822,760.395431 508.958253,759.5 510.062822,759.5 L515.062822,759.5 C516.167392,759.5 517.062822,760.395431 517.062822,761.5 C517.062822,762.604569 516.167392,763.5 515.062822,763.5 L510.062822,763.5 Z M492.062822,763.5 C490.958253,763.5 490.062822,762.604569 490.062822,761.5 C490.062822,760.395431 490.958253,759.5 492.062822,759.5 L497.062822,759.5 C498.167392,759.5 499.062822,760.395431 499.062822,761.5 C499.062822,762.604569 498.167392,763.5 497.062822,763.5 L492.062822,763.5 Z M474.062822,763.5 C472.958253,763.5 472.062822,762.604569 472.062822,761.5 C472.062822,760.395431 472.958253,759.5 474.062822,759.5 L479.062822,759.5 C480.167392,759.5 481.062822,760.395431 481.062822,761.5 C481.062822,762.604569 480.167392,763.5 479.062822,763.5 L474.062822,763.5 Z M456.062822,763.5 C454.958253,763.5 454.062822,762.604569 454.062822,761.5 C454.062822,760.395431 454.958253,759.5 456.062822,759.5 L461.062822,759.5 C462.167392,759.5 463.062822,760.395431 463.062822,761.5 C463.062822,762.604569 462.167392,763.5 461.062822,763.5 L456.062822,763.5 Z M438.062822,763.5 C436.958253,763.5 436.062822,762.604569 436.062822,761.5 C436.062822,760.395431 436.958253,759.5 438.062822,759.5 L443.062822,759.5 C444.167392,759.5 445.062822,760.395431 445.062822,761.5 C445.062822,762.604569 444.167392,763.5 443.062822,763.5 L438.062822,763.5 Z M420.062822,763.5 C418.958253,763.5 418.062822,762.604569 418.062822,761.5 C418.062822,760.395431 418.958253,759.5 420.062822,759.5 L425.062822,759.5 C426.167392,759.5 427.062822,760.395431 427.062822,761.5 C427.062822,762.604569 426.167392,763.5 425.062822,763.5 L420.062822,763.5 Z M402.062822,763.5 C400.958253,763.5 400.062822,762.604569 400.062822,761.5 C400.062822,760.395431 400.958253,759.5 402.062822,759.5 L407.062822,759.5 C408.167392,759.5 409.062822,760.395431 409.062822,761.5 C409.062822,762.604569 408.167392,763.5 407.062822,763.5 L402.062822,763.5 Z M384.062822,763.5 C382.958253,763.5 382.062822,762.604569 382.062822,761.5 C382.062822,760.395431 382.958253,759.5 384.062822,759.5 L389.062822,759.5 C390.167392,759.5 391.062822,760.395431 391.062822,761.5 C391.062822,762.604569 390.167392,763.5 389.062822,763.5 L384.062822,763.5 Z M366.062822,763.5 C364.958253,763.5 364.062822,762.604569 364.062822,761.5 C364.062822,760.395431 364.958253,759.5 366.062822,759.5 L371.062822,759.5 C372.167392,759.5 373.062822,760.395431 373.062822,761.5 C373.062822,762.604569 372.167392,763.5 371.062822,763.5 L366.062822,763.5 Z M348.111062,757.373954 C347.473131,756.472223 347.686984,755.224081 348.588715,754.586151 C349.490446,753.948221 350.738588,754.162074 351.376519,755.063805 C352.192967,756.217876 353.236055,757.198583 354.438424,757.941716 C355.378017,758.522438 355.668939,759.754898 355.088217,760.694491 C354.507494,761.634084 353.275035,761.925006 352.335442,761.344284 C350.675881,760.31858 349.237532,758.96625 348.111062,757.373954 Z M345.460073,738.623245 C345.460073,737.518675 346.355503,736.623245 347.460073,736.623245 C348.564642,736.623245 349.460073,737.518675 349.460073,738.623245 L349.460073,743.623245 C349.460073,744.727814 348.564642,745.623245 347.460073,745.623245 C346.355503,745.623245 345.460073,744.727814 345.460073,743.623245 L345.460073,738.623245 Z M345.460073,720.623245 C345.460073,719.518675 346.355503,718.623245 347.460073,718.623245 C348.564642,718.623245 349.460073,719.518675 349.460073,720.623245 L349.460073,725.623245 C349.460073,726.727814 348.564642,727.623245 347.460073,727.623245 C346.355503,727.623245 345.460073,726.727814 345.460073,725.623245 L345.460073,720.623245 Z M345.460073,702.623245 C345.460073,701.518675 346.355503,700.623245 347.460073,700.623245 C348.564642,700.623245 349.460073,701.518675 349.460073,702.623245 L349.460073,707.623245 C349.460073,708.727814 348.564642,709.623245 347.460073,709.623245 C346.355503,709.623245 345.460073,708.727814 345.460073,707.623245 L345.460073,702.623245 Z M345.460073,684.623245 C345.460073,683.518675 346.355503,682.623245 347.460073,682.623245 C348.564642,682.623245 349.460073,683.518675 349.460073,684.623245 L349.460073,689.623245 C349.460073,690.727814 348.564642,691.623245 347.460073,691.623245 C346.355503,691.623245 345.460073,690.727814 345.460073,689.623245 L345.460073,684.623245 Z M345.460073,666.623245 C345.460073,665.518675 346.355503,664.623245 347.460073,664.623245 C348.564642,664.623245 349.460073,665.518675 349.460073,666.623245 L349.460073,671.623245 C349.460073,672.727814 348.564642,673.623245 347.460073,673.623245 C346.355503,673.623245 345.460073,672.727814 345.460073,671.623245 L345.460073,666.623245 Z M345.460073,648.623245 C345.460073,647.518675 346.355503,646.623245 347.460073,646.623245 C348.564642,646.623245 349.460073,647.518675 349.460073,648.623245 L349.460073,653.623245 C349.460073,654.727814 348.564642,655.623245 347.460073,655.623245 C346.355503,655.623245 345.460073,654.727814 345.460073,653.623245 L345.460073,648.623245 Z M345.460073,630.623245 C345.460073,629.518675 346.355503,628.623245 347.460073,628.623245 C348.564642,628.623245 349.460073,629.518675 349.460073,630.623245 L349.460073,635.623245 C349.460073,636.727814 348.564642,637.623245 347.460073,637.623245 C346.355503,637.623245 345.460073,636.727814 345.460073,635.623245 L345.460073,630.623245 Z M345.460073,612.623245 C345.460073,611.518675 346.355503,610.623245 347.460073,610.623245 C348.564642,610.623245 349.460073,611.518675 349.460073,612.623245 L349.460073,617.623245 C349.460073,618.727814 348.564642,619.623245 347.460073,619.623245 C346.355503,619.623245 345.460073,618.727814 345.460073,617.623245 L345.460073,612.623245 Z M345.460073,594.623245 C345.460073,593.518675 346.355503,592.623245 347.460073,592.623245 C348.564642,592.623245 349.460073,593.518675 349.460073,594.623245 L349.460073,599.623245 C349.460073,600.727814 348.564642,601.623245 347.460073,601.623245 C346.355503,601.623245 345.460073,600.727814 345.460073,599.623245 L345.460073,594.623245 Z M345.460073,576.623245 C345.460073,575.518675 346.355503,574.623245 347.460073,574.623245 C348.564642,574.623245 349.460073,575.518675 349.460073,576.623245 L349.460073,581.623245 C349.460073,582.727814 348.564642,583.623245 347.460073,583.623245 C346.355503,583.623245 345.460073,582.727814 345.460073,581.623245 L345.460073,576.623245 Z M345.460073,558.623245 C345.460073,557.518675 346.355503,556.623245 347.460073,556.623245 C348.564642,556.623245 349.460073,557.518675 349.460073,558.623245 L349.460073,563.623245 C349.460073,564.727814 348.564642,565.623245 347.460073,565.623245 C346.355503,565.623245 345.460073,564.727814 345.460073,563.623245 L345.460073,558.623245 Z M345.460073,540.623245 C345.460073,539.518675 346.355503,538.623245 347.460073,538.623245 C348.564642,538.623245 349.460073,539.518675 349.460073,540.623245 L349.460073,545.623245 C349.460073,546.727814 348.564642,547.623245 347.460073,547.623245 C346.355503,547.623245 345.460073,546.727814 345.460073,545.623245 L345.460073,540.623245 Z M345.460073,522.623245 C345.460073,521.518675 346.355503,520.623245 347.460073,520.623245 C348.564642,520.623245 349.460073,521.518675 349.460073,522.623245 L349.460073,527.623245 C349.460073,528.727814 348.564642,529.623245 347.460073,529.623245 C346.355503,529.623245 345.460073,528.727814 345.460073,527.623245 L345.460073,522.623245 Z M345.460073,504.623245 C345.460073,503.518675 346.355503,502.623245 347.460073,502.623245 C348.564642,502.623245 349.460073,503.518675 349.460073,504.623245 L349.460073,509.623245 C349.460073,510.727814 348.564642,511.623245 347.460073,511.623245 C346.355503,511.623245 345.460073,510.727814 345.460073,509.623245 L345.460073,504.623245 Z M345.460073,486.623245 C345.460073,485.518675 346.355503,484.623245 347.460073,484.623245 C348.564642,484.623245 349.460073,485.518675 349.460073,486.623245 L349.460073,491.623245 C349.460073,492.727814 348.564642,493.623245 347.460073,493.623245 C346.355503,493.623245 345.460073,492.727814 345.460073,491.623245 L345.460073,486.623245 Z M345.460073,468.623245 C345.460073,467.518675 346.355503,466.623245 347.460073,466.623245 C348.564642,466.623245 349.460073,467.518675 349.460073,468.623245 L349.460073,473.623245 C349.460073,474.727814 348.564642,475.623245 347.460073,475.623245 C346.355503,475.623245 345.460073,474.727814 345.460073,473.623245 L345.460073,468.623245 Z M345.460073,450.623245 C345.460073,449.518675 346.355503,448.623245 347.460073,448.623245 C348.564642,448.623245 349.460073,449.518675 349.460073,450.623245 L349.460073,455.623245 C349.460073,456.727814 348.564642,457.623245 347.460073,457.623245 C346.355503,457.623245 345.460073,456.727814 345.460073,455.623245 L345.460073,450.623245 Z M345.460073,432.623245 C345.460073,431.518675 346.355503,430.623245 347.460073,430.623245 C348.564642,430.623245 349.460073,431.518675 349.460073,432.623245 L349.460073,437.623245 C349.460073,438.727814 348.564642,439.623245 347.460073,439.623245 C346.355503,439.623245 345.460073,438.727814 345.460073,437.623245 L345.460073,432.623245 Z M345.460073,414.623245 C345.460073,413.518675 346.355503,412.623245 347.460073,412.623245 C348.564642,412.623245 349.460073,413.518675 349.460073,414.623245 L349.460073,419.623245 C349.460073,420.727814 348.564642,421.623245 347.460073,421.623245 C346.355503,421.623245 345.460073,420.727814 345.460073,419.623245 L345.460073,414.623245 Z M345.460073,396.623245 C345.460073,395.518675 346.355503,394.623245 347.460073,394.623245 C348.564642,394.623245 349.460073,395.518675 349.460073,396.623245 L349.460073,401.623245 C349.460073,402.727814 348.564642,403.623245 347.460073,403.623245 C346.355503,403.623245 345.460073,402.727814 345.460073,401.623245 L345.460073,396.623245 Z M345.460073,378.623245 C345.460073,377.518675 346.355503,376.623245 347.460073,376.623245 C348.564642,376.623245 349.460073,377.518675 349.460073,378.623245 L349.460073,383.623245 C349.460073,384.727814 348.564642,385.623245 347.460073,385.623245 C346.355503,385.623245 345.460073,384.727814 345.460073,383.623245 L345.460073,378.623245 Z M345.460073,360.623245 C345.460073,359.518675 346.355503,358.623245 347.460073,358.623245 C348.564642,358.623245 349.460073,359.518675 349.460073,360.623245 L349.460073,365.623245 C349.460073,366.727814 348.564642,367.623245 347.460073,367.623245 C346.355503,367.623245 345.460073,366.727814 345.460073,365.623245 L345.460073,360.623245 Z M345.460073,342.623245 C345.460073,341.518675 346.355503,340.623245 347.460073,340.623245 C348.564642,340.623245 349.460073,341.518675 349.460073,342.623245 L349.460073,347.623245 C349.460073,348.727814 348.564642,349.623245 347.460073,349.623245 C346.355503,349.623245 345.460073,348.727814 345.460073,347.623245 L345.460073,342.623245 Z M345.460073,324.623245 C345.460073,323.518675 346.355503,322.623245 347.460073,322.623245 C348.564642,322.623245 349.460073,323.518675 349.460073,324.623245 L349.460073,329.623245 C349.460073,330.727814 348.564642,331.623245 347.460073,331.623245 C346.355503,331.623245 345.460073,330.727814 345.460073,329.623245 L345.460073,324.623245 Z M345.460073,306.623245 C345.460073,305.518675 346.355503,304.623245 347.460073,304.623245 C348.564642,304.623245 349.460073,305.518675 349.460073,306.623245 L349.460073,311.623245 C349.460073,312.727814 348.564642,313.623245 347.460073,313.623245 C346.355503,313.623245 345.460073,312.727814 345.460073,311.623245 L345.460073,306.623245 Z M345.460073,288.623245 C345.460073,287.518675 346.355503,286.623245 347.460073,286.623245 C348.564642,286.623245 349.460073,287.518675 349.460073,288.623245 L349.460073,293.623245 C349.460073,294.727814 348.564642,295.623245 347.460073,295.623245 C346.355503,295.623245 345.460073,294.727814 345.460073,293.623245 L345.460073,288.623245 Z M353.061308,271.235649 C354.032966,270.710335 355.246501,271.072168 355.771815,272.043826 C356.297129,273.015484 355.935296,274.229019 354.963638,274.754333 C353.72052,275.426409 352.623206,276.345485 351.741315,277.450879 C351.052451,278.314325 349.794054,278.455853 348.930608,277.766989 C348.067161,277.078124 347.925634,275.819728 348.614498,274.956281 C349.830989,273.431488 351.344499,272.163819 353.061308,271.235649 Z M371.816333,269.5 C372.920903,269.5 373.816333,270.395431 373.816333,271.5 C373.816333,272.604569 372.920903,273.5 371.816333,273.5 L366.816333,273.5 C365.711764,273.5 364.816333,272.604569 364.816333,271.5 C364.816333,270.395431 365.711764,269.5 366.816333,269.5 L371.816333,269.5 Z M389.816333,269.5 C390.920903,269.5 391.816333,270.395431 391.816333,271.5 C391.816333,272.604569 390.920903,273.5 389.816333,273.5 L384.816333,273.5 C383.711764,273.5 382.816333,272.604569 382.816333,271.5 C382.816333,270.395431 383.711764,269.5 384.816333,269.5 L389.816333,269.5 Z M407.816333,269.5 C408.920903,269.5 409.816333,270.395431 409.816333,271.5 C409.816333,272.604569 408.920903,273.5 407.816333,273.5 L402.816333,273.5 C401.711764,273.5 400.816333,272.604569 400.816333,271.5 C400.816333,270.395431 401.711764,269.5 402.816333,269.5 L407.816333,269.5 Z M425.816333,269.5 C426.920903,269.5 427.816333,270.395431 427.816333,271.5 C427.816333,272.604569 426.920903,273.5 425.816333,273.5 L420.816333,273.5 C419.711764,273.5 418.816333,272.604569 418.816333,271.5 C418.816333,270.395431 419.711764,269.5 420.816333,269.5 L425.816333,269.5 Z M443.816333,269.5 C444.920903,269.5 445.816333,270.395431 445.816333,271.5 C445.816333,272.604569 444.920903,273.5 443.816333,273.5 L438.816333,273.5 C437.711764,273.5 436.816333,272.604569 436.816333,271.5 C436.816333,270.395431 437.711764,269.5 438.816333,269.5 L443.816333,269.5 Z M461.816333,269.5 C462.920903,269.5 463.816333,270.395431 463.816333,271.5 C463.816333,272.604569 462.920903,273.5 461.816333,273.5 L456.816333,273.5 C455.711764,273.5 454.816333,272.604569 454.816333,271.5 C454.816333,270.395431 455.711764,269.5 456.816333,269.5 L461.816333,269.5 Z M479.816333,269.5 C480.920903,269.5 481.816333,270.395431 481.816333,271.5 C481.816333,272.604569 480.920903,273.5 479.816333,273.5 L474.816333,273.5 C473.711764,273.5 472.816333,272.604569 472.816333,271.5 C472.816333,270.395431 473.711764,269.5 474.816333,269.5 L479.816333,269.5 Z M497.816333,269.5 C498.920903,269.5 499.816333,270.395431 499.816333,271.5 C499.816333,272.604569 498.920903,273.5 497.816333,273.5 L492.816333,273.5 C491.711764,273.5 490.816333,272.604569 490.816333,271.5 C490.816333,270.395431 491.711764,269.5 492.816333,269.5 L497.816333,269.5 Z M515.816333,269.5 C516.920903,269.5 517.816333,270.395431 517.816333,271.5 C517.816333,272.604569 516.920903,273.5 515.816333,273.5 L510.816333,273.5 C509.711764,273.5 508.816333,272.604569 508.816333,271.5 C508.816333,270.395431 509.711764,269.5 510.816333,269.5 L515.816333,269.5 Z M533.816333,269.5 C534.920903,269.5 535.816333,270.395431 535.816333,271.5 C535.816333,272.604569 534.920903,273.5 533.816333,273.5 L528.816333,273.5 C527.711764,273.5 526.816333,272.604569 526.816333,271.5 C526.816333,270.395431 527.711764,269.5 528.816333,269.5 L533.816333,269.5 Z M551.816333,269.5 C552.920903,269.5 553.816333,270.395431 553.816333,271.5 C553.816333,272.604569 552.920903,273.5 551.816333,273.5 L546.816333,273.5 C545.711764,273.5 544.816333,272.604569 544.816333,271.5 C544.816333,270.395431 545.711764,269.5 546.816333,269.5 L551.816333,269.5 Z M569.816333,269.5 C570.920903,269.5 571.816333,270.395431 571.816333,271.5 C571.816333,272.604569 570.920903,273.5 569.816333,273.5 L564.816333,273.5 C563.711764,273.5 562.816333,272.604569 562.816333,271.5 C562.816333,270.395431 563.711764,269.5 564.816333,269.5 L569.816333,269.5 Z M587.816333,269.5 C588.920903,269.5 589.816333,270.395431 589.816333,271.5 C589.816333,272.604569 588.920903,273.5 587.816333,273.5 L582.816333,273.5 C581.711764,273.5 580.816333,272.604569 580.816333,271.5 C580.816333,270.395431 581.711764,269.5 582.816333,269.5 L587.816333,269.5 Z M605.816333,269.5 C606.920903,269.5 607.816333,270.395431 607.816333,271.5 C607.816333,272.604569 606.920903,273.5 605.816333,273.5 L600.816333,273.5 C599.711764,273.5 598.816333,272.604569 598.816333,271.5 C598.816333,270.395431 599.711764,269.5 600.816333,269.5 L605.816333,269.5 Z M623.816333,269.5 C624.920903,269.5 625.816333,270.395431 625.816333,271.5 C625.816333,272.604569 624.920903,273.5 623.816333,273.5 L618.816333,273.5 C617.711764,273.5 616.816333,272.604569 616.816333,271.5 C616.816333,270.395431 617.711764,269.5 618.816333,269.5 L623.816333,269.5 Z M641.816333,269.5 C642.920903,269.5 643.816333,270.395431 643.816333,271.5 C643.816333,272.604569 642.920903,273.5 641.816333,273.5 L636.816333,273.5 C635.711764,273.5 634.816333,272.604569 634.816333,271.5 C634.816333,270.395431 635.711764,269.5 636.816333,269.5 L641.816333,269.5 Z M659.816333,269.5 C660.920903,269.5 661.816333,270.395431 661.816333,271.5 C661.816333,272.604569 660.920903,273.5 659.816333,273.5 L654.816333,273.5 C653.711764,273.5 652.816333,272.604569 652.816333,271.5 C652.816333,270.395431 653.711764,269.5 654.816333,269.5 L659.816333,269.5 Z M677.816333,269.5 C678.920903,269.5 679.816333,270.395431 679.816333,271.5 C679.816333,272.604569 678.920903,273.5 677.816333,273.5 L672.816333,273.5 C671.711764,273.5 670.816333,272.604569 670.816333,271.5 C670.816333,270.395431 671.711764,269.5 672.816333,269.5 L677.816333,269.5 Z M695.816333,269.5 C696.920903,269.5 697.816333,270.395431 697.816333,271.5 C697.816333,272.604569 696.920903,273.5 695.816333,273.5 L690.816333,273.5 C689.711764,273.5 688.816333,272.604569 688.816333,271.5 C688.816333,270.395431 689.711764,269.5 690.816333,269.5 L695.816333,269.5 Z M713.816333,269.5 C714.920903,269.5 715.816333,270.395431 715.816333,271.5 C715.816333,272.604569 714.920903,273.5 713.816333,273.5 L708.816333,273.5 C707.711764,273.5 706.816333,272.604569 706.816333,271.5 C706.816333,270.395431 707.711764,269.5 708.816333,269.5 L713.816333,269.5 Z M731.816333,269.5 C732.920903,269.5 733.816333,270.395431 733.816333,271.5 C733.816333,272.604569 732.920903,273.5 731.816333,273.5 L726.816333,273.5 C725.711764,273.5 724.816333,272.604569 724.816333,271.5 C724.816333,270.395431 725.711764,269.5 726.816333,269.5 L731.816333,269.5 Z M749.816333,269.5 C750.920903,269.5 751.816333,270.395431 751.816333,271.5 C751.816333,272.604569 750.920903,273.5 749.816333,273.5 L744.816333,273.5 C743.711764,273.5 742.816333,272.604569 742.816333,271.5 C742.816333,270.395431 743.711764,269.5 744.816333,269.5 L749.816333,269.5 Z M767.816333,269.5 C768.920903,269.5 769.816333,270.395431 769.816333,271.5 C769.816333,272.604569 768.920903,273.5 767.816333,273.5 L762.816333,273.5 C761.711764,273.5 760.816333,272.604569 760.816333,271.5 C760.816333,270.395431 761.711764,269.5 762.816333,269.5 L767.816333,269.5 Z M785.816333,269.5 C786.920903,269.5 787.816333,270.395431 787.816333,271.5 C787.816333,272.604569 786.920903,273.5 785.816333,273.5 L780.816333,273.5 C779.711764,273.5 778.816333,272.604569 778.816333,271.5 C778.816333,270.395431 779.711764,269.5 780.816333,269.5 L785.816333,269.5 Z M803.816333,269.5 C804.920903,269.5 805.816333,270.395431 805.816333,271.5 C805.816333,272.604569 804.920903,273.5 803.816333,273.5 L798.816333,273.5 C797.711764,273.5 796.816333,272.604569 796.816333,271.5 C796.816333,270.395431 797.711764,269.5 798.816333,269.5 L803.816333,269.5 Z M821.816333,269.5 C822.920903,269.5 823.816333,270.395431 823.816333,271.5 C823.816333,272.604569 822.920903,273.5 821.816333,273.5 L816.816333,273.5 C815.711764,273.5 814.816333,272.604569 814.816333,271.5 C814.816333,270.395431 815.711764,269.5 816.816333,269.5 L821.816333,269.5 Z M839.816333,269.5 C840.920903,269.5 841.816333,270.395431 841.816333,271.5 C841.816333,272.604569 840.920903,273.5 839.816333,273.5 L834.816333,273.5 C833.711764,273.5 832.816333,272.604569 832.816333,271.5 C832.816333,270.395431 833.711764,269.5 834.816333,269.5 L839.816333,269.5 Z M857.816333,269.5 C858.920903,269.5 859.816333,270.395431 859.816333,271.5 C859.816333,272.604569 858.920903,273.5 857.816333,273.5 L852.816333,273.5 C851.711764,273.5 850.816333,272.604569 850.816333,271.5 C850.816333,270.395431 851.711764,269.5 852.816333,269.5 L857.816333,269.5 Z M875.816333,269.5 C876.920903,269.5 877.816333,270.395431 877.816333,271.5 C877.816333,272.604569 876.920903,273.5 875.816333,273.5 L870.816333,273.5 C869.711764,273.5 868.816333,272.604569 868.816333,271.5 C868.816333,270.395431 869.711764,269.5 870.816333,269.5 L875.816333,269.5 Z M893.816333,269.5 C894.920903,269.5 895.816333,270.395431 895.816333,271.5 C895.816333,272.604569 894.920903,273.5 893.816333,273.5 L888.816333,273.5 C887.711764,273.5 886.816333,272.604569 886.816333,271.5 C886.816333,270.395431 887.711764,269.5 888.816333,269.5 L893.816333,269.5 Z M911.816333,269.5 C912.920903,269.5 913.816333,270.395431 913.816333,271.5 C913.816333,272.604569 912.920903,273.5 911.816333,273.5 L906.816333,273.5 C905.711764,273.5 904.816333,272.604569 904.816333,271.5 C904.816333,270.395431 905.711764,269.5 906.816333,269.5 L911.816333,269.5 Z M929.816333,269.5 C930.920903,269.5 931.816333,270.395431 931.816333,271.5 C931.816333,272.604569 930.920903,273.5 929.816333,273.5 L924.816333,273.5 C923.711764,273.5 922.816333,272.604569 922.816333,271.5 C922.816333,270.395431 923.711764,269.5 924.816333,269.5 L929.816333,269.5 Z M947.816333,269.5 C948.920903,269.5 949.816333,270.395431 949.816333,271.5 C949.816333,272.604569 948.920903,273.5 947.816333,273.5 L942.816333,273.5 C941.711764,273.5 940.816333,272.604569 940.816333,271.5 C940.816333,270.395431 941.711764,269.5 942.816333,269.5 L947.816333,269.5 Z M965.816333,269.5 C966.920903,269.5 967.816333,270.395431 967.816333,271.5 C967.816333,272.604569 966.920903,273.5 965.816333,273.5 L960.816333,273.5 C959.711764,273.5 958.816333,272.604569 958.816333,271.5 C958.816333,270.395431 959.711764,269.5 960.816333,269.5 L965.816333,269.5 Z M983.816333,269.5 C984.920903,269.5 985.816333,270.395431 985.816333,271.5 C985.816333,272.604569 984.920903,273.5 983.816333,273.5 L978.816333,273.5 C977.711764,273.5 976.816333,272.604569 976.816333,271.5 C976.816333,270.395431 977.711764,269.5 978.816333,269.5 L983.816333,269.5 Z M1001.05802,269.5 C1002.16259,269.5 1003.05802,270.395431 1003.05802,271.5 C1003.05802,272.604569 1002.16259,273.5 1001.05802,273.5 L996.816333,273.5 C995.711764,273.5 994.816333,272.604569 994.816333,271.5 C994.816333,270.395431 995.711764,269.5 996.816333,269.5 L1001.05802,269.5 Z" fill="#E8E4DD" fill-rule="nonzero"></path>
            <path d="M762,410 L601,410 C587.192881,410 576,421.192881 576,435 L576,597 C576,610.807119 587.192881,622 601,622 L762,622 C775.807119,622 787,610.807119 787,597 L787,435 C787,421.192881 775.807119,410 762,410 Z M601,420 L762,420 C770.284271,420 777,426.715729 777,435 L777,597 C777,605.284271 770.284271,612 762,612 L601,612 C592.715729,612 586,605.284271 586,597 L586,435 C586,426.715729 592.715729,420 601,420 Z" fill="#E8E4DD" fill-rule="nonzero"></path>
            <path d="M47,598 L200,598 C218.225397,598 233,612.774603 233,631 L233,784 C233,802.225397 218.225397,817 200,817 L47,817 C28.7746033,817 14,802.225397 14,784 L14,631 C14,612.774603 28.7746033,598 47,598 Z" fill="#61697F"></path>
            <path d="M47,598 L165.622093,598 C183.84749,598 198.622093,612.774603 198.622093,631 L198.622093,784 C198.622093,802.225397 183.84749,817 165.622093,817 L47,817 C28.7746033,817 14,802.225397 14,784 L14,631 C14,612.774603 28.7746033,598 47,598 Z" fill="#697084"></path>
            <path d="M66.4590131,739.331395 C71.0599146,739.331395 75.1657824,738.596599 78.7766165,737.127005 C82.3874506,735.657412 85.2266145,733.497109 87.2941083,730.646098 C89.361602,727.795086 90.3953488,724.400325 90.3953488,720.461815 C90.3953488,716.405737 89.4344011,713.143239 87.5125055,710.674322 C85.5906099,708.205405 83.2755993,706.353717 80.5674738,705.119259 C78.0097996,703.953381 74.7897887,702.787503 70.907441,701.621626 L70.2154454,701.415883 C66.0222187,700.181424 62.9209781,698.991054 60.9117236,697.844771 C58.9024692,696.698488 57.897842,695.037847 57.897842,692.862849 C57.897842,691.15812 58.5967131,689.864878 59.9944553,688.983122 C61.3921975,688.101366 63.2849735,687.660488 65.6727831,687.660488 C68.1770713,687.660488 71.190953,688.233629 74.7144282,689.379912 C75.9444431,689.78007 77.4445995,690.393794 79.2148976,691.221085 C82.2125522,692.621981 85.765057,691.390197 87.2651332,688.472282 L87.3814672,688.233629 L87.3814672,688.233629 C88.8776342,684.99051 87.5261686,681.161867 84.3647824,679.562897 L84.1376828,679.453348 L84.1376828,679.453348 C82.2581737,678.589582 80.6167498,677.94523 79.213411,677.520292 C75.1366628,676.285834 71.0016754,675.668605 66.8084487,675.668605 C62.0910687,675.668605 57.9560812,676.418097 54.4034864,677.917083 C50.8508915,679.416068 48.0845267,681.561675 46.1043919,684.353902 C44.1242571,687.14613 43.1341896,690.393932 43.1341896,694.097307 C43.1341896,698.094602 44.0951374,701.298315 46.017033,703.708449 C47.9389286,706.118582 50.2248195,707.911486 52.8747058,709.087161 C55.3851244,710.200958 58.5881224,711.314755 62.4836997,712.428553 L64.1411309,712.900985 C66.5805296,713.608831 68.5325021,714.248028 69.9970481,714.818576 C71.656867,715.465197 73.0254896,716.302865 74.102916,717.331581 C75.1803423,718.360296 75.7190554,719.668234 75.7190554,721.255395 C75.7190554,723.254042 74.9182656,724.78242 73.3166859,725.840527 C71.7151063,726.898634 69.4874546,727.427688 66.6337309,727.427688 C63.3140931,727.427688 59.6450197,726.575324 55.6265108,724.870595 C54.0379993,724.196718 52.142345,723.126712 49.9395477,721.660576 C47.4980356,720.035548 44.2014551,720.697447 42.5764329,723.138963 C42.4423992,723.340342 42.3222822,723.550644 42.2169213,723.7684 C40.5919275,727.126876 41.7687547,731.170241 44.9422547,733.132093 C47.6090276,734.780709 49.9183022,735.965387 51.8700786,736.686127 C56.6456979,738.449639 61.5086761,739.331395 66.4590131,739.331395 Z M130.655754,731.079071 L130.655754,718.326312 L147.215266,688.252699 C148.85111,685.281856 147.768878,681.547398 144.798035,679.911555 L144.68751,679.852159 L144.68751,679.852159 C141.594781,678.230652 137.773314,679.359448 136.058021,682.401162 L123.676685,704.356877 L110.994928,682.370963 C109.245365,679.337806 105.413672,678.22622 102.31249,679.852159 C99.3887587,681.385062 98.2194962,684.949508 99.6291273,687.903793 L99.76851,688.178218 L99.76851,688.178218 L116.697617,718.675548 L116.697617,731.079071 C116.697617,734.933504 119.822252,738.05814 123.676685,738.05814 C127.531118,738.05814 130.655754,734.933504 130.655754,731.079071 Z M181.052036,739.331395 C185.652938,739.331395 189.758806,738.596599 193.36964,737.127005 C196.980474,735.657412 199.819638,733.497109 201.887132,730.646098 C203.954625,727.795086 204.988372,724.400325 204.988372,720.461815 C204.988372,716.405737 204.027424,713.143239 202.105529,710.674322 C200.183633,708.205405 197.868623,706.353717 195.160497,705.119259 C192.602823,703.953381 189.382812,702.787503 185.500464,701.621626 L183.782912,701.108187 C180.105952,699.983335 177.346563,698.89553 175.504747,697.844771 C173.495492,696.698488 172.490865,695.037847 172.490865,692.862849 C172.490865,691.15812 173.189736,689.864878 174.587479,688.983122 C175.985221,688.101366 177.877997,687.660488 180.265806,687.660488 C182.770095,687.660488 185.783976,688.233629 189.307451,689.379912 C190.537466,689.78007 192.037623,690.393794 193.807921,691.221085 C196.805575,692.621981 200.35808,691.390197 201.858156,688.472282 L201.97449,688.233629 L201.97449,688.233629 C203.470657,684.99051 202.119192,681.161867 198.957806,679.562897 L198.730706,679.453348 L198.730706,679.453348 C196.851197,678.589582 195.209773,677.94523 193.806434,677.520292 C189.729686,676.285834 185.594699,675.668605 181.401472,675.668605 C176.684092,675.668605 172.549104,676.418097 168.99651,677.917083 C165.443915,679.416068 162.67755,681.561675 160.697415,684.353902 C158.71728,687.14613 157.727213,690.393932 157.727213,694.097307 C157.727213,698.094602 158.688161,701.298315 160.610056,703.708449 C162.531952,706.118582 164.817843,707.911486 167.467729,709.087161 C169.978148,710.200958 173.181146,711.314755 177.076723,712.428553 L178.734154,712.900985 C181.173553,713.608831 183.125525,714.248028 184.590071,714.818576 C186.24989,715.465197 187.618513,716.302865 188.695939,717.331581 C189.773366,718.360296 190.312079,719.668234 190.312079,721.255395 C190.312079,723.254042 189.511289,724.78242 187.909709,725.840527 C186.30813,726.898634 184.080478,727.427688 181.226754,727.427688 C177.907116,727.427688 174.238043,726.575324 170.219534,724.870595 C168.631023,724.196718 166.735368,723.126712 164.532571,721.660576 C162.091059,720.035548 158.794478,720.697447 157.169456,723.138963 C157.035422,723.340342 156.915305,723.550644 156.809945,723.7684 C155.184951,727.126876 156.361778,731.170241 159.535278,733.132093 C162.202051,734.780709 164.511325,735.965387 166.463102,736.686127 C171.238721,738.449639 176.101699,739.331395 181.052036,739.331395 Z" fill="#475068" fill-rule="nonzero"></path>
            <path d="M1161,598 L1314,598 C1332.2254,598 1347,612.774603 1347,631 L1347,784 C1347,802.225397 1332.2254,817 1314,817 L1161,817 C1142.7746,817 1128,802.225397 1128,784 L1128,631 C1128,612.774603 1142.7746,598 1161,598 Z" fill="#61697F"></path>
            <path d="M1161,598 L1279.62209,598 C1297.84749,598 1312.62209,612.774603 1312.62209,631 L1312.62209,784 C1312.62209,802.225397 1297.84749,817 1279.62209,817 L1161,817 C1142.7746,817 1128,802.225397 1128,784 L1128,631 C1128,612.774603 1142.7746,598 1161,598 Z" fill="#697084"></path>
            <path d="M1217.34612,732.705003 L1217.3769,732.641821 C1219.4545,728.335461 1217.64774,723.160236 1213.34138,721.082633 C1213.14791,720.989297 1212.95104,720.903193 1212.75118,720.824501 L1179.81357,707.856201 L1212.67609,695.19874 C1217.14248,693.478446 1219.36863,688.463148 1217.64834,683.996758 C1217.56619,683.783479 1217.47564,683.573534 1217.3769,683.367414 C1215.21863,678.862241 1209.87582,676.912378 1205.33941,678.923462 L1205.01341,679.075539 L1205.01341,679.075539 L1168.12797,697.571571 C1164.19184,699.545375 1161.70671,703.57163 1161.70671,707.974934 C1161.70671,712.378238 1164.19184,716.404493 1168.12797,718.378297 L1204.98673,736.861373 C1209.43897,739.093977 1214.84052,737.367919 1217.18763,733.012607 L1217.34612,732.705003 L1217.34612,732.705003 Z M1228.09037,752.5 C1229.71306,752.5 1230.94987,752.133905 1231.80079,751.401715 C1232.65172,750.669525 1233.28496,749.650396 1233.70053,748.344327 L1233.87045,747.79657 C1234.24661,746.554881 1234.6748,744.956464 1235.15501,743.001319 L1251.7777,674.551451 L1251.97683,673.761131 C1252.67521,670.940386 1253.02441,668.967678 1253.02441,667.843008 C1253.02441,666.180739 1252.5,664.87467 1251.45119,663.924802 C1250.40237,662.974934 1248.88852,662.5 1246.90963,662.5 C1244.61412,662.5 1243.07058,663.172823 1242.27902,664.51847 C1241.48747,665.864116 1240.65633,668.35752 1239.78562,671.998681 L1223.2223,740.448549 L1222.9815,741.571898 C1222.35047,744.561691 1222.03496,746.462966 1222.03496,747.275726 C1222.03496,750.758575 1224.05343,752.5 1228.09037,752.5 Z M1269.86464,737.034295 L1306.93097,718.363374 C1310.83217,716.398117 1313.29329,712.402549 1313.29329,708.034301 C1313.29329,703.668729 1310.82523,699.678345 1306.91923,697.728637 L1269.97314,679.286752 C1265.5218,677.064841 1260.1295,678.798885 1257.79304,683.153612 L1257.6231,683.486148 L1257.6231,683.486148 C1255.56353,687.724956 1257.33016,692.8308 1261.56897,694.890368 C1261.78164,694.993702 1261.99851,695.088152 1262.21903,695.173473 L1295.30516,707.974934 L1262.25213,720.951655 C1257.80584,722.697283 1255.61652,727.716826 1257.36215,732.163118 C1257.4416,732.365472 1257.52864,732.564759 1257.6231,732.760554 C1259.82335,737.321121 1265.30407,739.23454 1269.86464,737.034295 Z" fill="#475068" fill-rule="nonzero"></path>
            <path d="M638.48565,554.022755 L641.466049,546.571429 L687.244818,546.571429 L690.084184,553.670156 C692.616819,560.002021 699.802916,563.081905 706.134781,560.549271 C706.412537,560.438173 706.686165,560.317018 706.955121,560.186047 C713.562881,556.968313 716.33672,549.022011 713.166831,542.391166 L681.614471,476.389225 C678.579706,470.041036 672.168828,466 665.132542,466 C658.088492,466 651.662601,470.021435 648.583326,476.35679 L616.303379,542.770123 C613.175289,549.20591 615.791893,556.960959 622.179624,560.186047 C628.008471,563.12896 635.119389,560.789449 638.062302,554.960601 C638.216961,554.654278 638.358211,554.341366 638.48565,554.022755 Z M679.422201,528.820513 L648.863127,528.820513 L664.211802,490.358974 L679.422201,528.820513 Z M752,554.540347 L752,477.459653 C752,471.130661 746.869339,466 740.540347,466 C734.211356,466 729.080695,471.130661 729.080695,477.459653 L729.080695,554.540347 C729.080695,560.869339 734.211356,566 740.540347,566 C746.869339,566 752,560.869339 752,554.540347 Z" fill="#E8E4DD" fill-rule="nonzero"></path>
            <path d="M621.639346,366 C624.328101,366 626.521164,368.122307 626.634726,370.78311 L626.639346,371 L626.639346,416 C626.639346,418.761424 624.40077,421 621.639346,421 C618.950591,421 616.757528,418.877693 616.643965,416.21689 L616.639346,416 L616.639346,371 C616.639346,368.238576 618.877922,366 621.639346,366 Z M661.081755,366 C663.77051,366 665.963573,368.122307 666.077135,370.78311 L666.081755,371 L666.081755,416 C666.081755,418.761424 663.843179,421 661.081755,421 C658.393,421 656.199937,418.877693 656.086374,416.21689 L656.081755,416 L656.081755,371 C656.081755,368.238576 658.320331,366 661.081755,366 Z M700.721204,366 C703.409959,366 705.603023,368.122307 705.716585,370.78311 L705.721204,371 L705.721204,416 C705.721204,418.761424 703.482628,421 700.721204,421 C698.03245,421 695.839386,418.877693 695.725824,416.21689 L695.721204,416 L695.721204,371 C695.721204,368.238576 697.959781,366 700.721204,366 Z M740.360654,366 C743.049409,366 745.242472,368.122307 745.356035,370.78311 L745.360654,371 L745.360654,416 C745.360654,418.761424 743.122078,421 740.360654,421 C737.671899,421 735.478836,418.877693 735.365274,416.21689 L735.360654,416 L735.360654,371 C735.360654,368.238576 737.59923,366 740.360654,366 Z" fill="#E8E4DD" fill-rule="nonzero"></path>
            <path d="M621.639346,612 C624.328101,612 626.521164,614.122307 626.634726,616.78311 L626.639346,617 L626.639346,662 C626.639346,664.761424 624.40077,667 621.639346,667 C618.950591,667 616.757528,664.877693 616.643965,662.21689 L616.639346,662 L616.639346,617 C616.639346,614.238576 618.877922,612 621.639346,612 Z M661.081755,612 C663.77051,612 665.963573,614.122307 666.077135,616.78311 L666.081755,617 L666.081755,662 C666.081755,664.761424 663.843179,667 661.081755,667 C658.393,667 656.199937,664.877693 656.086374,662.21689 L656.081755,662 L656.081755,617 C656.081755,614.238576 658.320331,612 661.081755,612 Z M700.721204,612 C703.409959,612 705.603023,614.122307 705.716585,616.78311 L705.721204,617 L705.721204,662 C705.721204,664.761424 703.482628,667 700.721204,667 C698.03245,667 695.839386,664.877693 695.725824,662.21689 L695.721204,662 L695.721204,617 C695.721204,614.238576 697.959781,612 700.721204,612 Z M740.360654,612 C743.049409,612 745.242472,614.122307 745.356035,616.78311 L745.360654,617 L745.360654,662 C745.360654,664.761424 743.122078,667 740.360654,667 C737.671899,667 735.478836,664.877693 735.365274,662.21689 L735.360654,662 L735.360654,617 C735.360654,614.238576 737.59923,612 740.360654,612 Z" fill="#E8E4DD" fill-rule="nonzero"></path>
            <path d="M584.5,456.139346 C584.5,458.828101 582.377693,461.021164 579.71689,461.134726 L579.5,461.139346 L534.5,461.139346 C531.738576,461.139346 529.5,458.90077 529.5,456.139346 C529.5,453.450591 531.622307,451.257528 534.28311,451.143965 L534.5,451.139346 L579.5,451.139346 C582.261424,451.139346 584.5,453.377922 584.5,456.139346 Z M584.5,495.581755 C584.5,498.27051 582.377693,500.463573 579.71689,500.577135 L579.5,500.581755 L534.5,500.581755 C531.738576,500.581755 529.5,498.343179 529.5,495.581755 C529.5,492.893 531.622307,490.699937 534.28311,490.586374 L534.5,490.581755 L579.5,490.581755 C582.261424,490.581755 584.5,492.820331 584.5,495.581755 Z M584.5,535.221204 C584.5,537.909959 582.377693,540.103023 579.71689,540.216585 L579.5,540.221204 L534.5,540.221204 C531.738576,540.221204 529.5,537.982628 529.5,535.221204 C529.5,532.53245 531.622307,530.339386 534.28311,530.225824 L534.5,530.221204 L579.5,530.221204 C582.261424,530.221204 584.5,532.459781 584.5,535.221204 Z M584.5,574.860654 C584.5,577.549409 582.377693,579.742472 579.71689,579.856035 L579.5,579.860654 L534.5,579.860654 C531.738576,579.860654 529.5,577.622078 529.5,574.860654 C529.5,572.171899 531.622307,569.978836 534.28311,569.865274 L534.5,569.860654 L579.5,569.860654 C582.261424,569.860654 584.5,572.09923 584.5,574.860654 Z" fill="#E8E4DD" fill-rule="nonzero"></path>
            <path d="M832.5,456.139346 C832.5,458.828101 830.377693,461.021164 827.71689,461.134726 L827.5,461.139346 L782.5,461.139346 C779.738576,461.139346 777.5,458.90077 777.5,456.139346 C777.5,453.450591 779.622307,451.257528 782.28311,451.143965 L782.5,451.139346 L827.5,451.139346 C830.261424,451.139346 832.5,453.377922 832.5,456.139346 Z M832.5,495.581755 C832.5,498.27051 830.377693,500.463573 827.71689,500.577135 L827.5,500.581755 L782.5,500.581755 C779.738576,500.581755 777.5,498.343179 777.5,495.581755 C777.5,492.893 779.622307,490.699937 782.28311,490.586374 L782.5,490.581755 L827.5,490.581755 C830.261424,490.581755 832.5,492.820331 832.5,495.581755 Z M832.5,535.221204 C832.5,537.909959 830.377693,540.103023 827.71689,540.216585 L827.5,540.221204 L782.5,540.221204 C779.738576,540.221204 777.5,537.982628 777.5,535.221204 C777.5,532.53245 779.622307,530.339386 782.28311,530.225824 L782.5,530.221204 L827.5,530.221204 C830.261424,530.221204 832.5,532.459781 832.5,535.221204 Z M832.5,574.860654 C832.5,577.549409 830.377693,579.742472 827.71689,579.856035 L827.5,579.860654 L782.5,579.860654 C779.738576,579.860654 777.5,577.622078 777.5,574.860654 C777.5,572.171899 779.622307,569.978836 782.28311,569.865274 L782.5,569.860654 L827.5,569.860654 C830.261424,569.860654 832.5,572.09923 832.5,574.860654 Z" fill="#E8E4DD" fill-rule="nonzero"></path>
            <path d="M22.5,73 L210.5,73 C222.926407,73 233,83.0735931 233,95.5 C233,107.926407 222.926407,118 210.5,118 L22.5,118 C10.0735931,118 0,107.926407 0,95.5 C0,83.0735931 10.0735931,73 22.5,73 Z" fill="#4757A4"></path>
            <path d="M243.5,678.5 L269.5,678.5 C271.432997,678.5 273,680.067003 273,682 C273,683.932997 271.432997,685.5 269.5,685.5 L243.5,685.5 C241.567003,685.5 240,683.932997 240,682 C240,680.067003 241.567003,678.5 243.5,678.5 Z" fill="#FFFFFF"></path>
            <path d="M1090,678.5 L1116,678.5 C1117.933,678.5 1119.5,680.067003 1119.5,682 C1119.5,683.932997 1117.933,685.5 1116,685.5 L1090,685.5 C1088.067,685.5 1086.5,683.932997 1086.5,682 C1086.5,680.067003 1088.067,678.5 1090,678.5 Z" fill="#FFFFFF"></path>
            <path d="M140,501.5 L140,587.5 C140,589.432997 138.432997,591 136.5,591 C134.567003,591 133,589.432997 133,587.5 L133,501.5 C133,499.567003 134.567003,498 136.5,498 C138.432997,498 140,499.567003 140,501.5 Z" fill="#FFFFFF"></path>
            <path d="M1261.5,501.5 L1261.5,587.5 C1261.5,589.432997 1259.933,591 1258,591 C1256.067,591 1254.5,589.432997 1254.5,587.5 L1254.5,501.5 C1254.5,499.567003 1256.067,498 1258,498 C1259.933,498 1261.5,499.567003 1261.5,501.5 Z" fill="#FFFFFF"></path>
            <path d="M243.5,724.5 L269.5,724.5 C271.432997,724.5 273,726.067003 273,728 C273,729.932997 271.432997,731.5 269.5,731.5 L243.5,731.5 C241.567003,731.5 240,729.932997 240,728 C240,726.067003 241.567003,724.5 243.5,724.5 Z" fill="#FFFFFF"></path>
            <path d="M1090,724.5 L1116,724.5 C1117.933,724.5 1119.5,726.067003 1119.5,728 C1119.5,729.932997 1117.933,731.5 1116,731.5 L1090,731.5 C1088.067,731.5 1086.5,729.932997 1086.5,728 C1086.5,726.067003 1088.067,724.5 1090,724.5 Z" fill="#FFFFFF"></path>
            <path d="M1151.5,73.5 L1339.5,73.5 C1351.92641,73.5 1362,83.5735931 1362,96 C1362,108.426407 1351.92641,118.5 1339.5,118.5 L1151.5,118.5 C1139.07359,118.5 1129,108.426407 1129,96 C1129,83.5735931 1139.07359,73.5 1151.5,73.5 Z" fill="#D12F38"></path>
            <path d="M22.5,445 L210.5,445 C222.926407,445 233,455.073593 233,467.5 C233,479.926407 222.926407,490 210.5,490 L22.5,490 C10.0735931,490 0,479.926407 0,467.5 C0,455.073593 10.0735931,445 22.5,445 Z" fill="#4757A4"></path>
            <path d="M22.5,73.5 L170.5,73.5 C182.926407,73.5 193,83.5735931 193,96 C193,108.426407 182.926407,118.5 170.5,118.5 L22.5,118.5 C10.0735931,118.5 0,108.426407 0,96 C0,83.5735931 10.0735931,73.5 22.5,73.5 Z" fill="#719CFE"></path>
            <path d="M27,83 L83,83 C86.8659932,83 90,86.1340068 90,90 C90,93.8659932 86.8659932,97 83,97 L27,97 C23.1340068,97 20,93.8659932 20,90 C20,86.1340068 23.1340068,83 27,83 Z" fill="#A3BEFF" fill-rule="nonzero"></path>
            <path d="M22.5,445.5 L170.5,445.5 C182.926407,445.5 193,455.573593 193,468 C193,480.426407 182.926407,490.5 170.5,490.5 L22.5,490.5 C10.0735931,490.5 0,480.426407 0,468 C0,455.573593 10.0735931,445.5 22.5,445.5 Z" fill="#719CFE"></path>
            <path d="M27,455 L83,455 C86.8659932,455 90,458.134007 90,462 C90,465.865993 86.8659932,469 83,469 L27,469 C23.1340068,469 20,465.865993 20,462 C20,458.134007 23.1340068,455 27,455 Z" fill="#A3BEFF" fill-rule="nonzero"></path>
            <path d="M1151.5,73.5 L1299.5,73.5 C1311.92641,73.5 1322,83.5735931 1322,96 C1322,108.426407 1311.92641,118.5 1299.5,118.5 L1151.5,118.5 C1139.07359,118.5 1129,108.426407 1129,96 C1129,83.5735931 1139.07359,73.5 1151.5,73.5 Z" fill="#E9525B"></path>
            <path d="M1151.5,445 L1339.5,445 C1351.92641,445 1362,455.073593 1362,467.5 C1362,479.926407 1351.92641,490 1339.5,490 L1151.5,490 C1139.07359,490 1129,479.926407 1129,467.5 C1129,455.073593 1139.07359,445 1151.5,445 Z" fill="#D12F38"></path>
            <path d="M1151.5,445.5 L1299.5,445.5 C1311.92641,445.5 1322,455.573593 1322,468 C1322,480.426407 1311.92641,490.5 1299.5,490.5 L1151.5,490.5 C1139.07359,490.5 1129,480.426407 1129,468 C1129,455.573593 1139.07359,445.5 1151.5,445.5 Z" fill="#E9525B"></path>
            <polygon fill="#E9F4F7" fill-rule="nonzero" points="24 118 209 118 209 445 24 445"></polygon>
            <path d="M71.121501,418.914176 L55.4287232,418.914176 C55.4287232,391.552342 75.6596121,365.263676 113.938501,342.886453 C147.128334,323.480676 164.67239,301.876342 164.67239,280.402564 C164.67239,258.934009 147.128334,237.329676 113.93589,217.923898 C75.657001,195.546676 55.4261121,169.255398 55.4287232,141.890953 L71.121501,141.890953 C71.1188899,163.364731 88.6629454,184.971676 121.85539,204.374842 C160.131668,226.754676 180.365168,253.043342 180.365168,280.402564 C180.365168,307.764398 160.131668,334.055676 121.858001,356.435509 C88.6655565,375.838676 71.121501,397.443009 71.121501,418.914176" fill="#719CFE"></path>
            <path d="M56.8178343,418.914176 C56.8204454,405.584453 61.7319454,392.484509 71.4296121,379.878064 C81.1246676,367.276842 95.6111121,355.208287 114.638279,344.084953 C131.333723,334.322009 144.146445,323.98462 152.831001,313.294731 C161.507723,302.615287 166.064112,291.528509 166.061502,280.402564 C166.064112,269.279231 161.507723,258.195064 152.831001,247.513009 C144.146445,236.825731 131.333723,226.488342 114.635668,216.725398 C95.608501,205.602064 81.1246676,193.533509 71.4296121,180.932287 C61.7319454,168.325842 56.8204454,155.225898 56.8178343,141.896176 L55.8882788,141.896176 L56.8178343,141.901398 L56.8178343,141.896176 L55.8882788,141.896176 L56.8178343,141.901398 L55.470501,141.893564 L56.8152232,141.984953 L56.8178343,141.901398 L55.470501,141.893564 L56.8152232,141.984953 C56.8674454,141.219898 56.2903899,140.556676 55.5227232,140.504453 C54.7576676,140.452231 54.0944454,141.029287 54.0422232,141.794342 L54.0396111,141.885731 L54.0396111,141.896176 C54.037001,155.925676 59.2409454,169.654898 69.2284454,182.626898 C79.2185565,195.606731 93.9843899,207.868509 113.233501,219.122398 C129.730501,228.765231 142.284723,238.932898 150.674223,249.265064 C159.066334,259.605064 163.283279,270.057342 163.283279,280.402564 C163.283279,290.750398 159.066334,301.205287 150.674223,311.545287 C142.287334,321.877453 129.730501,332.04512 113.236112,341.687953 C93.987001,352.941842 79.2185565,365.206231 69.2284454,378.183453 C59.2409454,391.158064 54.037001,404.884676 54.0396111,418.914176 C54.0396111,419.681842 54.6610565,420.303287 55.4287232,420.303287 C56.1963899,420.303287 56.8178343,419.681842 56.8178343,418.914176" fill="#2E363A"></path>
            <path d="M177.547779,418.914176 L161.855001,418.914176 C161.855001,397.44562 144.310945,375.838676 111.121112,356.435509 C72.8422232,334.055676 52.6113343,307.764398 52.6113343,280.402564 C52.6113343,253.043342 72.8422232,226.754676 111.121112,204.374842 C144.313557,184.969064 161.857612,163.364731 161.855001,141.890953 L177.547779,141.890953 C177.55039,169.255398 157.319501,195.546676 119.038001,217.923898 C85.8481676,237.329676 68.3041121,258.934009 68.3041121,280.402564 C68.3041121,301.876342 85.8481676,323.480676 119.038001,342.886453 C157.31689,365.263676 177.547779,391.554953 177.547779,418.914176" fill="#4757A4"></path>
            <path d="M163.244112,418.914176 C163.245729,407.790842 158.690334,396.706676 150.013612,386.02462 C141.331668,375.334731 128.518945,364.997342 111.823501,355.234398 C92.7937232,344.111064 78.3072788,332.042509 68.6122232,319.441287 C58.9145565,306.832231 54.0030565,293.734898 54.0004454,280.402564 C54.0030565,267.072842 58.9145565,253.975509 68.6122232,241.369064 C78.3072788,228.767842 92.7937232,216.696676 111.823501,205.575953 C128.518945,195.810398 141.331668,185.47562 150.013612,174.785731 C158.690334,164.103676 163.245729,153.019509 163.244112,141.893564 L163.244112,141.890953 L161.902001,141.890953 L163.244112,141.961453 L163.244112,141.890953 L161.902001,141.890953 L163.244112,141.961453 C163.280668,141.193787 162.693168,140.541009 161.925501,140.5 C161.160445,140.462676 160.507668,141.052787 160.468501,141.820453 L160.46589,141.890953 L160.46589,141.893564 C160.46589,152.241398 156.248945,162.696287 147.856834,173.036287 C139.469945,183.365842 126.915723,193.53612 110.421334,203.176342 C91.1696121,214.432842 76.4011676,226.697231 66.4110565,239.674453 C56.4209454,252.646453 51.2196121,266.375676 51.2222222,280.402564 C51.2196121,294.434676 56.4209454,308.161287 66.4110565,321.135898 C76.4011676,334.11312 91.1696121,346.377509 110.421334,357.634009 C126.915723,367.274231 139.469945,377.441898 147.856834,387.776676 C156.248945,398.116676 160.46589,408.568953 160.46589,418.914176 C160.46589,419.681842 161.087334,420.303287 161.855001,420.303287 C162.622668,420.303287 163.244112,419.681842 163.244112,418.914176" fill="#2E363A"></path>
            <path d="M152.690001,279.741953 L80.2891121,279.741953 C78.3856121,279.741953 76.8450565,278.201398 76.8450565,276.297898 C76.8450565,274.397009 78.3856121,272.853842 80.2891121,272.853842 L152.690001,272.853842 C154.59089,272.853842 156.131445,274.397009 156.131445,276.297898 C156.131445,278.201398 154.59089,279.741953 152.690001,279.741953" fill="#229581"></path>
            <path d="M144.39189,258.403953 L88.5846121,258.403953 C86.6837232,258.403953 85.1405565,256.860787 85.1405565,254.959898 C85.1405565,253.056398 86.6837232,251.515842 88.5846121,251.515842 L144.39189,251.515842 C146.292779,251.515842 147.835945,253.056398 147.835945,254.959898 C147.835945,256.860787 146.292779,258.403953 144.39189,258.403953" fill="#229581"></path>
            <path d="M125.902612,237.063342 L107.07389,237.063342 C105.173001,237.063342 103.629834,235.522787 103.629834,233.619287 C103.629834,231.718398 105.173001,230.177842 107.07389,230.177842 L125.902612,230.177842 C127.803501,230.177842 129.346668,231.718398 129.346668,233.619287 C129.346668,235.522787 127.803501,237.063342 125.902612,237.063342" fill="#229581"></path>
            <path d="M125.902612,322.420564 L107.07389,322.420564 C105.173001,322.420564 103.629834,320.877398 103.629834,318.976509 C103.629834,317.073009 105.173001,315.532453 107.07389,315.532453 L125.902612,315.532453 C127.803501,315.532453 129.346668,317.073009 129.346668,318.976509 C129.346668,320.877398 127.803501,322.420564 125.902612,322.420564" fill="#229581"></path>
            <path d="M144.39189,301.079953 L88.5846121,301.079953 C86.6837232,301.079953 85.1405565,299.539398 85.1405565,297.638509 C85.1405565,295.735009 86.6837232,294.194453 88.5846121,294.194453 L144.39189,294.194453 C146.292779,294.194453 147.835945,295.735009 147.835945,297.638509 C147.835945,299.539398 146.292779,301.079953 144.39189,301.079953" fill="#229581"></path>
            <path d="M125.902612,177.947787 L107.07389,177.947787 C105.173001,177.947787 103.629834,176.40462 103.629834,174.503731 C103.629834,172.600231 105.173001,171.059676 107.07389,171.059676 L125.902612,171.059676 C127.803501,171.059676 129.346668,172.600231 129.346668,174.503731 C129.346668,176.40462 127.803501,177.947787 125.902612,177.947787" fill="#229581"></path>
            <path d="M144.39189,156.607176 L88.5846121,156.607176 C86.6837232,156.607176 85.1405565,155.06662 85.1405565,153.16312 C85.1405565,151.262231 86.6837232,149.721676 88.5846121,149.721676 L144.39189,149.721676 C146.292779,149.721676 147.835945,151.262231 147.835945,153.16312 C147.835945,155.06662 146.292779,156.607176 144.39189,156.607176" fill="#229581"></path>
            <path d="M107.07389,382.857342 L125.902612,382.857342 C127.803501,382.857342 129.346668,384.400509 129.346668,386.301398 C129.346668,388.204898 127.803501,389.745453 125.902612,389.745453 L107.07389,389.745453 C105.173001,389.745453 103.629834,388.204898 103.629834,386.301398 C103.629834,384.400509 105.173001,382.857342 107.07389,382.857342" fill="#229581"></path>
            <path d="M88.5846121,404.197953 L144.39189,404.197953 C146.292779,404.197953 147.835945,405.738509 147.835945,407.639398 C147.835945,409.542898 146.292779,411.083453 144.39189,411.083453 L88.5846121,411.083453 C86.6837232,411.083453 85.1405565,409.542898 85.1405565,407.639398 C85.1405565,405.738509 86.6837232,404.197953 88.5846121,404.197953" fill="#229581"></path>
            <path d="M199.553506,129.503617 L200,129.5 L200,433.5 C185.088312,433.5 173,421.411688 173,406.5 L173,156.5 C173,141.737429 184.847754,129.742049 199.553506,129.503617 L199.553506,129.503617 Z" fill="#FFFFFF" fill-rule="nonzero" opacity="0.699999988"></path>
            <polygon fill="#F7E9E9" fill-rule="nonzero" points="1153 118 1338 118 1338 445 1153 445"></polygon>
            <path d="M1245.5,163 C1287.14426,163 1320.90361,196.759347 1320.90361,238.403611 C1320.90361,259.051011 1312.60483,277.760127 1299.16082,291.377397 C1297.67081,292.886616 1295.67941,294.619043 1293.18662,296.574677 C1287.50123,301.03497 1284.13427,307.813973 1284.00427,315.023696 L1284.00036,315.5 C1283.9998,324.8887 1276.3887,332.5 1267,332.5 L1224,332.5 C1214.6113,332.5 1207.0002,324.8887 1206.99964,315.5 L1206.99963,315.179497 C1206.99948,307.913638 1203.70772,301.039008 1198.04742,296.483377 C1193.38059,292.727327 1189.87649,289.443836 1187.53511,286.632906 C1176.64639,273.560487 1170.09639,256.746966 1170.09639,238.403611 C1170.09639,196.759347 1203.85574,163 1245.5,163 Z" fill="#F7C066" fill-rule="nonzero"></path>
            <path d="M1245.5,253.5 C1238.04416,253.5 1232,259.544156 1232,267 C1232,274.455844 1238.04416,280.5 1245.5,280.5 C1252.95584,280.5 1259,274.455844 1259,267 C1259,259.544156 1252.95584,253.5 1245.5,253.5 Z M1245.5,261.5 C1248.53757,261.5 1251,263.962434 1251,267 C1251,270.037566 1248.53757,272.5 1245.5,272.5 C1242.46243,272.5 1240,270.037566 1240,267 C1240,263.962434 1242.46243,261.5 1245.5,261.5 Z" fill="#D49E44" fill-rule="nonzero"></path>
            <path d="M1195,272.265372 C1212.93597,282.620711 1239.56426,270.077802 1254.47595,244.25 C1269.38764,218.422198 1266.93597,189.089967 1249,178.734628 C1231.06403,168.379289 1204.43574,180.922198 1189.52405,206.75 C1174.61236,232.577802 1177.06403,261.910033 1195,272.265372 Z" fill="#FFD898" opacity="0.699999988"></path>
            <path d="M1246,272.5 C1248.1422,272.5 1249.89108,274.183968 1249.9951,276.30036 L1250,276.5 L1250,332 C1250,334.209139 1248.20914,336 1246,336 C1243.8578,336 1242.10892,334.316032 1242.0049,332.19964 L1242,332 L1242,276.5 C1242,274.290861 1243.79086,272.5 1246,272.5 Z" fill="#D49E44" fill-rule="nonzero"></path>
            <path d="M1284,316 L1284,351 C1284,367.568542 1270.56854,381 1254,381 L1237,381 C1220.43146,381 1207,367.568542 1207,351 L1207,316 C1207.26876,325.049743 1214.60295,332.326637 1223.67526,332.496948 L1224,332.5 L1267,332.5 C1276.22143,332.499645 1283.72804,325.157478 1283.99312,316 L1284,316 Z" fill="#697084"></path>
            <path d="M1328.55351,126.003617 L1329,126 L1329,430 C1314.08831,430 1302,417.911688 1302,403 L1302,153 C1302,138.237429 1313.84775,126.242049 1328.55351,126.003617 L1328.55351,126.003617 Z" fill="#FFFFFF" fill-rule="nonzero" opacity="0.699999988"></path>
            <polygon fill="#F0DECF" fill-rule="nonzero" points="716 73 716 77 300 77 300 73"></polygon>
            <polygon fill="#F0DECF" fill-rule="nonzero" points="578.559768 53.030303 578.559768 57.030303 537.270208 57.030303 537.270208 53.030303"></polygon>
        </g>
    </g>
</svg>