<?xml version="1.0" encoding="UTF-8"?>
<svg width="1600px" height="1200px" viewBox="0 0 1600 1200" version="1.1" xmlns="http://www.w3.org/2000/svg" xmlns:xlink="http://www.w3.org/1999/xlink">
    <title>Manage Schedules Easily</title>
    <g id="Manage-Schedules-Easily" stroke="none" stroke-width="1" fill="none" fill-rule="evenodd">
        <g transform="translate(203.500000, 132.000000)" id="Shape">
            <circle fill="#F9F5E8" cx="630.5" cy="647.5" r="281.5"></circle>
            <circle fill="#E9F4F7" cx="911.5" cy="281.5" r="281.5"></circle>
            <path d="M813.5,51 C619.924195,51 463,207.924195 463,401.5 C463,595.075805 619.924195,752 813.5,752 C1007.0758,752 1164,595.075805 1164,401.5 C1164,207.924195 1007.0758,51 813.5,51 Z M813.5,55 C1004.86667,55 1160,210.133334 1160,401.5 C1160,592.866666 1004.86667,748 813.5,748 C622.133334,748 467,592.866666 467,401.5 C467,210.133334 622.133334,55 813.5,55 Z" fill="#F0DECF" fill-rule="nonzero"></path>
            <path d="M444.482312,408.006262 C431.482312,391.987238 423.815645,380.814772 421.482312,374.488863 C417.982312,365 384.579848,330.957097 371.917433,293.461187 C358.854624,277.970381 350.01445,268.498508 345.396911,265.045567 C338.470603,259.866156 336.325792,272.361618 340.861351,280.995604 C343.885058,286.751595 347.081983,290.906789 350.452127,293.461187 L360.006135,311.257452 L365.919276,334.352773 L322.842491,335.917317 C302.600381,346.038742 292.479326,351.796415 292.479326,353.190338 C292.479326,355.281222 294.048102,358.878903 298.461101,361.939452 C299.758609,367.994543 302.55626,371.01528 306.854051,371.001662 C311.151843,370.988045 315.037832,370.166889 318.512016,368.538194 C324.978859,369.323127 329.7816,369.323127 332.920241,368.538194 L345.356057,373.280473 L345.396911,374.488863 C332.929501,374.857128 323.388839,377.328786 316.774924,381.903837 C306.854051,388.766414 314.181542,394.638701 318.512016,394.638701 C321.398999,394.638701 327.567066,393.274193 337.016217,390.545177 L344.065903,390.545177 C358.621164,408.626079 369.765863,419.055442 377.5,421.833265 C389.101206,426 398.42763,440.79641 405.990875,446.79641 C411.033038,450.79641 423.863517,437.86636 444.482312,408.006262 Z" fill="#FDB4A3"></path>
            <path d="M322.842491,335.917317 L365.919276,334.352773 L367.903732,341.879498 C368.185333,342.947568 367.547774,344.041694 366.479704,344.323295 C366.000279,344.449698 365.490992,344.393516 365.050648,344.16565 L359.930651,341.516186 L360.750545,344.273461 C373.968249,388.917405 378.664667,414.376034 374.8398,420.649345 C367.389488,416.736351 357.306103,406.918775 344.589966,391.194697 L344.065903,390.545177 L337.016217,390.545177 L335.91969,390.859942 L333.774049,391.463745 C326.311806,393.533257 321.282331,394.591051 318.685623,394.637127 L318.512016,394.638701 C314.181542,394.638701 306.854051,388.766414 316.774924,381.903837 C323.259154,377.418493 332.556483,374.954864 344.66691,374.512952 L345.396911,374.488863 L345.356057,373.280473 L332.920241,368.538194 C329.7816,369.323127 324.978859,369.323127 318.512016,368.538194 C315.037832,370.166889 311.151843,370.988045 306.854051,371.001662 C302.55626,371.01528 299.758609,367.994543 298.461101,361.939452 C294.048102,358.878903 292.479326,355.281222 292.479326,353.190338 C292.479326,351.879354 301.431807,346.708456 319.336768,337.677645 L322.842491,335.917317 Z" fill="#F69883"></path>
            <path d="M328.106269,348.791653 L328.93591,348.321408 L366.768891,357.611407 C368.056134,357.927493 368.843413,359.227249 368.527326,360.514492 C368.22441,361.748101 367.01809,362.52254 365.785139,362.306735 L365.624241,362.272928 L329.626,353.432853 L329.512058,353.494862 C323.641091,356.617519 314.038984,360.044151 300.637268,363.822534 L299.103857,364.251781 C297.826793,364.606765 296.503756,363.859271 296.148772,362.582207 C295.793788,361.305143 296.541282,359.982107 297.818346,359.627123 L299.315547,359.208031 C312.645751,355.450166 322.070518,352.069943 327.51743,349.117893 L328.106269,348.791653 Z" fill="#2E363A" fill-rule="nonzero"></path>
            <path d="M386.323166,409.81007 C371.81199,394.333117 361.567285,380.312183 355.589051,367.74727 C346.6217,348.8999 326.274188,349.978433 326.274188,332.268426 C326.274188,320.461754 336.282351,322.885186 356.298677,339.538721 C373.977636,348.491092 382.817115,352.967278 382.817115,352.967278 C382.817115,352.967278 387.544743,355.311519 397,360" fill="#FDB4A3"></path>
            <path d="M356.745883,370.71163 C357.976275,370.218637 359.373355,370.816417 359.866348,372.046808 C364.135885,382.70254 369.835401,390.207875 376.938019,394.643162 L377.36586,394.905596 L378.632035,395.668357 L377.320683,413.012766 C377.220753,414.334477 376.068285,415.324926 374.746574,415.224996 C373.479934,415.12923 372.517526,414.06681 372.527477,412.815156 L372.534344,412.650887 L373.625,398.218853 L373.526124,398.154356 C366.046869,393.184244 360.103923,385.271177 355.674646,374.482845 L355.410705,373.832095 C354.917712,372.601703 355.515491,371.204624 356.745883,370.71163 Z" fill="#2E363A" fill-rule="nonzero"></path>
            <path d="M892.135504,360 C982.203052,402.623522 1034.4251,431.899278 1048.80166,447.827267 C1070.36649,471.719251 1063.19315,490.474188 1054.31018,532.930237 C1045.42722,575.386285 1016.82109,761.066991 1008.23053,770.049755 C1002.50349,776.038264 995.714519,778.385282 987.863615,777.090809 L994.99496,851.091458 C996.404422,865.717192 988.259083,879.593545 974.801722,885.492539 C934.487453,903.16418 888.680514,912 837.380906,912 C785.962878,912 734.359497,903.12334 682.570761,885.370019 L680.881932,884.787961 C664.987598,879.280544 655.509767,862.978198 658.58768,846.440727 L686.585958,696.263576 C686.979961,694.167723 687.280096,692.577526 687.486362,691.492986 C689.541054,680.689477 684.17323,647.324588 671.382891,591.398321 C633.849784,633.473411 603.823299,654.510957 581.303435,654.510957 C559.437086,654.510957 501.190623,590.817366 406.564046,463.430186 L403.685438,459.550473 C400.149801,454.779742 400.008395,448.297541 403.332625,443.377165 C409.257854,434.606907 415.596436,427.132526 422.348372,420.954023 C428.60838,415.225668 435.723562,410.153835 443.693919,405.738523 L444.694666,405.190026 C450.019555,402.302584 456.597437,403.16715 460.995339,407.332509 L464.870056,410.998147 C527.591036,470.265464 562.574179,499.899123 569.819484,499.899123 C576.400593,499.899123 597.905785,475.449622 634.335062,426.550618 C646.936273,409.636018 664.563194,397.139033 684.695266,390.846667 L783.387445,360 L892.135504,360 Z" fill="#229581"></path>
            <path d="M707.96939,438.003226 C708.243751,436.933273 709.333532,436.288318 710.403486,436.562678 C711.424805,436.824568 712.058884,437.829434 711.875795,438.850827 L711.844034,438.996774 L704.632025,467.122213 C701.252258,480.302651 700.655108,494.03912 702.874541,507.456898 L703.030231,508.371242 L707.987769,536.676129 C708.178331,537.764136 707.450807,538.800622 706.3628,538.991184 C705.324248,539.173084 704.33264,538.518464 704.0789,537.512293 L704.047746,537.366215 L699.090208,509.061329 C696.645708,495.104542 697.136456,480.795016 700.527046,467.044527 L700.757381,466.128666 L707.96939,438.003226 Z" fill="#0D594C" fill-rule="nonzero"></path>
            <polygon fill="#177666" points="783.798286 405.363261 823.002212 443.664475 881.07202 407.335932 850.965441 400.346843 837.04932 408.727445 824.5 419.707718 815.710615 408.727445 800.396579 391.234048"></polygon>
            <path d="M593.982312,638.357513 C599.915458,640.680033 607.345022,641.802866 616.271002,641.726013 C603.094931,650.249564 591.438908,654.510957 581.303435,654.510957 C561.492447,654.510957 511.819123,602.228564 432.283463,497.66378 L440.982895,505.643271 C533.460597,590.391575 584.459927,634.629993 593.982312,638.357513 Z" fill="#177666"></path>
            <path d="M786.683862,670.099951 L789.164552,672.171638 L789.103416,673.755845 C789.093722,674.023116 789.084276,674.292005 789.075078,674.562512 C789.011834,676.422467 789.815007,678.201306 791.239959,679.383613 L791.438102,679.54109 L793.402423,681.030727 C857.577338,729.526979 921.788336,761.365103 986.035419,776.545099 L987.2394,776.826438 L987.434697,777.26697 L987.9244,777.719237 L994.99496,851.091458 C996.404422,865.717192 988.259083,879.593545 974.801722,885.492539 C945.209215,898.464327 912.657132,906.675174 877.145474,910.125079 C880.69159,902.722304 884.471044,895.594607 888.482312,888.741082 C920.842618,833.451277 803.385261,728.117683 788.982312,707.155511 C779.483592,693.330997 778.631693,681.094696 786.426615,670.446609 L786.683862,670.099951 Z M958.460841,527.997438 L958.982312,528 L945.984326,656.580481 L939.982312,659.408806 L939.981847,667.232916 C936.454921,665.428483 930.517823,664.574978 922.170554,664.672402 C917.256539,661.826244 910.699787,658.620587 902.500297,655.055432 C921.591405,627.171829 933.689164,593.587841 933.387328,571.824629 C932.987048,542.963387 941.17285,528.356438 957.944734,528.003781 L958.460841,527.997438 Z" fill="#177666"></path>
            <path d="M567.653861,498.504935 C568.479563,497.771252 569.743694,497.845848 570.477377,498.67155 L573.787169,502.408742 C588.489889,519.066881 599.090187,531.865763 605.600234,540.824275 C606.249569,541.717829 606.05159,542.968587 605.158037,543.617922 C604.264483,544.267257 603.013725,544.069278 602.36439,543.175725 L601.787034,542.385835 C594.828803,532.919732 583.390922,519.226771 567.487247,501.32845 C566.753564,500.502749 566.82816,499.238618 567.653861,498.504935 Z" fill="#0D594C" fill-rule="nonzero"></path>
            <path d="M569.637053,497.509422 C587.902822,494.30815 604.326439,496.197073 618.850761,503.198391 C619.845762,503.678022 620.263552,504.873448 619.783921,505.868449 C619.30429,506.863451 618.108864,507.281241 617.113862,506.801609 C603.374918,500.178876 587.798535,498.387396 570.327571,501.449369 C569.239584,501.640051 568.203019,500.912641 568.012338,499.824655 C567.821657,498.736668 568.549066,497.700103 569.637053,497.509422 Z" fill="#0D594C" fill-rule="nonzero"></path>
            <path d="M760.580354,658.829978 L712.175269,514.008945 C709.268904,505.313521 700.567636,499.933778 691.490005,501.219843 L597.479401,514.538706 C592.011159,515.313415 588.206298,520.374326 588.981006,525.842568 C589.089029,526.605045 589.284766,527.352493 589.564326,528.070049 L640.924212,659.897407 C643.767242,667.19472 650.796471,672 658.628047,672 L751.096106,672 C756.618954,672 761.096106,667.522847 761.096106,662 C761.096106,660.92244 760.921943,659.851963 760.580354,658.829978 Z" fill="#B6D4E5"></path>
            <path d="M757.580354,660.829978 L709.175269,516.008945 C706.268904,507.313521 697.567636,501.933778 688.490005,503.219843 L594.479401,516.538706 C589.011159,517.313415 585.206298,522.374326 585.981006,527.842568 C586.089029,528.605045 586.284766,529.352493 586.564326,530.070049 L637.924212,661.897407 C640.767242,669.19472 647.796471,674 655.628047,674 L748.096106,674 C753.618954,674 758.096106,669.522847 758.096106,664 C758.096106,662.92244 757.921943,661.851963 757.580354,660.829978 Z" fill="#E9F0F6"></path>
            <path d="M671.492821,606 C663.885747,606 656.602921,599.955844 655.226175,592.5 C653.849428,585.044156 658.900106,579 666.507179,579 C674.114253,579 681.397079,585.044156 682.773825,592.5 C684.150572,599.955844 679.099894,606 671.492821,606 Z" fill="#B6D4E5"></path>
            <path d="M726.110383,557 L757.860858,578.814071 L797.994319,618.505045 L809.018176,622.661298 L809.018176,622.661298 C796.581559,634.342744 790.165502,651.789131 789.768917,674.999878 L775.740651,662.453384 L728.637961,652.963788 L703.253068,644.942167 L683.716735,628.551008 L683.716735,628.551008 C680.709659,625.96974 680.306607,621.481862 682.760762,618.410202 L682.928609,618.207559 L706.507255,632.490803 L726.110383,635.804118 L704.600102,627.663008 L682.928609,611.571629 L682.713516,611.453876 C679.95827,609.878467 678.734136,606.542641 679.815595,603.559364 L679.905777,603.324613 L681.120499,600.333328 L673.99412,592.026898 C672.221268,589.960481 671.589881,587.148773 672.309019,584.522764 C672.406195,584.167914 672.568118,583.834081 672.786628,583.538083 C673.728332,582.262436 675.492934,581.953071 676.806687,582.801819 L676.962092,582.90924 L703.253068,602.317678 L732.186807,610.811156 C732.266162,610.83445 732.34844,610.846277 732.431143,610.846277 C732.910234,610.846277 733.298613,610.457897 733.298613,609.978806 C733.298613,609.334619 732.919929,608.756001 732.341197,608.494199 L732.204173,608.439521 L703.253068,598.37243 L680.785782,577.264608 C679.024388,575.609794 678.471944,573.037108 679.398693,570.805057 C679.477798,570.614535 679.574422,570.43177 679.687321,570.259114 C680.658643,568.77368 682.613798,568.318743 684.13344,569.191323 L684.300424,569.293755 L710.526488,586.442916 L736.162126,588.722281 L726.110383,557 Z" fill="#FDB4A3"></path>
            <path d="M680.346106,599.90201 C680.922189,599.024944 682.070103,598.749295 682.975006,599.243838 L683.115747,599.328349 L703.981,613.034 L730.596878,621.085681 C731.606071,621.390982 732.196623,622.422031 731.970046,623.434665 L731.932076,623.579121 C731.626775,624.588314 730.595726,625.178865 729.583092,624.952289 L729.438636,624.914319 L702.270348,616.69535 L680.919767,602.671651 C679.996539,602.065248 679.739703,600.825237 680.346106,599.90201 Z" fill="#583E40" fill-rule="nonzero"></path>
            <path d="M735.31551,581.127342 C736.300501,580.75797 737.393051,581.215674 737.829901,582.153519 L737.890415,582.297753 L740.890415,590.297753 C741.278256,591.331994 740.754245,592.484818 739.720004,592.872658 C738.735013,593.24203 737.642463,592.784326 737.205613,591.846481 L737.145099,591.702247 L734.145099,583.702247 C733.757258,582.668006 734.28127,581.515182 735.31551,581.127342 Z" fill="#583E40" fill-rule="nonzero"></path>
            <path d="M788.784588,360.307631 L788.784588,348.046049 L820.048997,281.10393 L878.873799,265.985195 L894.433246,295.51888 L897.485958,360.307631 L825.095623,419.707718 C816.495491,418.282643 809.648736,413.404058 804.555358,405.07196 C799.46198,396.739863 794.205057,381.81842 788.784588,360.307631 Z" fill="#FDB4A3"></path>
            <path d="M730.339575,186.927264 C725.488076,211.548924 733.330907,227.586853 753.868069,235.041051 L781.803766,199.976725 L760.032026,173.152763 L730.339575,186.927264 Z" fill="#2E363A"></path>
            <path d="M853.703514,330.617985 C811.907731,347.837448 781.836669,352.142313 763.490328,343.532582 C749.05448,304.651995 742.600026,275.956468 744.126968,257.446001 C745.653909,238.935534 746.893547,210.37355 747.84588,171.760049 C772.578763,143.182402 810.392082,132.864574 861.28584,140.806564 C912.179597,148.748555 923.560477,210.880572 895.428481,327.202616 L853.703514,330.617985 Z" fill="#FDB4A3"></path>
            <path d="M888.760879,274.049782 L894.433246,295.51888 L897.485958,360.307631 L843.929218,404.251953 L843.135273,404.353943 C864.597903,369.871553 834.279085,350.661211 817.545479,353.826287 L817.042626,353.929055 C805.96351,356.365304 796.710374,354.334768 789.283218,347.837448 C794.601939,346.595594 799.77343,345.938142 804.797689,345.865092 L805.738013,345.858243 C811.056734,345.858243 817.31073,343.431641 824.5,338.578436 L830.087938,336.009646 C846.773235,328.373958 856.930822,324.0619 860.5607,323.073474 C864.579492,321.979145 867.500607,315.26083 869.324043,302.918529 C885.523125,295.51888 876.862087,279.808712 888.760879,274.049782 Z" fill="#F69883"></path>
            <polygon fill="#D8D8D8" points="793.770889 397.029856 823.002212 443.664475 873.551711 394.133842 844.04121 404.353943 836.653081 408.640057 824.868055 419.091889 815.997912 408.640057 798.554715 386.767177"></polygon>
            <path d="M815.710615,408.486779 C804.71052,396.634034 793.726122,398.710683 782.757423,414.716727 L781.915261,412.284201 C773.108004,386.630768 769.926516,370.369506 772.370798,363.500415 L772.449013,363.288814 L772.449013,363.288814 C774.1592,358.833273 778.43817,355.892352 783.210652,355.892352 L788.784588,355.892352 L815.710615,408.486779 Z" fill="#FFFFFF"></path>
            <path d="M897.485958,358.817628 L836.653081,408.573555 L837.012697,408.374873 C840.139964,406.691373 862.887247,395.344406 874.591853,414.716727 C898.184679,395.844744 903.446359,377.966739 904.868245,366.534517 L904.910172,366.190065 L904.910172,366.190065 C905.340719,362.574495 902.758749,359.29447 899.143179,358.863922 C898.884463,358.833114 898.624148,358.817628 898.363604,358.817628 L897.485958,358.817628 Z" fill="#FFFFFF"></path>
            <path d="M803.777253,294.547154 C804.541608,293.464256 806.039103,293.206027 807.122,293.970382 C808.204898,294.734737 808.463127,296.232231 807.698772,297.315129 C799.426698,309.034561 787.56815,313.911262 772.501947,311.84255 C771.188785,311.662242 770.270425,310.451545 770.450733,309.138383 C770.631041,307.82522 771.841737,306.90686 773.1549,307.087168 C786.479656,308.916766 796.560835,304.770988 803.777253,294.547154 Z" fill="#2E363A" fill-rule="nonzero"></path>
            <ellipse fill="#2E363A" cx="755.376369" cy="246.021231" rx="4.48767123" ry="6.98738739"></ellipse>
            <ellipse fill="#2E363A" cx="802.247602" cy="245.023033" rx="4.48767123" ry="6.98738739"></ellipse>
            <path d="M775.330992,246.331184 C775.711099,245.061372 777.048623,244.340123 778.318436,244.72023 C779.588249,245.100337 780.309498,246.437862 779.929391,247.707675 L778.601037,252.124871 C774.651927,265.192864 771.70827,274.32985 769.754442,279.57566 L769.556,280.104 L769.630014,280.200434 C773.157471,284.692544 777.238255,285.658829 782.475722,283.308873 L782.779171,283.169621 C783.979219,282.606779 785.408324,283.123337 785.971166,284.323385 C786.534008,285.523433 786.01745,286.952537 784.817402,287.515379 C776.869803,291.24293 769.953841,289.249719 764.864191,281.811787 C764.412479,281.151662 764.319327,280.309881 764.615778,279.566964 L764.886029,278.877976 C766.961278,273.502731 770.451491,262.63198 775.330992,246.331184 Z" fill="#2E363A" fill-rule="nonzero"></path>
            <path d="M825.882723,222.084715 L824.066677,221.589466 L822.281092,221.115122 C804.479847,216.452003 794.352988,215.824007 791.900515,219.231136 C787.606239,225.197014 796.169125,234.997177 808.659304,232.703301 C814.537915,231.623668 820.121173,229.826213 825.409081,227.310936 L826.28766,226.885065 C827.487255,226.292688 828.010696,224.772454 827.456796,223.489527 C827.155801,222.792369 826.577943,222.276649 825.882723,222.084715 Z" fill="#2E363A"></path>
            <path d="M740.45165,221.88725 L742.018459,221.501805 C758.334518,217.54152 767.605221,217.010527 769.830567,219.908826 C773.602787,224.821781 766.285473,232.731295 755.455716,230.730519 C750.358598,229.788837 745.510288,228.264393 740.910786,226.157189 L740.14651,225.800583 C739.102878,225.304784 738.635595,224.058742 739.102804,223.017471 C739.35669,222.451633 739.851865,222.036717 740.45165,221.88725 Z" fill="#2E363A"></path>
            <path d="M747.99179,195.144413 C726.653655,205.127491 715.984588,191.11542 715.984588,153.1082 L729.762709,157.316043 C729.90389,143.103791 732.206812,132.392139 736.671476,125.181084 L747.99179,138.252166 C746.43679,128.417136 749.883137,119.753971 758.330829,112.262673 C780.74573,117.575908 804.22512,120.202102 828.768998,120.141253 L830.406833,120.133216 C868.113322,119.856797 910.207017,133.771368 921.131506,147.249959 C932.055995,160.72855 936.011726,207.675508 931.641627,220.81708 L929.193308,228.068075 C924.146658,242.905555 913.046445,275.175827 895.892667,324.878889 C887.481471,305.512585 885.104208,288.569549 888.760879,274.049782 C902.511412,271.277801 908.725123,262.911535 907.402014,248.950984 C905.41735,228.010157 876.923242,233.162354 876.923242,245.522512 L874.872056,263.30072 C869.742438,263.30072 865.374474,259.570408 864.571648,254.504004 L861.372086,234.312499 C853.266785,230.757909 848.031561,222.745459 848.031561,213.894977 C848.031561,208.435256 848.031561,204.633187 848.031561,202.48877 C848.031561,201.746003 855.75453,197.928702 871.200466,191.036867 C869.763908,190.265434 847.508293,200.212448 846.045285,199.530808 C834.384082,194.097658 819.519632,190.709124 806.17808,190.980746 L803.812953,191.036867 C789.144563,191.432915 770.537509,192.802096 747.99179,195.144413 Z" fill="#2E363A"></path>
            <path d="M866.958986,302.432718 C867.184347,301.126533 868.42591,300.250352 869.732095,300.475713 C871.03828,300.701074 871.914461,301.942637 871.6891,303.248822 C869.771869,314.361029 866.211255,321.684268 860.760543,325.113664 L860.287095,325.403179 C854.861784,328.636355 839.002823,335.519677 812.413579,346.208481 C811.183748,346.70287 809.785991,346.106676 809.291602,344.876845 C808.797213,343.647013 809.393407,342.249256 810.623238,341.754867 L816.139556,339.529418 C839.846974,329.929144 853.955729,323.724003 858.204392,321.050895 C862.25019,318.505421 865.250626,312.334321 866.958986,302.432718 Z" fill="#2E363A" fill-rule="nonzero"></path>
            <path d="M804.239918,622.819127 C806.339254,620.305405 809.758726,619.325137 812.871,620.344832 L816.232557,621.448772 C869.63941,639.029099 904.899761,652.639069 922.120157,662.340484 L922.695,662.666853 L923.222761,662.665059 C936.336358,662.637333 943.842494,665.003189 945.522228,670.473283 L945.587133,670.696746 C947.339161,677.089354 955.442723,683.118479 968.325098,686.586996 C969.391684,686.874169 970.023523,687.971607 969.73635,689.038193 C969.449177,690.104779 968.351738,690.736618 967.285152,690.449445 C953.172503,686.649683 943.926494,679.770566 941.729396,671.75404 C940.834967,668.490546 934.405354,666.529742 922.193895,666.672266 C921.833991,666.676467 921.479623,666.583466 921.168164,666.403071 C904.335025,656.653451 867.780693,642.54448 811.625594,624.146011 C810.069457,623.636164 808.359723,624.126297 807.310054,625.38316 C800.29482,633.783076 795.898549,641.042522 794.10457,647.106437 L793.932837,647.710577 C792.463917,653.085863 791.500523,662.084515 791.073923,674.630478 C791.029844,675.92681 791.617079,677.16404 792.649266,677.949535 C857.91134,727.613597 923.171932,759.973876 988.432522,775.051331 C989.508742,775.299975 990.179625,776.37399 989.930981,777.45021 C989.682337,778.52643 988.608322,779.197313 987.532102,778.948669 C921.688086,763.736423 855.919201,731.1241 790.226921,681.132654 C788.162542,679.56166 786.988075,677.087207 787.076233,674.494545 L787.157403,672.306421 C787.648853,660.109629 788.676188,651.355298 790.268906,645.971674 C792.242371,639.301072 796.904933,631.601908 804.239918,622.819127 Z" fill="#0D594C" fill-rule="nonzero"></path>
            <path d="M959.16196,526.008085 C960.262065,526.107302 961.073444,527.079544 960.974227,528.179649 C957.226573,569.733029 952.892509,612.607061 947.972045,656.801786 C947.859298,657.814458 947.003255,658.580481 945.984326,658.580481 L945.58314,658.586835 C941.086664,658.733626 940.637183,661.446323 944.71566,669.055139 C945.237492,670.028671 944.871317,671.240903 943.897785,671.762736 C942.924253,672.284568 941.712021,671.918393 941.190188,670.944861 L940.847773,670.293346 C936.300574,661.46304 937.188044,655.670837 943.882208,654.719147 L944.182,654.679853 L944.521232,651.632009 C949.048532,610.707038 953.070417,570.921199 956.586892,532.274527 L956.990397,527.820351 C957.085104,526.770252 957.975274,525.983226 959.012809,525.999614 L959.16196,526.008085 Z" fill="#0D594C" fill-rule="nonzero"></path>
            <path d="M460.504454,423.652433 C461.248695,422.836235 462.513681,422.777902 463.329879,423.522143 C464.146077,424.266384 464.20441,425.531369 463.460169,426.347567 C448.140752,443.148148 433.275022,454.973161 418.838071,461.807672 C417.839721,462.280294 416.647263,461.854108 416.17464,460.855759 C415.702018,459.85741 416.128203,458.664951 417.126553,458.192328 C431.043103,451.604177 445.510707,440.095856 460.504454,423.652433 Z" fill="#0D594C" fill-rule="nonzero"></path>
            <path d="M409.568098,443.585786 C410.308039,442.845846 411.483523,442.806901 412.269311,443.468954 L412.396525,443.585786 L419.396525,450.585786 C420.177574,451.366835 420.177574,452.633165 419.396525,453.414214 C418.656585,454.154154 417.4811,454.193099 416.695313,453.531046 L416.568098,453.414214 L409.568098,446.414214 C408.78705,445.633165 408.78705,444.366835 409.568098,443.585786 Z" fill="#0D594C" fill-rule="nonzero"></path>
            <path d="M416.665303,438.494847 C417.452825,437.805765 418.628296,437.845099 419.368304,438.557955 L419.487465,438.682991 L426.487465,446.682991 C427.214829,447.514264 427.130594,448.777789 426.299321,449.505153 C425.511799,450.194235 424.336328,450.154901 423.59632,449.442045 L423.477158,449.317009 L416.477158,441.317009 C415.749794,440.485736 415.834029,439.222211 416.665303,438.494847 Z" fill="#0D594C" fill-rule="nonzero"></path>
            <path d="M421.568098,432.585786 C422.308039,431.845846 423.483523,431.806901 424.269311,432.468954 L424.396525,432.585786 L433.396525,441.585786 C434.177574,442.366835 434.177574,443.633165 433.396525,444.414214 C432.656585,445.154154 431.4811,445.193099 430.695313,444.531046 L430.568098,444.414214 L421.568098,435.414214 C420.78705,434.633165 420.78705,433.366835 421.568098,432.585786 Z" fill="#0D594C" fill-rule="nonzero"></path>
            <path d="M429.644382,424.513412 C430.422191,423.813384 431.598097,423.836276 432.348002,424.538713 L432.4689,424.662071 L441.4689,434.662071 C442.207818,435.483091 442.141261,436.74767 441.320241,437.486588 C440.542433,438.186616 439.366526,438.163724 438.616622,437.461287 L438.495723,437.337929 L429.495723,427.337929 C428.756805,426.516909 428.823362,425.25233 429.644382,424.513412 Z" fill="#0D594C" fill-rule="nonzero"></path>
            <path d="M438.644382,416.513412 C439.422191,415.813384 440.598097,415.836276 441.348002,416.538713 L441.4689,416.662071 L450.4689,426.662071 C451.207818,427.483091 451.141261,428.74767 450.320241,429.486588 C449.542433,430.186616 448.366526,430.163724 447.616622,429.461287 L447.495723,429.337929 L438.495723,419.337929 C437.756805,418.516909 437.823362,417.25233 438.644382,416.513412 Z" fill="#0D594C" fill-rule="nonzero"></path>
            <path d="M447.568098,409.585786 C448.308039,408.845846 449.483523,408.806901 450.269311,409.468954 L450.396525,409.585786 L459.396525,418.585786 C460.177574,419.366835 460.177574,420.633165 459.396525,421.414214 C458.656585,422.154154 457.4811,422.193099 456.695313,421.531046 L456.568098,421.414214 L447.568098,412.414214 C446.78705,411.633165 446.78705,410.366835 447.568098,409.585786 Z" fill="#0D594C" fill-rule="nonzero"></path>
            <polygon fill="#719CFE" fill-rule="nonzero" opacity="0.800000012" points="0 269.312215 365 194.939452 365 330.253676 0 372.939452"></polygon>
            <polygon fill="#F7C066" fill-rule="nonzero" opacity="0.800000012" points="42 408.22978 380 380 380 516 42 515.034879"></polygon>
            <polygon fill="#E9525B" fill-rule="nonzero" opacity="0.800000012" points="42 555.939452 380 567.998245 380 703.939452 42 662.698379"></polygon>
            <polygon fill="#4757A4" fill-rule="nonzero" opacity="0.800000012" points="42 704 380 756.53631 380 893 42 811.16925"></polygon>
            <path d="M379.411831,88.4657935 L40.5537075,179.185983 C30.2550004,181.943186 22,192.589896 22,203.13482 L22,820.744083 C22,831.289007 30.2550004,841.935717 40.5537075,844.69292 L379.411831,935.41311 C390.288797,938.325126 399,929.029375 399,915.264699 L399,108.614205 C399,94.849528 390.288797,85.553777 379.411831,88.4657935 Z M395,108.614205 L395,915.264699 C395,926.669557 388.425364,933.685371 380.446293,931.549188 L41.588169,840.828999 C33.0308383,838.538002 26,829.47013 26,820.744083 L26,203.13482 C26,194.408774 33.0308383,185.340901 41.588169,183.049905 L380.446293,92.329715 C388.425364,90.1935323 395,97.2093466 395,108.614205 Z" fill="#F0DECF" fill-rule="nonzero"></path>
            <polygon fill="#F0DECF" fill-rule="nonzero" points="396.547236 140.991374 397.452764 144.887529 70.4527641 220.887529 69.5472359 216.991374"></polygon>
            <path d="M822.991825,440 C824.046178,439.995707 824.913309,440.808047 824.993888,441.842586 L824.999983,441.991825 L825.185958,487.486617 C825.190456,488.591177 824.298693,489.49026 823.194133,489.494792 C822.13978,489.499084 821.272649,488.686744 821.19207,487.652205 L821.185974,487.502966 L821,442.008175 C820.995502,440.903615 821.887265,440.004532 822.991825,440 Z" fill="#0D594C" fill-rule="nonzero"></path>
            <polygon fill="#0E5E50" points="684.887203 841.414962 718.434408 850.944956 715.547205 865.529994 682 856"></polygon>
            <path d="M80.6250542,266.335566 L20.6250542,277.786977 C16.9204067,278.494034 14,282.026763 14,285.799868 L14,346.928679 C14,350.944392 17.2954344,353.870137 21.2597719,353.350826 L81.2597719,345.491088 C85.0427337,344.995536 88,341.418219 88,337.459678 L88,272.739195 C88,268.538052 84.6532594,265.566756 80.6250542,266.335566 Z M84,272.739195 L84,337.459678 C84,339.458493 82.4801138,341.297055 80.7402281,341.524972 L20.7402281,349.384711 C19.1817181,349.588869 18,348.539718 18,346.928679 L18,285.799868 C18,283.946221 19.5567458,282.063072 21.3749458,281.716056 L81.3749458,270.264645 C82.8695881,269.979383 84,270.982983 84,272.739195 Z" fill="#FFFFFF" fill-rule="nonzero"></path>
            <path d="M59.9266359,574.004169 C56.0904266,573.869006 53,577.001972 53,580.925962 L53,642.054773 C53,645.872474 55.9255444,649.26225 59.6380132,649.669711 L117.910482,656.127195 C121.836499,656.566422 124.986977,653.377358 124.986977,649.223602 L124.986977,583.712766 C124.986977,579.667368 122.013122,576.217104 118.202727,576.079911 L59.9266359,574.004169 Z M59.7857893,578.001688 L118.059571,580.077349 C119.612408,580.133258 120.986977,581.728032 120.986977,583.712766 L120.986977,649.223602 C120.986977,651.099883 119.789116,652.312415 118.353128,652.151763 L60.0764949,645.693818 C58.4227897,645.512315 57,643.863754 57,642.054773 L57,580.925962 C57,579.223174 58.2579986,577.947859 59.7857893,578.001688 Z" fill="#FFFFFF" fill-rule="nonzero"></path>
            <path d="M122.098069,420.028463 L65.5266406,425.359656 C61.8893424,425.702429 59,428.923757 59,432.606792 L59,490.347095 C59,494.126725 62.038982,497.124357 65.7827824,496.996063 L122.354211,495.057447 C126.069302,494.930137 129,491.662701 129,487.802662 L129,426.669782 C129,422.71315 125.913738,419.668881 122.098069,420.028463 Z M125,426.669782 L125,487.802662 C125,489.56975 123.709383,491.00866 122.217218,491.059794 L65.645789,492.998409 C64.1823332,493.04856 63,491.882314 63,490.347095 L63,432.606792 C63,430.974979 64.3319728,429.489962 65.9019309,429.342012 L122.473359,424.010819 C123.864947,423.879678 125,424.999287 125,426.669782 Z" fill="#FFFFFF" fill-rule="nonzero"></path>
            <path d="M344.175734,399.066847 L165.449276,415.896122 C155.196536,416.861542 147,426.64501 147,437.745132 C147,448.959276 155.376604,457.631125 165.76491,456.96418 L344.491368,445.489675 C354.847718,444.824782 363,433.782175 363,420.958581 C363,408.030557 354.679525,398.077787 344.175734,399.066847 Z M359,420.958581 C359,431.846889 352.25521,440.982989 344.23509,441.497893 L165.508632,452.972399 C157.520469,453.485251 151,446.734959 151,437.745132 C151,428.641282 157.700536,420.643454 165.824266,419.878506 L344.550724,403.049231 C352.423402,402.307923 359,410.174705 359,420.958581 Z" fill="#FFFFFF" fill-rule="nonzero"></path>
            <path d="M294.931547,485.001172 C296.035469,484.963366 296.961023,485.827625 297.000023,486.931547 C297.034915,487.985291 296.249081,488.876513 295.21744,488.988237 L295.068453,488.998828 L149.068453,493.998828 C147.964531,494.036634 147.038977,493.172375 146.999977,492.068453 C146.965085,491.014709 147.750919,490.123487 148.78256,490.011763 L148.931547,490.001172 L294.931547,485.001172 Z" fill="#FFFFFF" fill-rule="nonzero"></path>
            <path d="M360.896366,460.002687 C361.999451,459.945451 362.940078,460.79328 362.997313,461.896366 C363.051947,462.949311 362.281925,463.85423 361.252412,463.9841 L361.103634,463.997313 L149.103634,474.997313 C148.000549,475.054549 147.059922,474.20672 147.002687,473.103634 C146.948053,472.050689 147.718075,471.14577 148.747588,471.0159 L148.896366,471.002687 L360.896366,460.002687 Z" fill="#FFFFFF" fill-rule="nonzero"></path>
            <path d="M59,733.103672 L59,790.963773 C59,794.551299 61.7436846,798.023855 65.2419594,798.874068 L121.807317,812.808954 C125.708763,813.783008 129,810.982263 129,806.855083 L129,744.581501 C129,740.768492 126.216586,737.22891 122.622351,736.615178 L66.0416378,727.090726 C62.2144085,726.455737 59,729.210438 59,733.103672 Z M65.3869337,731.036782 L121.953717,740.558896 C123.561958,740.833516 125,742.662229 125,744.581501 L125,806.855083 C125,808.459817 124.070115,809.251121 122.770168,808.926574 L66.192683,794.9887 C64.4774229,794.571817 63,792.70191 63,790.963773 L63,733.103672 C63,731.670877 64.0070585,730.807842 65.3869337,731.036782 Z" fill="#FFFFFF" fill-rule="nonzero"></path>
            <path d="M147,761.976535 C147,773.05037 154.898613,783.687244 164.883967,786.005369 L344.20618,825.692061 C354.745978,827.883441 363,818.211386 363,804.535145 C363,790.965803 354.984041,778.384746 344.732283,776.459963 L165.976958,744.251811 C155.509182,742.444981 147,750.503561 147,761.976535 Z M165.296584,748.193522 L344.008579,780.393923 C352.117508,781.916441 359,792.718521 359,804.535145 C359,815.957528 352.676304,823.367629 345.045441,821.781181 L166.06894,782.17122 C157.817949,780.419046 151,771.343686 151,761.976535 C151,752.879938 157.389591,746.828707 165.296584,748.193522 Z" fill="#FFFFFF" fill-rule="nonzero"></path>
            <path d="M147.064484,816.496236 C147.330059,815.475869 148.337208,814.845421 149.357933,815.032197 L149.503764,815.064484 L295.503764,853.064484 C296.57272,853.342706 297.213737,854.434809 296.935516,855.503764 C296.669941,856.524131 295.662792,857.154579 294.642067,856.967803 L294.496236,856.935516 L148.496236,818.935516 C147.42728,818.657294 146.786263,817.565191 147.064484,816.496236 Z" fill="#FFFFFF" fill-rule="nonzero"></path>
            <path d="M147.055475,797.532213 C147.302084,796.507097 148.297369,795.858082 149.321381,796.025898 L149.467787,796.055475 L361.467787,847.055475 C362.541718,847.313827 363.202876,848.393855 362.944525,849.467787 C362.697916,850.492903 361.702631,851.141918 360.678619,850.974102 L360.532213,850.944525 L148.532213,799.944525 C147.458282,799.686173 146.797124,798.606145 147.055475,797.532213 Z" fill="#FFFFFF" fill-rule="nonzero"></path>
            <path d="M314.125054,221.770494 L126.125054,257.65158 C115.490222,259.68131 107,270.626907 107,282.177124 C107,293.980969 115.890433,302.315013 126.817764,300.556519 L314.817764,270.302385 C325.547429,268.575701 334,256.319723 334,242.95331 C334,229.355245 325.173288,219.661863 314.125054,221.770494 Z M330,242.95331 C330,254.504075 322.782538,264.969181 314.182236,266.353195 L126.182236,296.607329 C117.779601,297.959533 111,291.604219 111,282.177124 C111,272.4964 118.179812,263.240185 126.874946,261.580659 L314.874946,225.699573 C323.156678,224.118948 330,231.634197 330,242.95331 Z" fill="#FFFFFF" fill-rule="nonzero"></path>
            <path d="M143.325555,598.59483 C143.325555,610.378232 151.683341,620.607597 162.173026,621.392702 L344.762105,635.474448 C355.498535,636.326923 363.912638,625.213132 363.912638,611.029588 C363.912638,596.920562 355.617177,584.980405 344.993668,584.566976 L162.395226,577.682655 C151.806212,577.296288 143.325555,586.733484 143.325555,598.59483 Z M162.249373,581.679995 L344.840544,588.564043 C352.988473,588.881133 359.912638,598.8475 359.912638,611.029588 C359.912638,623.13626 353.107756,632.124507 345.074195,631.486645 L162.476088,617.404202 C154.186663,616.783771 147.325555,608.38624 147.325555,598.59483 C147.325555,588.880467 154.064572,581.381352 162.249373,581.679995 Z" fill="#FFFFFF" fill-rule="nonzero"></path>
            <path d="M262.395645,317.114032 C263.490797,316.970103 264.49527,317.741223 264.639199,318.836375 C264.776585,319.881748 264.080219,320.844497 263.06413,321.055041 L262.916855,321.079929 L109.260605,341.273929 C108.165453,341.417857 107.16098,340.646738 107.017051,339.551586 C106.879665,338.506213 107.576031,337.543463 108.59212,337.33292 L108.739395,337.308032 L262.395645,317.114032 Z" fill="#FFFFFF" fill-rule="nonzero"></path>
            <path d="M145.553684,654.648369 L294.791168,671.782878 C295.888528,671.90887 296.675978,672.900593 296.549986,673.997954 C296.429721,675.045434 295.520639,675.810537 294.483824,675.768347 L294.334911,675.756772 L145.097426,658.622263 C144.000066,658.496271 143.212616,657.504548 143.338608,656.407187 C143.458873,655.359707 144.367955,654.594604 145.40477,654.636794 L145.553684,654.648369 Z" fill="#FFFFFF" fill-rule="nonzero"></path>
            <path d="M332.208654,284.083999 C333.301441,283.923093 334.31776,284.678531 334.478666,285.771318 C334.632258,286.814433 333.950916,287.787873 332.938217,288.014159 L332.791346,288.04133 L109.291346,320.950293 C108.198559,321.111199 107.18224,320.35576 107.021334,319.262973 C106.867742,318.219859 107.549084,317.246418 108.561783,317.020132 L108.708654,316.992962 L332.208654,284.083999 Z" fill="#FFFFFF" fill-rule="nonzero"></path>
            <path d="M145.365889,633.986612 L145.515,633.995289 L362.587705,654.649849 C363.687308,654.754477 364.493894,655.730699 364.389267,656.830302 C364.289395,657.879923 363.395364,658.66256 362.357925,658.640541 L362.208814,658.631864 L145.13611,637.977304 C144.036507,637.872677 143.22992,636.896455 143.334547,635.796852 C143.434419,634.747231 144.32845,633.964593 145.365889,633.986612 Z" fill="#FFFFFF" fill-rule="nonzero"></path>
            <path d="M887.876088,243.640007 C897.954496,243.118963 903.144193,247.946792 902.148082,257.234383 C902.006732,258.552308 900.823756,259.50611 899.505831,259.36476 C898.187905,259.223411 897.234103,258.040435 897.375453,256.722509 C898.040188,250.52462 895.388707,248.058022 888.123912,248.433605 C886.800197,248.502039 885.671636,247.484433 885.603201,246.160718 C885.534766,244.837002 886.552372,243.708441 887.876088,243.640007 Z" fill="#2E363A" fill-rule="nonzero"></path>
        </g>
    </g>
</svg>