<?xml version="1.0" encoding="UTF-8"?>
<svg width="1600px" height="1200px" viewBox="0 0 1600 1200" version="1.1" xmlns="http://www.w3.org/2000/svg" xmlns:xlink="http://www.w3.org/1999/xlink">
    <title>Online Learning</title>
    <g id="Online-Learning" stroke="none" stroke-width="1" fill="none" fill-rule="evenodd">
        <g transform="translate(116.500000, 116.000000)" id="Shape">
            <circle fill="#E9F4F7" cx="404.5" cy="354.5" r="281.5"></circle>
            <circle fill="#FEF6E7" cx="893.5" cy="585.168224" r="281.5"></circle>
            <polygon fill="#F0DECF" fill-rule="nonzero" points="127.654587 126.584985 788.793672 126.754956 788.792643 130.754956 127.653559 130.584985"></polygon>
            <polygon fill="#F0DECF" fill-rule="nonzero" points="813.691854 552 813.691854 556 98 556 98 552"></polygon>
            <polygon fill="#F0DECF" fill-rule="nonzero" points="813.691854 732 813.691854 736 98 736 98 732"></polygon>
            <path d="M157.5,64 C147.282732,64 139,72.2827321 139,82.5 C139,92.7172679 147.282732,101 157.5,101 C167.717268,101 176,92.7172679 176,82.5 C176,72.2827321 167.717268,64 157.5,64 Z M157.5,68 C165.508129,68 172,74.4918711 172,82.5 C172,90.5081289 165.508129,97 157.5,97 C149.491871,97 143,90.5081289 143,82.5 C143,74.4918711 149.491871,68 157.5,68 Z" fill="#F0DECF" fill-rule="nonzero"></path>
            <path d="M226,66 L192,66 L192,100 L226,100 L226,66 Z M222,70 L222,96 L196,96 L196,70 L222,70 Z" fill="#F0DECF" fill-rule="nonzero"></path>
            <path d="M772.528284,34 L772.528284,38 L100,38 L100,795 L821.027965,795 L821.027965,799 L96,799 L96,34 L772.528284,34 Z M1181,407.074115 L1181,547.495111 L1177,547.495111 L1177,407.074115 L1181,407.074115 Z" fill="#F0DECF" fill-rule="nonzero"></path>
            <path d="M693.18011,709.016902 L697.043814,707.981626 C698.110746,707.695742 699.20742,708.328907 699.493303,709.395839 L721.234103,790.533609 C721.519987,791.600541 720.886822,792.697215 719.81989,792.983098 L715.956186,794.018374 C714.889254,794.304258 713.79258,793.671093 713.506697,792.604161 L691.765897,711.466391 C691.480013,710.399459 692.113178,709.302785 693.18011,709.016902 Z" fill="#018FC0"></path>
            <path d="M693.18011,709.016902 L697.043814,707.981626 C698.110746,707.695742 699.20742,708.328907 699.493303,709.395839 L701.822675,718.089172 L694.095268,720.159724 L691.765897,711.466391 C691.480013,710.399459 692.113178,709.302785 693.18011,709.016902 Z" fill="#EA697C"></path>
            <path d="M30,419 L73,419 C75.7614237,419 78,421.238576 78,424 L78,661 L25,661 L25,424 C25,421.238576 27.2385763,419 30,419 Z" fill="#F7C066"></path>
            <path d="M56,419 L72,419 C74.7614237,419 77,421.238576 77,424 L77,661 L56,661 L56,419 Z" fill="#DDA549"></path>
            <path d="M126,439 L85,439 C81.1340068,439 78,442.134007 78,446 L78,663 L133,663 L133,446 C133,442.134007 129.865993,439 126,439 Z M126,443 L126.176273,443.005093 C127.75108,443.096339 129,444.402319 129,446 L129,659 L82,659 L82,446 C82,444.343146 83.3431458,443 85,443 L126,443 Z" fill="#D7D5D5" fill-rule="nonzero"></path>
            <path d="M110,441 L126,441 C128.761424,441 131,443.238576 131,446 L131,661 L110,661 L110,441 Z" fill="#D7D5D5"></path>
            <path d="M136,419 L179,419 C181.761424,419 184,421.238576 184,424 L184,661 L131,661 L131,424 C131,421.238576 133.238576,419 136,419 Z" fill="#E9525B"></path>
            <path d="M172,419 L179,419 C181.761424,419 184,421.238576 184,424 L184,661 L172,661 L172,419 Z" fill="#D12F38"></path>
            <path d="M189,441 L232,441 C234.761424,441 237,443.238576 237,446 L237,661 L184,661 L184,446 C184,443.238576 186.238576,441 189,441 Z" fill="#6F97F8"></path>
            <path d="M112,513 L97,513 C95.8954305,513 95,513.895431 95,515 L95,631 C95,632.104569 95.8954305,633 97,633 L112,633 C113.104569,633 114,632.104569 114,631 L114,515 C114,513.895431 113.104569,513 112,513 Z M110,517 L110,629 L99,629 L99,517 L110,517 Z" fill="#3CB49F" fill-rule="nonzero"></path>
            <path d="M104.5,466 C95.9395864,466 89,472.939586 89,481.5 C89,490.060414 95.9395864,497 104.5,497 C113.060414,497 120,490.060414 120,481.5 C120,472.939586 113.060414,466 104.5,466 Z M104.5,470 C110.851275,470 116,475.148725 116,481.5 C116,487.851275 110.851275,493 104.5,493 C98.1487254,493 93,487.851275 93,481.5 C93,475.148725 98.1487254,470 104.5,470 Z" fill="#3CB49F" fill-rule="nonzero"></path>
            <path d="M59,478 L44,478 C42.8954305,478 42,478.895431 42,480 L42,631 C42,632.104569 42.8954305,633 44,633 L59,633 C60.1045695,633 61,632.104569 61,631 L61,480 C61,478.895431 60.1045695,478 59,478 Z M57,482 L57,629 L46,629 L46,482 L57,482 Z" fill="#FFFFFF" fill-rule="nonzero"></path>
            <path d="M60,446.5 C61.1045695,446.5 62,447.395431 62,448.5 C62,449.554362 61.1841222,450.418165 60.1492623,450.494514 L60,450.5 L24,450.5 C22.8954305,450.5 22,449.604569 22,448.5 C22,447.445638 22.8158778,446.581835 23.8507377,446.505486 L24,446.5 L60,446.5 Z" fill="#FFFFFF" fill-rule="nonzero"></path>
            <path d="M60,459.5 C61.1045695,459.5 62,460.395431 62,461.5 C62,462.554362 61.1841222,463.418165 60.1492623,463.494514 L60,463.5 L24,463.5 C22.8954305,463.5 22,462.604569 22,461.5 C22,460.445638 22.8158778,459.581835 23.8507377,459.505486 L24,459.5 L60,459.5 Z" fill="#FFFFFF" fill-rule="nonzero"></path>
            <path d="M155.5,475 C156.554362,475 157.418165,475.815878 157.494514,476.850738 L157.5,477 L157.5,622 C157.5,623.104569 156.604569,624 155.5,624 C154.445638,624 153.581835,623.184122 153.505486,622.149262 L153.5,622 L153.5,477 C153.5,475.895431 154.395431,475 155.5,475 Z" fill="#F7C066" fill-rule="nonzero"></path>
            <path d="M166.508884,490 C167.563236,490.004703 168.423406,490.82441 168.495158,491.859599 L168.49998,492.008884 L167.99998,604.564637 C167.995074,605.669195 167.095674,606.560639 165.991116,606.555753 C164.936764,606.551049 164.076594,605.731342 164.004842,604.696153 L164.00002,604.546868 L164.50002,491.991116 C164.504926,490.886557 165.404326,489.995113 166.508884,490 Z" fill="#F7C066" fill-rule="nonzero"></path>
            <path d="M144.508884,490 C145.563236,490.004703 146.423406,490.82441 146.495158,491.859599 L146.49998,492.008884 L145.99998,604.564637 C145.995074,605.669195 145.095674,606.560639 143.991116,606.555753 C142.936764,606.551049 142.076594,605.731342 142.004842,604.696153 L142.00002,604.546868 L142.50002,491.991116 C142.504926,490.886557 143.404326,489.995113 144.508884,490 Z" fill="#F7C066" fill-rule="nonzero"></path>
            <path d="M165,446.5 C166.104569,446.5 167,447.395431 167,448.5 C167,449.554362 166.184122,450.418165 165.149262,450.494514 L165,450.5 L129,450.5 C127.895431,450.5 127,449.604569 127,448.5 C127,447.445638 127.815878,446.581835 128.850738,446.505486 L129,446.5 L165,446.5 Z" fill="#F7C066" fill-rule="nonzero"></path>
            <path d="M165,459.5 C166.104569,459.5 167,460.395431 167,461.5 C167,462.554362 166.184122,463.418165 165.149262,463.494514 L165,463.5 L129,463.5 C127.895431,463.5 127,462.604569 127,461.5 C127,460.445638 127.815878,459.581835 128.850738,459.505486 L129,459.5 L165,459.5 Z" fill="#F7C066" fill-rule="nonzero"></path>
            <path d="M219,454.5 C220.104569,454.5 221,455.395431 221,456.5 C221,457.554362 220.184122,458.418165 219.149262,458.494514 L219,458.5 L183,458.5 C181.895431,458.5 181,457.604569 181,456.5 C181,455.445638 181.815878,454.581835 182.850738,454.505486 L183,454.5 L219,454.5 Z" fill="#FFFFFF" fill-rule="nonzero"></path>
            <path d="M211.5,487 L208.5,487 C201.596441,487 196,492.596441 196,499.5 L196,629.5 C196,636.403559 201.596441,642 208.5,642 L211.5,642 C218.403559,642 224,636.403559 224,629.5 L224,499.5 C224,492.596441 218.403559,487 211.5,487 Z M208.5,491 L211.5,491 C216.19442,491 220,494.80558 220,499.5 L220,629.5 C220,634.19442 216.19442,638 211.5,638 L208.5,638 C203.80558,638 200,634.19442 200,629.5 L200,499.5 C200,494.80558 203.80558,491 208.5,491 Z" fill="#FFFFFF" fill-rule="nonzero"></path>
            <path d="M219,466.5 C220.104569,466.5 221,467.395431 221,468.5 C221,469.554362 220.184122,470.418165 219.149262,470.494514 L219,470.5 L183,470.5 C181.895431,470.5 181,469.604569 181,468.5 C181,467.445638 181.815878,466.581835 182.850738,466.505486 L183,466.5 L219,466.5 Z" fill="#FFFFFF" fill-rule="nonzero"></path>
            <path d="M225,441 L232,441 C234.761424,441 237,443.238576 237,446 L237,661 L225,661 L225,441 Z" fill="#406DD9"></path>
            <path d="M264,658.5 C265.104569,658.5 266,659.395431 266,660.5 C266,661.554362 265.184122,662.418165 264.149262,662.494514 L264,662.5 L2,662.5 C0.8954305,662.5 0,661.604569 0,660.5 C0,659.445638 0.815877791,658.581835 1.85073766,658.505486 L2,658.5 L264,658.5 Z" fill="#583E40" fill-rule="nonzero"></path>
            <path d="M298,677.5 C299.104569,677.5 300,678.395431 300,679.5 C300,680.554362 299.184122,681.418165 298.149262,681.494514 L298,681.5 L36,681.5 C34.8954305,681.5 34,680.604569 34,679.5 C34,678.445638 34.8158778,677.581835 35.8507377,677.505486 L36,677.5 L298,677.5 Z" fill="#583E40" fill-rule="nonzero"></path>
            <path d="M445.21275,437 L514.080527,445.215421 L521.315868,448.869838 C566.124473,471.554914 591.643898,485.508218 597.874142,490.72975 C604.432293,496.2261 603.556348,543.131154 595.246307,631.444912 L592.724627,636.592572 C572.962895,677.069651 563.082029,700.645943 563.082029,707.321447 L563.086143,707.759393 C563.20957,714.639489 566.110112,752.127108 571.787767,786.98871 L573.367636,796.61677 L458.561734,796.61818 C441.067163,806.261428 422.450719,806.261284 402.712404,796.617748 L332.239191,796.61677 L346.668849,754.255608 L332.239191,631.444912 C310.022579,577.989801 301.914001,540.035613 307.913455,517.582346 C313.852915,495.353612 358.767989,468.805072 442.658678,437.936727 L445.21275,437 Z" fill="#229581"></path>
            <path d="M332.239191,631.444912 L386.09065,743.548117 L392.866105,769.772889 C393.910082,776.84645 397.679876,780.38323 404.175489,780.38323 L413.392724,800.930201 L413.392724,800.930201 C409.87015,799.81267 406.30991,798.375379 402.712404,796.617748 L332.239191,796.61677 L346.668849,754.255608 L332.239191,631.444912 Z" fill="#0D594C"></path>
            <path d="M550.471833,464 C572.037536,477.457008 577.038808,500.184871 565.475649,532.18359 C579.047178,586.32859 567.552404,627.700507 530.991327,656.299339 L542.082914,543.893667 L550.471833,464 Z" fill="#0D594C"></path>
            <path d="M445.21275,437 L454.106602,479.861141 L508.547052,597.145694 L509.661745,660.588865 C459.246188,616.985797 436.666472,576.301652 441.922595,538.536431 C414.71052,501.587469 415.513293,468.046028 444.330914,437.912106 L445.21275,437 Z" fill="#0D594C"></path>
            <circle fill="#0D594C" cx="520" cy="725" r="4"></circle>
            <path d="M704.316714,755.266325 C716.138243,755.266325 735.962893,766.905806 735.962893,774.139544 C735.962893,778.962036 735.119819,782.447973 733.433672,784.597356 C736.496666,790.146339 734.481373,797.127727 728.932389,800.19072 C727.460708,801.003076 725.828536,801.482213 724.151273,801.594255 L696.798824,803.421417 C691.920097,803.421417 685.23048,800.875282 676.729973,795.783012 L664.700516,798.449043 L653.338942,800.957512 C532.515606,827.581521 464.369398,840.893525 448.900318,840.893525 C432.753511,840.893525 418.084851,821.438163 404.894338,782.527438 L405.795671,782.665785 L406.87036,782.819983 C407.607439,782.922524 408.385298,783.024328 409.201164,783.124053 L409.820146,783.198437 L411.09983,783.344366 C421.732534,784.514103 432.84916,784.761809 443.28309,783.50602 C455.80652,781.998748 466.045909,778.439915 473.190135,772.346745 C475.888217,770.045604 478.137389,767.824295 479.93094,765.695329 L664.456524,765.695594 L666.764924,764.844595 L668.294559,764.289453 C684.978822,758.274034 696.986207,755.266325 704.316714,755.266325 Z" fill="#FDB4A3"></path>
            <path d="M428.754814,803.850508 L432.741716,807.26849 C446.198396,818.80494 464.191556,823.554905 481.588987,820.163549 C609.076076,795.311938 674.10222,787.04417 676.667419,795.360242 L676.729973,795.783012 L664.700516,798.449043 L653.338942,800.957512 C532.515606,827.581521 464.369398,840.893525 448.900318,840.893525 C432.459591,840.893525 417.551315,820.723427 404.175489,780.38323 L428.754814,803.850508 Z" fill="#F69883"></path>
            <path d="M446.675835,437.38323 C438.137633,452.878289 441.102251,475.333022 455.569688,504.74743 C477.270842,548.869042 513.053565,663.667412 513.053565,711.496207 C535.075056,653.663793 547.547812,611.180155 550.471833,584.045294 C554.857865,543.343002 558.062728,490.739529 550.471833,464 L499.179466,452.590352 L446.675835,437.38323 Z" fill="#FFFFFF"></path>
            <path d="M484.998319,383.428021 C477.122282,404.48001 464.34812,422.46508 446.675835,437.38323 C465.209228,482.689687 490.753453,505.142665 523.308508,504.742166 C572.141091,504.141418 548.567211,460.862352 544.815939,446.325912 C542.315091,436.634952 544.693273,419.307634 551.950485,394.343958 L496.444664,377.098383 L484.998319,383.428021 Z" fill="#FDB4A3"></path>
            <path d="M503.130909,403.744781 L504.610454,403.537841 C528.314276,400.285495 541.567423,401.552647 544.369895,407.339296 L544.453237,407.519706 C544.853287,408.428958 545.726181,409.857925 547.071918,411.806607 L547.306789,412.144993 L546.969611,413.665588 C543.739197,428.48481 543.021306,439.371585 544.815939,446.325912 C548.25716,459.660882 568.379635,497.183539 533.98505,503.758874 C534.052758,491.224539 530.573025,477.818423 519.984993,466.012294 L519.520153,465.5 C498.359952,442.449336 492.896871,421.864263 503.130909,403.744781 Z" fill="#F69883"></path>
            <path d="M594,407.519706 L600.496022,422.723676 L611.400578,426.791331 L619.375152,505.492012 L659.787636,665.8343 C672.169661,721.78393 670.421404,759.548741 654.542863,779.128734 C630.725052,808.498723 593.70385,795.934644 585.022362,776.181975 C579.234703,763.013529 578.265844,682.783541 586.115785,505.492012 C571.200658,496.448729 564.521289,477.783259 562.22801,469.367664 C561.607898,467.092052 558.876833,463.518464 554.034815,458.646899 L553.311158,457.924721 C545.919,450.605441 542.698321,440.075466 544.709774,429.891075 L544.807897,429.413948 L544.807897,429.413948 L546.294286,430.357323 C554.013571,435.222296 562.906431,440.275166 563.757965,438.321447 C564.735435,436.078785 564.307792,431.210328 562.475034,423.716078 L562.22801,422.723676 L568.624848,414.126381 L583.022362,407.519706 L594,407.519706 Z" fill="#FDB4A3"></path>
            <path d="M544.349009,429.094542 L546.294286,430.357323 L548.139947,431.509527 C555.367588,435.976447 562.973657,440.120925 563.757965,438.321447 C563.872349,438.059008 563.967493,437.760611 564.043394,437.426257 L566.510507,439.20258 C565.632616,444.434609 567.172886,450.262484 571.131317,456.686205 C577.068963,466.321788 597.337227,469.845886 597.337227,473.59089 L597.258827,479.304097 C597.180404,487.669232 597.36737,501.855378 600.213204,504.888049 C603.978679,508.900739 599.290944,722.961283 581.683449,717.228745 L581.339416,717.10836 L581.339785,712.751964 L581.370879,698.052464 C581.504999,652.755133 582.114634,595.858315 586.115785,505.492012 C571.200658,496.448729 564.521289,477.783259 562.22801,469.367664 C560.957103,464.703844 553.839011,458.23947 546.501029,451.64094 L545.994448,450.166185 C545.511679,448.736577 545.104971,447.445929 544.815939,446.325912 C543.75086,442.198657 543.570739,436.686319 544.275576,429.788901 L544.349009,429.094542 Z" fill="#F69883"></path>
            <ellipse fill="#583E40" cx="557.5" cy="271.999157" rx="58" ry="69"></ellipse>
            <path d="M598.288078,335.493826 L598.187864,336.08115 C596.622719,344.934145 598.271099,354.633306 603.133004,365.178634 L603.434686,365.825324 C603.901053,366.813514 603.793236,367.977123 603.153241,368.862801 C601.055397,371.765967 596.758338,372.727504 590.262063,371.747409 L589.592399,375.218094 C584.27953,402.482366 580.033319,417.717645 576.853767,420.92393 C573.541734,424.263811 560.347479,424.263811 537.271003,420.92393 L478.998319,398.427177 L473.812889,382.047312 C464.918242,353.872133 460.418597,339.140141 460.313954,337.851337 L460.32175,337.068595 C460.44529,329.414771 461.774486,267.708033 465.526222,267.708033 L468.683289,267.672241 C479.348025,267.525663 515.814391,266.928885 578.082385,265.881904 L599.593556,278.95357 L599.695065,283.269405 C600.254381,308.995126 599.785385,326.403267 598.288078,335.493826 L598.288078,335.493826 Z" fill="#FDB4A3"></path>
            <path d="M488.978608,300.727424 C550.253551,292.673916 574.386659,292.593381 561.37793,300.485819 L560.972357,300.727424 C540.125283,312.929708 551.260455,344.655373 535.17301,362.987563 C524.448047,375.209022 518.420006,390.05307 517.088887,407.519706 L517.91636,408.380303 C520.746479,411.349213 522.883226,413.864699 524.326599,415.926762 L478.998319,398.427177 L473.626716,381.457508 C471.698265,375.347378 469.979298,369.878004 468.469814,365.049384 L460.568073,326.252022 L460.609408,324.750463 L460.609408,324.750463 L488.978608,300.727424 Z" fill="#F69883"></path>
            <circle fill="#583E40" cx="388.5" cy="280.882387" r="55.5"></circle>
            <path d="M427.716619,241.610173 C437.776484,251.655885 444,265.542346 444,280.882387 C444,308.037003 424.498406,330.636777 398.736634,335.440292 C393.015235,306.521694 401.214022,268.832517 426.70229,242.63265 L427.716619,241.610173 Z" fill="#4F3638"></path>
            <path d="M501.723853,194.86195 C576.329209,184.018827 606.678234,222.544845 605.36828,258.332299 C604,295.713167 562.510507,310.999157 523.785469,332.667873 C518.11633,325.296481 511.092049,321.663916 503.045268,323.476511 C485.299513,327.473869 483.718013,357.96844 510.66409,357.96844 C512.727677,368.890742 502.172421,382.376988 478.998319,398.427177 C455.973066,387.075863 425.771763,367.024186 414.240338,321.797218 C402.708914,276.57025 427.118498,205.705073 501.723853,194.86195 Z" fill="#583E40"></path>
            <ellipse fill="#583E40" cx="587" cy="332" rx="4" ry="7"></ellipse>
            <path d="M571.758262,319.263979 C581.157455,310.137176 587.143938,306.10447 589.717712,307.165861 C594.070185,308.960765 592.174962,317.131415 584.223739,320.065708 C580.913952,321.28714 577.562411,322.127247 574.169116,322.586026 L573.385308,322.68514 C572.288304,322.814247 571.294344,322.029611 571.165238,320.932607 C571.092483,320.31442 571.311698,319.697601 571.758262,319.263979 Z" fill="#583E40"></path>
            <path d="M510.979739,408.926396 C511.639695,408.040659 512.892728,407.857627 513.778466,408.517583 C520.885193,413.812752 531.227055,417.697421 544.805038,420.123625 C545.892385,420.317919 546.616347,421.356895 546.422053,422.444242 C546.227758,423.531589 545.188783,424.255551 544.101436,424.061257 C529.961234,421.534591 519.05661,417.438535 511.388552,411.725123 C510.502814,411.065167 510.319782,409.812134 510.979739,408.926396 Z" fill="#583E40" fill-rule="nonzero"></path>
            <path d="M501.215942,330.422184 C501.534595,329.364576 502.650275,328.765536 503.707882,329.084189 C512.709881,331.796458 515.936302,338.136896 512.946772,347.18451 C512.600226,348.233309 511.469075,348.802598 510.420276,348.456052 C509.371477,348.109505 508.802189,346.978355 509.148735,345.929556 C511.437101,339.003967 509.385626,334.972488 502.553937,332.914125 C501.496329,332.595471 500.897288,331.479792 501.215942,330.422184 Z" fill="#583E40" fill-rule="nonzero"></path>
            <path d="M566.842898,380.367864 C567.743836,379.728815 568.992243,379.941117 569.631293,380.842055 C573.202099,385.87621 577.417403,386.787915 583.038482,383.706003 C584.007027,383.174972 585.222674,383.529646 585.753706,384.498191 C586.284737,385.466736 585.930063,386.682383 584.961518,387.213415 C577.579161,391.260996 571.127797,389.865666 566.368707,383.156259 C565.729658,382.255321 565.94196,381.006914 566.842898,380.367864 Z" fill="#E9525B" fill-rule="nonzero"></path>
            <path d="M425.790171,240.577739 C426.360368,239.631722 427.589503,239.32706 428.535521,239.897257 C429.481538,240.467454 429.7862,241.696589 429.216003,242.642607 C417.177966,262.61497 411.95633,282.92246 413.516055,303.613067 C413.599085,304.714511 412.773498,305.674718 411.672053,305.757748 C410.570609,305.840779 409.610402,305.015191 409.527372,303.913747 C407.903241,282.368756 413.335853,261.240757 425.790171,240.577739 Z" fill="#FFFFFF" fill-rule="nonzero"></path>
            <path d="M595.946493,390.38323 C589.388011,390.38323 576.239317,396.665 555.932924,409.296724 L554.674831,410.081772 C554.082693,410.452398 553.576435,410.940603 553.186104,411.516617 C551.637015,413.802624 552.234405,416.911583 554.520411,418.460672 L554.814181,418.654613 C560.091499,422.042224 567.474334,422.237919 576.92271,419.444798 L577.44168,419.289814 C593.707162,414.382757 609.5,404.868645 609.5,399.86099 C609.5,394.143683 605.196369,390.38323 595.946493,390.38323 Z M596.318528,394.385163 C602.936662,394.454685 605.328615,396.394851 605.491028,399.510056 L605.498,399.752 C605.460455,399.84321 605.377617,399.98498 605.25288,400.158782 C604.939708,400.595144 604.433414,401.13615 603.755893,401.745241 C602.283011,403.06936 600.121747,404.611401 597.496725,406.192799 C591.558315,409.770288 583.99968,413.133301 576.291695,415.458691 L575.783399,415.610487 C567.347673,418.104241 561.103577,417.938731 556.995688,415.30194 L556.743508,415.135433 C556.307098,414.839515 556.187619,414.217717 556.49744,413.76051 C556.575507,413.645306 556.67676,413.547664 556.794721,413.47383 L558.048102,412.691723 C577.632244,400.509282 590.454996,394.38323 595.946493,394.38323 L596.318528,394.385163 Z" fill="#583E40" fill-rule="nonzero"></path>
            <path d="M596.81771,405.850004 C590.743964,408.071414 580.717103,418.081994 566.252531,436.12077 L564.411724,438.429826 C563.950069,439.01218 563.62541,439.684462 563.457607,440.402771 C562.829424,443.091803 564.500073,445.780936 567.189105,446.409118 L567.531486,446.484806 C573.638747,447.754012 580.648336,445.375849 588.601403,439.543566 C602.549038,429.315243 614.57174,414.741165 612.856432,410.005497 C610.920104,404.659737 605.570457,402.648859 596.81771,405.850004 Z M609.034268,411.205179 L609.053,411.257 L609.055563,411.241675 C609.048516,411.349175 609.016763,411.512566 608.955343,411.721347 C608.801022,412.245922 608.495482,412.93801 608.047811,413.754578 C607.07513,415.528786 605.51273,417.75004 603.518825,420.167078 C599.000966,425.643686 592.8599,431.460354 586.23594,436.317953 C579.109405,441.544108 573.148105,443.566615 568.369233,442.573594 L568.074924,442.508514 C567.561229,442.388354 567.227096,441.850521 567.352734,441.312708 C567.386295,441.169045 567.451227,441.034587 567.542876,440.918975 L569.376717,438.618654 L570.27083,437.506973 C583.743412,420.807402 593.202785,411.431263 598.191643,409.606639 C604.863605,407.1665 607.858116,408.205298 609.034268,411.205179 Z" fill="#583E40" fill-rule="nonzero"></path>
            <path d="M603.753763,420.716756 C598.115826,422.778774 588.8434,432.01842 575.452261,448.67469 L574.107574,450.354967 C573.594674,450.998753 573.249566,451.754596 573.099831,452.559524 C572.59481,455.274367 574.386225,457.884583 577.101068,458.389604 L577.443563,458.4489 C582.965762,459.328543 589.237842,457.096283 596.314507,451.917228 L597.086352,451.346046 C609.65502,441.94226 620.285454,428.971944 618.706373,424.612376 C616.897241,419.617775 611.883527,417.743456 603.753763,420.716756 Z M614.893,425.836 L614.881498,425.915743 C614.867355,425.991172 614.844802,426.08413 614.812754,426.192379 C614.674056,426.660853 614.396921,427.285541 613.989597,428.025365 C613.098616,429.643656 611.665042,431.674431 609.83477,433.885985 C605.682516,438.903234 600.038367,444.235143 593.952168,448.689326 C587.655439,453.297585 582.361156,455.181842 578.098351,454.502943 L577.807068,454.452487 C577.289645,454.356063 576.931366,453.834026 577.032369,453.291063 C577.062315,453.13008 577.131336,452.978913 577.233368,452.850842 L578.572505,451.1775 L579.861408,449.581914 C592.051443,434.564471 600.620011,426.122032 605.127697,424.473391 C611.073891,422.298688 613.745345,423.137466 614.82945,425.679635 L614.893,425.836 Z" fill="#583E40" fill-rule="nonzero"></path>
            <path d="M1093,466 L865,466 L865,694 L1093,694 L1093,466 Z M1089,470 L1089,690 L869,690 L869,470 L1089,470 Z" fill="#F0DECF" fill-rule="nonzero"></path>
            <path d="M1367,578 L1139,578 L1139,806 L1367,806 L1367,578 Z M1363,582 L1363,802 L1143,802 L1143,582 L1363,582 Z" fill="#F0DECF" fill-rule="nonzero"></path>
            <path d="M1093,740 L865,740 L865,968 L1093,968 L1093,740 Z M1089,744 L1089,964 L869,964 L869,744 L1089,744 Z" fill="#F0DECF" fill-rule="nonzero"></path>
            <polygon fill="#E9525B" points="847 448 1071 448 1071 672 847 672"></polygon>
            <polygon fill="#6F97F8" points="1121 560 1345 560 1345 784 1121 784"></polygon>
            <polygon fill="#F7C066" points="847 722 1071 722 1071 946 847 946"></polygon>
            <path d="M1347,0 L769,0 L769,408 L1347,408 L1347,0 Z M1343,4 L1343,404 L773,404 L773,4 L1343,4 Z" fill="#F0DECF" fill-rule="nonzero"></path>
            <polygon fill="#F0DECF" fill-rule="nonzero" points="813.692493 55.8300296 1345.00064 56.0000001 1344.99936 59.9999999 813.691214 59.8300294"></polygon>
            <path d="M430.669064,584.707988 C431.688089,584.437308 432.732397,585.004083 433.07186,585.984659 L433.115481,586.12751 L471.077,729.04 L471.152979,729.082739 C476.064756,731.852563 477.92883,735.475014 475.989129,739.513578 L475.872997,739.747031 C473.974237,743.437019 468.835087,747.21274 460.392539,751.341002 C443.865329,759.422524 425.020927,762.024946 403.907354,759.168519 C402.812757,759.020432 402.045458,758.013038 402.193544,756.91844 C402.341631,755.823842 403.349026,755.056543 404.443624,755.20463 C424.801963,757.958882 442.849889,755.466454 458.635426,747.747598 L459.583334,747.278241 C466.725476,743.69635 470.98827,740.497606 472.316259,737.916837 C473.353983,735.900157 472.384107,734.169233 468.462313,732.178868 C468.005302,731.946928 467.656776,731.549558 467.485068,731.071192 L467.434475,730.908853 L429.249542,587.154405 C428.965973,586.086855 429.601515,584.991557 430.669064,584.707988 Z" fill="#0D594C" fill-rule="nonzero"></path>
            <path d="M331.360689,631.325073 C332.305742,630.862993 333.437131,631.213872 333.96186,632.105528 L334.03592,632.243298 L386.50735,739.558747 C386.992533,740.551053 386.58143,741.748794 385.589124,742.233978 C384.644071,742.696058 383.512681,742.345178 382.987953,741.453522 L382.913893,741.315752 L330.442463,634.000304 C329.957279,633.007998 330.368383,631.810256 331.360689,631.325073 Z" fill="#0D594C" fill-rule="nonzero"></path>
            <path d="M472.874923,744.634253 C473.296933,743.613479 474.466541,743.128084 475.487316,743.550094 C489.311076,749.26513 488.163031,759.576656 473.190135,772.346745 C466.045909,778.439915 455.80652,781.998748 443.28309,783.50602 C432.84916,784.761809 421.732534,784.514103 411.09983,783.344366 L409.820146,783.198437 C408.359428,783.025881 407.012985,782.845938 405.795671,782.665785 L404.603135,782.482249 L403.823343,782.351984 C402.73603,782.1575 402.01225,781.118398 402.206735,780.031085 C402.401219,778.943772 403.440322,778.219991 404.527635,778.414476 L404.993671,778.493283 C405.309588,778.545152 405.669643,778.601925 406.071791,778.662631 L406.381262,778.708882 C407.898427,778.93341 409.627767,779.158287 411.537243,779.368354 C421.890788,780.50738 432.718636,780.748651 442.805115,779.534681 C454.61711,778.113034 464.149829,774.799813 470.594455,769.303318 C483.62649,758.188552 484.365715,751.54897 473.959082,747.246647 C472.938307,746.824636 472.452913,745.655028 472.874923,744.634253 Z" fill="#0D594C" fill-rule="nonzero"></path>
            <path d="M385.70131,741.58638 C386.784748,741.371353 387.837361,742.075339 388.052388,743.158777 L388.646705,746.117252 C391.139871,758.372836 393.081934,765.913331 394.243618,768.185654 L394.31,768.312 L394.320197,768.307638 L394.36124,768.312599 L394.391486,768.319817 C394.827702,768.42641 395.483234,768.522752 396.329674,768.600332 C397.94942,768.748787 400.195894,768.823526 402.985816,768.825009 L404.678412,768.81753 C410.029232,768.769265 416.934867,768.489689 424.558596,768.026081 L428.246838,767.791121 C443.924911,766.747777 458.949766,765.186468 463.029093,764.131822 C464.098501,763.855343 465.189557,764.49814 465.466036,765.567547 C465.742515,766.636955 465.099719,767.728012 464.030311,768.004491 L463.69319,768.087595 C458.596908,769.289299 442.224892,770.936127 425.656776,771.966107 L423.948175,772.070006 C416.030521,772.540588 408.916229,772.80994 403.526015,772.824414 L401.845589,772.823022 C395.279371,772.79075 392.288714,772.412202 391.236135,770.931853 C389.53295,768.536491 387.281483,759.822063 384.128912,743.937457 C383.913886,742.85402 384.617872,741.801406 385.70131,741.58638 Z" fill="#0D594C" fill-rule="nonzero"></path>
            <path d="M345.537648,752.054176 C346.612297,751.798826 347.690474,752.462999 347.945824,753.537648 L348.261169,754.843657 C352.277819,771.212866 357.138291,780.985716 362.51136,784.099691 C363.467033,784.653553 363.792764,785.877273 363.238902,786.832946 C362.685039,787.788618 361.461319,788.11435 360.505647,787.560488 C353.734578,783.636298 348.37011,772.626114 344.054176,754.462352 C343.798826,753.387703 344.462999,752.309526 345.537648,752.054176 Z" fill="#0D594C" fill-rule="nonzero"></path>
            <path d="M511.824966,709.918061 C512.696552,709.239524 513.953174,709.396022 514.631711,710.267607 C515.310248,711.139193 515.15375,712.395816 514.282165,713.074352 C508.105398,717.883015 506.570419,723.26993 509.46578,729.775798 L509.616819,730.107572 C512.835656,737.024023 513.018849,742.663911 511.564312,751.318219 L511.111692,754.053398 C510.810213,755.94402 510.767848,756.508725 510.767848,757.496207 C510.767848,758.600776 509.872417,759.496207 508.767848,759.496207 C507.663278,759.496207 506.767848,758.600776 506.767848,757.496207 L506.773462,756.877191 C506.797004,755.785978 506.90816,754.932746 507.349951,752.267843 L507.619638,750.655234 C508.921876,742.90709 508.799152,738.041602 506.1773,732.204193 L505.990312,731.795306 C502.087411,723.40898 504.106423,715.92701 511.824966,709.918061 Z" fill="#0D594C" fill-rule="nonzero"></path>
            <path d="M560.546499,704.866994 C560.976723,703.849653 562.150206,703.373702 563.167546,703.803926 C564.136441,704.213663 564.614281,705.297558 564.285949,706.278674 L564.230613,706.424973 L557.782404,721.672891 C557.35218,722.690231 556.178697,723.166182 555.161357,722.735958 C554.192461,722.326221 553.714621,721.242326 554.042954,720.261211 L554.098289,720.114911 L560.546499,704.866994 Z" fill="#0D594C" fill-rule="nonzero"></path>
            <path d="M570.467751,458.189573 C571.17765,457.343335 572.439147,457.23281 573.285385,457.942709 C587.840452,470.152776 595.685251,484.178117 596.705221,499.9469 C596.776519,501.049166 595.940754,502.000528 594.838488,502.071825 C593.736222,502.143123 592.78486,501.307358 592.713563,500.205092 C591.768306,485.591392 584.47351,472.549374 570.714615,461.007206 C569.868378,460.297308 569.757853,459.03581 570.467751,458.189573 Z" fill="#583E40" fill-rule="nonzero"></path>
            <path d="M727.626267,770.527224 C728.584267,769.977397 729.806602,770.308286 730.356429,771.266286 C733.727451,777.13984 735.433672,781.513855 735.433672,784.597356 C735.433672,785.701925 734.538242,786.597356 733.433672,786.597356 C732.329103,786.597356 731.433672,785.701925 731.433672,784.597356 C731.433672,782.412183 729.93199,778.562517 726.887204,773.257386 C726.337377,772.299386 726.668267,771.077051 727.626267,770.527224 Z" fill="#583E40" fill-rule="nonzero"></path>
            <path d="M519.380271,508.529958 C520.482136,508.452703 521.438001,509.283314 521.515256,510.385178 L521.769206,514.067144 C525.832401,573.97771 525.7476,622.705919 521.507533,660.26975 C521.38364,661.367349 520.393425,662.156694 519.295825,662.032801 C518.198226,661.908908 517.408881,660.918693 517.532774,659.821094 C521.828292,621.766005 521.828292,572.040921 517.525051,510.664943 C517.447796,509.563078 518.278407,508.607213 519.380271,508.529958 Z" fill="#F0DECF" fill-rule="nonzero"></path>
            <path d="M587.003484,504.468996 C588.057374,504.501465 588.896372,505.342829 588.941716,506.379511 L588.942732,506.52887 L583.818535,677.667516 C583.785477,678.77159 582.863649,679.639821 581.759575,679.607677 C580.705685,679.575208 579.866687,678.733843 579.821343,677.697162 L579.820327,677.547802 L584.944523,506.409157 C584.977581,505.305082 585.89941,504.436852 587.003484,504.468996 Z" fill="#583E40" fill-rule="nonzero"></path>
            <path d="M567.007432,764.000014 L664.463956,764.362179 C665.568518,764.366283 666.460615,765.265035 666.456524,766.369597 C666.452592,767.423952 665.63351,768.284717 664.598373,768.35722 L664.449092,768.362151 L566.992568,767.999986 C565.888006,767.995881 564.995909,767.09713 565,765.992568 C565.003932,764.938213 565.823014,764.077448 566.858151,764.004945 L567.007432,764.000014 Z" fill="#583E40" fill-rule="nonzero"></path>
            <path d="M837.5,166.550554 L837.5,377.5 L1183.91208,377.5 L837.5,166.550554 Z M842.5,175.449 L1166.088,372.5 L842.5,372.5 L842.5,175.449 Z" fill="#E9525B" fill-rule="nonzero"></path>
            <path d="M872.5,342.5 L837.5,342.5 L837.5,377.5 L872.5,377.5 L872.5,342.5 Z M867.499,347.5 L867.499,372.5 L842.499,372.5 L842.499,347.5 L867.499,347.5 Z" fill="#E9525B" fill-rule="nonzero"></path>
            <path d="M1209.75945,254 C1210.00389,254 1210.2505,254.010947 1210.49711,254.030652 C1212.54385,254.194354 1214.43023,255.033387 1215.80915,256.351436 L1216.14311,256.690814 C1216.44164,257.012661 1216.70988,257.358591 1216.94783,257.728605 C1219.39876,261.542599 1218.31066,266.444741 1216.14744,269.606283 C1215.46819,270.600286 1214.68727,271.484817 1213.8501,272.288339 L1225.84515,271.723465 L1225.84515,271.723465 C1227.00031,271.723465 1227.94564,272.638648 1227.99756,273.809995 C1228.0538,275.018563 1227.13227,276.045407 1225.93817,276.100143 L1206.84127,277 C1205.90243,277 1205.06743,276.386959 1204.77972,275.478344 C1204.48336,274.532508 1204.84678,273.503475 1205.67097,272.969253 L1206.96472,272.120644 C1209.11637,270.688289 1211.20268,269.141393 1212.58894,267.112518 C1213.88687,265.216468 1214.66996,262.216944 1213.32011,260.112899 C1212.69927,259.145169 1211.51599,258.503665 1210.15748,258.396383 C1210.02336,258.385436 1209.89141,258.381057 1209.76161,258.381057 C1208.87686,258.381057 1208.04834,258.617515 1207.39938,259.051023 L1207.50105,260.452261 C1207.58974,261.656449 1206.69417,262.707377 1205.50223,262.794955 L1205.26022,262.797418 L1205.26022,262.797418 L1205.16477,262.790576 C1204.10912,262.69862 1203.26546,261.864446 1203.18759,260.771918 L1203.00588,258.2891 C1202.96261,257.695764 1203.15947,257.108996 1203.55317,256.664541 C1205.05877,254.972109 1207.33232,254 1209.75945,254 Z M1155.61488,228 C1155.90517,228 1156.19989,228.056587 1156.48352,228.174113 L1156.9112,228.463575 L1156.98876,228.422224 C1157.21257,228.350402 1157.44081,228.317756 1157.66462,228.317756 C1158.60195,228.317756 1159.4706,228.909739 1159.77196,229.83689 L1167.12221,252.586905 C1168.11051,252.841545 1168.8329,253.703404 1168.78637,254.745904 C1168.76421,255.248655 1168.54483,255.68176 1168.23904,256.038692 L1169.89434,261.166314 L1169.96275,261.431836 L1169.99627,261.697358 C1170.05388,262.668037 1169.44007,263.590835 1168.45176,263.897709 C1168.23017,263.967354 1168.00415,264 1167.78255,264 C1167.13772,264 1166.52612,263.723596 1166.10953,263.251315 C1165.91674,263.033674 1165.76606,262.774681 1165.67077,262.483042 L1163.80496,256.709026 L1146.8265,255.971223 L1144.2538,261.888882 C1143.89704,262.715918 1143.07714,263.21214 1142.21515,263.21214 C1141.92486,263.21214 1141.63014,263.157729 1141.3465,263.038027 C1140.22081,262.565746 1139.69785,261.288193 1140.17871,260.182577 L1153.57622,229.323257 C1153.9352,228.496222 1154.75288,228 1155.61488,228 Z M1240.58451,224 C1241.58587,224.127297 1242.39228,225.055684 1242.42994,226.113564 L1242.94834,240.998495 C1244.92669,238.946385 1247.62725,237.530758 1250.46739,237.530758 C1251.36019,237.530758 1252.26407,237.671223 1253.16574,237.974102 C1254.85331,238.539438 1256.28772,239.663572 1257.31367,241.182522 L1257.58323,241.606446 C1257.94877,242.214398 1258.25007,242.879413 1258.48047,243.590519 C1259.50176,246.735624 1258.99444,250.260425 1257.16009,252.790995 C1256.542,253.644761 1255.80205,254.406346 1254.96685,255.064777 L1254.05791,255.048531 C1254.36426,255.057747 1254.66722,255.063131 1254.96685,255.064777 C1252.53213,256.987396 1249.2755,258.045275 1245.7774,258.045275 C1244.93776,258.045275 1244.08484,257.983821 1243.22748,257.85872 C1242.86415,258.512761 1242.17295,258.969273 1241.36433,258.997805 L1241.28236,259 C1240.44937,259 1239.71829,258.541293 1239.34168,257.860914 C1239.17995,257.571205 1239.08469,257.241989 1239.06918,256.890826 L1238.00136,226.265003 C1237.98586,225.826049 1238.10327,225.411237 1238.31595,225.060074 C1239.07805,224.711106 1239.8335,224.357748 1240.58451,224 Z M1273.90745,243.795496 C1273.65592,241.768607 1272.16189,239.599959 1270.27658,239.37881 L1269.95812,239.36038 C1268.22175,239.36038 1266.67952,241.016186 1266.05072,242.661084 C1265.23217,244.801196 1265.34249,247.329627 1265.45281,249.772977 C1265.50576,250.959747 1264.59013,251.96981 1263.38989,252.046165 L1263.34135,252.046165 C1262.14553,252.046165 1261.15047,251.221534 1261.04898,250.054398 L1259.00813,226.371358 C1258.90443,225.169317 1259.80461,224.113441 1261.0203,224.010908 L1261.23652,224 L1261.23652,224 C1262.35954,224 1263.30826,224.870443 1263.40534,226.000493 L1264.38495,237.37734 C1265.84333,235.965869 1267.75842,235.012526 1270.00666,234.997255 C1274.55169,235.025616 1277.78617,239.222942 1278.287,243.263195 C1278.33554,243.642787 1278.36422,244.022379 1278.37525,244.399789 C1278.44144,246.548628 1277.96929,248.634201 1277.36034,250.543068 C1278.24949,250.778677 1278.93345,251.55095 1278.99523,252.513019 C1279.07466,253.71506 1278.15242,254.751302 1276.93673,254.829838 L1274.34871,254.995637 L1274.2053,255 C1273.5081,255 1272.85062,254.677129 1272.43362,254.118649 C1271.98574,253.525264 1271.87542,252.746446 1272.13797,252.054891 C1272.57703,250.898663 1273.04036,249.674806 1273.39117,248.435679 C1273.83243,246.880225 1274.09498,245.300774 1273.90745,243.795496 Z M1249.98543,241 C1247.70648,241 1245.3445,242.981839 1244.2957,245.263337 C1243.94261,246.033371 1243.68041,246.846992 1243.48785,247.68909 L1243.35615,248.325766 C1243.11143,249.656073 1243.01966,251.045403 1243,252.432463 L1244.12746,251.939841 C1244.40495,251.819523 1244.69119,251.760499 1244.97305,251.760499 C1245.77495,251.760499 1246.53969,252.22361 1246.91988,253 C1249.29279,252.675369 1251.59796,251.62202 1253.0051,249.585698 C1254.00801,248.135074 1254.27895,245.985244 1253.69774,244.107832 L1253.5721,243.743886 C1253.54747,243.678727 1253.52089,243.611651 1253.49219,243.543154 L1253.34814,243.227015 C1252.96358,242.452894 1252.30808,241.590238 1251.21559,241.206583 C1250.81355,241.065834 1250.40058,241 1249.98543,241 Z M1186.75986,249 C1187.99642,249 1189,249.894 1189,251 C1189,252.106 1187.99642,253 1186.75986,253 L1176.24014,253 C1175.00358,253 1174,252.106 1174,251 C1174,249.894 1175.00358,249 1176.24014,249 L1186.75986,249 Z M1156.34773,234 L1149,252.38507 L1162,253 L1156.34773,234 Z M1200.2272,241 L1200.32356,241.002185 L1200.32356,241.002185 L1226.94385,242.634377 C1228.15266,242.708667 1229.07023,243.744355 1228.99577,244.950473 C1228.9235,246.108521 1227.95995,247 1226.81245,247 L1226.67449,246.99563 L1200.0542,245.363438 C1198.84757,245.289148 1197.92782,244.25346 1198.00446,243.047342 C1198.07454,241.876184 1199.04247,241 1200.2272,241 Z M1184.84093,241 C1185.93766,241 1186.88494,241.833685 1186.99043,242.91431 C1187.10252,244.075137 1186.21679,245.105108 1185.00797,245.214859 L1176.40117,245.991558 L1176.19457,246 C1175.07367,246 1174.1154,245.181089 1174.0099,244.08569 C1173.89562,242.924863 1174.78355,241.897003 1175.99237,241.789363 L1184.59477,241.012664 C1184.67829,241.004221 1184.75961,241 1184.84093,241 Z M1209.29657,211 C1210.53135,211 1211.57545,211.868445 1211.64754,213.010012 L1212.99626,234.744604 C1213.06835,235.920312 1212.08936,236.927452 1210.80575,236.995732 L1210.67087,237 C1209.44772,237 1208.42222,236.12302 1208.35246,234.98572 L1207.00374,213.253262 C1206.93165,212.077554 1207.91064,211.068281 1209.19425,211.002134 L1209.29657,211 L1209.29657,211 Z M1239.79297,224.51 C1239.86328,224.51 1239.93164,224.514 1240,224.524 C1239.33789,224.85 1238.67188,225.172 1238,225.49 C1238.28882,225 1238.77802,224.643219 1239.35506,224.546941 L1239.60742,224.522 C1239.66992,224.514 1239.73242,224.51 1239.79297,224.51 Z" fill="#E9525B"></path>
            <path d="M1061.5,14.5 C1062.82548,14.5 1063.91004,15.5315359 1063.99468,16.8356243 L1064,17 L1064.00081,62.5781152 C1074.34572,63.4064231 1081.48556,70.7978041 1085.94005,83.5938723 C1089.57491,94.0354519 1091.41964,107.589243 1092.29487,126.073535 L1092.47948,130.337006 C1092.59549,133.284938 1092.68401,136.211853 1092.7903,140.499834 L1092.98869,149.00177 L1114.27941,149.000334 L1115.05551,144.902166 C1116.9277,135.081137 1118.18124,129.676648 1119.834,125.186648 C1122.17036,118.839567 1125.15822,115.369239 1129.56156,115.609432 C1137.64999,116.050306 1142.0018,126.815028 1144.51598,144.69636 C1144.71473,146.109933 1144.89731,147.546444 1145.06448,149.000437 L1197,149 C1198.38071,149 1199.5,150.119288 1199.5,151.5 C1199.5,152.825483 1198.46846,153.910039 1197.16438,153.994682 L1197,154 L1145.57425,153.99961 C1145.85352,157.115409 1146.06891,160.280856 1146.22745,163.445707 L1146.29664,164.910196 C1146.36053,166.349999 1146.40873,167.714023 1146.44331,168.986785 L1146.4762,170.364461 L1146.49997,171.979751 C1146.50665,173.360447 1145.3928,174.485139 1144.0121,174.491822 C1142.68663,174.498238 1141.5971,173.471963 1141.50614,172.1683 L1141.49968,171.946848 L1141.49374,171.421312 C1141.487,170.936363 1141.47636,170.372599 1141.46094,169.736629 C1141.4168,167.915279 1141.34333,165.884024 1141.23372,163.695867 C1141.07076,160.442876 1140.84653,157.190542 1140.55362,153.999526 L1118.41623,154.002278 L1118.10406,155.603969 C1116.10848,165.745933 1114.43291,172.367554 1112.21644,177.957522 C1109.10521,185.80413 1105.15577,190.538929 1099.72544,191.625007 C1096.71457,192.22679 1094.21735,190.841444 1092.53912,188.002562 C1091.29993,185.90636 1090.42137,182.939302 1089.77597,178.991425 L1089.69309,178.470913 C1088.81142,172.784474 1088.44156,166.683255 1088.10933,154.00053 L1064,154 L1064,241 C1064,242.380712 1062.88071,243.5 1061.5,243.5 C1060.17452,243.5 1059.08996,242.468464 1059.00532,241.164376 L1059,241 L1059,154 L1039.43915,154.000012 L1039.34716,156.317998 C1038.71272,171.684532 1037.84352,180.164735 1035.97515,188.689683 L1035.7501,189.68673 C1032.30923,204.491602 1025.92713,212.5 1015.33566,212.5 C1004.56821,212.5 997.046713,206.553366 992.190162,195.633773 C988.666845,187.71186 986.632593,177.878818 985.024268,163.48033 L984.479794,158.318629 C984.380502,157.319783 984.267973,156.138092 984.067657,154.001488 L963.377333,154.001656 L963.291175,156.619752 C962.92684,166.745878 962.311303,172.813957 960.913476,178.319247 C958.616427,187.366089 954.207502,192.455179 947,192.455179 C945.619288,192.455179 944.5,191.335891 944.5,189.955179 C944.5,188.629696 945.531536,187.54514 946.835624,187.460497 L947,187.455179 C951.425996,187.455179 954.268108,184.174614 956.06725,177.08876 L956.224097,176.452772 C957.501503,171.116693 958.044687,164.828388 958.37492,154.001199 L925,154 C923.619288,154 922.5,152.880712 922.5,151.5 C922.5,150.174517 923.531536,149.089961 924.835624,149.005318 L925,149 L958.507457,149.002681 L958.623928,144.415649 C958.952507,132.580212 959.379043,127.135697 960.608867,121.698042 C962.56028,113.069885 966.552321,108.419035 973.281692,109.110804 C978.91341,109.690064 982.450844,114.300368 984.72605,122.351681 L984.846733,122.78629 C986.481077,128.77589 987.337618,135.257781 988.621912,149.000191 L1034.61357,149.00086 L1034.70916,146.026 C1034.76179,144.331173 1034.81373,142.56504 1034.86557,140.72213 L1035.07184,133.479447 C1035.77192,110.412993 1036.70014,98.6537814 1039.21368,87.7979363 L1039.38361,87.0754375 C1042.85007,72.5629774 1049.06239,64.0944442 1059.00016,62.7039154 L1059,17 C1059,15.6192881 1060.11929,14.5 1061.5,14.5 Z M1034.4349,154.001632 L989.089662,154.001632 L989.598896,159.235805 L989.732696,160.51628 C991.332209,175.766126 993.313044,185.854614 996.758692,193.601894 C1000.87389,202.854607 1006.74953,207.5 1015.33566,207.5 C1023.09104,207.5 1028.0265,201.199714 1030.9812,188.113192 L1031.09107,187.619265 C1032.96299,179.0781 1033.8035,170.403644 1034.4349,154.001632 Z M1113.32287,154.001185 L1093.1112,154.001853 L1093.21387,157.636659 C1093.51082,167.390506 1093.87092,172.668863 1094.59127,177.425585 L1094.7529,178.442131 C1095.79841,184.681579 1097.24416,187.022048 1098.74516,186.722043 C1105.09542,185.451977 1109.11818,175.475729 1113.32287,154.001185 Z M965.485693,122.801024 L965.37283,123.312103 C964.231833,128.607447 963.865847,134.416825 963.541801,147.638693 L963.508957,149.000445 L983.6,149 L983.233127,145.181142 C982.190798,134.614462 981.379862,129.074868 980.023081,124.102489 C978.237494,117.558607 975.879712,114.404407 972.770251,114.084578 C969.193728,113.716917 966.948671,116.332478 965.485693,122.801024 Z M1044.2468,88.2370625 L1044.08193,88.938436 C1041.75156,99.0144828 1040.8222,110.150679 1040.13999,131.37687 L1039.89476,139.745389 L1039.7414,145.054335 C1039.70022,146.413381 1039.65869,147.728189 1039.61652,149.0014 L1059,149 L1059.00032,67.7876473 C1051.87032,69.2131966 1047.18209,75.9483439 1044.2468,88.2370625 Z M1119.36853,149.000134 L1140.03039,148.998801 C1139.88643,147.781174 1139.73135,146.57787 1139.56468,145.392531 L1139.41634,144.36459 C1137.25407,129.762192 1133.55011,120.834257 1129.28933,120.602015 C1126.26815,120.437217 1123.69559,126.998828 1120.48979,143.149856 L1119.36853,149.000134 Z M1064.00087,67.6024324 L1064,149 L1087.98736,149.001416 L1087.76101,139.400048 C1087.65831,135.388145 1087.56897,132.598328 1087.44801,129.655892 L1087.34364,127.243317 C1086.50706,108.724803 1084.71448,95.2817861 1081.21799,85.2376868 C1077.4229,74.3358329 1071.87622,68.4346351 1064.00087,67.6024324 Z" fill="#E9525B" fill-rule="nonzero"></path>
            <polygon fill="#F0DECF" points="515 865.36344 728.621817 922.922764 789.192346 857.944175 632.3632 819"></polygon>
            <path d="M701.243385,716.502931 C702.044963,716.293731 702.86436,716.773948 703.07356,717.575526 C703.270454,718.329952 702.856653,719.100163 702.139009,719.362577 L702.000965,719.405701 L697.893986,720.477562 C697.092408,720.686762 696.273011,720.206544 696.063811,719.404967 C695.866917,718.650541 696.280718,717.88033 696.998362,717.617916 L697.136406,717.574792 L701.243385,716.502931 Z" fill="#FFFFFF" fill-rule="nonzero"></path>
            <path d="M702.728189,721.548615 C703.529767,721.339415 704.349164,721.819632 704.558364,722.62121 C704.755258,723.375636 704.341457,724.145847 703.623813,724.408261 L703.485769,724.451385 L699.37879,725.523246 C698.577212,725.732445 697.757815,725.252228 697.548615,724.450651 C697.351721,723.696224 697.765522,722.926014 698.483166,722.6636 L698.62121,722.620476 L702.728189,721.548615 Z" fill="#FFFFFF" fill-rule="nonzero"></path>
            <path d="M716.464949,888.820267 C717.158632,889.60374 717.126183,890.779421 716.417674,891.523592 L716.293338,891.643484 L705.325803,901.354087 C704.498804,902.086308 703.234807,902.009475 702.502587,901.182476 C701.808904,900.399004 701.841352,899.223323 702.549861,898.479152 L702.674197,898.35926 L713.641733,888.648657 C714.468731,887.916436 715.732728,887.993269 716.464949,888.820267 Z M711.941016,874.962814 C712.586391,875.790224 712.47847,876.965826 711.719326,877.663769 L711.594065,877.769881 L690.230058,894.433683 C689.3591,895.113025 688.102333,894.95769 687.422991,894.086732 C686.777616,893.259321 686.885537,892.083719 687.64468,891.385776 L687.769942,891.279665 L709.133949,874.615862 C710.004907,873.93652 711.261674,874.091856 711.941016,874.962814 Z M687.477019,878.794222 C688.087246,879.647884 687.930282,880.817948 687.142629,881.483551 L687.013042,881.584334 L676.163067,889.340266 C675.264475,889.98261 674.015299,889.774881 673.372955,888.876288 C672.762728,888.022626 672.919693,886.852562 673.707345,886.18696 L673.836933,886.086177 L684.686907,878.330244 C685.585499,877.6879 686.834675,877.89563 687.477019,878.794222 Z M750.5131,858.674197 C751.206783,859.45767 751.174334,860.633351 750.465825,861.377522 L750.341489,861.497413 L721.668317,886.884503 C720.841318,887.616724 719.577321,887.539891 718.845101,886.712892 C718.151418,885.92942 718.183866,884.753739 718.892375,884.009568 L719.016711,883.889676 L747.689884,858.502587 C748.516882,857.770366 749.780879,857.847199 750.5131,858.674197 Z M671.857905,873.592944 C672.431917,874.471367 672.226183,875.633848 671.411397,876.265946 L671.277711,876.361224 L658.094043,884.976189 C657.169387,885.580412 655.929986,885.32065 655.325763,884.395995 C654.751751,883.517572 654.957485,882.355091 655.772271,881.722993 L655.905957,881.627715 L669.089625,873.012749 C670.014281,872.408526 671.253682,872.668288 671.857905,873.592944 Z M711.40874,861.687011 C712.018967,862.540673 711.862002,863.710737 711.074349,864.37634 L710.944762,864.477123 L691.735356,878.208662 C690.836764,878.851006 689.587588,878.643277 688.945244,877.744685 C688.335017,876.891022 688.491982,875.720958 689.279634,875.055356 L689.409222,874.954573 L708.618628,861.223033 C709.51722,860.580689 710.766395,860.788419 711.40874,861.687011 Z M737.64559,854.913394 C738.290965,855.740804 738.183043,856.916407 737.4239,857.61435 L737.298638,857.720461 L716.639378,873.834565 C715.76842,874.513907 714.511654,874.358572 713.832311,873.487614 C713.186936,872.660204 713.294858,871.484601 714.054001,870.786659 L714.179262,870.680547 L734.838523,854.566443 C735.709481,853.887101 736.966247,854.042436 737.64559,854.913394 Z M711.351525,847.785546 C711.925537,848.663969 711.719803,849.82645 710.905018,850.458548 L710.771331,850.553826 L679.135268,871.226645 C678.210612,871.830868 676.971211,871.571106 676.366988,870.646451 C675.792976,869.768028 675.998711,868.605547 676.813496,867.973449 L676.947183,867.878171 L708.583245,847.205352 C709.507901,846.601129 710.747302,846.860891 711.351525,847.785546 Z M726.011859,851.248202 C726.622086,852.101865 726.465121,853.271929 725.677469,853.937531 L725.547882,854.038314 L715.397059,861.294468 C714.498467,861.936813 713.249292,861.729083 712.606948,860.830491 C711.99672,859.976828 712.153685,858.806764 712.941338,858.141162 L713.070925,858.040379 L723.221747,850.784225 C724.120339,850.14188 725.369515,850.34961 726.011859,851.248202 Z" fill="#583E40" fill-rule="nonzero"></path>
            <path d="M1018,476 L901,476 C899.895431,476 899,476.895431 899,478 L899,633 C899,634.104569 899.895431,635 901,635 L1018,635 C1019.10457,635 1020,634.104569 1020,633 L1020,478 C1020,476.895431 1019.10457,476 1018,476 Z M1016,480 L1016,631 L903,631 L903,480 L1016,480 Z" fill="#FFFFFF" fill-rule="nonzero"></path>
            <path d="M1003,493 L950,493 C948.895431,493 948,493.895431 948,495 L948,533 C948,534.104569 948.895431,535 950,535 L1003,535 C1004.10457,535 1005,534.104569 1005,533 L1005,495 C1005,493.895431 1004.10457,493 1003,493 Z M1001,497 L1001,531 L952,531 L952,497 L1001,497 Z" fill="#FFFFFF" fill-rule="nonzero"></path>
            <path d="M1001.15431,593.5 C1002.25888,593.5 1003.15431,594.395431 1003.15431,595.5 C1003.15431,596.554362 1002.33843,597.418165 1001.30357,597.494514 L1001.15431,597.5 L955,597.5 C953.895431,597.5 953,596.604569 953,595.5 C953,594.445638 953.815878,593.581835 954.850738,593.505486 L955,593.5 L1001.15431,593.5 Z" fill="#FFFFFF" fill-rule="nonzero"></path>
            <path d="M996.154312,604.5 C997.258882,604.5 998.154312,605.395431 998.154312,606.5 C998.154312,607.554362 997.338434,608.418165 996.303575,608.494514 L996.154312,608.5 L960,608.5 C958.895431,608.5 958,607.604569 958,606.5 C958,605.445638 958.815878,604.581835 959.850738,604.505486 L960,604.5 L996.154312,604.5 Z" fill="#FFFFFF" fill-rule="nonzero"></path>
            <path d="M448.636922,442.646071 C449.646988,442.199036 450.828201,442.655463 451.275236,443.665529 C466.930629,479.03858 489.432858,498.612462 518.875314,502.645592 L519.671,502.75 L520.126035,502.759698 C538.07465,503.077777 548.30184,497.60439 551.420215,486.415091 L551.514394,486.067208 C551.795172,484.998921 552.888806,484.360519 553.957093,484.641298 C555.02538,484.922077 555.663782,486.015711 555.383003,487.083998 C551.838519,500.569798 539.858123,507.102266 520.07376,506.759343 L519.471846,506.746847 L519.270673,506.731809 C487.878166,502.785071 463.96168,482.213821 447.617463,445.284385 C447.170428,444.274319 447.626855,443.093105 448.636922,442.646071 Z" fill="#583E40" fill-rule="nonzero"></path>
            <path d="M1233,606 C1189.99602,606 1155,635.009858 1155,671 L1155.00318,671.592417 C1155.18772,688.759696 1163.38769,704.800072 1177.54205,716.716673 L1178.181,717.247 L1178.16657,717.372994 C1177.35872,723.64324 1173.63127,728.55711 1166.80794,732.240006 C1165.19351,733.111399 1165.5062,735.515108 1167.28984,735.944459 L1167.87265,736.082732 C1183.36527,739.704353 1194.92953,738.071918 1202.35967,730.984564 L1202.502,730.846 L1203.08377,731.050839 C1212.47814,734.302704 1222.59744,736 1233,736 C1276.00398,736 1311,706.990142 1311,671 C1311,635.009858 1276.00398,606 1233,606 Z M1233,610 C1273.9433,610 1307,637.402263 1307,671 C1307,704.597737 1273.9433,732 1233,732 C1222.40051,732 1212.11923,730.160959 1202.66669,726.652101 C1201.90502,726.369363 1201.048,726.575487 1200.4982,727.173649 L1200.25368,727.434788 C1194.66234,733.296384 1185.7436,735.24322 1173.33616,733.115064 L1172.968,733.05 L1173.13635,732.924483 C1178.71448,728.672805 1181.79594,723.176409 1182.27039,716.513796 C1182.31714,715.857195 1182.03781,715.21963 1181.52343,714.808877 C1167.20563,703.37568 1159,687.713275 1159,671 C1159,637.402263 1192.0567,610 1233,610 Z" fill="#FFFFFF" fill-rule="nonzero"></path>
            <path d="M1196.5,660 C1202.85127,660 1208,665.148725 1208,671.5 C1208,677.851275 1202.85127,683 1196.5,683 C1190.14873,683 1185,677.851275 1185,671.5 C1185,665.148725 1190.14873,660 1196.5,660 Z M1233.5,660 C1239.85127,660 1245,665.148725 1245,671.5 C1245,677.851275 1239.85127,683 1233.5,683 C1227.14873,683 1222,677.851275 1222,671.5 C1222,665.148725 1227.14873,660 1233.5,660 Z M1270.5,660 C1276.85127,660 1282,665.148725 1282,671.5 C1282,677.851275 1276.85127,683 1270.5,683 C1264.14873,683 1259,677.851275 1259,671.5 C1259,665.148725 1264.14873,660 1270.5,660 Z M1196.5,664 C1192.35786,664 1189,667.357864 1189,671.5 C1189,675.642136 1192.35786,679 1196.5,679 C1200.64214,679 1204,675.642136 1204,671.5 C1204,667.357864 1200.64214,664 1196.5,664 Z M1233.5,664 C1229.35786,664 1226,667.357864 1226,671.5 C1226,675.642136 1229.35786,679 1233.5,679 C1237.64214,679 1241,675.642136 1241,671.5 C1241,667.357864 1237.64214,664 1233.5,664 Z M1270.5,664 C1266.35786,664 1263,667.357864 1263,671.5 C1263,675.642136 1266.35786,679 1270.5,679 C1274.64214,679 1278,675.642136 1278,671.5 C1278,667.357864 1274.64214,664 1270.5,664 Z" fill="#FFFFFF" fill-rule="nonzero"></path>
            <path d="M929.377279,476 C930.431641,476 931.295444,476.815878 931.371793,477.850738 L931.377279,478 L931.377279,631.802983 C931.377279,632.907553 930.481849,633.802983 929.377279,633.802983 C928.322917,633.802983 927.459114,632.987106 927.382765,631.952246 L927.377279,631.802983 L927.377279,478 C927.377279,476.895431 928.27271,476 929.377279,476 Z" fill="#FFFFFF" fill-rule="nonzero"></path>
            <path d="M911.843,489.635844 C912.897362,489.635844 913.761165,490.451722 913.837514,491.486582 L913.843,491.635844 L913.843,633 C913.843,634.104569 912.947569,635 911.843,635 C910.788638,635 909.924835,634.184122 909.848486,633.149262 L909.843,633 L909.843,491.635844 C909.843,490.531275 910.738431,489.635844 911.843,489.635844 Z" fill="#FFFFFF" fill-rule="nonzero"></path>
            <path d="M928.248788,841.114869 C928.957118,839.679635 930.957568,839.630145 931.75501,840.966396 L931.835733,841.114869 L943.126,863.991 L968.372118,867.660106 C969.910031,867.883578 970.581852,869.669371 969.681736,870.845121 L969.586459,870.960582 L969.480545,871.071493 L951.212,888.878 L955.524887,914.02259 C955.788125,915.557383 954.290778,916.749878 952.891991,916.249327 L952.756995,916.195556 L952.622988,916.130943 L930.042,904.259 L907.461533,916.130943 C906.083203,916.855574 904.486366,915.800013 904.53017,914.315009 L904.539593,914.170004 L904.559634,914.02259 L908.871,888.877 L890.603977,871.071493 C889.492369,869.987943 889.996158,868.151201 891.41185,867.7264 L891.561525,867.687581 L891.712403,867.660106 L916.958,863.991 L928.248788,841.114869 Z M930.042,846.519 L920.080028,866.704792 C919.812981,867.245888 919.31754,867.634769 918.735062,867.768735 L918.574152,867.798874 L896.297,871.035 L912.417154,886.748167 C912.806036,887.127233 913.02049,887.644144 913.021157,888.177759 L913.013407,888.356083 L912.992347,888.51843 L909.187,910.704 L929.111578,900.229737 C929.58829,899.979115 930.140929,899.933547 930.64525,900.093034 L930.811397,900.153791 L930.972943,900.229737 L950.897,910.704 L947.092174,888.51843 C947.000372,887.98318 947.130707,887.438937 947.443818,887.006842 L947.554904,886.86713 L947.667368,886.748167 L963.786,871.035 L941.510369,867.798874 C940.972947,867.720782 940.495617,867.428646 940.181427,866.997335 L940.082881,866.848512 L940.004494,866.704792 L930.042,846.519 Z M1000.24879,780.114869 C1000.95712,778.679635 1002.95757,778.630145 1003.75501,779.966396 L1003.83573,780.114869 L1015.126,802.991 L1040.37212,806.660106 C1041.91003,806.883578 1042.58185,808.669371 1041.68174,809.845121 L1041.58646,809.960582 L1041.48054,810.071493 L1023.212,827.878 L1027.52489,853.02259 C1027.78813,854.557383 1026.29078,855.749878 1024.89199,855.249327 L1024.757,855.195556 L1024.62299,855.130943 L1002.042,843.259 L979.461533,855.130943 C978.083203,855.855574 976.486366,854.800013 976.53017,853.315009 L976.539593,853.170004 L976.559634,853.02259 L980.871,827.877 L962.603977,810.071493 C961.492369,808.987943 961.996158,807.151201 963.41185,806.7264 L963.561525,806.687581 L963.712403,806.660106 L988.958,802.991 L1000.24879,780.114869 Z M1002.042,785.519 L992.080028,805.704792 C991.812981,806.245888 991.31754,806.634769 990.735062,806.768735 L990.574152,806.798874 L968.297,810.035 L984.417154,825.748167 C984.806036,826.127233 985.02049,826.644144 985.021157,827.177759 L985.013407,827.356083 L984.992347,827.51843 L981.187,849.704 L1001.11158,839.229737 C1001.58829,838.979115 1002.14093,838.933547 1002.64525,839.093034 L1002.8114,839.153791 L1002.97294,839.229737 L1022.897,849.704 L1019.09217,827.51843 C1019.00037,826.98318 1019.13071,826.438937 1019.44382,826.006842 L1019.5549,825.86713 L1019.66737,825.748167 L1035.786,810.035 L1013.51037,806.798874 C1012.97295,806.720782 1012.49562,806.428646 1012.18143,805.997335 L1012.08288,805.848512 L1012.00449,805.704792 L1002.042,785.519 Z M913.248788,752.114869 C913.957118,750.679635 915.957568,750.630145 916.75501,751.966396 L916.835733,752.114869 L928.126,774.991 L953.372118,778.660106 C954.910031,778.883578 955.581852,780.669371 954.681736,781.845121 L954.586459,781.960582 L954.480545,782.071493 L936.212,799.878 L940.524887,825.02259 C940.788125,826.557383 939.290778,827.749878 937.891991,827.249327 L937.756995,827.195556 L937.622988,827.130943 L915.042,815.259 L892.461533,827.130943 C891.083203,827.855574 889.486366,826.800013 889.53017,825.315009 L889.539593,825.170004 L889.559634,825.02259 L893.871,799.877 L875.603977,782.071493 C874.492369,780.987943 874.996158,779.151201 876.41185,778.7264 L876.561525,778.687581 L876.712403,778.660106 L901.958,774.991 L913.248788,752.114869 Z M915.042,757.519 L905.080028,777.704792 C904.812981,778.245888 904.31754,778.634769 903.735062,778.768735 L903.574152,778.798874 L881.297,782.035 L897.417154,797.748167 C897.806036,798.127233 898.02049,798.644144 898.021157,799.177759 L898.013407,799.356083 L897.992347,799.51843 L894.187,821.704 L914.111578,811.229737 C914.58829,810.979115 915.140929,810.933547 915.64525,811.093034 L915.811397,811.153791 L915.972943,811.229737 L935.897,821.704 L932.092174,799.51843 C932.000372,798.98318 932.130707,798.438937 932.443818,798.006842 L932.554904,797.86713 L932.667368,797.748167 L948.786,782.035 L926.510369,778.798874 C925.972947,778.720782 925.495617,778.428646 925.181427,777.997335 L925.082881,777.848512 L925.004494,777.704792 L915.042,757.519 Z" fill="#FFFFFF" fill-rule="nonzero"></path>
            <polygon fill="#F0DECF" fill-rule="nonzero" points="286.529522 96 286.529522 100 243.949663 100 243.949663 96"></polygon>
            <path d="M634.170704,828.900392 L566.060229,865.156357 C564.042356,866.230493 565.114463,869.303057 567.362544,868.888678 L689.362544,846.400956 C691.471535,846.012215 691.572855,843.027186 689.495078,842.496334 L635.605553,828.728091 C635.122512,828.604679 634.610794,828.665843 634.170704,828.900392 Z M635.366,832.795 L679.683,844.117 L579.356,862.61 L635.366,832.795 Z" fill="#C7B1A7" fill-rule="nonzero"></path>
            <path d="M643.706554,831.827886 C644.703843,831.353031 645.897252,831.776548 646.372107,832.773837 C646.82435,833.723637 646.461744,834.851323 645.564688,835.366765 L645.426156,835.439391 L637.786143,839.077151 C637.458142,839.233327 637.094883,839.296728 636.735494,839.262274 L636.556303,839.236868 L626.895274,837.417988 C625.809775,837.213622 625.095476,836.167979 625.299843,835.08248 C625.49492,834.046322 626.456532,833.348385 627.487651,833.464823 L627.635351,833.487049 L636.655,835.184 L643.706554,831.827886 Z" fill="#C7B1A7" fill-rule="nonzero"></path>
        </g>
    </g>
</svg>