<?xml version="1.0" encoding="UTF-8"?>
<svg width="1600px" height="1200px" viewBox="0 0 1600 1200" version="1.1" xmlns="http://www.w3.org/2000/svg" xmlns:xlink="http://www.w3.org/1999/xlink">
    <title>Online Classroom</title>
    <defs>
        <linearGradient x1="100%" y1="50%" x2="0%" y2="50%" id="linearGradient-1">
            <stop stop-color="#FDEED0" offset="0%"></stop>
            <stop stop-color="#FBDAA1" offset="100%"></stop>
        </linearGradient>
        <linearGradient x1="100%" y1="50%" x2="0%" y2="50%" id="linearGradient-2">
            <stop stop-color="#F0F9F7" offset="0%"></stop>
            <stop stop-color="#ECF8F6" offset="100%"></stop>
        </linearGradient>
        <linearGradient x1="0.204274282%" y1="48.604319%" x2="93.5172707%" y2="50%" id="linearGradient-3">
            <stop stop-color="#E9F7F4" offset="0%"></stop>
            <stop stop-color="#E9F7F4" stop-opacity="0.634859868" offset="62.9045826%"></stop>
            <stop stop-color="#E9F7F4" stop-opacity="0" offset="100%"></stop>
        </linearGradient>
    </defs>
    <g id="Online-Classroom" stroke="none" stroke-width="1" fill="none" fill-rule="evenodd">
        <g transform="translate(243.500000, 139.000000)" id="Shape">
            <path d="M83.8480573,603.847036 L54.2010323,792.931582 L23,792.931582 L23,603.847036 L83.8480573,603.847036 Z M388.995011,603.847318 L359.347986,792.931582 L58.1484444,792.931582 L87.7954695,603.847318 L388.995011,603.847318 Z M694.141964,603.847318 L664.494939,792.931582 L363.295398,792.931582 L392.942423,603.847318 L694.141964,603.847318 Z M999.288918,603.847318 L969.641892,792.931582 L668.442351,792.931582 L698.089376,603.847318 L999.288918,603.847318 Z M134.556072,280.441893 L84.4603011,599.946355 L23,599.946355 L23,280.441893 L134.556072,280.441893 Z M1111,280.441893 L1111,599.946355 L1003.8476,599.946355 L1053.94434,280.441893 L1111,280.441893 Z M439.703025,280.441893 L389.607254,599.946355 L88.4067384,599.946355 L138.503484,280.441893 L439.703025,280.441893 Z M744.849978,280.441893 L694.754208,599.946355 L393.553692,599.946355 L443.650437,280.441893 L744.849978,280.441893 Z M1049.99693,280.441893 L999.901161,599.946355 L698.700645,599.946355 L748.797391,280.441893 L1049.99693,280.441893 Z M1111,83.9315824 L1111,276.541624 L1054.55659,276.541624 L1084.75639,83.9315824 L1111,83.9315824 Z M470.515068,83.9315824 L440.315269,276.54093 L139.115728,276.54093 L169.315527,83.9315824 L470.515068,83.9315824 Z M775.662022,83.9315824 L745.462222,276.54093 L444.262681,276.54093 L474.46248,83.9315824 L775.662022,83.9315824 Z M1080.80897,83.9315824 L1050.60918,276.54093 L749.409634,276.54093 L779.609434,83.9315824 L1080.80897,83.9315824 Z" fill="url(#linearGradient-1)" fill-rule="nonzero" opacity="0.5"></path>
            <path d="M1064.35059,59.9557372 C1065.39222,60.1191087 1066.11917,61.0589777 1066.03425,62.0931693 L1066.01654,62.2414789 L1035.418,257.328582 L1098,257.328855 C1099.10457,257.328855 1100,258.224286 1100,259.328855 C1100,260.383217 1099.18412,261.247021 1098.14926,261.32337 L1098,261.328855 L1034.791,261.328582 L984.717,580.587582 L1098,580.587765 C1099.10457,580.587765 1100,581.483195 1100,582.587765 C1100,583.642127 1099.18412,584.50593 1098.14926,584.582279 L1098,584.587765 L984.09,584.587582 L953.403618,780.241479 C953.232467,781.332708 952.209105,782.078579 951.117876,781.907428 C950.076248,781.744056 949.349296,780.804187 949.434219,779.769996 L949.451927,779.621686 L980.041,584.587582 L678.987,584.587582 L648.300032,780.241479 C648.128881,781.332708 647.105519,782.078579 646.01429,781.907428 C644.972662,781.744056 644.24571,780.804187 644.330633,779.769996 L644.348341,779.621686 L674.938,584.587582 L373.883,584.587582 L343.196446,780.241479 C343.025295,781.332708 342.001933,782.078579 340.910704,781.907428 C339.869076,781.744056 339.142124,780.804187 339.227047,779.769996 L339.244755,779.621686 L369.834,584.587582 L68.779,584.587582 L38.0928596,780.241479 C37.9217085,781.332708 36.898347,782.078579 35.8071179,781.907428 C34.7654901,781.744056 34.0385381,780.804187 34.1234608,779.769996 L34.1411692,779.621686 L64.731,584.587582 L2,584.587765 C0.8954305,584.587765 9.09494702e-13,583.692334 9.09494702e-13,582.587765 C9.09494702e-13,581.533403 0.815877791,580.6696 1.85073766,580.593251 L2,580.587765 L65.358,580.587582 L115.432,261.328582 L2,261.328855 C0.8954305,261.328855 9.09494702e-13,260.433425 9.09494702e-13,259.328855 C9.09494702e-13,258.274494 0.815877791,257.41069 1.85073766,257.334341 L2,257.328855 L116.059,257.328582 L146.754094,61.6216859 C146.925245,60.5304567 147.948607,59.7845861 149.039836,59.9557372 C150.081464,60.1191087 150.808416,61.0589777 150.723493,62.0931693 L150.705784,62.2414789 L120.107,257.328582 L421.162,257.328582 L451.85768,61.6216859 C452.028831,60.5304567 453.052193,59.7845861 454.143422,59.9557372 C455.18505,60.1191087 455.912002,61.0589777 455.827079,62.0931693 L455.80937,62.2414789 L425.211,257.328582 L726.266,257.328582 L756.961266,61.6216859 C757.132417,60.5304567 758.155779,59.7845861 759.247008,59.9557372 C760.288636,60.1191087 761.015588,61.0589777 760.930665,62.0931693 L760.912957,62.2414789 L730.314,257.328582 L1031.369,257.328582 L1062.06485,61.6216859 C1062.236,60.5304567 1063.25936,59.7845861 1064.35059,59.9557372 Z M420.535,261.328582 L119.48,261.328582 L69.406,580.587582 L370.461,580.587582 L420.535,261.328582 Z M725.639,261.328582 L424.584,261.328582 L374.51,580.587582 L675.565,580.587582 L725.639,261.328582 Z M1030.742,261.328582 L729.687,261.328582 L679.614,580.587582 L980.668,580.587582 L1030.742,261.328582 Z" fill="#F0DECF" fill-rule="nonzero"></path>
            <path d="M180.165142,9.46346709 L176.934882,10.9785203 C162.650203,17.6783057 153.52747,32.033341 153.52747,47.8111475 L153.52747,871 C153.52747,898.061953 175.465518,920 202.52747,920 L252.343471,920 L261.52747,0 L222.628494,0 C207.951067,0 193.453576,3.23093972 180.165142,9.46346709 Z" fill="#719CFE"></path>
            <polygon fill="#BEA8FF" fill-rule="nonzero" points="177 44.7611397 177 858.338171 176 858.338171 176 44.7611397"></polygon>
            <path d="M260.353052,0 C261.51124,0 262.669184,0.0303485173 263.825419,0.0910071801 L564.174257,15.847967 C595.812796,17.5077943 620.52747,41.1433215 620.52747,69.7405605 L620.52747,866.016399 C620.52747,895.830719 593.742645,920 560.701889,920 L260.353052,920 C227.312295,920 200.52747,895.830719 200.52747,866.016399 L200.52747,53.9836007 C200.52747,24.1692813 227.312295,0 260.353052,0 Z" fill="#4C669E"></path>
            <path d="M260.014312,21.9315824 C260.472315,21.9315824 260.930254,21.9315824 261.387871,21.955526 L262.074023,21.985448 L303.421726,24.1490958 C308.434732,24.411417 312.384205,28.4833215 312.523659,33.4708478 L312.52747,33.7437854 C312.52747,44.3232531 320.760648,53.0506373 331.279874,53.7048898 L331.627482,53.7235256 L513.627482,61.9217238 C513.927288,61.9352286 514.22736,61.9419836 514.52747,61.9419836 C525.458106,61.9419836 534.340695,53.173255 534.524563,42.286473 L534.52747,41.9419836 C534.52747,38.9574108 536.946945,36.5379366 539.931517,36.5379366 C540.025754,36.5379366 540.119974,36.5404015 540.214082,36.5453289 L563.100338,37.7436355 L563.662108,37.7770002 C581.974189,38.9938503 596.239691,52.6084761 596.52317,69.1399018 L596.52747,69.6417371 L596.52747,865.979615 L596.522716,866.507999 C596.212473,883.736848 580.757253,897.65083 561.621611,897.931582 L259.427473,897.931582 C240.292581,897.648005 224.839283,883.732251 224.53213,866.502726 L224.52747,865.979615 L224.52747,53.8835496 L224.532225,53.3551654 C224.845601,35.9522882 240.611459,21.9315824 260.014312,21.9315824 Z" fill="url(#linearGradient-2)"></path>
            <path d="M321.284486,711.931551 C332.614273,711.910911 341.812503,721.081533 341.99717,732.473345 L342,732.82276 L342,788.021695 C342,799.445301 332.93607,808.850764 321.664264,809.190207 L321.314955,809.197807 L266.738684,809.929723 C255.394752,810.081856 246.187677,800.903786 246.002833,789.391884 L246,789.038757 L246,733.207666 C246,721.66049 255.074378,712.244249 266.361984,712.034902 L266.708207,712.031377 L321.284486,711.931551 Z M444.284469,710.93155 C455.60823,710.910826 464.810488,719.985111 464.99711,731.268636 L465,731.618308 L465,786.221388 C465,797.537961 455.93144,806.848634 444.664243,807.186781 L444.31508,807.194371 L389.738808,807.929688 C378.399739,808.082461 369.187778,798.998817 369.002834,787.59305 L369,787.243176 L369,732.005003 C369,720.564344 378.079128,711.242868 389.362112,711.03534 L389.70819,711.031841 L444.284469,710.93155 Z M321.291785,715.931579 L266.71552,716.03137 C257.600647,716.048031 250.172519,723.553348 250.002962,732.881533 L250,733.207666 L250,789.038757 C250,798.396959 257.305298,805.879816 266.368193,805.93131 L266.685045,805.930083 L321.261316,805.198167 C330.389217,805.075754 337.825268,797.562489 337.996966,788.347623 L338,788.021695 L338,732.82276 C338,723.580255 330.688011,716.09073 321.61281,715.934055 L321.291785,715.931579 Z M567.284492,710.93155 C578.598628,710.910972 587.810292,719.797687 587.997107,730.869803 L588,731.212929 L588,784.633036 C588,795.736417 578.92395,804.856196 567.667384,805.191276 L567.314914,805.198879 L512.738643,805.929674 C501.41063,806.08136 492.189894,797.187268 492.002896,785.995404 L492,785.648539 L492,731.597245 C492,720.370628 501.086767,711.240127 512.358901,711.034725 L512.708213,711.031225 L567.284492,710.93155 Z M444.291802,714.931579 L389.715537,715.031835 C380.597088,715.04858 373.174416,722.46759 373.003029,731.679153 L373,732.005003 L373,787.243176 C373,796.48563 380.300377,803.882421 389.367903,803.931334 L389.68492,803.930051 L444.261192,803.194734 C453.393887,803.071687 460.825377,795.642667 460.996967,786.543229 L461,786.221388 L461,731.618308 C461,722.492109 453.692811,715.088623 444.612993,714.934017 L444.291802,714.931579 Z M567.291779,714.931579 L512.715515,715.031219 C503.587474,715.047878 496.174193,722.298261 496.003025,731.279549 L496,731.597245 L496,785.648539 C496,794.657903 503.288817,801.883768 512.364051,801.931343 L512.685086,801.930033 L567.261357,801.199238 C576.402127,801.07684 583.823543,793.818527 583.9969,784.950428 L584,784.633036 L584,731.212929 C584,722.317946 576.702288,715.084712 567.613302,714.93395 L567.291779,714.931579 Z M321.284486,587.931551 C332.614273,587.910911 341.812503,597.081533 341.99717,608.473345 L342,608.82276 L342,664.021695 C342,675.445301 332.93607,684.850764 321.664264,685.190207 L321.314955,685.197807 L266.738684,685.929723 C255.394752,686.081856 246.187677,676.903786 246.002833,665.391884 L246,665.038757 L246,609.207666 C246,597.66049 255.074378,588.244249 266.361984,588.034902 L266.708207,588.031377 L321.284486,587.931551 Z M444.284469,586.93155 C455.60823,586.910826 464.810488,595.985111 464.99711,607.268636 L465,607.618308 L465,662.221388 C465,673.537961 455.93144,682.848634 444.664243,683.186781 L444.31508,683.194371 L389.738808,683.929688 C378.399739,684.082461 369.187778,674.998817 369.002834,663.59305 L369,663.243176 L369,608.005003 C369,596.564344 378.079128,587.242868 389.362112,587.03534 L389.70819,587.031841 L444.284469,586.93155 Z M321.291785,591.931579 L266.71552,592.03137 C257.600647,592.048031 250.172519,599.553348 250.002962,608.881533 L250,609.207666 L250,665.038757 C250,674.396959 257.305298,681.879816 266.368193,681.93131 L266.685045,681.930083 L321.261316,681.198167 C330.389217,681.075754 337.825268,673.562489 337.996966,664.347623 L338,664.021695 L338,608.82276 C338,599.580255 330.688011,592.09073 321.61281,591.934055 L321.291785,591.931579 Z M567.284492,586.93155 C578.598628,586.910972 587.810292,595.797687 587.997107,606.869803 L588,607.212929 L588,660.633036 C588,671.736417 578.92395,680.856196 567.667384,681.191276 L567.314914,681.198879 L512.738643,681.929674 C501.41063,682.08136 492.189894,673.187268 492.002896,661.995404 L492,661.648539 L492,607.597245 C492,596.370628 501.086767,587.240127 512.358901,587.034725 L512.708213,587.031225 L567.284492,586.93155 Z M444.291802,590.931579 L389.715537,591.031835 C380.597088,591.04858 373.174416,598.46759 373.003029,607.679153 L373,608.005003 L373,663.243176 C373,672.48563 380.300377,679.882421 389.367903,679.931334 L389.68492,679.930051 L444.261192,679.194734 C453.393887,679.071687 460.825377,671.642667 460.996967,662.543229 L461,662.221388 L461,607.618308 C461,598.492109 453.692811,591.088623 444.612993,590.934017 L444.291802,590.931579 Z M567.291779,590.931579 L512.715515,591.031219 C503.587474,591.047878 496.174193,598.298261 496.003025,607.279549 L496,607.597245 L496,661.648539 C496,670.657903 503.288817,677.883768 512.364051,677.931343 L512.685086,677.930033 L567.261357,677.199238 C576.402127,677.07684 583.823543,669.818527 583.9969,660.950428 L584,660.633036 L584,607.212929 C584,598.317946 576.702288,591.084712 567.613302,590.93395 L567.291779,590.931579 Z M266.739292,461.933527 L321.315563,462.682053 C332.631843,462.837259 341.810967,472.128571 341.997118,483.507869 L342,483.860464 L342,539.049516 C342,550.484391 332.915771,559.766747 321.630028,559.929453 L321.283865,559.931578 L266.707596,559.815051 C255.375858,559.790866 246.187298,550.490187 246.002827,538.989208 L246,538.636458 L246,482.815362 C246,471.258122 255.092937,461.965757 266.392699,461.931671 L266.739292,461.933527 Z M389.73942,462.933564 L444.315691,463.685567 C455.627169,463.841427 464.810871,473.039053 464.997116,484.31157 L465,484.660858 L465,539.254009 C465,550.58081 455.912845,559.766885 444.633386,559.929435 L444.283846,559.931578 L389.707576,559.81451 C378.380653,559.790222 369.187395,550.583228 369.002829,539.188526 L369,538.839033 L369,483.610903 C369,472.160031 378.097876,462.963184 389.392972,462.931659 L389.73942,462.933564 Z M512.389574,464.931657 L512.73925,464.933579 L567.315521,465.680954 C578.616452,465.83571 587.808723,474.843452 587.997053,485.902826 L588,486.249091 L588,539.659331 C588,550.774266 578.90334,559.770622 567.633121,559.92949 L567.283872,559.931578 L512.707602,559.815229 C501.391458,559.791114 492.189506,550.77409 492.00289,539.593386 L492,539.246909 L492,485.205598 C492,473.968622 501.105596,464.96231 512.389574,464.931657 Z M266.684437,465.933151 C257.581568,465.808303 250.172085,473.178148 250.002954,482.48976 L250,482.815362 L250,538.636458 C250,548.004554 257.323639,555.618547 266.398856,555.811354 L266.716135,555.815061 L321.292396,555.931625 C330.408162,555.951005 337.825705,548.573186 337.996973,539.374908 L338,539.049516 L338,483.860464 C338,474.608043 330.66981,466.987429 321.582169,466.689155 L321.260708,466.681677 L266.684437,465.933151 Z M389.684309,466.933184 C380.576584,466.80769 373.17197,474.092779 373.002952,483.289327 L373,483.610903 L373,538.839033 C373,548.090274 380.316926,555.617855 389.395029,555.810765 L389.716154,555.814519 L444.292416,555.931626 C453.413023,555.951105 460.825818,548.657986 460.996975,539.575308 L461,539.254009 L461,484.660858 C461,475.524599 453.674424,467.989584 444.582207,467.692652 L444.26058,467.685187 L389.684309,466.933184 Z M512.684479,468.933204 C503.568118,468.808363 496.173747,475.924029 496.003017,484.888448 L496,485.205598 L496,539.246909 C496,548.266449 503.307427,555.622699 512.394672,555.811558 L512.716128,555.815238 L567.292389,555.931626 C576.422612,555.951005 583.826041,548.825414 583.996979,539.972496 L584,539.659331 L584,486.249091 C584,477.345141 576.685839,469.982335 567.586477,469.688073 L567.26075,469.680579 L512.684479,468.933204 Z M492,362.9527 C492,351.686594 501.125771,342.787889 512.423633,342.933325 L512.770157,342.940609 L567.346429,344.531994 C578.635843,344.861181 587.80912,354.006456 587.99706,365.07218 L588,365.418601 L588,418.915633 C588,430.058331 578.885192,438.946384 567.602616,438.931587 L567.252987,438.928264 L512.676716,437.968976 C501.373132,437.770292 492.191063,428.617636 492.002943,417.432032 L492,417.081828 L492,362.9527 Z M369,360.355173 C369,348.875813 378.117954,339.787483 389.427146,339.933291 L389.770513,339.940543 L444.346784,341.541638 C455.645244,341.873099 464.809313,351.206232 464.997063,362.483095 L465,362.836122 L465,417.513111 C465,428.868224 455.892864,437.945813 444.599173,437.931589 L444.252773,437.928289 L389.676501,436.963147 C378.362418,436.763066 369.188917,427.420522 369.002881,416.021317 L369,415.668116 L369,360.355173 Z M246,357.561669 C246,345.975638 255.112804,336.790668 266.426731,336.933194 L266.770244,336.940375 L321.346515,338.534113 C332.650953,338.864225 341.811354,348.292628 341.997124,359.67846 L342,360.031216 L342,415.306515 C342,426.768812 332.897891,435.94306 321.599483,435.93159 L321.252935,435.928351 L266.676664,434.967645 C255.35779,434.768399 246.188822,425.332558 246.002879,413.826509 L246,413.469999 L246,357.561669 Z M512.653571,346.93891 C503.549321,346.673439 496.173314,353.668943 496.00301,362.635426 L496,362.9527 L496,417.081828 C496,426.130434 503.326389,433.63079 512.425153,433.960928 L512.747013,433.969594 L567.323284,434.928882 C576.441266,435.089149 583.82647,428.083723 583.996986,419.228915 L584,418.915633 L584,365.418601 C584,356.485771 576.667019,348.978884 567.555983,348.542851 L567.229843,348.530294 L512.653571,346.93891 Z M389.653216,343.938822 C380.557849,343.671993 373.171543,350.835352 373.002945,360.033491 L373,360.355173 L373,415.668116 C373,424.94768 380.335774,432.620103 389.425688,432.955008 L389.747227,432.963773 L444.323499,433.928915 C453.431616,434.089985 460.826246,426.918581 460.996983,417.834511 L461,417.513111 L461,362.836122 C461,353.671713 453.655713,345.991852 444.551533,345.552412 L444.229487,345.539918 L389.653216,343.938822 Z M266.653485,340.938671 C257.563046,340.673212 250.171663,347.922117 250.002947,357.235939 L250,357.561669 L250,413.469999 C250,422.86673 257.342329,430.625521 266.429376,430.95963 L266.747065,430.968265 L321.323336,431.928971 C330.427775,432.089237 337.828129,424.830354 337.997049,415.628297 L338,415.306515 L338,360.031216 C338,350.75034 330.651261,342.984961 321.551638,342.544889 L321.229756,342.532408 L266.653485,340.938671 Z M492,240.69826 C492,229.405801 501.14461,220.618437 512.454421,220.940104 L512.801309,220.952803 L567.37758,223.396021 C578.653741,223.900822 587.807524,233.180924 587.997004,244.249674 L588,244.5998 L588,298.173438 C588,309.343475 578.864593,318.120874 567.568307,317.928495 L567.221835,317.919797 L512.645564,316.10958 C501.35387,315.735051 492.190669,306.445601 492.002937,295.255211 L492,294.9049 L492,240.69826 Z M369,235.097925 C369,223.592843 378.136737,214.616723 389.458113,214.939996 L389.801846,214.952646 L444.378117,217.410569 C455.664245,217.918857 464.809702,227.388707 464.997069,238.669829 L465,239.022946 L465,293.773695 C465,305.154361 455.874224,314.119758 444.568212,313.928606 L444.221436,313.919887 L389.645165,312.098775 C378.343277,311.721651 369.188529,302.242379 369.002875,290.83878 L369,290.485485 L369,235.097925 Z M512.62242,224.948801 C503.529957,224.541758 496.172868,231.414654 496.003002,240.380942 L496,240.69826 L496,294.9049 C496,303.980497 503.345084,311.624991 512.455883,312.098069 L512.778165,312.111779 L567.354436,313.921996 C576.460491,314.22403 583.826913,307.341211 583.996994,298.486758 L584,298.173438 L584,244.5998 C584,235.640147 576.648467,227.989156 567.525264,227.409698 L567.198691,227.392019 L512.62242,224.948801 Z M246,230.306395 C246,218.694341 255.131371,209.620438 266.457554,209.939697 L266.801436,209.952253 L321.377707,212.398956 C332.668589,212.905136 341.809792,222.467949 341.99707,233.857003 L342,234.213497 L342,289.565061 C342,301.054382 332.877603,310.118253 321.565204,309.928691 L321.22174,309.920107 L266.645469,308.107309 C255.338814,307.731748 246.188438,298.159519 246.002873,286.648484 L246,286.291863 L246,230.306395 Z M389.621883,218.948595 C380.538545,218.539514 373.171104,225.578712 373.002937,234.776214 L373,235.097925 L373,290.485485 C373,299.791326 380.35435,307.608609 389.456591,308.087166 L389.778564,308.101 L444.354835,309.922112 C453.450781,310.225627 460.826687,303.178366 460.99699,294.095117 L461,293.773695 L461,239.022946 C461,229.832417 453.637277,222.007698 444.520637,221.4241 L444.198154,221.406519 L389.621883,218.948595 Z M266.622293,213.94824 C257.543961,213.54125 250.171228,220.666783 250.00294,229.980614 L250,230.306395 L250,286.291863 C250,295.713932 257.358758,303.616685 266.456452,304.095699 L266.77826,304.109513 L321.354531,305.922312 C330.446721,306.224317 337.828561,299.0888 337.997057,289.886888 L338,289.565061 L338,234.213497 C338,224.906171 330.632984,216.996007 321.520883,216.412485 L321.198564,216.394942 L266.622293,213.94824 Z M492,118.445439 C492,107.126529 501.165725,98.4515384 512.488695,98.9521408 L512.832469,98.9701259 L567.40874,102.267194 C578.672491,102.947662 587.807911,112.363515 587.99701,123.435847 L588,123.786042 L588,177.429563 C588,188.62474 578.845486,197.289152 567.537483,196.92026 L567.190655,196.906138 L512.614383,194.242897 C501.334979,193.692479 492.190283,184.267268 492.002931,173.07317 L492,172.722787 L492,118.445439 Z M512.59126,102.962847 C503.508956,102.414165 496.170428,109.165341 496.002926,118.131766 L496,118.445439 L496,172.722787 C496,181.822644 503.361375,189.609981 512.48284,190.228615 L512.809345,190.247651 L567.385617,192.910892 C576.480126,193.354691 583.827366,186.595498 583.997002,177.742869 L584,177.429563 L584,123.786042 C584,114.801025 576.630283,107.006336 567.494549,106.282741 L567.167531,106.259915 L512.59126,102.962847 Z M369,110.84233 C369,99.3125718 378.155925,90.4502611 389.489094,90.9517675 L389.833183,90.9698378 L444.409454,94.2864925 C455.682869,94.9715892 464.810083,104.577148 464.997074,115.861485 L465,116.214659 L465,171.032564 C465,182.438921 455.853311,191.291174 444.533752,190.920399 L444.190077,190.906334 L389.613806,188.227271 C378.325711,187.673157 369.190092,178.060156 369.002928,166.65482 L369,166.297828 L369,110.84233 Z M389.590546,94.9624719 C380.518831,94.4111747 373.170655,101.325222 373.00293,110.520642 L373,110.84233 L373,166.297828 C373,175.628507 380.372555,183.590237 389.487505,184.213154 L389.809923,184.232082 L444.386194,186.911144 C453.471586,187.357132 460.829128,180.433076 460.997067,171.350274 L461,171.032564 L461,116.214659 C461,106.999436 453.619213,99.0302794 444.489751,98.3018207 L444.166817,98.2791267 L389.590546,94.9624719 Z M246,104.052694 C246,92.415654 255.150342,83.4544026 266.488395,83.9511722 L266.832635,83.9691278 L321.408906,87.2707509 C332.687055,87.953029 341.810169,97.6512389 341.997076,109.044104 L342,109.400675 L342,164.821975 C342,176.33613 332.858769,185.287346 321.534346,184.920774 L321.19052,184.906807 L266.614249,182.239887 C255.320209,181.687993 246.188062,171.980364 246.002868,160.465398 L246,160.108697 L246,104.052694 Z M266.591094,87.9618284 C257.524469,87.4133377 250.170784,94.4144982 250.002932,103.726913 L250,104.052694 L250,160.108697 C250,169.555959 257.376805,177.603098 266.487225,178.22577 L266.80948,178.244654 L321.385751,180.911574 C330.466076,181.355293 337.829001,174.344147 337.997064,165.143797 L338,164.821975 L338,109.400675 C338,100.068304 330.615076,92.0137642 321.490135,91.2860823 L321.167365,91.2634515 L266.591094,87.9618284 Z" fill="#7EBDB0" fill-rule="nonzero"></path>
            <path d="M260.014312,21.9315824 C260.472315,21.9315824 260.930254,21.9315824 261.387871,21.955526 L262.074023,21.985448 L1060.49035,21.9315824 L1060.49035,918 L259.427473,897.931582 C240.292581,897.648005 224.839283,883.732251 224.52747,866.502726 L224.52747,865.979615 L224.52747,53.8835496 L224.52747,53.3551654 C224.845601,35.9522882 240.611459,21.9315824 260.014312,21.9315824 Z" fill="url(#linearGradient-3)"></path>
            <path d="M1110.9262,918 C1112.03077,918 1112.9262,918.895431 1112.9262,920 C1112.9262,921.054362 1112.11032,921.918165 1111.07546,921.994514 L1110.9262,922 L2,922 C0.8954305,922 0,921.104569 0,920 C0,918.945638 0.815877791,918.081835 1.85073766,918.005486 L2,918 L1110.9262,918 Z" fill="#2E363A" fill-rule="nonzero"></path>
            <path d="M180.5,99.9315824 C185.19442,99.9315824 189,103.737162 189,108.431582 L189,210.431582 C189,215.126003 185.19442,218.931582 180.5,218.931582 C175.80558,218.931582 172,215.126003 172,210.431582 L172,108.431582 C172,103.737162 175.80558,99.9315824 180.5,99.9315824 Z" fill="#584591" fill-rule="nonzero"></path>
            <path d="M180.5,254.931582 C185.19442,254.931582 189,258.737162 189,263.431582 L189,365.431582 C189,370.126003 185.19442,373.931582 180.5,373.931582 C175.80558,373.931582 172,370.126003 172,365.431582 L172,263.431582 C172,258.737162 175.80558,254.931582 180.5,254.931582 Z" fill="#584591" fill-rule="nonzero"></path>
            <path d="M176.5,99.9315824 C181.19442,99.9315824 185,103.737162 185,108.431582 L185,210.431582 C185,215.126003 181.19442,218.931582 176.5,218.931582 C171.80558,218.931582 168,215.126003 168,210.431582 L168,108.431582 C168,103.737162 171.80558,99.9315824 176.5,99.9315824 Z" fill="#FFFFFF" fill-rule="nonzero"></path>
            <path d="M176.5,254.931582 C181.19442,254.931582 185,258.737162 185,263.431582 L185,365.431582 C185,370.126003 181.19442,373.931582 176.5,373.931582 C171.80558,373.931582 168,370.126003 168,365.431582 L168,263.431582 C168,258.737162 171.80558,254.931582 176.5,254.931582 Z" fill="#FFFFFF" fill-rule="nonzero"></path>
            <path d="M635.38574,245.081582 C626.275242,247.474248 620.125738,255.474248 616.937229,269.081582 L564.295847,269.081582 L581.749903,221.081582 L613.411546,234.544723 L635.38574,245.081582 Z" fill="#F69883"></path>
            <path d="M656.64673,171.04156 L656.64673,194.791259 L663.895847,216.816923 C660.92333,219.838398 658.149361,221.349136 655.573942,221.349136 C651.710812,221.349136 653.466567,241.703738 649.770282,243.161505 C646.073996,244.619273 632.113714,246.632864 618.613422,243.161505 C605.113129,239.690146 586.272285,225.444079 584.631137,218.030435 C583.537038,213.088006 581.158609,197.842036 577.495847,172.292526 C594.108993,162.743871 603.080861,157.969543 604.411451,157.969543 C605.742041,157.969543 616.909903,157.006889 637.915035,155.081582 L649.770282,156.93336 L656.64673,171.04156 Z" fill="#FDB4A3"></path>
            <path d="M606.55615,213.863778 C611.942407,218.595449 612.794422,224.143646 609.112194,230.508369 L608.921054,230.832703 C606.556025,234.773915 607.216951,237.938961 610.903832,240.327841 C602.80956,236.587207 594.329832,230.541984 589.233932,225.136099 L600.750983,217.648712 C602.608278,216.438713 604.543331,215.177062 606.55615,213.863778 Z" fill="#F69883"></path>
            <ellipse fill="#583E40" cx="647.095847" cy="194.681582" rx="2.4" ry="3.6"></ellipse>
            <path d="M635.035882,186.415225 L635.7825,185.711126 C643.037186,178.91744 647.723616,175.95735 649.841788,176.830857 C653.759014,178.44627 652.053313,185.799855 644.897212,188.440719 C642.577833,189.296654 640.235672,189.944526 637.870728,190.384333 L637.081567,190.523211 C635.774001,190.74035 634.537983,189.856383 634.320844,188.548816 C634.190354,187.763027 634.458237,186.963695 635.035882,186.415225 Z" fill="#7D4347"></path>
            <path d="M618.295847,201.232485 L625.011491,201.232485 L622.916836,180.067824 C640.636177,180.067824 659.095847,172.247715 678.295847,156.607497 C671.675314,147.652405 662.697046,143.748922 651.361042,144.897047 C662.154107,143.410221 670.995562,140.122475 677.885408,135.033809 C663.459105,124.705772 645.834466,122.329131 625.011491,127.903885 C593.777029,136.266016 567.165739,141.757329 558.003668,168.600317 C548.841598,195.443306 572.761474,226.836611 571.597134,247.481582 L595.363688,230.702615 L606.55615,213.863778 C600.837514,207.414841 598.430952,200.893135 599.336463,194.29866 C600.69473,184.406947 613.136423,186.801022 614.835814,191.1657 C614.835814,191.1657 615.989159,194.521295 618.295847,201.232485 Z" fill="#7D4347"></path>
            <path d="M651.116869,224.776296 C649.71684,224.776296 644.732801,226.28549 639.895847,222.281582 C639.888182,223.997449 640.920032,225.698099 642.991397,227.383533 C646.098445,229.911684 652.516899,224.776296 651.116869,224.776296 Z" fill="#583E40"></path>
            <path d="M603.850596,235.817749 C604.460385,234.896755 605.701331,234.644473 606.622325,235.254263 C614.478801,240.456025 625.031198,243.081582 638.312965,243.081582 C639.417534,243.081582 640.312965,243.977012 640.312965,245.081582 C640.312965,246.186151 639.417534,247.081582 638.312965,247.081582 C624.300398,247.081582 612.989621,244.267331 604.414083,238.589479 C603.493089,237.979689 603.240807,236.738744 603.850596,235.817749 Z" fill="#583E40" fill-rule="nonzero"></path>
            <path d="M608.796491,192.241831 C609.7675,191.71532 610.981481,192.075658 611.507992,193.046667 C612.034503,194.017677 611.674166,195.231658 610.703156,195.758169 C607.50175,197.494069 607.095044,200.151491 609.694597,204.761338 C610.237158,205.723472 609.897026,206.943268 608.934892,207.485828 C607.972757,208.028389 606.752962,207.688257 606.210401,206.726123 C602.608892,200.339486 603.400402,195.167755 608.796491,192.241831 Z" fill="#583E40" fill-rule="nonzero"></path>
            <path d="M738.003668,854.035007 C748.053799,859.61057 756.579997,862.913405 763.582264,863.943512 C774.085664,865.488674 801.348518,863.530237 806.746971,865.068005 C810.34594,866.093184 812.73786,867.980647 813.92273,870.730393 C798.810215,881.694384 785.492502,890.074481 773.969592,895.870684 C755.749996,897.562229 744.621385,900.085746 740.583758,903.441235 L743.333258,911.084238 C730.91233,916.966694 723.443312,919.468032 720.926202,918.588251 C717.150538,917.26858 705.853496,898.373913 704.592781,886.397475 C703.752303,878.413183 700.915009,870.16408 696.080896,861.650168 L738.003668,854.035007 Z" fill="#2E363A"></path>
            <path d="M456.22917,828.412831 L487.540663,857.310927 C489.136139,868.692775 491.629572,877.489796 495.020961,883.701989 C496.984446,887.298611 500.86737,892.575118 505.011707,898.000037 L462.799115,897.999196 C457.102867,892.795954 452.715105,889.831185 449.635831,889.104888 L445.186548,895.900411 L443.608579,895.067257 L442.096947,894.256525 C431.911976,888.748712 426.449218,884.836993 425.708674,882.521368 C424.502918,878.751064 432.611639,858.737196 441.315493,850.361932 L441.587672,850.104025 C447.458399,844.627723 452.338899,837.397325 456.22917,828.412831 Z" fill="#6B7476"></path>
            <path d="M633.875071,286.286791 C640.669372,300.16402 642.367947,321.802256 638.970797,351.201499 C633.875071,395.300364 639.528949,428.774849 643.999965,457.70467 C646.980642,476.991216 648.796247,517.532212 649.446781,579.327655 L653.917796,622.538323 L619.56956,622.538323 L622.324658,441 L624.868943,313.301046 L633.875071,286.286791 Z" fill="#2E363A"></path>
            <path d="M630.883607,550 C649.453355,610.266346 664.109178,650.046675 674.851077,669.340989 C690.963925,698.282459 691.048455,713.865754 700.630142,737.258099 C710.21183,760.650444 739.34948,843.956928 739.34948,852.414869 C739.34948,860.872809 700.881245,874.039549 694.924389,867.456179 C688.967533,860.872809 669.338764,801.739326 661.801186,789.184183 C654.263608,776.62904 624.118123,727.378071 619.915372,698.35953 C617.113539,679.013836 620.769617,629.560659 630.883607,550 Z" fill="#4763AF"></path>
            <path d="M638.097991,745.473781 L637.96719,746.722339 L637.131072,745.052494 C629.074555,728.868725 621.822878,711.5302 619.915372,698.35953 C617.363934,680.742727 620.16772,638.159291 628.32673,570.60922 L628.888519,575.88356 C637.849305,660.571473 640.918897,717.101182 638.097991,745.473781 L638.097991,745.473781 Z" fill="#303D78"></path>
            <path d="M617.27707,644.676481 L619.793313,648.992351 C620.348496,649.947256 621.572665,650.271295 622.527571,649.716112 C623.482477,649.160928 623.806516,647.936759 623.251332,646.981853 L620.730267,642.657712 C620.172799,641.704138 618.947858,641.383031 617.994284,641.940498 C617.04071,642.497966 616.719602,643.722907 617.27707,644.676481 Z M626.281449,660.23987 L627.939394,663.144978 C628.212913,663.62539 628.485029,664.103916 628.755743,664.580555 C629.301252,665.54102 630.522085,665.877409 631.482551,665.3319 C632.443016,664.78639 632.779404,663.565557 632.233895,662.605092 L630.588717,659.71548 C630.311717,659.230111 630.033315,658.742859 629.753511,658.253723 C629.205052,657.294939 627.98319,656.962306 627.024406,657.510765 C626.065623,658.059225 625.732989,659.281087 626.281449,660.23987 Z M635.116999,675.897729 L636.738386,678.824229 C637.005194,679.307373 637.270289,679.788215 637.533672,680.266753 C638.066276,681.234435 639.282497,681.587136 640.250178,681.054532 C641.21786,680.521929 641.570561,679.305708 641.037957,678.338026 L639.431753,675.429453 C639.160631,674.940094 638.887798,674.448438 638.613254,673.954483 C638.076642,672.989019 636.858968,672.641366 635.893504,673.177978 C634.92804,673.714591 634.580387,674.932264 635.116999,675.897729 Z M643.717598,691.667986 L644.900297,693.891855 C645.28959,694.626495 645.673941,695.354486 646.053351,696.075827 C646.567542,697.053416 647.776869,697.429075 648.754458,696.914884 C649.732048,696.400692 650.107707,695.191365 649.593515,694.213776 L648.434806,692.01909 C648.043632,691.280898 647.647521,690.536078 647.246473,689.784628 C646.726398,688.810156 645.514828,688.441794 644.540356,688.961869 C643.565884,689.481944 643.197523,690.693514 643.717598,691.667986 Z M651.979408,707.602327 C652.743235,709.127231 653.479536,710.615057 654.188307,712.065791 C654.673182,713.058248 655.870796,713.469724 656.863253,712.984849 C657.855709,712.499974 658.26718,711.30236 657.782311,710.309904 C657.067656,708.847126 656.325495,707.34746 655.555826,705.810893 C655.061135,704.823292 653.8595,704.42371 652.8719,704.918401 C651.8843,705.413092 651.484717,706.614727 651.979408,707.602327 Z M659.672598,723.775906 L660.501059,725.642461 C660.880133,726.501311 661.273698,727.399183 661.681743,728.33606 C662.122806,729.348748 663.301305,729.812141 664.313992,729.371077 C665.32668,728.930014 665.790073,727.751515 665.34901,726.738828 L664.160042,724.02634 C663.87361,723.377387 663.595283,722.750309 663.325058,722.145097 C662.874722,721.136498 661.692022,720.683936 660.683423,721.134272 C659.674825,721.584607 659.222263,722.767307 659.672598,723.775906 Z M666.777546,740.270322 L668.705407,744.875652 C669.13046,745.895163 670.301511,746.377067 671.321022,745.952014 C672.340534,745.52696 672.822437,744.355909 672.397384,743.336398 L670.841298,739.616071 C670.714988,739.315115 670.589519,739.016427 670.464891,738.720006 C670.036783,737.701774 668.864293,737.223383 667.84606,737.651491 C666.827828,738.079599 666.349438,739.25209 666.777546,740.270322 Z M673.666064,756.874988 L675.558542,761.497013 C675.976286,762.519541 677.143857,763.009816 678.166385,762.592072 C679.188914,762.174328 679.679188,761.006757 679.261445,759.984229 L677.36655,755.356305 C676.947177,754.334443 675.778826,753.84603 674.756965,754.265403 C673.735104,754.684776 673.246691,755.853127 673.666064,756.874988 Z M680.454708,773.541099 L682.326526,778.173158 C682.739856,779.197479 683.905302,779.692784 684.929622,779.279454 C685.953943,778.866125 686.449248,777.700679 686.035918,776.676358 L684.162566,772.040504 C683.748189,771.016607 682.582237,770.522494 681.55834,770.936872 C680.534443,771.35125 680.04033,772.517202 680.454708,773.541099 Z M687.174624,790.228081 L689.033119,794.868545 C689.443418,795.894083 690.607394,796.392833 691.632932,795.982534 C692.65847,795.572235 693.15722,794.408259 692.746921,793.382721 L690.887344,788.739556 C690.476299,787.714316 689.31196,787.216413 688.286721,787.627458 C687.261482,788.038503 686.763579,789.202842 687.174624,790.228081 Z M693.849718,806.937213 L695.697174,811.580712 C696.105227,812.607146 697.268108,813.108444 698.294542,812.700391 C699.320976,812.292339 699.822274,811.129458 699.414222,810.103024 L697.565951,805.457478 C697.157334,804.431269 695.994177,803.930612 694.967967,804.339229 C693.941758,804.747847 693.441101,805.911004 693.849718,806.937213 Z M700.491284,823.66303 L702.331363,828.311829 C702.737663,829.338958 703.899687,829.842239 704.926816,829.435939 C705.953945,829.029639 706.457227,827.867615 706.050926,826.840486 L704.210206,822.190067 C703.803458,821.163115 702.641215,820.66034 701.614263,821.067088 C700.587311,821.473835 700.084536,822.636079 700.491284,823.66303 Z M707.109245,840.408858 L708.942488,845.059638 C709.347372,846.087326 710.508701,846.592208 711.536389,846.187324 C712.564077,845.78244 713.068959,844.62111 712.664075,843.593422 L710.830311,838.941319 C710.425061,837.913775 709.263552,837.409306 708.236008,837.814556 C707.208465,838.219805 706.703996,839.381314 707.109245,840.408858 Z" fill="#709CFD" fill-rule="nonzero"></path>
            <path d="M627.895826,566.60298 L625.27391,571.573494 C597.644291,624.095415 580.814201,660.716636 574.783639,681.437157 L574.598699,682.079498 C565.619122,713.615912 554.789419,724.790602 545.098892,747.629861 L544.182908,749.798064 C533.517796,774.79985 496.61423,851.278485 490.753176,857.139538 C484.772509,863.120205 448.261068,845.229347 448.70408,836.362068 C449.147093,827.494789 477.081143,771.801466 480.629098,757.593767 L482.153647,751.482292 C487.198026,731.429952 499.616885,684.660287 515.234083,663.753296 C526.932359,648.092629 564.486274,615.70919 627.895826,566.60298 Z" fill="#4763AF"></path>
            <path d="M498.953339,696.146692 L529.965669,780.957335 L527.682075,785.778622 C513.012678,816.645957 494.731561,853.161154 490.753176,857.139538 C484.772509,863.120205 448.261068,845.229347 448.70408,836.362068 C449.147093,827.494789 477.081143,771.801466 480.629098,757.593767 L482.153647,751.482292 L483.277872,747.060133 C486.590084,734.177443 492.046698,714.29209 498.953339,696.146692 Z" fill="#A2B6D5"></path>
            <path d="M516.930192,725.770718 L515.127212,730.434329 C514.728909,731.464585 515.241209,732.622661 516.271465,733.020965 C517.301722,733.419268 518.459798,732.906968 518.858101,731.876712 L520.66108,727.213101 C521.059383,726.182844 520.547084,725.024768 519.516828,724.626465 C518.486571,724.228162 517.328495,724.740461 516.930192,725.770718 Z M510.439467,742.559717 L508.636488,747.223328 C508.238185,748.253584 508.750484,749.411661 509.78074,749.809964 C510.810997,750.208267 511.969073,749.695967 512.367376,748.665711 L514.170355,744.0021 C514.568659,742.971844 514.056359,741.813767 513.026103,741.415464 C511.995846,741.017161 510.83777,741.52946 510.439467,742.559717 Z M503.948742,759.348716 L502.145763,764.012327 C501.74746,765.042583 502.259759,766.20066 503.290016,766.598963 C504.320272,766.997266 505.478348,766.484967 505.876652,765.45471 L507.679631,760.791099 C508.077934,759.760843 507.565634,758.602766 506.535378,758.204463 C505.505122,757.80616 504.347045,758.318459 503.948742,759.348716 Z M497.458017,776.137715 L495.655038,780.801326 C495.256735,781.831582 495.769034,782.989659 496.799291,783.387962 C497.829547,783.786265 498.987624,783.273966 499.385927,782.243709 L501.188906,777.580098 C501.587209,776.549842 501.07491,775.391766 500.044653,774.993462 C499.014397,774.595159 497.85632,775.107459 497.458017,776.137715 Z M490.967293,792.926714 L489.164313,797.590325 C488.76601,798.620582 489.27831,799.778658 490.308566,800.176961 C491.338823,800.575264 492.496899,800.062965 492.895202,799.032708 L494.698181,794.369098 C495.096484,793.338841 494.584185,792.180765 493.553929,791.782462 C492.523672,791.384158 491.365596,791.896458 490.967293,792.926714 Z M484.476568,809.715713 L482.673589,814.379324 C482.275286,815.409581 482.787585,816.567657 483.817841,816.96596 C484.848098,817.364263 486.006174,816.851964 486.404477,815.821708 L488.207456,811.158097 C488.60576,810.12784 488.09346,808.969764 487.063204,808.571461 C486.032947,808.173158 484.874871,808.685457 484.476568,809.715713 Z M477.985843,826.504713 L476.182864,831.168323 C475.784561,832.19858 476.29686,833.356656 477.327117,833.754959 C478.357373,834.153263 479.515449,833.640963 479.913753,832.610707 L481.716732,827.947096 C482.115035,826.916839 481.602735,825.758763 480.572479,825.36046 C479.542223,824.962157 478.384146,825.474456 477.985843,826.504713 Z" fill="#C6D6E5" fill-rule="nonzero"></path>
            <path d="M561.085217,256.897842 C570.270192,251.754909 582.541472,249.183442 597.899055,249.183442 C613.256638,249.183442 628.623608,251.754909 643.999965,256.897842 L633.875071,286.286791 C636.870084,303.773977 635.757659,331.966698 630.537796,370.864956 C622.708001,429.212343 634.254823,551.577599 630.537796,586.99052 C626.820768,622.403441 626.918388,729.312814 612.073696,739.002716 C597.229004,748.692618 462.622978,741.810369 438.071406,697.50761 C461.91346,588.662095 476.276417,519.401719 481.160274,489.726482 C486.044132,460.051245 512.68578,382.441699 561.085217,256.897842 Z" fill="#EC9564"></path>
            <circle fill="#9D5C38" cx="631.503668" cy="262.5" r="4.5"></circle>
            <path d="M619.56956,330.352764 C604.96084,399.769074 597.65648,437.799784 597.65648,444.444893 C597.65648,451.090003 601.30866,476.306851 608.61302,520.095439 L563.887125,488.320536 C561.964821,426.221139 561.003668,395.17144 561.003668,395.17144 C561.003668,395.17144 586.742038,352.883306 590.286614,351.907846 C592.649666,351.25754 602.410648,344.072513 619.56956,330.352764 Z" fill="#CB7545"></path>
            <path d="M535.434212,452.796451 L531.073375,457.408588 C510.538284,479.076461 492.552311,497.327505 477.115455,512.161719 L477.946197,507.768377 C479.118679,501.516717 480.089026,496.109435 480.857268,491.546183 L481.296654,488.918069 C483.326396,477.16566 488.579572,458.311743 497.056182,432.35632 C507.322899,434.316 520.115189,441.13105 535.434212,452.796451 Z" fill="#CB7545"></path>
            <path d="M501.03825,286.286791 C456.230763,380.798348 435.241815,435.897989 438.071406,451.585715 C442.315792,475.117305 454.583038,488.531657 486.519837,484.060356 C518.456635,479.589054 547.616401,324.214303 549.615305,298.798427 C550.947907,281.854509 549.57864,273.644269 545.507502,274.167707 L501.03825,286.286791 Z" fill="#A0A1A1"></path>
            <path d="M467.525974,402.665613 C486.65023,400.499246 501.138401,405.085686 510.750956,416.492163 C511.462756,417.336801 511.355069,418.598544 510.510431,419.310345 C509.665792,420.022145 508.404049,419.914458 507.692249,419.06982 C499.02054,408.779771 485.861704,404.614152 467.976208,406.640193 C466.878658,406.764522 465.88813,405.97557 465.763801,404.87802 C465.639472,403.78047 466.428424,402.789942 467.525974,402.665613 Z" fill="#585858" fill-rule="nonzero"></path>
            <path d="M545.507502,274.167707 C549.57864,273.644269 550.947907,281.854509 549.615305,298.798427 L549.551003,299.557725 C549.479389,300.351728 549.385902,301.249122 549.271107,302.243407 C542.76392,308.922493 534.062941,313 524.503668,313 C512.833739,313 502.442962,306.923107 495.761351,297.465637 C497.138736,294.535564 498.539611,291.564627 499.964793,288.553071 L501.03825,286.286791 L545.507502,274.167707 Z" fill="#767777"></path>
            <ellipse fill="#A0A1A1" cx="527.003668" cy="269.5" rx="34" ry="37.5"></ellipse>
            <path d="M527.003668,242 C540.859442,242 552.003668,254.355555 552.003668,269.5 C552.003668,284.644445 540.859442,297 527.003668,297 C513.147895,297 502.003668,284.644445 502.003668,269.5 C502.003668,268.395431 502.899099,267.5 504.003668,267.5 C505.108238,267.5 506.003668,268.395431 506.003668,269.5 C506.003668,282.522077 515.454344,293 527.003668,293 C538.552993,293 548.003668,282.522077 548.003668,269.5 C548.003668,256.477923 538.552993,246 527.003668,246 C525.899099,246 525.003668,245.104569 525.003668,244 C525.003668,242.895431 525.899099,242 527.003668,242 Z" fill="#585858" fill-rule="nonzero"></path>
            <path d="M527.003668,254 C534.791558,254 541.003668,260.988624 541.003668,269.5 C541.003668,270.604569 540.108238,271.5 539.003668,271.5 C537.899099,271.5 537.003668,270.604569 537.003668,269.5 C537.003668,263.099687 532.470613,258 527.003668,258 C521.536724,258 517.003668,263.099687 517.003668,269.5 C517.003668,275.900313 521.536724,281 527.003668,281 C528.108238,281 529.003668,281.895431 529.003668,283 C529.003668,284.104569 528.108238,285 527.003668,285 C519.215779,285 513.003668,278.011376 513.003668,269.5 C513.003668,260.988624 519.215779,254 527.003668,254 Z" fill="#585858" fill-rule="nonzero"></path>
            <path d="M527.003668,231 C546.381116,231 562.003668,248.27949 562.003668,269.5 C562.003668,290.72051 546.381116,308 527.003668,308 C525.899099,308 525.003668,307.104569 525.003668,306 C525.003668,304.895431 525.899099,304 527.003668,304 C544.077014,304 558.003668,288.596276 558.003668,269.5 C558.003668,250.403724 544.077014,235 527.003668,235 C509.930323,235 496.003668,250.403724 496.003668,269.5 C496.003668,270.604569 495.108238,271.5 494.003668,271.5 C492.899099,271.5 492.003668,270.604569 492.003668,269.5 C492.003668,248.27949 507.626221,231 527.003668,231 Z" fill="#585858" fill-rule="nonzero"></path>
            <path d="M563.015285,270.004832 C603.45284,267.125522 625.770366,275.834248 629.967862,296.13101 C633.933674,315.307476 617.20278,358.025672 579.77518,424.285599 L578.462665,426.603907 L578.462665,426.603907 C578.363515,426.778643 578.365251,427.099882 578.467876,427.567625 L578.511104,427.749893 C578.918207,429.355963 577.946251,430.987962 576.340181,431.395065 L576.203475,431.426335 C575.833764,431.501857 575.587842,431.646185 575.465707,431.85932 C575.067989,432.55337 575.502207,433.62606 576.768358,435.077389 C577.560612,435.985486 577.466683,437.363891 576.558575,438.156131 L576.480769,438.220894 L576.480769,438.220894 L576.400043,438.281978 C575.180668,439.160933 574.695977,440.744453 575.214467,442.155342 L575.688199,443.444439 L608.728632,518.774129 L566.055719,547.456631 L554.958723,528.718677 C548.712838,518.14629 543.833871,509.833352 540.321823,503.779863 L538.900349,501.323845 C513.658949,457.593658 501.03825,432.569334 501.03825,426.250872 C501.03825,414.207408 506.336228,402.973636 514.517807,387.04295 L515.840374,384.4784 C522.060197,372.514722 538.709413,342.112172 565.788023,293.270748 L563.015285,270.004832 Z" fill="#EC9564"></path>
            <path d="M591.400292,270.143206 C591.538265,269.047288 592.538531,268.270719 593.63445,268.408692 C615.799177,271.19916 628.736467,280.301137 631.926418,295.725969 C635.992683,315.38817 619.548599,357.674512 582.64124,423.274235 L580.861449,426.427712 L580.431,427.185582 L580.449773,427.258464 C581.03661,429.573517 579.904224,431.920902 577.855814,432.951986 L577.693,433.029582 L577.722581,433.071352 C577.832647,433.225216 577.963759,433.394007 578.116059,433.576103 L578.275428,433.762573 C579.793842,435.50301 579.613827,438.14483 577.87337,439.663219 C577.775877,439.748273 577.674489,439.828757 577.569533,439.904412 C577.115899,440.231402 576.91456,440.800343 577.050624,441.333174 L577.091718,441.465468 L577.547,442.703582 L610.560199,517.970784 C610.926008,518.804802 610.680485,519.772716 609.980798,520.333729 L609.844323,520.434019 L567.17141,549.116521 C566.250128,549.735758 565.000804,549.486254 564.388044,548.560651 L562.193941,545.237807 C539.477013,510.744508 522.998921,482.892337 512.315966,461.648647 L511.357662,459.729278 C503.100379,443.06766 499.03825,431.569508 499.03825,426.250872 L499.042295,425.579899 C499.170957,414.99881 502.395545,406.351055 512.533918,386.531221 L514.063556,383.560291 C520.295887,371.57235 536.948217,341.164118 564.038865,292.300981 C564.574452,291.334948 565.791756,290.986002 566.757789,291.52159 C567.723822,292.057177 568.072768,293.274481 567.537181,294.240514 L556.468899,314.227536 C535.138932,352.795483 522.002113,376.878119 517.071211,386.451323 L515.794726,388.940722 C506.084166,407.97114 503.100961,416.136721 503.039232,425.93751 L503.03825,426.250872 C503.03825,430.87779 507.151209,442.390057 515.554143,459.182939 L516.5758,461.209541 C527.08515,481.905708 543.036702,508.819523 564.830721,541.968129 L566.613,544.672582 L606.225,518.045582 L573.856632,444.247784 L573.810947,444.134313 L573.337215,442.845216 C572.5368,440.667165 573.233416,438.231498 575.039748,436.803609 L575.243779,436.649044 C575.319542,436.582947 575.327378,436.467958 575.261271,436.392185 C573.481057,434.35161 572.757176,432.563337 573.730425,430.864937 C574.144422,430.142478 574.808017,429.716141 575.602043,429.512982 L575.848767,429.456377 C576.384127,429.320675 576.70811,428.776678 576.572401,428.24131 C576.3085,427.200191 576.274975,426.406778 576.723193,425.616873 L578.033788,423.301956 C615.191257,357.520255 631.833591,315.028174 628.009306,296.536052 C625.216441,283.031306 613.764908,274.974628 593.134807,272.377364 C592.038888,272.239391 591.26232,271.239125 591.400292,270.143206 Z" fill="#9D5C38" fill-rule="nonzero"></path>
            <path d="M555.237976,418.033019 C556.022575,417.255537 557.288892,417.261306 558.066374,418.045905 C562.643988,422.665423 568.711,426.664646 576.27878,430.032051 C577.287953,430.481099 577.742024,431.66322 577.292976,432.672393 C576.843928,433.681566 575.661807,434.135637 574.652634,433.686589 C566.654458,430.127673 560.17482,425.856456 555.225089,420.861417 C554.447608,420.076818 554.453377,418.810501 555.237976,418.033019 Z" fill="#9D5C38" fill-rule="nonzero"></path>
            <path d="M552.308544,427.335357 C556.008692,427.335357 563.845307,430.528613 576.382376,436.993855 C577.364095,437.500118 577.749529,438.706365 577.243266,439.688084 C576.737003,440.669803 575.530756,441.055236 574.549037,440.548974 L572.934132,439.721419 C562.17387,434.243291 555.187185,431.42698 552.440221,431.337556 L552.308544,431.335357 C551.203975,431.335357 550.308544,430.439927 550.308544,429.335357 C550.308544,428.230788 551.203975,427.335357 552.308544,427.335357 Z" fill="#9D5C38" fill-rule="nonzero"></path>
            <path d="M477.221225,350.932387 C445.805428,356.139034 426.509523,368.486842 419.333511,387.975811 C408.569493,417.209265 399.382073,447.663618 406.528213,451.038088 C411.292306,453.287734 425.349596,455.732845 448.700082,458.373419 L477.221225,350.932387 Z" fill="#A0A1A1"></path>
            <path d="M471.495814,349.947067 C472.578722,349.729391 473.633055,350.4308 473.850731,351.513709 C474.068407,352.596618 473.366997,353.65095 472.284089,353.868626 C444.628062,359.427781 427.698459,371.046078 421.210326,388.666871 L420.156491,391.546975 C414.623899,406.76555 410.504637,419.698265 408.161439,429.661926 L407.931253,430.657869 C405.435891,441.650508 405.448825,448.316622 407.382205,449.229581 C411.188412,451.026905 421.978134,453.07744 439.429624,455.259141 C440.525662,455.396162 441.303098,456.395754 441.166077,457.491792 C441.029056,458.58783 440.029464,459.365266 438.933426,459.228245 L437.532215,459.051588 C420.428612,456.876734 409.908284,454.845957 405.67422,452.846594 C397.729975,449.095252 403.090662,426.300735 417.456695,387.284751 C424.490203,368.182802 442.598227,355.755789 471.495814,349.947067 Z" fill="#585858" fill-rule="nonzero"></path>
            <path d="M480.972474,325.804059 C481.390671,324.781716 482.558459,324.291959 483.580802,324.710155 C484.554462,325.108437 485.045051,326.186621 484.728313,327.171541 L484.674706,327.318483 L451.172475,409.219657 C450.754278,410.242 449.58649,410.731758 448.564147,410.313561 C447.590487,409.915279 447.099897,408.837095 447.416636,407.852176 L447.470243,407.705234 L480.972474,325.804059 Z" fill="#585858" fill-rule="nonzero"></path>
            <path d="M429.763964,389.217957 C430.083016,388.16047 431.198922,387.56185 432.256409,387.880902 C433.313897,388.199954 433.912517,389.31586 433.593465,390.373347 L432.743842,393.204087 C423.843811,423.015587 420.147345,440.542575 421.650156,443.249827 L421.698811,443.329602 C422.314769,444.246482 422.070824,445.489093 421.153944,446.105051 C420.237064,446.72101 418.994453,446.477065 418.378495,445.560185 C415.596035,441.418376 419.392807,423.592804 429.763964,389.217957 Z" fill="#585858" fill-rule="nonzero"></path>
            <path d="M583.02307,286.090765 C583.131332,285.549195 583.658125,285.19793 584.199695,285.306193 C598.909793,288.246814 605.575591,294.155037 603.600467,303.009034 L603.524785,303.326111 C602.279693,308.239118 596.039749,320.314999 577.885206,353.647759 L567.562569,372.578106 C549.091854,406.530156 542.035685,420.376077 542.035685,423.426502 C542.035685,428.83123 555.033387,462.572876 580.737006,523.709307 C580.951055,524.218426 580.711854,524.804669 580.202736,525.018718 C579.693617,525.232766 579.107375,524.993565 578.893326,524.484447 L576.588603,518.995076 C552.131223,460.659932 540.035685,429.090361 540.035685,423.426502 C540.035685,419.813404 546.71827,406.678742 566.254894,370.795274 L576.652005,351.729707 C594.517173,318.912053 600.671844,306.951458 601.648447,302.573583 C603.312887,295.112307 597.564826,290.017519 583.807642,287.26739 C583.266072,287.159128 582.914807,286.632335 583.02307,286.090765 Z" fill="#F2A87F" fill-rule="nonzero"></path>
            <path d="M613.176791,501 C601.162685,524.456661 577.438311,537.032782 542.003668,538.728361 L571.545517,573.800929 L623.017413,537.400464 L613.176791,501 Z" fill="#EC9564"></path>
            <path d="M611.396695,500.088265 C611.900232,499.105146 613.105406,498.716367 614.088525,499.219905 C615.071645,499.723442 615.460423,500.928615 614.956886,501.911735 C602.582674,526.071478 578.195719,538.998828 542.099261,540.726075 C540.995954,540.77887 540.058748,539.927261 540.005954,538.823954 C539.95316,537.720647 540.804769,536.783441 541.908076,536.730647 C576.680903,535.066736 599.742696,522.841845 611.396695,500.088265 Z" fill="#9D5C38" fill-rule="nonzero"></path>
            <path d="M540.052574,512.435834 C540.153648,511.892877 540.675738,511.534659 541.218696,511.635733 C541.761653,511.736807 542.11987,512.258897 542.018796,512.801855 C526.912303,593.952257 521.174873,662.38808 524.801168,718.101271 C524.83704,718.652389 524.41935,719.128239 523.868231,719.164111 C523.317112,719.199982 522.841263,718.782292 522.805391,718.231173 C519.167075,662.333306 524.917915,593.737543 540.052574,512.435834 Z" fill="#F2A87F" fill-rule="nonzero"></path>
            <path d="M513.07678,316.624676 C513.372705,315.560485 514.475296,314.937682 515.539487,315.233607 C516.555306,315.51608 517.168951,316.533554 516.96526,317.551038 L516.930557,317.696314 L494.930557,396.811752 C494.634632,397.875943 493.532041,398.498746 492.46785,398.202821 C491.452031,397.920348 490.838386,396.902874 491.042077,395.88539 L491.07678,395.740114 L513.07678,316.624676 Z" fill="#585858" fill-rule="nonzero"></path>
            <path d="M460.854741,591.945517 L513.432169,735.747515 C480.107195,728.912323 448.726043,716.733662 438.071406,697.50761 L442.806199,675.840745 C449.710932,644.165032 455.727113,616.199957 460.854741,591.945517 Z" fill="#EAD0BB"></path>
            <path d="M439.421753,436.570203 L463.578502,483.667211 C448.193584,479.98391 441.09576,468.35324 438.071406,451.585715 C437.479592,448.304599 437.929708,443.299428 439.421753,436.570203 Z" fill="#CDD6D4"></path>
            <path d="M417.326744,393.49399 L449.35,455.92499 L448.700082,458.373419 L445.799974,458.040912 C424.419856,455.554909 411.380447,453.244337 406.681747,451.109194 L406.528213,451.038088 C399.831108,447.875656 407.479382,420.929602 417.326744,393.49399 Z" fill="#CDD6D4"></path>
        </g>
    </g>
</svg>