<?xml version="1.0" encoding="UTF-8"?>
<svg width="1600px" height="1200px" viewBox="0 0 1600 1200" version="1.1" xmlns="http://www.w3.org/2000/svg" xmlns:xlink="http://www.w3.org/1999/xlink">
    <title>Proven to Graduate Experts in All Fields</title>
    <g id="Proven-to-Graduate-Experts-in-All-Fields." stroke="none" stroke-width="1" fill="none" fill-rule="evenodd">
        <g transform="translate(142.000000, 89.500000)" id="Shape">
            <circle fill="#DFF5F2" cx="964.784552" cy="416.301466" r="246.5"></circle>
            <path d="M258.284552,768.801466 L51.7441134,810.847162 C46.3322645,811.948859 42.8381959,817.229131 43.9398927,822.64098 C44.8269137,826.99828 48.4845851,830.246437 52.9161793,830.612279 L962.592955,905.708958 L1037.44386,812.216763 L258.284552,768.801466 Z" fill="#D8EAEF"></path>
            <ellipse fill="#D8EAEF" cx="229.284552" cy="883.801466" rx="125" ry="42"></ellipse>
            <path d="M964.784552,65.8014664 C771.208747,65.8014664 614.284552,222.725662 614.284552,416.301466 C614.284552,609.877271 771.208747,766.801466 964.784552,766.801466 C1158.36036,766.801466 1315.28455,609.877271 1315.28455,416.301466 C1315.28455,222.725662 1158.36036,65.8014664 964.784552,65.8014664 Z M964.784552,69.8014664 C1156.15122,69.8014664 1311.28455,224.934801 1311.28455,416.301466 C1311.28455,607.668132 1156.15122,762.801466 964.784552,762.801466 C773.417886,762.801466 618.284552,607.668132 618.284552,416.301466 C618.284552,224.934801 773.417886,69.8014664 964.784552,69.8014664 Z" fill="#F0DECF" fill-rule="nonzero"></path>
            <circle fill="#F9F5E8" cx="382.784552" cy="462.301466" r="281.5"></circle>
            <path d="M913.634769,88.8014664 C904.245929,88.8014664 896.634769,96.4126257 896.634769,105.801466 C896.634769,115.190307 904.245929,122.801466 913.634769,122.801466 C923.02361,122.801466 930.634769,115.190307 930.634769,105.801466 C930.634769,96.4126257 923.02361,88.8014664 913.634769,88.8014664 Z M913.634769,92.8014664 C920.814471,92.8014664 926.634769,98.6217647 926.634769,105.801466 C926.634769,112.981168 920.814471,118.801466 913.634769,118.801466 C906.455068,118.801466 900.634769,112.981168 900.634769,105.801466 C900.634769,98.6217647 906.455068,92.8014664 913.634769,92.8014664 Z" fill="#F0DECF" fill-rule="nonzero"></path>
            <path d="M976.089315,90.6196482 L944.816588,90.6196482 L944.816588,121.892375 L976.089315,121.892375 L976.089315,90.6196482 Z M972.088552,94.6194664 L972.088552,117.891466 L948.816552,117.891466 L948.816552,94.6194664 L972.088552,94.6194664 Z" fill="#F0DECF" fill-rule="nonzero"></path>
            <polygon fill="#4F6EBB" points="1179.20872 755.304583 1032.06821 827.982585 1082.41266 584.56127"></polygon>
            <polygon fill="#4757A4" points="1172.40295 755.556279 1076.53471 755.556279 1037.44386 768.74615 1046.74767 812.216763"></polygon>
            <polygon fill="#324F93" points="1076.53471 778.377973 1032.06821 773.546764 1072.24923 645.336236"></polygon>
            <path d="M1069.81579,573.838069 C1069.81579,563.423635 1076.53203,557.989078 1080.72597,564.866659 L1080.85228,565.078847 L1190.21182,753.249666 C1193.97177,759.719278 1192.36436,771.20564 1187.42013,773.61428 L1187.26773,773.685163 L1034.37847,841.462197 C1030.86105,843.021497 1027.32013,839.057914 1026.46961,832.609286 C1025.63217,826.259867 1027.71522,819.868684 1031.13708,818.1851 L1031.29845,818.109649 L1172.40295,755.556279 L1082.92014,601.586542 L1082.92058,766.369002 C1082.92058,772.901406 1080.07655,778.215994 1076.53471,778.377973 L1076.36819,778.381777 C1072.80507,778.381777 1069.90622,773.167688 1069.81786,766.674302 L1069.81579,766.369002 L1069.81579,573.838069 Z" fill="#6F97F8" fill-rule="nonzero"></path>
            <path d="M387.795194,280.619033 C694.729869,273.431241 924.930876,268.040397 1078.39821,264.446501 C1084.51919,264.30316 1093.70066,267.089684 1105.94262,272.806074 C1118.45646,278.933597 1124.22936,285.957011 1123.26132,293.876317 L1123.20226,294.324119 L1046.89431,821.36453 C1045.21322,833.101703 1034.9459,842.210291 1023.9616,841.71272 C1023.66396,841.699249 1023.36739,841.678656 1023.0721,841.650956 L304.474534,778.060936 C293.790478,777.173084 286.742197,767.853544 288.573983,757.032051 L365.332068,300.596832 C367.150622,289.712422 377.072365,280.889083 387.795194,280.619033 Z" fill="#506D7C" fill-rule="nonzero"></path>
            <path d="M357.795194,280.619033 L1075.94262,263.801466 C1086.95953,263.562623 1094.71337,272.997358 1093.26132,284.876317 L1093.20226,285.324119 L1016.89431,821.36453 C1015.21322,833.101703 1004.9459,842.210291 993.961601,841.71272 C993.663964,841.699249 993.367388,841.678656 993.072095,841.650956 L274.474534,778.060936 C263.790478,777.173084 256.742197,767.853544 258.573983,757.032051 L335.332068,300.596832 C337.150622,289.712422 347.072365,280.889083 357.795194,280.619033 Z" fill="#607D8C" fill-rule="nonzero"></path>
            <polygon fill="#E9F0F6" fill-rule="nonzero" points="359.310004 305.863114 287.484888 723.377082 996.125396 782.872989 1067.56401 290.753819"></polygon>
            <path d="M478.284552,280.801466 L510.351053,477.781398 C512.01262,487.988169 505.619254,497.778489 495.605817,500.36114 L292.284552,552.801466 L299.284552,525.801466 L423.284552,280.801466 L478.284552,280.801466 Z" fill="#506D7C"></path>
            <path d="M481.937888,303.246466 L510.351053,477.781398 C512.01262,487.988169 505.619254,497.778489 495.605817,500.36114 L317.968888,546.176466 L332.899888,459.383466 L411.159888,304.756466 L481.937888,303.246466 Z" fill="#D6E2EC" fill-rule="nonzero"></path>
            <path d="M1080.92018,601.574504 C1080.93212,599.58995 1083.48951,598.858222 1084.56738,600.450996 L1084.64933,600.58159 L1174.13213,754.551327 C1174.70209,755.532034 1174.34075,756.778379 1173.36213,757.311408 L1173.22488,757.37958 L1074.00866,802.105549 C1073.00168,802.55949 1071.81737,802.111161 1071.36343,801.104179 C1070.93111,800.145149 1071.31717,799.025276 1072.22478,798.528665 L1072.3648,798.458946 L1169.55955,754.643466 L1084.87555,608.931466 L1083.96902,759.60526 C1083.96267,760.659602 1083.14161,761.518479 1082.10631,761.588598 L1081.95702,761.593185 C1080.90267,761.586839 1080.0438,760.765776 1079.97368,759.730475 L1079.96909,759.581183 L1080.92018,601.574504 Z" fill="#324F93" fill-rule="nonzero"></path>
            <path d="M186.15737,476.090185 L279.137249,552.58543 C320.73441,535.964909 364.592484,491.388049 410.711469,418.85485 C456.830454,346.32165 479.431531,299.392396 478.5147,278.067087 L410.711469,213.023395 L186.15737,476.090185 Z" fill="#585F74"></path>
            <polygon fill="#4F576C" points="412.60937 214.844395 446.75137 247.596395 439.338448 324.342675 237.07137 517.977395 186.15737 476.090185 401.28437 224.067395"></polygon>
            <path d="M17.7169724,617.923633 L415.962637,310.028109 C419.611947,307.20672 422.173816,303.210618 423.21428,298.716719 L490.956843,6.12785809 C491.579713,3.43759915 489.903764,0.751776883 487.213505,0.12890616 C485.700828,-0.221321163 484.111286,0.151076956 482.911586,1.13676017 L125.174285,295.056691 C122.359208,297.369582 120.229397,300.407505 119.014809,303.842457 L9.94475776,612.301129 C9.02418234,614.904588 10.3884295,617.761383 12.9918891,618.681958 C14.5934715,619.248273 16.3730324,618.968028 17.7169724,617.923633 Z" fill="#697084"></path>
            <path d="M232.433475,318.842675 C237.694694,321.880241 247.556195,314.649355 254.459754,302.692039 C261.363314,290.734724 262.694694,278.57897 257.433475,275.541404 C252.172256,272.503838 242.310755,279.734724 235.407195,291.692039 C228.503636,303.649355 227.172256,315.805108 232.433475,318.842675 Z" fill="#585F74"></path>
            <path d="M229.103348,315.342675 C234.364567,318.380241 244.226068,311.149355 251.129627,299.192039 C258.033187,287.234724 259.364567,275.07897 254.103348,272.041404 C248.842129,269.003838 238.980628,276.234724 232.077068,288.192039 C225.173509,300.149355 223.842129,312.305108 229.103348,315.342675 Z" fill="#697084"></path>
            <path d="M226.233939,313.338555 C227.340784,311.753824 229.522737,311.366421 231.107467,312.473266 C232.637552,313.541944 233.05146,315.612863 232.081939,317.180795 L231.972756,317.346794 L22.1943477,617.697039 L22.1947198,636.837998 C22.1947198,638.706562 20.7304422,640.233125 18.886755,640.332819 L18.6947198,640.337998 C16.8261564,640.337998 15.2995933,638.873721 15.1998986,637.030033 L15.1947198,636.837998 L15.1947198,616.596294 C15.1947198,615.959091 15.3686394,615.335546 15.6955776,614.792088 L15.8253114,614.592174 L226.233939,313.338555 Z" fill="#585F74" fill-rule="nonzero"></path>
            <path d="M11.6042127,653.020985 C2.82608685,695.055777 0.249004431,720.533678 3.87296543,729.454688 C9.30890693,742.836204 46.9331361,736.13651 42.974174,723.735437 C40.3348659,715.468056 34.8871837,691.490066 26.6311274,651.801466 L11.6042127,653.020985 Z" fill="#697084"></path>
            <circle fill="#697084" cx="19.6033477" cy="651.692039" r="15"></circle>
            <path d="M9.22632329,661.884948 C9.55098139,660.829168 10.6700474,660.236477 11.7258271,660.561135 C12.7816069,660.885793 13.3742981,662.004859 13.04964,663.060639 C4.00511212,692.47321 1.75085356,717.531891 6.23913792,738.232773 C6.47318828,739.312261 5.78782571,740.377094 4.70833778,740.611144 C3.62884984,740.845195 2.56401665,740.159832 2.32996629,739.080344 C-2.31965541,717.635342 -0.00496094366,691.904846 9.22632329,661.884948 Z" fill="#585F74" fill-rule="nonzero"></path>
            <path d="M12.6379298,679.808975 C13.7383523,679.713351 14.7079401,680.5279 14.8035647,681.628323 L14.9737035,683.632547 C16.9253812,707.188087 16.6889052,725.024369 14.2395468,737.196026 C14.0216376,738.278888 12.9671545,738.98007 11.8842928,738.762161 C10.8014312,738.544252 10.1002487,737.489769 10.3181579,736.406907 C12.7460468,724.341938 12.9218142,706.178046 10.8185823,681.97461 C10.7229577,680.874188 11.5375073,679.9046 12.6379298,679.808975 Z" fill="#585F74" fill-rule="nonzero"></path>
            <path d="M20.6402189,665.80286 C21.7440186,665.844092 22.6054002,666.772323 22.5641685,667.876123 L22.492341,669.927251 C21.7497659,692.67065 23.0001222,710.024493 26.2155247,721.943794 C26.5032141,723.01024 25.8719064,724.107985 24.8054597,724.395674 C23.739013,724.683363 22.6412688,724.052056 22.3535795,722.985609 C18.91802,710.2502 17.6659648,691.84698 18.5669563,667.72681 C18.6081879,666.62301 19.5364192,665.761629 20.6402189,665.80286 Z" fill="#585F74" fill-rule="nonzero"></path>
            <path d="M27.8765823,693.843518 C28.9579272,693.618203 30.0171847,694.312152 30.2425002,695.393497 C34.3529842,715.120727 34.3529842,730.155167 30.1380514,740.552825 C29.7230872,741.576485 28.5568524,742.06993 27.533193,741.654966 C26.5095336,741.240002 26.0160887,740.073767 26.4310528,739.050107 C30.2901333,729.530288 30.2901333,715.231394 26.326604,696.209436 C26.1012885,695.128091 26.7952374,694.068834 27.8765823,693.843518 Z" fill="#585F74" fill-rule="nonzero"></path>
            <path d="M29.0084075,661.820622 C30.1023976,661.668112 31.112886,662.431332 31.2653964,663.525322 L31.9393269,668.278268 C36.2047983,697.845893 40.4167416,717.257915 44.5078132,726.364504 C44.9604551,727.372069 44.5106004,728.555802 43.5030345,729.008444 C42.4954686,729.461086 41.3117362,729.011231 40.8590943,728.003665 L40.5882309,727.387231 C36.16455,717.099235 31.7610181,696.050854 27.3037078,664.077611 C27.1511974,662.983621 27.9144174,661.973133 29.0084075,661.820622 Z" fill="#585F74" fill-rule="nonzero"></path>
            <path d="M901.312092,926.684771 C907.445862,943.554307 922.398845,953.426481 946.171043,956.301293 C981.82934,960.613512 1005.13558,970.349988 1014.92733,998.388848 L974.270249,1006.68477 C969.417889,996.212377 957.064566,988.031959 937.210279,982.143516 C907.428848,973.310852 873.040004,963.606726 860.284552,935.795013 L901.312092,926.684771 Z" fill="#D12F38"></path>
            <path d="M853.120366,945.722241 C849.90469,978.018659 859.425775,1002.64745 881.683618,1019.60862 L926.284552,1009.2373 C911.005324,995.412172 904.282293,981.604605 906.11546,967.814601 C907.948627,954.024597 912.178405,942.020219 918.804793,931.801466 L853.120366,945.722241 Z" fill="#E9525B"></path>
            <path d="M918.771819,931.852362 C917.568343,933.711586 916.444111,935.629851 915.399122,937.607158 L852.511465,957.607485 C852.511465,954.194938 852.671105,950.685496 852.992353,947.07916 L853.120366,945.722241 L918.519207,931.863103 L918.771819,931.852362 Z" fill="#D12F38"></path>
            <path d="M478.370524,848.583235 C699.683354,844.21422 827.980388,839.976853 863.261627,835.871134 C916.183486,829.712555 1229.25472,765.667724 1247.30396,768.921266 C1265.35321,772.174809 1289.52447,843.084981 1268.19975,911.131549 L1103.92631,908.933275 L788.032895,926.139276 L490.327538,987.87129 L478.370524,848.583235 Z" fill="#FDEFE3"></path>
            <path d="M1276.45893,861.024822 L876.263524,921.332874 L788.032895,926.139276 L638.186524,957.210874 L515.465428,975.705043 L485.597524,932.760874 L485.051524,926.400874 L895.782252,894.801466 L1275.58702,835.712874 C1276.38524,843.771057 1276.71774,852.265565 1276.45893,861.024822 Z" fill="#F0DECF"></path>
            <path d="M471.211657,1009.88624 C476.178583,1018.25316 483.231539,1021.50109 492.370524,1019.63004 L517.956177,1013.48229 C557.669355,1003.97419 587.978055,996.892894 608.882276,992.238412 C847.055036,939.207447 1043.15551,914.746681 1197.1837,918.856113 L1199.77925,918.931381 C1212.18677,919.318592 1228.72404,920.209249 1249.39105,921.603353 L1256.17624,922.068798 C1259.61602,922.30852 1262.96916,920.921434 1265.23437,918.321749 C1270.87356,911.849872 1274.86061,906.63757 1277.19551,902.684844 C1285.75417,888.195984 1290.23508,871.429984 1290.63824,852.386845 L500.926265,939.506682 L499.457511,941.801737 C475.759355,978.991821 466.34407,1001.68665 471.211657,1009.88624 Z" fill="#FDEFE3"></path>
            <path d="M1290.41893,850.398906 C1291.62001,850.266404 1292.66337,851.221083 1292.63825,852.429177 C1292.22759,871.80529 1287.65688,888.907279 1278.91752,903.702044 C1278.35573,904.653081 1277.12935,904.968634 1276.17831,904.40685 C1275.22727,903.845066 1274.91172,902.618681 1275.4735,901.667644 C1283.42547,888.205855 1287.78572,872.719717 1288.54728,855.180925 L1288.56855,854.626466 L501.145571,941.494622 C500.097567,941.610236 499.149509,940.893997 498.960145,939.873749 L498.938325,939.725988 C498.822711,938.677984 499.53895,937.729926 500.559197,937.540562 L500.706958,937.518742 L1290.41893,850.398906 Z" fill="#D8C0AC" fill-rule="nonzero"></path>
            <path d="M501.370524,938.886845 C501.370524,985.002622 491.053828,1019.45726 478.327538,1015.84343 C465.601248,1012.2296 455.284552,971.915783 455.284552,925.800007 C455.284552,879.68423 465.561024,848.843426 478.327538,848.843426 C490.327538,848.843426 501.370524,892.414282 501.370524,938.886845 Z" fill="#F0DECF"></path>
            <path d="M453.284552,925.800007 C453.284552,878.196888 463.921273,842.673467 478.873869,846.919492 C479.936429,847.221223 480.553202,848.327198 480.251472,849.389758 C479.963456,850.404019 478.942648,851.012099 477.926291,850.802856 L477.781207,850.76736 C467.281223,847.785724 457.284552,881.171573 457.284552,925.800007 C457.284552,970.953904 467.449672,1010.67541 478.873869,1013.91949 C489.373853,1016.90113 499.370524,983.515279 499.370524,938.886845 C499.370524,937.782276 500.265954,936.886845 501.370524,936.886845 C502.475093,936.886845 503.370524,937.782276 503.370524,938.886845 C503.370524,986.489965 492.733803,1022.01339 477.781207,1017.76736 C463.752825,1013.78378 453.284552,972.877663 453.284552,925.800007 Z" fill="#D8C0AC" fill-rule="nonzero"></path>
            <path d="M461.327538,928.124899 C461.327538,896.919732 468.368061,873.632627 478.869003,876.585861 C488.456807,879.282289 495.327538,905.872377 495.327538,936.561953 C495.327538,967.76712 488.287015,991.054225 477.786073,988.100991 C476.722754,987.801948 476.103186,986.697536 476.402229,985.634217 C476.687678,984.619231 477.706947,984.008571 478.723829,984.215243 L478.869003,984.250372 C481.396018,984.961058 484.511867,981.107667 487.019722,972.812731 C489.696397,963.959412 491.262755,951.376961 491.325573,937.43507 L491.327538,936.561953 C491.327538,907.790062 484.766812,882.399709 477.786073,880.43648 C475.259058,879.725794 472.143209,883.579185 469.635354,891.874121 C466.902915,900.911885 465.327538,913.835778 465.327538,928.124899 C465.327538,929.229468 464.432107,930.124899 463.327538,930.124899 C462.222968,930.124899 461.327538,929.229468 461.327538,928.124899 Z" fill="#D8C0AC" fill-rule="nonzero"></path>
            <path d="M480.62095,899.521821 C481.645009,899.107843 482.810768,899.602411 483.224746,900.626469 C483.638724,901.650528 483.144156,902.816287 482.120098,903.230265 C481.452062,903.50032 480.076581,907.057544 479.096331,912.51056 C478.000634,918.605792 477.370524,926.545576 477.370524,934.753334 C477.370524,942.945605 477.998611,950.352088 479.085059,955.51747 L479.257526,956.301128 C479.724948,958.330517 480.250162,959.872167 480.778177,960.810801 C480.859748,960.955805 480.936026,961.076796 481.003587,961.174047 L481.095552,961.298466 L481.215375,961.285084 C482.01204,961.222899 482.792169,961.646212 483.160588,962.387371 L483.224746,962.530022 C483.638724,963.55408 483.144156,964.719839 482.120098,965.133818 C480.136259,965.935789 478.456065,964.841385 477.291929,962.771941 C476.460614,961.294143 475.755908,959.123049 475.170707,956.340786 C474.057163,951.046576 473.411681,943.679877 473.372426,935.543122 L473.370524,934.753334 C473.370524,916.571069 476.107345,901.346457 480.62095,899.521821 Z" fill="#D8C0AC" fill-rule="nonzero"></path>
            <path d="M914.34717,824.885072 L909.493284,825.915514 C891.726233,829.658718 877.92571,832.239531 868.102732,833.656971 C857.434198,835.196424 846.704009,836.049133 835.911641,836.215128 C834.030215,836.244066 833.226246,838.618767 834.703147,839.784686 C854.099106,855.096549 864.622518,872.562231 866.396444,892.244915 C868.181114,912.046823 863.78,929.366561 853.191599,944.292754 C852.169765,945.733206 853.380058,947.694351 855.125764,947.426855 L915.068321,938.241827 C915.670975,938.149482 916.198595,937.787287 916.501362,937.258088 C928.859193,915.658153 935.061328,896.020972 935.061328,878.336378 C935.061328,860.595686 928.820741,843.031002 916.391393,825.676323 C915.928065,825.029394 915.125309,824.718674 914.34717,824.885072 Z" fill="#E9525B"></path>
            <path d="M614.66485,397.068764 L780.178692,393.808294 C801.273485,393.392746 815.385734,411.999232 811.699283,435.367043 L782.774668,618.715429 C779.088216,642.08324 758.999048,659.522025 737.904255,657.666045 L572.390412,643.103662 C551.295619,641.247682 537.18337,622.641196 540.869821,601.544913 L569.794436,436.01938 C573.480888,414.923096 593.570056,397.484312 614.66485,397.068764 Z" fill="#6F97F8"></path>
            <path d="M804.284552,482.801466 L782.852136,618.763974 C779.173064,642.102762 759.124111,659.519888 738.071546,657.666213 L572.908074,643.123593 C567.929625,642.685242 563.340869,641.299241 559.284552,639.161372 L804.284552,482.801466 Z" fill="#6088E8"></path>
            <path d="M742.410233,447.04317 C752.730181,447.066305 759.673031,456.093516 758.049039,467.276752 L757.9972,467.616293 L748.914668,524.334316 C741.91503,568.045209 703.664408,601.318262 663.479512,598.651759 C623.696464,596.011922 596.932015,561.199956 603.192446,520.630717 L603.392285,519.399645 L612.474817,466.06525 C614.290563,455.402839 624.212991,446.778192 634.63718,446.801514 C644.957128,446.824697 651.899978,455.453873 650.275986,466.143059 L650.224147,466.467599 L641.141615,520.679727 C637.773468,540.783632 650.718391,557.857352 670.054908,558.814947 C689.19806,559.762965 707.428983,544.082591 711.059796,523.674116 L711.165338,523.054234 L720.24787,467.213944 C722.063616,456.050564 731.986044,447.0198 742.410233,447.04317 Z M688.564794,446.922411 C698.884742,446.945593 705.827592,455.773938 704.203601,466.710337 L704.151761,467.042384 L694.758338,524.406993 C692.942592,535.495552 683.020164,544.120199 672.595975,543.670682 C662.276027,543.225659 655.333177,534.192676 656.957168,523.423721 L657.009008,523.096867 L666.402431,466.640035 L666.459328,466.313295 C668.416676,455.551901 678.244847,446.899322 688.564794,446.922411 Z" fill="#FFFFFF" fill-rule="nonzero"></path>
            <path d="M750.284552,519.801466 L749.550437,524.356625 C742.507971,568.04551 704.133213,601.309056 663.838017,598.652833 C654.522166,598.038741 645.919244,595.629065 638.284552,591.78501 L750.284552,519.801466 Z" fill="#E9F4F7"></path>
            <path d="M549.138828,687.788775 C549.974957,687.876146 550.688571,687.658291 551.279668,687.134855 C551.870765,686.610946 552.217707,685.762241 552.320494,684.589095 L553.108339,675.597118 L561.1436,665.325299 C561.81326,664.482038 562.292319,663.817684 562.580778,663.332692 C562.869236,662.847514 563.035492,662.35182 563.079543,661.845746 C563.13376,661.222887 562.940292,660.654551 562.499137,660.140994 C562.057982,659.62778 561.477225,659.341618 560.756868,659.282254 C560.29378,659.244092 559.894101,659.295892 559.557828,659.437593 C559.221556,659.579213 558.907732,659.797522 558.616356,660.092487 C558.32498,660.387326 558.054139,660.706544 557.803832,661.050146 C557.553525,661.393629 557.244422,661.816627 556.876524,662.319038 L550.777766,670.452522 L546.244812,661.416247 C545.550751,660.028444 545.020604,659.097454 544.654371,658.622265 C544.288138,658.147348 543.712684,657.877658 542.928008,657.812994 C542.181923,657.75151 541.53393,657.935987 540.984028,658.366153 C540.434126,658.795953 540.130372,659.335914 540.072766,659.98631 C540.037751,660.381649 540.121942,660.857774 540.325341,661.414841 C540.52874,661.972111 540.890375,662.755409 541.410247,663.765239 L547.377634,675.052222 L546.589789,684.005377 C546.485873,685.186295 546.672485,686.089627 547.149626,686.715715 C547.626767,687.342259 548.289834,687.700059 549.138828,687.788775 Z M577.234811,690.72466 C579.403335,690.95126 581.357927,690.796554 583.098587,690.259222 C584.839247,689.720128 586.343785,688.834902 587.6122,687.603151 C588.880615,686.369116 589.881625,684.858931 590.615231,683.073143 C591.348837,681.285798 591.81165,679.263795 592.003669,677.008301 C592.26346,673.956751 591.963185,671.252928 591.102845,668.899449 C590.242504,666.549457 588.839853,664.676812 586.894892,663.281662 C584.94993,661.890195 582.54848,661.078082 579.690541,660.842562 C577.584691,660.66902 575.674818,660.857866 573.960922,661.407832 C572.247026,661.956111 570.757565,662.827247 569.492538,664.020844 C568.227512,665.212222 567.211398,666.698608 566.444196,668.480416 C565.676994,670.260558 565.197948,672.248959 565.007058,674.446868 C564.820686,676.592756 564.938738,678.617201 565.361214,680.521409 C565.783691,682.427226 566.508222,684.095642 567.534808,685.527131 C568.561395,686.960858 569.895711,688.128773 571.537758,689.030575 C573.179805,689.934216 575.078822,690.49937 577.234811,690.72466 Z M577.139677,685.520009 C576.001387,685.405398 574.974488,685.08349 574.058979,684.554744 C573.14347,684.026609 572.35562,683.290442 571.695431,682.346498 C571.035242,681.403505 570.560833,680.251991 570.272203,678.891837 C569.983574,677.532474 569.909957,676.036032 570.051353,674.401918 C570.191618,672.780878 570.519464,671.338254 571.034893,670.073464 C571.550322,668.807894 572.192755,667.786773 572.962192,667.010036 C573.73163,666.23243 574.618109,665.665446 575.621631,665.309261 C576.625152,664.952447 577.696058,664.82244 578.834347,664.919713 C580.433068,665.056333 581.815317,665.576046 582.981094,666.479942 C584.146871,667.38529 584.995555,668.647042 585.527145,670.265254 C586.058735,671.884992 586.233471,673.76033 586.051353,675.890124 C585.85453,678.191888 585.327502,680.095136 584.470272,681.598611 C583.613041,683.100413 582.541475,684.166455 581.255576,684.796975 C579.969677,685.426141 578.59771,685.666814 577.139677,685.520009 Z M607.635717,693.901398 C609.4016,694.085923 610.96284,694.018169 612.319438,693.697483 C613.676036,693.375925 614.893559,692.766773 615.972008,691.869606 C617.226805,690.811668 618.127451,689.525095 618.673946,688.010655 C619.220441,686.495283 619.590827,684.572847 619.785106,682.244044 L620.97958,667.925966 C621.082367,666.693867 620.90085,665.755018 620.435028,665.109755 C619.969207,664.464938 619.319697,664.108365 618.486499,664.039702 C617.6533,663.971039 616.962854,664.216537 616.415158,664.775875 C615.867462,665.334783 615.542221,666.227677 615.439434,667.45488 L614.207685,682.161086 C613.995334,684.696406 613.38923,686.543545 612.389371,687.701297 C611.389513,688.857441 609.80767,689.325574 607.643842,689.106905 C606.076932,688.948558 604.883921,688.520525 604.064809,687.823383 C603.245697,687.127009 602.711741,686.210204 602.462943,685.0728 C602.214145,683.935945 602.159211,682.545469 602.298143,680.900962 L603.519726,666.44133 C603.621383,665.238032 603.445802,664.314531 602.992981,663.671156 C602.54016,663.028222 601.884714,662.671564 601.026645,662.600851 C600.205882,662.533213 599.518262,662.77853 598.963784,663.336472 C598.409305,663.893974 598.081237,664.771788 597.97958,665.970244 L596.785106,680.052094 C596.597604,682.262579 596.660209,684.185466 596.972919,685.821536 C597.285629,687.458645 597.877558,688.836063 598.748705,689.954078 C599.619852,691.073516 600.793396,691.956131 602.269335,692.601664 C603.745274,693.248273 605.534068,693.681786 607.635717,693.901398 Z M646.020107,697.912368 C646.547976,697.967528 647.022152,697.904237 647.442634,697.722401 C647.863116,697.540439 648.205415,697.268097 648.469531,696.905377 C648.733647,696.54253 648.881784,696.16418 648.913941,695.77042 C648.944989,695.390239 648.803868,694.674173 648.490576,693.622645 C648.177285,692.571678 647.71687,691.38351 647.10933,690.058657 C646.501791,688.735057 645.791025,687.47434 644.977034,686.276627 C644.163043,685.080329 643.282885,684.151585 642.336561,683.489931 C644.744866,683.158943 646.584637,682.383714 647.855874,681.164002 C649.127111,679.942117 649.853656,678.217355 650.03551,675.991345 C650.124219,674.905487 650.035401,673.862202 649.769056,672.861845 C649.502712,671.861959 649.066419,670.96751 648.460177,670.178658 C647.853935,669.390493 647.133287,668.763826 646.29823,668.298501 C645.610667,667.886826 644.825424,667.586456 643.942499,667.397232 C643.059575,667.208153 641.989697,667.061402 640.732867,666.956871 L631.627129,666.19954 C630.420572,666.09919 629.523234,666.314028 628.935116,666.843721 C628.346997,667.372971 627.999713,668.278643 627.893262,669.561069 L626.017065,692.163833 C625.918376,693.352749 626.08861,694.279796 626.527766,694.945297 C626.966923,695.611227 627.632676,695.990977 628.525025,696.084223 C629.354533,696.170902 630.051333,695.946371 630.615423,695.410306 C631.179514,694.873808 631.513121,693.98174 631.616246,692.734424 L632.399658,683.258851 L634.360313,683.445446 C635.353209,683.53994 636.16479,683.759491 636.795056,684.104294 C637.425322,684.449358 638.026202,685.03618 638.597696,685.865079 C639.16919,686.694669 639.79669,687.883859 640.480196,689.433387 L642.394306,693.669244 C642.844554,694.669353 643.203681,695.428924 643.471685,695.947586 C643.73969,696.466459 644.074324,696.907171 644.475588,697.269707 C644.876852,697.632434 645.391692,697.846702 646.020107,697.912368 Z M632.133136,679.179943 L632.8417,670.61333 L637.898747,671.049333 C639.781297,671.211641 641.029589,671.477171 641.643623,671.846137 C642.293397,672.232856 642.781748,672.774745 643.108675,673.471838 C643.435602,674.169287 643.563315,674.953755 643.491814,675.824974 C643.400386,676.938991 643.091735,677.792314 642.565861,678.384624 C642.039987,678.976509 641.317102,679.363024 640.397207,679.544235 C639.477312,679.725111 638.359087,679.754658 637.042532,679.633127 L632.133136,679.179943 Z M679.961068,700.341505 C680.889821,700.437848 681.614501,700.278428 682.135109,699.863014 C682.655716,699.44729 682.945959,698.863957 683.005838,698.113245 C683.064608,697.376434 682.868487,696.739988 682.417475,696.20415 C681.966464,695.668639 681.282942,695.355093 680.366912,695.263267 L668.878362,694.111613 L670.653098,672.080044 C670.754005,670.827389 670.565135,669.872746 670.08649,669.216449 C669.607844,668.5606 668.942313,668.197721 668.089896,668.127474 C667.250201,668.058275 666.547771,668.311227 665.982605,668.885998 C665.417439,669.460327 665.084957,670.364338 664.985159,671.598362 L663.107299,694.818598 C663.000848,696.134891 663.194138,697.1156 663.68717,697.761058 C664.180201,698.40696 665.043765,698.794085 666.277862,698.922102 L679.961068,700.341505 Z M699.234811,703.47303 C701.403335,703.69963 703.357927,703.512932 705.098587,702.911616 C706.839247,702.308537 708.343785,701.330889 709.6122,699.978279 C710.880615,698.623384 711.881625,696.970418 712.615231,695.019929 C713.348837,693.067883 713.81165,690.862813 714.003669,688.405887 C714.26346,685.08181 713.963185,682.140712 713.102845,679.585207 C712.242504,677.03319 710.839853,675.004731 708.894892,673.499978 C706.94993,671.998908 704.54848,671.131993 701.690541,670.896473 C699.584691,670.722932 697.674818,670.94288 695.960922,671.555054 C694.247026,672.16554 692.757565,673.126432 691.492538,674.437334 C690.227512,675.746017 689.211398,677.374591 688.444196,679.323469 C687.676994,681.270682 687.197948,683.442743 687.007058,685.8409 C686.820686,688.182295 686.938738,690.388622 687.361214,692.461087 C687.783691,694.535159 688.508222,696.34754 689.534808,697.898704 C690.561395,699.452105 691.895711,700.712738 693.537758,701.680303 C695.179805,702.649705 697.078822,703.247741 699.234811,703.47303 Z M699.139677,697.803817 C698.001387,697.689206 696.974488,697.347719 696.058979,696.779814 C695.14347,696.212521 694.35562,695.41732 693.695431,694.394466 C693.035242,693.372563 692.560833,692.121669 692.272203,690.641666 C691.983574,689.162454 691.909957,687.531925 692.051353,685.749483 C692.191618,683.981301 692.519464,682.406073 693.034893,681.023214 C693.550322,679.639575 694.192755,678.521448 694.962192,677.668767 C695.73163,676.815218 696.618109,676.190386 697.621631,675.794449 C698.625152,675.397883 699.696058,675.248001 700.834347,675.345274 C702.433068,675.481893 703.815317,676.037502 704.981094,677.013188 C706.146871,677.990327 706.995555,679.357985 707.527145,681.116218 C708.058735,682.875977 708.233471,684.916849 708.051353,687.237689 C707.85453,689.745925 707.327502,691.823012 706.470272,693.467695 C705.613041,695.110705 704.541475,696.28117 703.255576,696.979327 C701.969677,697.676131 700.59771,697.950622 699.139677,697.803817 Z M730.152035,706.703721 C732.017653,706.898668 733.760379,706.836991 735.380212,706.517927 C737.000045,706.19785 738.706236,705.596691 740.498784,704.713416 C741.118874,704.405926 741.633946,704.072591 742.044,703.713478 C742.454054,703.354165 742.748765,702.934703 742.928134,702.455171 C743.107503,701.975546 743.228814,701.322871 743.292067,700.497214 L743.768163,694.28267 C743.854007,693.162136 743.747911,692.305683 743.449875,691.713501 C743.151839,691.121571 742.732408,690.718888 742.19158,690.505351 C741.650753,690.291932 740.981482,690.148209 740.18377,690.074091 L733.679838,689.469791 C732.894992,689.396869 732.256119,689.573259 731.763219,689.998747 C731.27032,690.423952 730.996197,690.994596 730.94085,691.710893 C730.873078,692.58799 731.098483,693.235393 731.617064,693.6533 C732.135645,694.071474 732.928888,694.332006 733.996794,694.434697 L738.435679,694.861548 L738.032438,700.10691 C736.779392,700.721761 735.55542,701.168364 734.360519,701.447135 C733.165619,701.725294 731.905553,701.797125 730.58032,701.663086 C727.852658,701.387199 725.804998,700.159182 724.437342,697.982122 C723.069686,695.809179 722.531566,692.848841 722.822984,689.09802 C722.957398,687.36799 723.276163,685.80849 723.77928,684.41896 C724.282397,683.028682 724.941984,681.874924 725.758041,680.957519 C726.574098,680.039143 727.523262,679.366086 728.605533,678.938534 C729.687804,678.510263 730.891556,678.352675 732.216788,678.466307 C733.503422,678.57663 734.544735,678.887023 735.340727,679.397849 C736.13672,679.909158 736.754327,680.508822 737.193549,681.196791 C737.63277,681.885177 738.157636,682.891926 738.768145,684.21761 C738.994974,684.637201 739.289696,684.974245 739.65231,685.228723 C740.014924,685.483312 740.402092,685.629173 740.813815,685.666221 C741.560062,685.733372 742.22247,685.500202 742.801039,684.966405 C743.379608,684.432198 743.70052,683.752348 743.763773,682.927163 C743.822508,682.16092 743.658121,681.264028 743.270612,680.236938 C742.883102,679.210451 742.266478,678.216944 741.42074,677.256762 C740.575002,676.297645 739.44106,675.467112 738.018914,674.765209 C736.596769,674.064432 734.933587,673.636003 733.02937,673.479078 C730.71343,673.288223 728.6123,673.500298 726.725981,674.113905 C724.839661,674.725649 723.203707,675.696682 721.818116,677.026564 C720.432526,678.353996 719.331443,680.017636 718.514868,682.017962 C717.698292,684.016479 717.19343,686.253239 717.000281,688.7296 C716.803743,691.249407 716.963584,693.562916 717.479803,695.671515 C717.996022,697.781965 718.828671,699.619107 719.977748,701.183373 C721.126826,702.750064 722.566207,704.004619 724.295892,704.946576 C726.025577,705.89034 727.977624,706.476506 730.152035,706.703721 Z M761.234811,709.95171 C763.403335,710.17831 765.357927,709.975354 767.098587,709.341521 C768.839247,708.705926 770.343785,707.681309 771.6122,706.267278 C772.880615,704.850962 773.881625,703.125437 774.615231,701.091247 C775.348837,699.055501 775.81165,696.757397 776.003669,694.198103 C776.26346,690.735529 775.963185,687.673848 775.102845,685.015675 C774.242504,682.360989 772.839853,680.253346 770.894892,678.692893 C768.94993,677.136122 766.54848,676.241358 763.690541,676.005838 C761.584691,675.832296 759.674818,676.068052 757.960922,676.711839 C756.247026,677.353938 754.757565,678.360445 753.492538,679.73096 C752.227512,681.099258 751.211398,682.800091 750.444196,684.833874 C749.676994,686.865991 749.197948,689.131387 749.007058,691.631309 C748.820686,694.072061 748.938738,696.37082 749.361214,698.528791 C749.783691,700.68837 750.508222,702.573914 751.534808,704.185896 C752.561395,705.800116 753.895711,707.107868 755.537758,708.108853 C757.179805,709.111675 759.078822,709.726421 761.234811,709.95171 Z M761.139677,704.046408 C760.001387,703.931797 758.974488,703.58036 758.058979,702.992555 C757.14347,702.405362 756.35562,701.58016 755.695431,700.517203 C755.035242,699.455198 754.560833,698.153801 754.272203,696.612891 C753.983574,695.072772 753.909957,693.374099 754.051353,691.516279 C754.191618,689.67332 754.519464,688.030703 755.034893,686.587841 C755.550322,685.1442 756.192755,683.976775 756.962192,683.0855 C757.73163,682.193357 758.618109,681.539126 759.621631,681.122988 C760.625152,680.70622 761.696058,680.546237 762.834347,680.64351 C764.433068,680.780129 765.815317,681.353979 766.981094,682.36615 C768.146871,683.379772 768.995555,684.801251 769.527145,686.630642 C770.058735,688.46156 770.233471,690.586555 770.051353,693.004484 C769.85453,695.617649 769.327502,697.783081 768.470272,699.499525 C767.613041,701.214296 766.541475,702.437828 765.255576,703.170359 C763.969677,703.901535 762.59771,704.193213 761.139677,704.046408 Z" fill="#6088E8" fill-rule="nonzero"></path>
            <path d="M914.34717,824.885072 C915.125309,824.718674 915.928065,825.029394 916.391393,825.676323 C922.798013,834.62167 927.560394,843.622812 930.671439,852.675093 L854.873999,860.827039 C849.797709,853.408038 843.077394,846.395615 834.703147,839.784686 C833.226246,838.618767 834.030215,836.244066 835.911641,836.215128 C846.704009,836.049133 857.434198,835.196424 868.102732,833.656971 L869.170413,833.500651 C877.83362,832.214476 889.418816,830.073605 903.919062,827.078654 L909.493284,825.915514 L914.34717,824.885072 Z" fill="#F1676F"></path>
            <path d="M960.571582,185.63599 L941.945923,223.391946 L900.365662,229.437326 C898.415343,229.720862 896.613389,230.646046 895.241392,232.068301 L895.061087,232.260701 C891.817119,235.824328 891.962217,241.359503 895.433823,244.745125 L925.49256,274.059068 L918.390126,315.492943 C918.057676,317.432212 918.369078,319.42759 919.276293,321.171276 L919.395012,321.392025 C921.741196,325.614763 927.020362,327.215504 931.309712,324.959364 L968.55866,305.36625 L1005.80881,324.959364 C1007.54302,325.871536 1009.52756,326.184638 1011.45629,325.850373 L1011.69365,325.805966 C1016.41466,324.857252 1019.55113,320.292189 1018.7284,315.492943 L1011.62476,274.059068 L1041.6847,244.745125 C1043.09923,243.365633 1044.01939,241.553834 1044.30138,239.592861 L1044.33275,239.352166 C1044.89484,234.54459 1041.54657,230.134231 1036.75286,229.437326 L995.171398,223.391946 L976.546942,185.63599 C975.68101,183.880567 974.266914,182.458747 972.52103,181.588084 C968.109556,179.388106 962.759606,181.200415 960.571582,185.63599 Z" fill="#F8B853" fill-rule="nonzero"></path>
            <path d="M970.634474,185.412521 C971.548984,185.868583 972.289701,186.613346 972.743285,187.532853 L991.863241,226.292932 C992.17328,226.921444 992.770699,227.356639 993.46128,227.457035 L1036.14528,233.662396 C1038.69812,234.033525 1040.46838,236.415176 1040.09927,238.981961 C1039.95156,240.009138 1039.46957,240.958175 1038.72863,241.680767 L1007.86508,271.779902 C1007.36175,272.270767 1007.13195,272.979868 1007.25106,273.674652 L1014.54429,316.218084 C1014.98243,318.773873 1013.27699,321.202872 1010.73509,321.643405 C1009.7248,321.818496 1008.68528,321.65449 1007.77689,321.176686 L969.543299,301.066337 C968.926899,300.742119 968.191625,300.742119 967.575224,301.066337 L929.341638,321.176686 C927.056097,322.378849 924.234049,321.490476 923.038418,319.192449 C922.56321,318.27909 922.400095,317.233892 922.574235,316.218084 L929.867463,273.674652 C929.98657,272.979868 929.756776,272.270767 929.253445,271.779902 L898.389898,241.680767 C896.538374,239.875101 896.493246,236.902164 898.2891,235.040526 C899.007766,234.295535 899.951646,233.810914 900.973242,233.662396 L943.657244,227.457035 C944.347824,227.356639 944.945243,226.921444 945.255282,226.292932 L964.375239,187.532853 C965.521347,185.209456 968.323702,184.260152 970.634474,185.412521 Z" fill="#FDC877" fill-rule="nonzero"></path>
            <path d="M1007.14798,240.843641 C1017.0569,240.843641 1026.67109,242.112408 1035.83863,244.497183 L1007.86508,271.779902 C1007.36175,272.270767 1007.13195,272.979868 1007.25106,273.674652 L1014.54429,316.218084 C1014.98243,318.773873 1013.27699,321.202872 1010.73509,321.643405 C1009.7248,321.818496 1008.68528,321.65449 1007.77689,321.176686 L969.543299,301.066337 C968.926899,300.742119 968.191625,300.742119 967.575224,301.066337 L929.341638,321.176686 C927.056097,322.378849 924.234049,321.490476 923.038418,319.192449 C922.56321,318.27909 922.400095,317.233892 922.574235,316.218084 L929.867463,273.674652 C929.98657,272.979868 929.756776,272.270767 929.253445,271.779902 L929.208927,271.736983 C949.617153,252.572643 977.020281,240.843641 1007.14798,240.843641 Z" fill="#F8B853" fill-rule="nonzero"></path>
            <path d="M1054.57158,304.63599 L1035.94592,342.391946 L994.365662,348.437326 C992.415343,348.720862 990.613389,349.646046 989.241392,351.068301 L989.061087,351.260701 C985.817119,354.824328 985.962217,360.359503 989.433823,363.745125 L1019.49256,393.059068 L1012.39013,434.492943 C1012.05768,436.432212 1012.36908,438.42759 1013.27629,440.171276 L1013.39501,440.392025 C1015.7412,444.614763 1021.02036,446.215504 1025.30971,443.959364 L1062.55866,424.36625 L1099.80881,443.959364 C1101.54302,444.871536 1103.52756,445.184638 1105.45629,444.850373 L1105.69365,444.805966 C1110.41466,443.857252 1113.55113,439.292189 1112.7284,434.492943 L1105.62476,393.059068 L1135.6847,363.745125 C1137.09923,362.365633 1138.01939,360.553834 1138.30138,358.592861 L1138.33275,358.352166 C1138.89484,353.54459 1135.54657,349.134231 1130.75286,348.437326 L1089.1714,342.391946 L1070.54694,304.63599 C1069.68101,302.880567 1068.26691,301.458747 1066.52103,300.588084 C1062.10956,298.388106 1056.75961,300.200415 1054.57158,304.63599 Z" fill="#F8B853" fill-rule="nonzero"></path>
            <path d="M1064.63447,304.412521 C1065.54898,304.868583 1066.2897,305.613346 1066.74328,306.532853 L1085.86324,345.292932 C1086.17328,345.921444 1086.7707,346.356639 1087.46128,346.457035 L1130.14528,352.662396 C1132.69812,353.033525 1134.46838,355.415176 1134.09927,357.981961 C1133.95156,359.009138 1133.46957,359.958175 1132.72863,360.680767 L1101.86508,390.779902 C1101.36175,391.270767 1101.13195,391.979868 1101.25106,392.674652 L1108.54429,435.218084 C1108.98243,437.773873 1107.27699,440.202872 1104.73509,440.643405 C1103.7248,440.818496 1102.68528,440.65449 1101.77689,440.176686 L1063.5433,420.066337 C1062.9269,419.742119 1062.19162,419.742119 1061.57522,420.066337 L1023.34164,440.176686 C1021.0561,441.378849 1018.23405,440.490476 1017.03842,438.192449 C1016.56321,437.27909 1016.40009,436.233892 1016.57424,435.218084 L1023.86746,392.674652 C1023.98657,391.979868 1023.75678,391.270767 1023.25345,390.779902 L992.389898,360.680767 C990.538374,358.875101 990.493246,355.902164 992.2891,354.040526 C993.007766,353.295535 993.951646,352.810914 994.973242,352.662396 L1037.65724,346.457035 C1038.34782,346.356639 1038.94524,345.921444 1039.25528,345.292932 L1058.37524,306.532853 C1059.52135,304.209456 1062.3237,303.260152 1064.63447,304.412521 Z" fill="#FDC877" fill-rule="nonzero"></path>
            <path d="M1101.14798,359.843641 C1111.0569,359.843641 1120.67109,361.112408 1129.83863,363.497183 L1101.86508,390.779902 C1101.36175,391.270767 1101.13195,391.979868 1101.25106,392.674652 L1108.54429,435.218084 C1108.98243,437.773873 1107.27699,440.202872 1104.73509,440.643405 C1103.7248,440.818496 1102.68528,440.65449 1101.77689,440.176686 L1063.5433,420.066337 C1062.9269,419.742119 1062.19162,419.742119 1061.57522,420.066337 L1023.34164,440.176686 C1021.0561,441.378849 1018.23405,440.490476 1017.03842,438.192449 C1016.56321,437.27909 1016.40009,436.233892 1016.57424,435.218084 L1023.86746,392.674652 C1023.98657,391.979868 1023.75678,391.270767 1023.25345,390.779902 L1023.20893,390.736983 C1043.61715,371.572643 1071.02028,359.843641 1101.14798,359.843641 Z" fill="#F8B853" fill-rule="nonzero"></path>
            <path d="M913.571582,349.63599 L894.945923,387.391946 L853.365662,393.437326 C851.415343,393.720862 849.613389,394.646046 848.241392,396.068301 L848.061087,396.260701 C844.817119,399.824328 844.962217,405.359503 848.433823,408.745125 L878.49256,438.059068 L871.390126,479.492943 C871.057676,481.432212 871.369078,483.42759 872.276293,485.171276 L872.395012,485.392025 C874.741196,489.614763 880.020362,491.215504 884.309712,488.959364 L921.55866,469.36625 L958.808811,488.959364 C960.543022,489.871536 962.527559,490.184638 964.456291,489.850373 L964.693651,489.805966 C969.414661,488.857252 972.551133,484.292189 971.728398,479.492943 L964.624761,438.059068 L994.6847,408.745125 C996.099227,407.365633 997.019385,405.553834 997.30138,403.592861 L997.332754,403.352166 C997.894842,398.54459 994.546568,394.134231 989.752862,393.437326 L948.171398,387.391946 L929.546942,349.63599 C928.68101,347.880567 927.266914,346.458747 925.52103,345.588084 C921.109556,343.388106 915.759606,345.200415 913.571582,349.63599 Z" fill="#F8B853" fill-rule="nonzero"></path>
            <path d="M923.634474,349.412521 C924.548984,349.868583 925.289701,350.613346 925.743285,351.532853 L944.863241,390.292932 C945.17328,390.921444 945.770699,391.356639 946.46128,391.457035 L989.145282,397.662396 C991.698121,398.033525 993.46838,400.415176 993.099268,402.981961 C992.951556,404.009138 992.469568,404.958175 991.728626,405.680767 L960.865078,435.779902 C960.361747,436.270767 960.131954,436.979868 960.251061,437.674652 L967.544288,480.218084 C967.982428,482.773873 966.276991,485.202872 963.735089,485.643405 C962.724801,485.818496 961.685282,485.65449 960.776886,485.176686 L922.543299,465.066337 C921.926899,464.742119 921.191625,464.742119 920.575224,465.066337 L882.341638,485.176686 C880.056097,486.378849 877.234049,485.490476 876.038418,483.192449 C875.56321,482.27909 875.400095,481.233892 875.574235,480.218084 L882.867463,437.674652 C882.98657,436.979868 882.756776,436.270767 882.253445,435.779902 L851.389898,405.680767 C849.538374,403.875101 849.493246,400.902164 851.2891,399.040526 C852.007766,398.295535 852.951646,397.810914 853.973242,397.662396 L896.657244,391.457035 C897.347824,391.356639 897.945243,390.921444 898.255282,390.292932 L917.375239,351.532853 C918.521347,349.209456 921.323702,348.260152 923.634474,349.412521 Z" fill="#FDC877" fill-rule="nonzero"></path>
            <path d="M960.147979,404.843641 C970.0569,404.843641 979.671095,406.112408 988.838634,408.497183 L960.865078,435.779902 C960.361747,436.270767 960.131954,436.979868 960.251061,437.674652 L967.544288,480.218084 C967.982428,482.773873 966.276991,485.202872 963.735089,485.643405 C962.724801,485.818496 961.685282,485.65449 960.776886,485.176686 L922.543299,465.066337 C921.926899,464.742119 921.191625,464.742119 920.575224,465.066337 L882.341638,485.176686 C880.056097,486.378849 877.234049,485.490476 876.038418,483.192449 C875.56321,482.27909 875.400095,481.233892 875.574235,480.218084 L882.867463,437.674652 C882.98657,436.979868 882.756776,436.270767 882.253445,435.779902 L882.208927,435.736983 C902.617153,416.572643 930.020281,404.843641 960.147979,404.843641 Z" fill="#F8B853" fill-rule="nonzero"></path>
            <path d="M112.284552,844.801466 L144.114229,844.801173 C166.764141,836.298356 199.572324,830.914466 236.128896,830.803224 L237.284552,830.801466 C274.304956,830.801466 307.566543,836.208852 330.454875,844.801173 L362.284552,844.801466 L362.284552,872.801466 C362.284552,895.997426 306.320146,914.801466 237.284552,914.801466 C168.939314,914.801466 113.405147,896.371626 112.301299,873.496013 L112.284552,872.801466 L112.284552,844.801466 Z" fill="#F8B853"></path>
            <path d="M222.784552,882.801466 C223.838914,882.801466 224.702717,883.617344 224.779066,884.652204 L224.784552,884.801466 L224.784552,904.945209 C224.784552,906.049779 223.889122,906.945209 222.784552,906.945209 C221.73019,906.945209 220.866387,906.129331 220.790038,905.094471 L220.784552,904.945209 L220.784552,884.801466 C220.784552,883.696897 221.679983,882.801466 222.784552,882.801466 Z M237.784552,882.801466 C238.838914,882.801466 239.702717,883.617344 239.779066,884.652204 L239.784552,884.801466 L239.784552,904.945209 C239.784552,906.049779 238.889122,906.945209 237.784552,906.945209 C236.73019,906.945209 235.866387,906.129331 235.790038,905.094471 L235.784552,904.945209 L235.784552,884.801466 C235.784552,883.696897 236.679983,882.801466 237.784552,882.801466 Z M252.784552,881.801466 C253.838914,881.801466 254.702717,882.617344 254.779066,883.652204 L254.784552,883.801466 L254.784552,903.945209 C254.784552,905.049779 253.889122,905.945209 252.784552,905.945209 C251.73019,905.945209 250.866387,905.129331 250.790038,904.094471 L250.784552,903.945209 L250.784552,883.801466 C250.784552,882.696897 251.679983,881.801466 252.784552,881.801466 Z M207.784552,880.801466 C208.838914,880.801466 209.702717,881.617344 209.779066,882.652204 L209.784552,882.801466 L209.784552,902.945209 C209.784552,904.049779 208.889122,904.945209 207.784552,904.945209 C206.73019,904.945209 205.866387,904.129331 205.790038,903.094471 L205.784552,902.945209 L205.784552,882.801466 C205.784552,881.696897 206.679983,880.801466 207.784552,880.801466 Z M267.784552,880.801466 C268.838914,880.801466 269.702717,881.617344 269.779066,882.652204 L269.784552,882.801466 L269.784552,902.945209 C269.784552,904.049779 268.889122,904.945209 267.784552,904.945209 C266.73019,904.945209 265.866387,904.129331 265.790038,903.094471 L265.784552,902.945209 L265.784552,882.801466 C265.784552,881.696897 266.679983,880.801466 267.784552,880.801466 Z M192.784552,879.801466 C193.838914,879.801466 194.702717,880.617344 194.779066,881.652204 L194.784552,881.801466 L194.784552,901.945209 C194.784552,903.049779 193.889122,903.945209 192.784552,903.945209 C191.73019,903.945209 190.866387,903.129331 190.790038,902.094471 L190.784552,901.945209 L190.784552,881.801466 C190.784552,880.696897 191.679983,879.801466 192.784552,879.801466 Z M282.784552,879.801466 C283.838914,879.801466 284.702717,880.617344 284.779066,881.652204 L284.784552,881.801466 L284.784552,901.945209 C284.784552,903.049779 283.889122,903.945209 282.784552,903.945209 C281.73019,903.945209 280.866387,903.129331 280.790038,902.094471 L280.784552,901.945209 L280.784552,881.801466 C280.784552,880.696897 281.679983,879.801466 282.784552,879.801466 Z M177.784552,877.801466 C178.838914,877.801466 179.702717,878.617344 179.779066,879.652204 L179.784552,879.801466 L179.784552,899.945209 C179.784552,901.049779 178.889122,901.945209 177.784552,901.945209 C176.73019,901.945209 175.866387,901.129331 175.790038,900.094471 L175.784552,899.945209 L175.784552,879.801466 C175.784552,878.696897 176.679983,877.801466 177.784552,877.801466 Z M297.784552,877.801466 C298.838914,877.801466 299.702717,878.617344 299.779066,879.652204 L299.784552,879.801466 L299.784552,899.945209 C299.784552,901.049779 298.889122,901.945209 297.784552,901.945209 C296.73019,901.945209 295.866387,901.129331 295.790038,900.094471 L295.784552,899.945209 L295.784552,879.801466 C295.784552,878.696897 296.679983,877.801466 297.784552,877.801466 Z M162.784552,873.801466 C163.838914,873.801466 164.702717,874.617344 164.779066,875.652204 L164.784552,875.801466 L164.784552,895.945209 C164.784552,897.049779 163.889122,897.945209 162.784552,897.945209 C161.73019,897.945209 160.866387,897.129331 160.790038,896.094471 L160.784552,895.945209 L160.784552,875.801466 C160.784552,874.696897 161.679983,873.801466 162.784552,873.801466 Z M312.784552,873.801466 C313.838914,873.801466 314.702717,874.617344 314.779066,875.652204 L314.784552,875.801466 L314.784552,895.945209 C314.784552,897.049779 313.889122,897.945209 312.784552,897.945209 C311.73019,897.945209 310.866387,897.129331 310.790038,896.094471 L310.784552,895.945209 L310.784552,875.801466 C310.784552,874.696897 311.679983,873.801466 312.784552,873.801466 Z M147.784552,869.801466 C148.838914,869.801466 149.702717,870.617344 149.779066,871.652204 L149.784552,871.801466 L149.784552,891.945209 C149.784552,893.049779 148.889122,893.945209 147.784552,893.945209 C146.73019,893.945209 145.866387,893.129331 145.790038,892.094471 L145.784552,891.945209 L145.784552,871.801466 C145.784552,870.696897 146.679983,869.801466 147.784552,869.801466 Z M327.784552,869.801466 C328.838914,869.801466 329.702717,870.617344 329.779066,871.652204 L329.784552,871.801466 L329.784552,891.945209 C329.784552,893.049779 328.889122,893.945209 327.784552,893.945209 C326.73019,893.945209 325.866387,893.129331 325.790038,892.094471 L325.784552,891.945209 L325.784552,871.801466 C325.784552,870.696897 326.679983,869.801466 327.784552,869.801466 Z M132.784552,863.801466 C133.838914,863.801466 134.702717,864.617344 134.779066,865.652204 L134.784552,865.801466 L134.784552,885.945209 C134.784552,887.049779 133.889122,887.945209 132.784552,887.945209 C131.73019,887.945209 130.866387,887.129331 130.790038,886.094471 L130.784552,885.945209 L130.784552,865.801466 C130.784552,864.696897 131.679983,863.801466 132.784552,863.801466 Z M342.784552,862.801466 C343.838914,862.801466 344.702717,863.617344 344.779066,864.652204 L344.784552,864.801466 L344.784552,884.945209 C344.784552,886.049779 343.889122,886.945209 342.784552,886.945209 C341.73019,886.945209 340.866387,886.129331 340.790038,885.094471 L340.784552,884.945209 L340.784552,864.801466 C340.784552,863.696897 341.679983,862.801466 342.784552,862.801466 Z M117.784552,852.801466 C118.838914,852.801466 119.702717,853.617344 119.779066,854.652204 L119.784552,854.801466 L119.784552,874.945209 C119.784552,876.049779 118.889122,876.945209 117.784552,876.945209 C116.73019,876.945209 115.866387,876.129331 115.790038,875.094471 L115.784552,874.945209 L115.784552,854.801466 C115.784552,853.696897 116.679983,852.801466 117.784552,852.801466 Z M357.784552,851.801466 C358.838914,851.801466 359.702717,852.617344 359.779066,853.652204 L359.784552,853.801466 L359.784552,873.945209 C359.784552,875.049779 358.889122,875.945209 357.784552,875.945209 C356.73019,875.945209 355.866387,875.129331 355.790038,874.094471 L355.784552,873.945209 L355.784552,853.801466 C355.784552,852.696897 356.679983,851.801466 357.784552,851.801466 Z" fill="#FDC877" fill-rule="nonzero"></path>
            <path d="M237.284552,802.801466 C306.320146,802.801466 362.284552,821.605507 362.284552,844.801466 C362.284552,867.997426 306.320146,886.801466 237.284552,886.801466 C168.248958,886.801466 112.284552,867.997426 112.284552,844.801466 C112.284552,821.605507 168.248958,802.801466 237.284552,802.801466 Z" fill="#F8B853" fill-rule="nonzero"></path>
            <path d="M237.284552,806.801466 C204.090139,806.801466 173.020572,811.216949 150.170212,818.894671 C128.357196,826.223844 116.284552,835.81427 116.284552,844.801466 C116.284552,853.788663 128.357196,863.379089 150.170212,870.708262 C173.020572,878.385983 204.090139,882.801466 237.284552,882.801466 C270.478965,882.801466 301.548532,878.385983 324.398892,870.708262 C346.211909,863.379089 358.284552,853.788663 358.284552,844.801466 C358.284552,835.81427 346.211909,826.223844 324.398892,818.894671 C301.827195,811.31058 271.235537,806.909646 238.498023,806.803434 L237.284552,806.801466 Z" fill="#FDC877" fill-rule="nonzero"></path>
            <path d="M240.603265,821.951936 C241.625231,822.091965 242.452982,822.320637 242.959861,822.602962 L264.326409,834.503843 C264.672878,834.696821 265.340494,834.830443 266.112217,834.861269 L313.811583,836.766561 C316.66438,836.880512 318.642645,837.611773 318.230161,838.399878 C318.065093,838.715262 317.526473,839.006654 316.698469,839.228519 L282.20846,848.470147 C281.645987,848.620862 281.389193,848.838584 281.522295,849.05191 L289.672476,862.114431 C290.162097,862.899159 288.256272,863.644958 285.415697,863.780219 C284.2867,863.833979 283.125037,863.783623 282.109905,863.636918 L239.383878,857.462244 C238.69505,857.362696 237.873382,857.362696 237.184554,857.462244 L194.458528,863.636918 C191.904436,864.00603 188.750798,863.733264 187.41468,863.027679 C186.883636,862.747241 186.701355,862.426324 186.895956,862.114431 L195.046137,849.05191 C195.179239,848.838584 194.922445,848.620862 194.359973,848.470147 L159.869963,839.228519 C157.800886,838.674108 157.750455,837.761298 159.757322,837.189701 C160.56043,836.96096 161.615217,836.812162 162.75685,836.766561 L210.456215,834.861269 C211.227939,834.830443 211.895555,834.696821 212.242023,834.503843 L233.608571,822.602962 C234.889347,821.889587 238.020978,821.598113 240.603265,821.951936 Z" fill="#F8B853" fill-rule="nonzero"></path>
            <path d="M237.284552,812.801466 C176.967768,812.801466 128.284552,826.450966 128.284552,844.801466 C128.284552,863.151967 176.967768,876.801466 237.284552,876.801466 C297.601336,876.801466 346.284552,863.151967 346.284552,844.801466 C346.284552,826.450966 297.601336,812.801466 237.284552,812.801466 Z M237.284552,816.801466 C295.156704,816.801466 342.284552,830.014882 342.284552,844.801466 C342.284552,859.588051 295.156704,872.801466 237.284552,872.801466 C179.4124,872.801466 132.284552,859.588051 132.284552,844.801466 C132.284552,830.014882 179.4124,816.801466 237.284552,816.801466 Z" fill="#F8B853" fill-rule="nonzero"></path>
            <polygon fill="#F0DECF" fill-rule="nonzero" points="1171.28455 134.801466 1171.28455 138.801466 738.284552 138.801466 738.284552 134.801466"></polygon>
            <polygon fill="#F0DECF" fill-rule="nonzero" points="1030.93433 117.892375 1030.93433 121.892375 992.225372 121.892375 992.225372 117.892375"></polygon>
        </g>
    </g>
</svg>