<?xml version="1.0" encoding="UTF-8"?>
<svg width="1600px" height="1200px" viewBox="0 0 1600 1200" version="1.1" xmlns="http://www.w3.org/2000/svg" xmlns:xlink="http://www.w3.org/1999/xlink">
    <title>School</title>
    <g id="School" stroke="none" stroke-width="1" fill="none" fill-rule="evenodd">
        <g transform="translate(7.500000, 165.500000)">
            <circle id="Shape" fill="#3CB49F" cx="376.986792" cy="180" r="180"></circle>
            <circle id="Shape" fill="#3CB49F" cx="1327.98679" cy="307" r="176"></circle>
            <path d="M1485.69119,661 C1528.35511,661 1566.32045,688.06762 1580.22849,728.400932 L1581.98679,733.5 C1591.83066,762.047217 1576.6686,793.16934 1548.12138,803.013208 C1542.3869,804.990617 1536.36333,806 1530.29748,806 L1324.87336,806.000244 C1306.7475,806.000266 1290.94973,818.274202 1286.43767,835.781731 L1286.30441,836.313857 C1279.62548,855.678211 1261.51275,868.736833 1241.07499,868.996069 L1240.45496,869 L286.518626,869 C266.034821,869 247.784043,856.135021 240.875059,836.898719 L240.669177,836.313857 C236.347634,818.524503 220.416967,806.000483 202.110224,806.00043 L54.6761006,806 C24.4793241,806 0,781.520676 0,751.323899 C0,745.258053 1.009383,739.234487 2.98679235,733.5 L4.74509178,728.400932 C18.6531301,688.06762 56.6184763,661 99.2823899,661 L1485.69119,661 Z" id="Shape" fill="#3CB49F"></path>
            <ellipse id="Shape" fill="#229581" cx="1440.48679" cy="425" rx="93.5" ry="93"></ellipse>
            <ellipse id="Shape" fill="#229581" cx="515.486792" cy="262" rx="94.5" ry="94"></ellipse>
            <polygon id="Shape" fill="#E9525B" points="108.986792 398 628.986792 398 628.986792 688 108.986792 688"></polygon>
            <polygon id="Shape" fill="#D12F38" points="617.986792 398 519.986792 398 519.986792 734 617.986792 734"></polygon>
            <polygon id="Shape" fill="#D12F38" points="108.986792 398 528.986792 398 528.986792 453 108.986792 453"></polygon>
            <polygon id="Shape" fill="#E8E4DD" points="108.986792 702 628.986792 702 628.986792 688 108.986792 688"></polygon>
            <polygon id="Shape" fill="#E8E4DD" points="98.9867924 412 628.986792 412 628.986792 398 98.9867924 398"></polygon>
            <polygon id="Shape" fill="#D4CCBE" points="108.986792 695 628.986792 695 628.986792 688 108.986792 688"></polygon>
            <polygon id="Shape" fill="#D4CCBE" points="98.9867924 405 628.986792 405 628.986792 398 98.9867924 398"></polygon>
            <polygon id="Shape" fill="#E8E4DD" points="98.9867924 716 628.986792 716 628.986792 702 98.9867924 702"></polygon>
            <polygon id="Shape" fill="#D4CCBE" points="98.9867924 709 628.986792 709 628.986792 702 98.9867924 702"></polygon>
            <polygon id="Shape" fill="#E8E4DD" points="88.9867924 730 628.986792 730 628.986792 716 88.9867924 716"></polygon>
            <polygon id="Shape" fill="#D4CCBE" points="88.9867924 723 628.986792 723 628.986792 716 88.9867924 716"></polygon>
            <path d="M173.986792,434 C160.731958,434 149.986792,444.745166 149.986792,458 L149.986792,528 L197.986792,528 L197.986792,458 C197.986792,444.745166 187.241626,434 173.986792,434 Z" id="Shape" fill="#FFFFFF" fill-rule="nonzero"></path>
            <path d="M173.986792,439 C184.480203,439 192.986792,447.50659 192.986792,458 L192.986792,523 L154.986792,523 L154.986792,458 C154.986792,447.50659 163.493382,439 173.986792,439 Z" id="Shape" fill="#6F97F8" fill-rule="nonzero"></path>
            <polygon id="Shape" fill="#FFFFFF" points="175.986792 436 175.986792 470 194.486792 470 194.486792 475 175.986792 475 175.986792 499 194.486792 499 194.486792 504 153.486792 504 153.486792 499 170.986792 499 170.986792 475 153.486792 475 153.486792 470 170.986792 470 170.986792 436"></polygon>
            <polygon id="Shape" fill="#4757A4" points="192.986792 504 192.986792 523 154.986792 523 154.986792 504"></polygon>
            <path d="M251.986792,434 C238.731958,434 227.986792,444.745166 227.986792,458 L227.986792,528 L275.986792,528 L275.986792,458 C275.986792,444.745166 265.241626,434 251.986792,434 Z" id="Shape" fill="#FFFFFF" fill-rule="nonzero"></path>
            <path d="M251.986792,439 C262.480203,439 270.986792,447.50659 270.986792,458 L270.986792,523 L232.986792,523 L232.986792,458 C232.986792,447.50659 241.493382,439 251.986792,439 Z" id="Shape" fill="#6F97F8" fill-rule="nonzero"></path>
            <polygon id="Shape" fill="#FFFFFF" points="253.986792 436 253.986792 470 272.486792 470 272.486792 475 253.986792 475 253.986792 499 272.486792 499 272.486792 504 231.486792 504 231.486792 499 248.986792 499 248.986792 475 231.486792 475 231.486792 470 248.986792 470 248.986792 436"></polygon>
            <polygon id="Shape" fill="#4757A4" points="270.986792 504 270.986792 523 232.986792 523 232.986792 504"></polygon>
            <path d="M329.986792,434 C316.731958,434 305.986792,444.745166 305.986792,458 L305.986792,528 L353.986792,528 L353.986792,458 C353.986792,444.745166 343.241626,434 329.986792,434 Z" id="Shape" fill="#FFFFFF" fill-rule="nonzero"></path>
            <path d="M329.986792,439 C340.480203,439 348.986792,447.50659 348.986792,458 L348.986792,523 L310.986792,523 L310.986792,458 C310.986792,447.50659 319.493382,439 329.986792,439 Z" id="Shape" fill="#6F97F8" fill-rule="nonzero"></path>
            <polygon id="Shape" fill="#FFFFFF" points="331.986792 436 331.986792 470 350.486792 470 350.486792 475 331.986792 475 331.986792 499 350.486792 499 350.486792 504 309.486792 504 309.486792 499 326.986792 499 326.986792 475 309.486792 475 309.486792 470 326.986792 470 326.986792 436"></polygon>
            <polygon id="Shape" fill="#6F97F8" points="348.986792 504 348.986792 523 310.986792 523 310.986792 504"></polygon>
            <path d="M407.986792,434 C394.731958,434 383.986792,444.745166 383.986792,458 L383.986792,528 L431.986792,528 L431.986792,458 C431.986792,444.745166 421.241626,434 407.986792,434 Z" id="Shape" fill="#FFFFFF" fill-rule="nonzero"></path>
            <path d="M407.986792,439 C418.480203,439 426.986792,447.50659 426.986792,458 L426.986792,523 L388.986792,523 L388.986792,458 C388.986792,447.50659 397.493382,439 407.986792,439 Z" id="Shape" fill="#6F97F8" fill-rule="nonzero"></path>
            <polygon id="Shape" fill="#FFFFFF" points="409.986792 436 409.986792 470 428.486792 470 428.486792 475 409.986792 475 409.986792 499 428.486792 499 428.486792 504 387.486792 504 387.486792 499 404.986792 499 404.986792 475 387.486792 475 387.486792 470 404.986792 470 404.986792 436"></polygon>
            <polygon id="Shape" fill="#6F97F8" points="426.986792 504 426.986792 523 388.986792 523 388.986792 504"></polygon>
            <path d="M485.986792,434 C472.731958,434 461.986792,444.745166 461.986792,458 L461.986792,528 L509.986792,528 L509.986792,458 C509.986792,444.745166 499.241626,434 485.986792,434 Z" id="Shape" fill="#FFFFFF" fill-rule="nonzero"></path>
            <path d="M485.986792,439 C496.480203,439 504.986792,447.50659 504.986792,458 L504.986792,523 L466.986792,523 L466.986792,458 C466.986792,447.50659 475.493382,439 485.986792,439 Z" id="Shape" fill="#6F97F8" fill-rule="nonzero"></path>
            <polygon id="Shape" fill="#FFFFFF" points="487.986792 436 487.986792 470 506.486792 470 506.486792 475 487.986792 475 487.986792 499 506.486792 499 506.486792 504 465.486792 504 465.486792 499 482.986792 499 482.986792 475 465.486792 475 465.486792 470 482.986792 470 482.986792 436"></polygon>
            <polygon id="Shape" fill="#4757A4" points="504.986792 504 504.986792 523 466.986792 523 466.986792 504"></polygon>
            <path d="M173.986792,558 C160.731958,558 149.986792,568.745166 149.986792,582 L149.986792,652 L197.986792,652 L197.986792,582 C197.986792,568.745166 187.241626,558 173.986792,558 Z" id="Shape" fill="#FFFFFF" fill-rule="nonzero"></path>
            <path d="M173.986792,563 C184.480203,563 192.986792,571.50659 192.986792,582 L192.986792,647 L154.986792,647 L154.986792,582 C154.986792,571.50659 163.493382,563 173.986792,563 Z" id="Shape" fill="#6F97F8" fill-rule="nonzero"></path>
            <polygon id="Shape" fill="#FFFFFF" points="175.986792 560 175.986792 594 194.486792 594 194.486792 599 175.986792 599 175.986792 623 194.486792 623 194.486792 628 153.486792 628 153.486792 623 170.986792 623 170.986792 599 153.486792 599 153.486792 594 170.986792 594 170.986792 560"></polygon>
            <polygon id="Shape" fill="#4757A4" points="192.986792 628 192.986792 647 154.986792 647 154.986792 628"></polygon>
            <path d="M251.986792,558 C238.731958,558 227.986792,568.745166 227.986792,582 L227.986792,652 L275.986792,652 L275.986792,582 C275.986792,568.745166 265.241626,558 251.986792,558 Z" id="Shape" fill="#FFFFFF" fill-rule="nonzero"></path>
            <path d="M251.986792,563 C262.480203,563 270.986792,571.50659 270.986792,582 L270.986792,647 L232.986792,647 L232.986792,582 C232.986792,571.50659 241.493382,563 251.986792,563 Z" id="Shape" fill="#6F97F8" fill-rule="nonzero"></path>
            <polygon id="Shape" fill="#FFFFFF" points="253.986792 560 253.986792 594 272.486792 594 272.486792 599 253.986792 599 253.986792 623 272.486792 623 272.486792 628 231.486792 628 231.486792 623 248.986792 623 248.986792 599 231.486792 599 231.486792 594 248.986792 594 248.986792 560"></polygon>
            <polygon id="Shape" fill="#6F97F8" points="270.986792 628 270.986792 647 232.986792 647 232.986792 628"></polygon>
            <path d="M329.986792,558 C316.731958,558 305.986792,568.745166 305.986792,582 L305.986792,652 L353.986792,652 L353.986792,582 C353.986792,568.745166 343.241626,558 329.986792,558 Z" id="Shape" fill="#FFFFFF" fill-rule="nonzero"></path>
            <path d="M329.986792,563 C340.480203,563 348.986792,571.50659 348.986792,582 L348.986792,647 L310.986792,647 L310.986792,582 C310.986792,571.50659 319.493382,563 329.986792,563 Z" id="Shape" fill="#6F97F8" fill-rule="nonzero"></path>
            <polygon id="Shape" fill="#FFFFFF" points="331.986792 560 331.986792 594 350.486792 594 350.486792 599 331.986792 599 331.986792 623 350.486792 623 350.486792 628 309.486792 628 309.486792 623 326.986792 623 326.986792 599 309.486792 599 309.486792 594 326.986792 594 326.986792 560"></polygon>
            <polygon id="Shape" fill="#4757A4" points="348.986792 628 348.986792 647 310.986792 647 310.986792 628"></polygon>
            <path d="M407.986792,558 C394.731958,558 383.986792,568.745166 383.986792,582 L383.986792,652 L431.986792,652 L431.986792,582 C431.986792,568.745166 421.241626,558 407.986792,558 Z" id="Shape" fill="#FFFFFF" fill-rule="nonzero"></path>
            <path d="M407.986792,563 C418.480203,563 426.986792,571.50659 426.986792,582 L426.986792,647 L388.986792,647 L388.986792,582 C388.986792,571.50659 397.493382,563 407.986792,563 Z" id="Shape" fill="#6F97F8" fill-rule="nonzero"></path>
            <polygon id="Shape" fill="#FFFFFF" points="409.986792 560 409.986792 594 428.486792 594 428.486792 599 409.986792 599 409.986792 623 428.486792 623 428.486792 628 387.486792 628 387.486792 623 404.986792 623 404.986792 599 387.486792 599 387.486792 594 404.986792 594 404.986792 560"></polygon>
            <polygon id="Shape" fill="#6F97F8" points="426.986792 628 426.986792 647 388.986792 647 388.986792 628"></polygon>
            <path d="M485.986792,558 C472.731958,558 461.986792,568.745166 461.986792,582 L461.986792,652 L509.986792,652 L509.986792,582 C509.986792,568.745166 499.241626,558 485.986792,558 Z" id="Shape" fill="#FFFFFF" fill-rule="nonzero"></path>
            <path d="M485.986792,563 C496.480203,563 504.986792,571.50659 504.986792,582 L504.986792,647 L466.986792,647 L466.986792,582 C466.986792,571.50659 475.493382,563 485.986792,563 Z" id="Shape" fill="#6F97F8" fill-rule="nonzero"></path>
            <polygon id="Shape" fill="#FFFFFF" points="487.986792 560 487.986792 594 506.486792 594 506.486792 599 487.986792 599 487.986792 623 506.486792 623 506.486792 628 465.486792 628 465.486792 623 482.986792 623 482.986792 599 465.486792 599 465.486792 594 482.986792 594 482.986792 560"></polygon>
            <polygon id="Shape" fill="#4757A4" points="504.986792 628 504.986792 647 466.986792 647 466.986792 628"></polygon>
            <polygon id="Shape" fill="#4757A4" points="108.986792 398 628.986792 398 698.986792 297 188.986792 297"></polygon>
            <path d="M377.47601,350 C378.278359,350 379.071026,350.17527 379.798595,350.513555 C382.488817,351.764384 383.693893,354.910921 382.563557,357.625202 L382.471987,357.833101 L378.007319,367.438079 C375.346699,373.161955 369.665266,376.861129 363.376018,376.996173 L363.019389,377 L289.49735,377 C288.59597,377 287.708357,376.778812 286.912352,376.355835 C284.294174,374.964599 283.257763,371.761716 284.526963,369.112412 L284.631966,368.90445 L290.013286,358.774574 C292.825457,353.480903 298.276817,350.133132 304.250414,350.003883 L304.60944,350 L377.47601,350 Z M566.47601,350 C567.278359,350 568.071026,350.17527 568.798595,350.513555 C571.488817,351.764384 572.693893,354.910921 571.563557,357.625202 L571.471987,357.833101 L567.007319,367.438079 C564.346699,373.161955 558.665266,376.861129 552.376018,376.996173 L552.019389,377 L478.49735,377 C477.59597,377 476.708357,376.778812 475.912352,376.355835 C473.294174,374.964599 472.257763,371.761716 473.526963,369.112412 L473.631966,368.90445 L479.013286,358.774574 C481.825457,353.480903 487.276817,350.133132 493.250414,350.003883 L493.60944,350 L566.47601,350 Z M281.47601,308 C282.278359,308 283.071026,308.17527 283.798595,308.513555 C286.488817,309.764384 287.693893,312.910921 286.563557,315.625202 L286.471987,315.833101 L282.007319,325.438079 C279.346699,331.161955 273.665266,334.861129 267.376018,334.996173 L267.019389,335 L193.49735,335 C192.59597,335 191.708357,334.778812 190.912352,334.355835 C188.294174,332.964599 187.257763,329.761716 188.526963,327.112412 L188.631966,326.90445 L194.013286,316.774574 C196.825457,311.480903 202.276817,308.133132 208.250414,308.003883 L208.60944,308 L281.47601,308 Z M470.47601,308 C471.278359,308 472.071026,308.17527 472.798595,308.513555 C475.488817,309.764384 476.693893,312.910921 475.563557,315.625202 L475.471987,315.833101 L471.007319,325.438079 C468.346699,331.161955 462.665266,334.861129 456.376018,334.996173 L456.019389,335 L382.49735,335 C381.59597,335 380.708357,334.778812 379.912352,334.355835 C377.294174,332.964599 376.257763,329.761716 377.526963,327.112412 L377.631966,326.90445 L383.013286,316.774574 C385.825457,311.480903 391.276817,308.133132 397.250414,308.003883 L397.60944,308 L470.47601,308 Z" id="Shape" fill="#3D4D9C"></path>
            <polygon id="Shape" fill="#4757A4" points="856.986792 297 1376.98679 297 1446.98679 398 936.986792 398"></polygon>
            <path d="M1173.47601,335 C1174.27836,335 1175.07103,334.82473 1175.7986,334.486445 C1178.48882,333.235616 1179.69389,330.089079 1178.56356,327.374798 L1178.47199,327.166899 L1174.00732,317.561921 C1171.3467,311.838045 1165.66527,308.138871 1159.37602,308.003827 L1159.01939,308 L1085.49735,308 C1084.59597,308 1083.70836,308.221188 1082.91235,308.644165 C1080.29417,310.035401 1079.25776,313.238284 1080.52696,315.887588 L1080.63197,316.09555 L1086.01329,326.225426 C1088.82546,331.519097 1094.27682,334.866868 1100.25041,334.996117 L1100.60944,335 L1173.47601,335 Z M1362.47601,335 C1363.27836,335 1364.07103,334.82473 1364.7986,334.486445 C1367.48882,333.235616 1368.69389,330.089079 1367.56356,327.374798 L1367.47199,327.166899 L1363.00732,317.561921 C1360.3467,311.838045 1354.66527,308.138871 1348.37602,308.003827 L1348.01939,308 L1274.49735,308 C1273.59597,308 1272.70836,308.221188 1271.91235,308.644165 C1269.29417,310.035401 1268.25776,313.238284 1269.52696,315.887588 L1269.63197,316.09555 L1275.01329,326.225426 C1277.82546,331.519097 1283.27682,334.866868 1289.25041,334.996117 L1289.60944,335 L1362.47601,335 Z M1077.47601,377 C1078.27836,377 1079.07103,376.82473 1079.7986,376.486445 C1082.48882,375.235616 1083.69389,372.089079 1082.56356,369.374798 L1082.47199,369.166899 L1078.00732,359.561921 C1075.3467,353.838045 1069.66527,350.138871 1063.37602,350.003827 L1063.01939,350 L989.49735,350 C988.59597,350 987.708357,350.221188 986.912352,350.644165 C984.294174,352.035401 983.257763,355.238284 984.526963,357.887588 L984.631966,358.09555 L990.013286,368.225426 C992.825457,373.519097 998.276817,376.866868 1004.25041,376.996117 L1004.60944,377 L1077.47601,377 Z M1266.47601,377 C1267.27836,377 1268.07103,376.82473 1268.7986,376.486445 C1271.48882,375.235616 1272.69389,372.089079 1271.56356,369.374798 L1271.47199,369.166899 L1267.00732,359.561921 C1264.3467,353.838045 1258.66527,350.138871 1252.37602,350.003827 L1252.01939,350 L1178.49735,350 C1177.59597,350 1176.70836,350.221188 1175.91235,350.644165 C1173.29417,352.035401 1172.25776,355.238284 1173.52696,357.887588 L1173.63197,358.09555 L1179.01329,368.225426 C1181.82546,373.519097 1187.27682,376.866868 1193.25041,376.996117 L1193.60944,377 L1266.47601,377 Z" id="Shape" fill="#3D4D9C"></path>
            <polygon id="Shape" fill="#D12F38" points="646.986792 297 646.986792 205 908.986792 205 908.986792 297"></polygon>
            <polygon id="Shape" fill="#E8E4DD" points="628.986792 219 926.986792 219 926.986792 205 628.986792 205"></polygon>
            <polygon id="Shape" fill="#D4CCBE" points="628.986792 212 926.986792 212 926.986792 205 628.986792 205"></polygon>
            <polygon id="Shape" fill="#334395" points="663.926386 205 628.986792 205 777.690555 75 777.986636 75.5845299 778.28303 75 926.986792 205 892.047199 205 777.986949 105.990715"></polygon>
            <polygon id="Shape" fill="#D12F38" points="656.986792 205 777.986792 98 898.986792 205"></polygon>
            <polygon id="Shape" fill="#E9525B" points="696.986792 205 777.986792 137 858.986792 205"></polygon>
            <polygon id="Shape" fill="#F7F4EF" points="679.236508 205 648.986792 205 777.730318 92 777.986657 92.5080914 778.243266 92 906.986792 205 876.737077 205 777.986928 118.938083"></polygon>
            <polygon id="Shape" fill="#334395" points="552.539003 396.856406 483.363297 396.856406 777.776787 170.856406 778.362988 171.872589 778.949808 170.856406 1073.3633 396.856406 1004.18759 396.856406 778.363606 224.732572"></polygon>
            <path d="M939.986792,385 L1446.98679,385 L1446.98679,398 L926.986792,398 C926.986792,390.820298 932.807091,385 939.986792,385 Z" id="Shape" fill="#334395"></path>
            <polygon id="Shape" fill="#D12F38" points="516.986792 398 777.986792 212 1038.98679 398"></polygon>
            <polygon id="Shape" fill="#E9525B" points="618.986792 398 778.486792 280 937.986792 398"></polygon>
            <polygon id="Shape" fill="#F7F4EF" points="582.871029 391.712813 522.986792 391.712813 777.855565 196 778.363029 196.88 778.871029 196 1033.7398 391.712813 973.855565 391.712813 778.363565 242.656"></polygon>
            <polygon id="Shape" fill="#E8E4DD" points="608.420947 385 556.363297 385 777.921923 215 778.363064 215.764385 778.804671 215 1000.3633 385 948.305648 385 778.36353 255.52632"></polygon>
            <path d="M121.986792,385 L628.986792,385 L628.986792,398 L108.986792,398 C108.986792,390.820298 114.807091,385 121.986792,385 Z" id="Shape" fill="#334395"></path>
            <polygon id="Shape" fill="#E8E4DD" points="519.986792 398 519.986792 384 1035.98679 384 1035.98679 398"></polygon>
            <polygon id="Shape" fill="#E8E4DD" points="261.986792 238 286.986792 238 283.986792 242 264.986792 242"></polygon>
            <polygon id="Shape" fill="#E8E4DD" points="345.986792 238 370.986792 238 367.986792 242 348.986792 242"></polygon>
            <polygon id="Shape" fill="#E8E4DD" points="286.986792 297 261.986792 297 264.986792 293 283.986792 293"></polygon>
            <polygon id="Shape" fill="#D4CCBE" points="283.986792 293 264.986792 293 264.986792 289 283.986792 289"></polygon>
            <polygon id="Shape" fill="#E8E4DD" points="370.986792 297 345.986792 297 348.986792 293 367.986792 293"></polygon>
            <polygon id="Shape" fill="#D4CCBE" points="367.986792 293 348.986792 293 348.986792 289 367.986792 289"></polygon>
            <polygon id="Shape" fill="#D4CCBE" points="264.986792 242 283.986792 242 283.986792 246 264.986792 246"></polygon>
            <polygon id="Shape" fill="#D4CCBE" points="348.986792 242 367.986792 242 367.986792 246 348.986792 246"></polygon>
            <polygon id="Shape" fill="#F7F4EF" points="266.986792 246 281.986792 246 281.986792 289 266.986792 289"></polygon>
            <polygon id="Shape" fill="#F7F4EF" points="350.986792 246 365.986792 246 365.986792 289 350.986792 289"></polygon>
            <path d="M316.486792,171 C346.586311,171 370.986792,195.400481 370.986792,225.5 L370.986792,238 L261.986792,238 L261.986792,225.5 C261.986792,195.400481 286.387273,171 316.486792,171 Z" id="Shape" fill="#4757A4"></path>
            <path d="M316.486792,171 C337.473613,171 354.486792,188.01318 354.486792,209 L354.486792,238 L278.486792,238 L278.486792,209 C278.486792,188.01318 295.499972,171 316.486792,171 Z M316.486792,173 C296.803364,173 280.809524,188.797006 280.491615,208.404674 L280.486792,209 L280.486792,236 L352.486792,236 L352.486792,209 C352.486792,189.316572 336.689787,173.322731 317.082118,173.004823 L316.486792,173 Z" id="Shape" fill="#5D6FC1" fill-rule="nonzero"></path>
            <path d="M316.486792,171 C325.875633,171 333.486792,178.611159 333.486792,188 L333.486792,238 L299.486792,238 L299.486792,188 C299.486792,178.611159 307.097952,171 316.486792,171 Z M316.486792,173 C308.307385,173 301.657062,179.546786 301.49001,187.686172 L301.486792,188 L301.486792,236 L331.486792,236 L331.486792,188 C331.486792,179.820593 324.940006,173.17027 316.800621,173.003218 L316.486792,173 Z" id="Shape" fill="#5D6FC1" fill-rule="nonzero"></path>
            <path d="M197.986792,528 L197.986792,537 L149.986792,537 L149.986792,528 L197.986792,528 Z M275.986792,528 L275.986792,537 L227.986792,537 L227.986792,528 L275.986792,528 Z M353.986792,528 L353.986792,537 L305.986792,537 L305.986792,528 L353.986792,528 Z M431.986792,528 L431.986792,537 L383.986792,537 L383.986792,528 L431.986792,528 Z M509.986792,528 L509.986792,537 L461.986792,537 L461.986792,528 L509.986792,528 Z" id="Shape" fill="#D12F38"></path>
            <path d="M197.986792,652 L197.986792,661 L149.986792,661 L149.986792,652 L197.986792,652 Z M275.986792,652 L275.986792,661 L227.986792,661 L227.986792,652 L275.986792,652 Z M353.986792,652 L353.986792,661 L305.986792,661 L305.986792,652 L353.986792,652 Z M431.986792,652 L431.986792,661 L383.986792,661 L383.986792,652 L431.986792,652 Z M509.986792,652 L509.986792,661 L461.986792,661 L461.986792,652 L509.986792,652 Z" id="Shape" fill="#D12F38"></path>
            <polygon id="Shape" fill="#E9525B" points="536.986792 770 536.986792 398 1018.98679 398 1018.98679 770"></polygon>
            <path d="M883.903459,513 L884.243188,513.003122 C894.073567,513.183936 901.986792,521.195736 901.986792,531.052632 L901.986792,709 L653.986792,709 L653.986792,531.052632 C653.986792,521.082438 662.082976,513 672.070126,513 L883.903459,513 Z" id="Shape" fill="#694047" fill-rule="nonzero"></path>
            <path d="M880.986792,510.5 C893.288935,510.5 903.285085,520.373129 903.483778,532.627921 L903.486792,533 L903.486792,690.5 L898.486792,690.5 L898.486792,533 C898.486792,523.554676 891.003866,515.857082 881.642862,515.512071 L881.315563,515.503026 L880.986792,515.5 L675.986792,515.5 C666.431639,515.5 658.665097,523.15796 658.489819,532.67123 L658.486792,533 L658.486792,690.5 L653.486792,690.5 L653.486792,533 C653.486792,520.697857 663.359921,510.701707 675.614714,510.503014 L675.986792,510.5 L880.986792,510.5 Z" id="Shape" fill="#8A5D65" fill-rule="nonzero"></path>
            <polygon id="Shape" fill="#8A5D65" points="776.986792 511 781.986792 511 781.986792 692 776.986792 692"></polygon>
            <polygon id="Shape" fill="#D12F38" points="617.986792 398 551.986792 398 551.986792 734 617.986792 734"></polygon>
            <polygon id="Shape" fill="#D4CCBE" points="519.986792 391 519.986792 384 1035.98679 384 1035.98679 391"></polygon>
            <path d="M283.581445,291.5 C284.409872,291.5 285.081445,292.171573 285.081445,293 C285.081445,293.779696 284.486557,294.420449 283.725905,294.493133 L283.581445,294.5 L271.986792,294.5 C271.158365,294.5 270.486792,293.828427 270.486792,293 C270.486792,292.220304 271.08168,291.579551 271.842332,291.506867 L271.986792,291.5 L283.581445,291.5 Z" id="Shape" fill="#ADA28F" fill-rule="nonzero"></path>
            <path d="M283.581445,240.5 C284.409872,240.5 285.081445,241.171573 285.081445,242 C285.081445,242.779696 284.486557,243.420449 283.725905,243.493133 L283.581445,243.5 L271.986792,243.5 C271.158365,243.5 270.486792,242.828427 270.486792,242 C270.486792,241.220304 271.08168,240.579551 271.842332,240.506867 L271.986792,240.5 L283.581445,240.5 Z" id="Shape" fill="#ADA28F" fill-rule="nonzero"></path>
            <path d="M370.986792,222.537131 C371.766488,222.537131 372.407241,223.132019 372.479926,223.892671 L372.486792,224.037131 L372.486792,238 C372.486792,238.779696 371.891904,239.420449 371.131252,239.493133 L370.986792,239.5 L292.737072,239.5 C291.908645,239.5 291.237072,238.828427 291.237072,238 C291.237072,237.220304 291.83196,236.579551 292.592612,236.506867 L292.737072,236.5 L369.486792,236.499 L369.486792,224.037131 C369.486792,223.257435 370.08168,222.616683 370.842332,222.543998 L370.986792,222.537131 Z" id="Shape" fill="#2E3D89" fill-rule="nonzero"></path>
            <path d="M154.986792,473.5 C155.766488,473.5 156.407241,474.094888 156.479926,474.85554 L156.486792,475 L156.486792,497.5 L170.986792,497.5 C171.766488,497.5 172.407241,498.094888 172.479926,498.85554 L172.486792,499 C172.486792,499.779696 171.891904,500.420449 171.131252,500.493133 L170.986792,500.5 L153.486792,500.5 L153.486792,475 C153.486792,474.171573 154.158365,473.5 154.986792,473.5 Z" id="Shape" fill="#4757A4" fill-rule="nonzero"></path>
            <path d="M310.986792,473.5 C311.766488,473.5 312.407241,474.094888 312.479926,474.85554 L312.486792,475 L312.486792,497.5 L326.986792,497.5 C327.766488,497.5 328.407241,498.094888 328.479926,498.85554 L328.486792,499 C328.486792,499.779696 327.891904,500.420449 327.131252,500.493133 L326.986792,500.5 L309.486792,500.5 L309.486792,475 C309.486792,474.171573 310.158365,473.5 310.986792,473.5 Z" id="Shape" fill="#4757A4" fill-rule="nonzero"></path>
            <path d="M232.986792,580.5 C233.766488,580.5 234.407241,581.094888 234.479926,581.85554 L234.486792,582 L234.486792,592.5 L248.986792,592.5 C249.766488,592.5 250.407241,593.094888 250.479926,593.85554 L250.486792,594 C250.486792,594.779696 249.891904,595.420449 249.131252,595.493133 L248.986792,595.5 L231.486792,595.5 L231.486792,582 C231.486792,581.171573 232.158365,580.5 232.986792,580.5 Z" id="Shape" fill="#4757A4" fill-rule="nonzero"></path>
            <path d="M388.986792,580.5 C389.766488,580.5 390.407241,581.094888 390.479926,581.85554 L390.486792,582 L390.486792,592.5 L404.986792,592.5 C405.766488,592.5 406.407241,593.094888 406.479926,593.85554 L406.486792,594 C406.486792,594.779696 405.891904,595.420449 405.131252,595.493133 L404.986792,595.5 L387.486792,595.5 L387.486792,582 C387.486792,581.171573 388.158365,580.5 388.986792,580.5 Z" id="Shape" fill="#4757A4" fill-rule="nonzero"></path>
            <path d="M466.986792,473.5 C467.766488,473.5 468.407241,474.094888 468.479926,474.85554 L468.486792,475 L468.486792,497.5 L482.986792,497.5 C483.766488,497.5 484.407241,498.094888 484.479926,498.85554 L484.486792,499 C484.486792,499.779696 483.891904,500.420449 483.131252,500.493133 L482.986792,500.5 L465.486792,500.5 L465.486792,475 C465.486792,474.171573 466.158365,473.5 466.986792,473.5 Z" id="Shape" fill="#4757A4" fill-rule="nonzero"></path>
            <path d="M98.9918301,700.000006 L297.49183,700.500006 C298.596396,700.502789 299.489568,701.400472 299.486792,702.505038 C299.48413,703.559396 298.666079,704.421142 297.63103,704.494884 L297.481755,704.499994 L98.9817546,703.999994 C97.8771886,703.997211 96.9840164,703.099528 96.9867922,701.994962 C96.9894545,700.940604 97.8075055,700.078858 98.8425544,700.005116 L98.9918301,700.000006 Z" id="Shape" fill="#ADA28F" fill-rule="nonzero"></path>
            <path d="M189.74183,714.750006 L388.24183,715.250006 C389.346396,715.252789 390.239568,716.150472 390.236792,717.255038 C390.23413,718.309396 389.416079,719.171142 388.38103,719.244884 L388.231755,719.249994 L189.731755,718.749994 C188.627189,718.747211 187.734016,717.849528 187.736792,716.744962 C187.739455,715.690604 188.557506,714.828858 189.592554,714.755116 L189.74183,714.750006 Z" id="Shape" fill="#ADA28F" fill-rule="nonzero"></path>
            <path d="M380.744574,700.000015 L509.244574,700.500015 C510.349136,700.504313 511.241075,701.403221 511.236792,702.507782 C511.232675,703.562136 510.413442,704.422758 509.378293,704.49508 L509.22901,704.499985 L380.72901,703.999985 C379.624449,703.995687 378.73251,703.096779 378.736792,701.992218 C378.74091,700.937864 379.560143,700.077242 380.595292,700.00492 L380.744574,700.000015 Z" id="Shape" fill="#ADA28F" fill-rule="nonzero"></path>
            <polygon id="Shape" fill="#E9525B" points="1446.98679 398 926.986792 398 926.986792 688 1446.98679 688"></polygon>
            <polygon id="Shape" fill="#E8E4DD" points="1446.98679 702 926.986792 702 926.986792 688 1446.98679 688"></polygon>
            <polygon id="Shape" fill="#D4CCBE" points="1446.98679 695 926.986792 695 926.986792 688 1446.98679 688"></polygon>
            <polygon id="Shape" fill="#E8E4DD" points="1456.98679 716 926.986792 716 926.986792 702 1456.98679 702"></polygon>
            <polygon id="Shape" fill="#D4CCBE" points="1456.98679 709 926.986792 709 926.986792 702 1456.98679 702"></polygon>
            <polygon id="Shape" fill="#E8E4DD" points="1466.98679 730 926.986792 730 926.986792 716 1466.98679 716"></polygon>
            <polygon id="Shape" fill="#D4CCBE" points="1466.98679 723 926.986792 723 926.986792 716 1466.98679 716"></polygon>
            <path d="M1456.98175,700.000006 L1258.48175,700.500006 C1257.37719,700.502789 1256.48402,701.400472 1256.48679,702.505038 C1256.48945,703.559396 1257.30751,704.421142 1258.34255,704.494884 L1258.49183,704.499994 L1456.99183,703.999994 C1458.0964,703.997211 1458.98957,703.099528 1458.9868,701.994962 C1458.98413,700.940604 1458.16608,700.078858 1457.13103,700.005116 L1456.98175,700.000006 Z" id="Path" fill="#ADA28F" fill-rule="nonzero"></path>
            <path d="M1366.23175,714.750006 L1167.73175,715.250006 C1166.62719,715.252789 1165.73402,716.150472 1165.73679,717.255038 C1165.73945,718.309396 1166.55751,719.171142 1167.59255,719.244884 L1167.74183,719.249994 L1366.24183,718.749994 C1367.3464,718.747211 1368.23957,717.849528 1368.2368,716.744962 C1368.23413,715.690604 1367.41608,714.828858 1366.38103,714.755116 L1366.23175,714.750006 Z" id="Path" fill="#ADA28F" fill-rule="nonzero"></path>
            <path d="M1175.22901,700.000015 L1046.72901,700.500015 C1045.62445,700.504313 1044.73251,701.403221 1044.73678,702.507782 C1044.74091,703.562136 1045.56014,704.422758 1046.59529,704.49508 L1046.74457,704.499985 L1175.24457,703.999985 C1176.34914,703.995687 1177.24108,703.096779 1177.23681,701.992218 C1177.23267,700.937864 1176.41344,700.077242 1175.37829,700.00492 L1175.22901,700.000015 Z" id="Path" fill="#ADA28F" fill-rule="nonzero"></path>
            <polygon id="Shape" fill="#D12F38" points="952.986792 403 1018.98679 403 1018.98679 739 952.986792 739"></polygon>
            <polygon id="Shape" fill="#E8E4DD" points="507.986792 716 507.986792 688 1047.98679 688 1047.98679 716"></polygon>
            <polygon id="Shape" fill="#D4CCBE" points="507.986792 702 507.986792 688 1047.98679 688 1047.98679 702"></polygon>
            <polygon id="Shape" fill="#E8E4DD" points="497.986792 744 497.986792 716 1057.98679 716 1057.98679 744"></polygon>
            <polygon id="Shape" fill="#D4CCBE" points="497.986792 730 497.986792 716 1057.98679 716 1057.98679 730"></polygon>
            <polygon id="Shape" fill="#E8E4DD" points="487.986792 772 487.986792 744 1067.98679 744 1067.98679 772"></polygon>
            <polygon id="Shape" fill="#D4CCBE" points="487.986792 758 487.986792 744 1067.98679 744 1067.98679 758"></polygon>
            <polygon id="Shape" fill="#D12F38" points="1384.98679 412 964.986792 412 964.986792 467 1384.98679 467"></polygon>
            <polygon id="Shape" fill="#D12F38" points="1018.98679 398 1035.98679 398 1035.98679 688 1018.98679 688"></polygon>
            <polygon id="Shape" fill="#D12F38" points="1446.98679 398 1387.98679 398 1387.98679 688 1446.98679 688"></polygon>
            <polygon id="Shape" fill="#E8E4DD" points="1456.98679 412 926.986792 412 926.986792 398 1456.98679 398"></polygon>
            <polygon id="Shape" fill="#D4CCBE" points="1456.98679 405 926.986792 405 926.986792 398 1456.98679 398"></polygon>
            <path d="M1381.98679,434 C1395.24163,434 1405.98679,444.745166 1405.98679,458 L1405.98679,528 L1357.98679,528 L1357.98679,458 C1357.98679,444.745166 1368.73196,434 1381.98679,434 Z" id="Shape" fill="#FFFFFF" fill-rule="nonzero"></path>
            <path d="M1381.98679,439 C1371.49338,439 1362.98679,447.50659 1362.98679,458 L1362.98679,523 L1400.98679,523 L1400.98679,458 C1400.98679,447.50659 1392.4802,439 1381.98679,439 Z" id="Shape" fill="#6F97F8" fill-rule="nonzero"></path>
            <polygon id="Shape" fill="#FFFFFF" points="1379.98679 436 1379.98679 470 1361.48679 470 1361.48679 475 1379.98679 475 1379.98679 499 1361.48679 499 1361.48679 504 1402.48679 504 1402.48679 499 1384.98679 499 1384.98679 475 1402.48679 475 1402.48679 470 1384.98679 470 1384.98679 436"></polygon>
            <polygon id="Shape" fill="#4757A4" points="1362.98679 504 1362.98679 523 1400.98679 523 1400.98679 504"></polygon>
            <path d="M1303.98679,434 C1317.24163,434 1327.98679,444.745166 1327.98679,458 L1327.98679,528 L1279.98679,528 L1279.98679,458 C1279.98679,444.745166 1290.73196,434 1303.98679,434 Z" id="Shape" fill="#FFFFFF" fill-rule="nonzero"></path>
            <path d="M1303.98679,439 C1293.49338,439 1284.98679,447.50659 1284.98679,458 L1284.98679,523 L1322.98679,523 L1322.98679,458 C1322.98679,447.50659 1314.4802,439 1303.98679,439 Z" id="Shape" fill="#6F97F8" fill-rule="nonzero"></path>
            <polygon id="Shape" fill="#FFFFFF" points="1301.98679 436 1301.98679 470 1283.48679 470 1283.48679 475 1301.98679 475 1301.98679 499 1283.48679 499 1283.48679 504 1324.48679 504 1324.48679 499 1306.98679 499 1306.98679 475 1324.48679 475 1324.48679 470 1306.98679 470 1306.98679 436"></polygon>
            <polygon id="Shape" fill="#4757A4" points="1284.98679 504 1284.98679 523 1322.98679 523 1322.98679 504"></polygon>
            <path d="M1225.98679,434 C1239.24163,434 1249.98679,444.745166 1249.98679,458 L1249.98679,528 L1201.98679,528 L1201.98679,458 C1201.98679,444.745166 1212.73196,434 1225.98679,434 Z" id="Shape" fill="#FFFFFF" fill-rule="nonzero"></path>
            <path d="M1225.98679,439 C1215.49338,439 1206.98679,447.50659 1206.98679,458 L1206.98679,523 L1244.98679,523 L1244.98679,458 C1244.98679,447.50659 1236.4802,439 1225.98679,439 Z" id="Shape" fill="#6F97F8" fill-rule="nonzero"></path>
            <polygon id="Shape" fill="#FFFFFF" points="1223.98679 436 1223.98679 470 1205.48679 470 1205.48679 475 1223.98679 475 1223.98679 499 1205.48679 499 1205.48679 504 1246.48679 504 1246.48679 499 1228.98679 499 1228.98679 475 1246.48679 475 1246.48679 470 1228.98679 470 1228.98679 436"></polygon>
            <polygon id="Shape" fill="#6F97F8" points="1206.98679 504 1206.98679 523 1244.98679 523 1244.98679 504"></polygon>
            <path d="M1147.98679,434 C1161.24163,434 1171.98679,444.745166 1171.98679,458 L1171.98679,528 L1123.98679,528 L1123.98679,458 C1123.98679,444.745166 1134.73196,434 1147.98679,434 Z" id="Shape" fill="#FFFFFF" fill-rule="nonzero"></path>
            <path d="M1147.98679,439 C1137.49338,439 1128.98679,447.50659 1128.98679,458 L1128.98679,523 L1166.98679,523 L1166.98679,458 C1166.98679,447.50659 1158.4802,439 1147.98679,439 Z" id="Shape" fill="#6F97F8" fill-rule="nonzero"></path>
            <polygon id="Shape" fill="#FFFFFF" points="1145.98679 436 1145.98679 470 1127.48679 470 1127.48679 475 1145.98679 475 1145.98679 499 1127.48679 499 1127.48679 504 1168.48679 504 1168.48679 499 1150.98679 499 1150.98679 475 1168.48679 475 1168.48679 470 1150.98679 470 1150.98679 436"></polygon>
            <polygon id="Shape" fill="#6F97F8" points="1128.98679 504 1128.98679 523 1166.98679 523 1166.98679 504"></polygon>
            <path d="M1069.98679,434 C1083.24163,434 1093.98679,444.745166 1093.98679,458 L1093.98679,528 L1045.98679,528 L1045.98679,458 C1045.98679,444.745166 1056.73196,434 1069.98679,434 Z" id="Shape" fill="#FFFFFF" fill-rule="nonzero"></path>
            <path d="M1069.98679,439 C1059.49338,439 1050.98679,447.50659 1050.98679,458 L1050.98679,523 L1088.98679,523 L1088.98679,458 C1088.98679,447.50659 1080.4802,439 1069.98679,439 Z" id="Shape" fill="#6F97F8" fill-rule="nonzero"></path>
            <polygon id="Shape" fill="#FFFFFF" points="1067.98679 436 1067.98679 470 1049.48679 470 1049.48679 475 1067.98679 475 1067.98679 499 1049.48679 499 1049.48679 504 1090.48679 504 1090.48679 499 1072.98679 499 1072.98679 475 1090.48679 475 1090.48679 470 1072.98679 470 1072.98679 436"></polygon>
            <polygon id="Shape" fill="#4757A4" points="1050.98679 504 1050.98679 523 1088.98679 523 1088.98679 504"></polygon>
            <path d="M1381.98679,558 C1395.24163,558 1405.98679,568.745166 1405.98679,582 L1405.98679,652 L1357.98679,652 L1357.98679,582 C1357.98679,568.745166 1368.73196,558 1381.98679,558 Z" id="Shape" fill="#FFFFFF" fill-rule="nonzero"></path>
            <path d="M1381.98679,563 C1371.49338,563 1362.98679,571.50659 1362.98679,582 L1362.98679,647 L1400.98679,647 L1400.98679,582 C1400.98679,571.50659 1392.4802,563 1381.98679,563 Z" id="Shape" fill="#6F97F8" fill-rule="nonzero"></path>
            <polygon id="Shape" fill="#FFFFFF" points="1379.98679 560 1379.98679 594 1361.48679 594 1361.48679 599 1379.98679 599 1379.98679 623 1361.48679 623 1361.48679 628 1402.48679 628 1402.48679 623 1384.98679 623 1384.98679 599 1402.48679 599 1402.48679 594 1384.98679 594 1384.98679 560"></polygon>
            <polygon id="Shape" fill="#4757A4" points="1362.98679 628 1362.98679 647 1400.98679 647 1400.98679 628"></polygon>
            <path d="M1303.98679,558 C1317.24163,558 1327.98679,568.745166 1327.98679,582 L1327.98679,652 L1279.98679,652 L1279.98679,582 C1279.98679,568.745166 1290.73196,558 1303.98679,558 Z" id="Shape" fill="#FFFFFF" fill-rule="nonzero"></path>
            <path d="M1303.98679,563 C1293.49338,563 1284.98679,571.50659 1284.98679,582 L1284.98679,647 L1322.98679,647 L1322.98679,582 C1322.98679,571.50659 1314.4802,563 1303.98679,563 Z" id="Shape" fill="#6F97F8" fill-rule="nonzero"></path>
            <polygon id="Shape" fill="#FFFFFF" points="1301.98679 560 1301.98679 594 1283.48679 594 1283.48679 599 1301.98679 599 1301.98679 623 1283.48679 623 1283.48679 628 1324.48679 628 1324.48679 623 1306.98679 623 1306.98679 599 1324.48679 599 1324.48679 594 1306.98679 594 1306.98679 560"></polygon>
            <polygon id="Shape" fill="#6F97F8" points="1284.98679 628 1284.98679 647 1322.98679 647 1322.98679 628"></polygon>
            <path d="M1225.98679,558 C1239.24163,558 1249.98679,568.745166 1249.98679,582 L1249.98679,652 L1201.98679,652 L1201.98679,582 C1201.98679,568.745166 1212.73196,558 1225.98679,558 Z" id="Shape" fill="#FFFFFF" fill-rule="nonzero"></path>
            <path d="M1225.98679,563 C1215.49338,563 1206.98679,571.50659 1206.98679,582 L1206.98679,647 L1244.98679,647 L1244.98679,582 C1244.98679,571.50659 1236.4802,563 1225.98679,563 Z" id="Shape" fill="#6F97F8" fill-rule="nonzero"></path>
            <polygon id="Shape" fill="#FFFFFF" points="1223.98679 560 1223.98679 594 1205.48679 594 1205.48679 599 1223.98679 599 1223.98679 623 1205.48679 623 1205.48679 628 1246.48679 628 1246.48679 623 1228.98679 623 1228.98679 599 1246.48679 599 1246.48679 594 1228.98679 594 1228.98679 560"></polygon>
            <polygon id="Shape" fill="#4757A4" points="1206.98679 628 1206.98679 647 1244.98679 647 1244.98679 628"></polygon>
            <path d="M1147.98679,558 C1161.24163,558 1171.98679,568.745166 1171.98679,582 L1171.98679,652 L1123.98679,652 L1123.98679,582 C1123.98679,568.745166 1134.73196,558 1147.98679,558 Z" id="Shape" fill="#FFFFFF" fill-rule="nonzero"></path>
            <path d="M1147.98679,563 C1137.49338,563 1128.98679,571.50659 1128.98679,582 L1128.98679,647 L1166.98679,647 L1166.98679,582 C1166.98679,571.50659 1158.4802,563 1147.98679,563 Z" id="Shape" fill="#6F97F8" fill-rule="nonzero"></path>
            <polygon id="Shape" fill="#FFFFFF" points="1145.98679 560 1145.98679 594 1127.48679 594 1127.48679 599 1145.98679 599 1145.98679 623 1127.48679 623 1127.48679 628 1168.48679 628 1168.48679 623 1150.98679 623 1150.98679 599 1168.48679 599 1168.48679 594 1150.98679 594 1150.98679 560"></polygon>
            <polygon id="Shape" fill="#6F97F8" points="1128.98679 628 1128.98679 647 1166.98679 647 1166.98679 628"></polygon>
            <path d="M1069.98679,558 C1083.24163,558 1093.98679,568.745166 1093.98679,582 L1093.98679,652 L1045.98679,652 L1045.98679,582 C1045.98679,568.745166 1056.73196,558 1069.98679,558 Z" id="Shape" fill="#FFFFFF" fill-rule="nonzero"></path>
            <path d="M1069.98679,563 C1059.49338,563 1050.98679,571.50659 1050.98679,582 L1050.98679,647 L1088.98679,647 L1088.98679,582 C1088.98679,571.50659 1080.4802,563 1069.98679,563 Z" id="Shape" fill="#6F97F8" fill-rule="nonzero"></path>
            <polygon id="Shape" fill="#FFFFFF" points="1067.98679 560 1067.98679 594 1049.48679 594 1049.48679 599 1067.98679 599 1067.98679 623 1049.48679 623 1049.48679 628 1090.48679 628 1090.48679 623 1072.98679 623 1072.98679 599 1090.48679 599 1090.48679 594 1072.98679 594 1072.98679 560"></polygon>
            <polygon id="Shape" fill="#4757A4" points="1050.98679 628 1050.98679 647 1088.98679 647 1088.98679 628"></polygon>
            <polygon id="Shape" fill="#E8E4DD" points="1293.98679 238 1268.98679 238 1271.98679 242 1290.98679 242"></polygon>
            <polygon id="Shape" fill="#E8E4DD" points="1209.98679 238 1184.98679 238 1187.98679 242 1206.98679 242"></polygon>
            <polygon id="Shape" fill="#E8E4DD" points="1268.98679 297 1293.98679 297 1290.98679 293 1271.98679 293"></polygon>
            <polygon id="Shape" fill="#D4CCBE" points="1271.98679 293 1290.98679 293 1290.98679 289 1271.98679 289"></polygon>
            <polygon id="Shape" fill="#E8E4DD" points="1184.98679 297 1209.98679 297 1206.98679 293 1187.98679 293"></polygon>
            <polygon id="Shape" fill="#D4CCBE" points="1187.98679 293 1206.98679 293 1206.98679 289 1187.98679 289"></polygon>
            <polygon id="Shape" fill="#D4CCBE" points="1290.98679 242 1271.98679 242 1271.98679 246 1290.98679 246"></polygon>
            <polygon id="Shape" fill="#D4CCBE" points="1206.98679 242 1187.98679 242 1187.98679 246 1206.98679 246"></polygon>
            <polygon id="Shape" fill="#F7F4EF" points="1288.98679 246 1273.98679 246 1273.98679 289 1288.98679 289"></polygon>
            <polygon id="Shape" fill="#F7F4EF" points="1204.98679 246 1189.98679 246 1189.98679 289 1204.98679 289"></polygon>
            <path d="M1239.48679,171 C1209.38727,171 1184.98679,195.400481 1184.98679,225.5 L1184.98679,238 L1293.98679,238 L1293.98679,225.5 C1293.98679,195.400481 1269.58631,171 1239.48679,171 Z" id="Shape" fill="#4757A4"></path>
            <path d="M1239.48679,169 C1261.57818,169 1279.48679,186.90861 1279.48679,209 L1279.48679,240 L1199.48679,240 L1199.48679,209 C1199.48679,186.90861 1217.3954,169 1239.48679,169 Z M1238.89147,173.004823 C1219.2838,173.322731 1203.48679,189.316572 1203.48679,209 L1203.48679,236 L1275.48679,236 L1275.48679,209 C1275.48679,189.117749 1259.36904,173 1239.48679,173 L1238.89147,173.004823 Z" id="Shape" fill="#5D6FC1" fill-rule="nonzero"></path>
            <path d="M1239.48679,169 C1249.9802,169 1258.48679,177.50659 1258.48679,188 L1258.48679,240 L1220.48679,240 L1220.48679,188 C1220.48679,177.50659 1228.99338,169 1239.48679,169 Z M1239.17296,173.003218 C1231.03358,173.17027 1224.48679,179.820593 1224.48679,188 L1224.48679,236 L1254.48679,236 L1254.48679,188 C1254.48679,179.715729 1247.77106,173 1239.48679,173 L1239.17296,173.003218 Z" id="Shape" fill="#5D6FC1" fill-rule="nonzero"></path>
            <path d="M1357.98679,528 L1357.98679,537 L1405.98679,537 L1405.98679,528 L1357.98679,528 Z M1279.98679,528 L1279.98679,537 L1327.98679,537 L1327.98679,528 L1279.98679,528 Z M1201.98679,528 L1201.98679,537 L1249.98679,537 L1249.98679,528 L1201.98679,528 Z M1123.98679,528 L1123.98679,537 L1171.98679,537 L1171.98679,528 L1123.98679,528 Z M1045.98679,528 L1045.98679,537 L1093.98679,537 L1093.98679,528 L1045.98679,528 Z" id="Shape" fill="#D12F38"></path>
            <path d="M1357.98679,652 L1357.98679,661 L1405.98679,661 L1405.98679,652 L1357.98679,652 Z M1279.98679,652 L1279.98679,661 L1327.98679,661 L1327.98679,652 L1279.98679,652 Z M1201.98679,652 L1201.98679,661 L1249.98679,661 L1249.98679,652 L1201.98679,652 Z M1123.98679,652 L1123.98679,661 L1171.98679,661 L1171.98679,652 L1123.98679,652 Z M1045.98679,652 L1045.98679,661 L1093.98679,661 L1093.98679,652 L1045.98679,652 Z" id="Shape" fill="#D12F38"></path>
            <polygon id="Shape" fill="#F7F4EF" points="969.986792 416 937.986792 416 937.986792 752 969.986792 752"></polygon>
            <polygon id="Shape" fill="#F7F4EF" points="980.986792 744 1034.98679 744 1028.23679 735 987.736792 735"></polygon>
            <polygon id="Shape" fill="#D4CCBE" points="987.986792 735 1028.98679 735 1028.98679 726 987.986792 726"></polygon>
            <polygon id="Shape" fill="#F7F4EF" points="1023.98679 416 991.986792 416 991.986792 726 1023.98679 726"></polygon>
            <polygon id="Shape" fill="#F7F4EF" points="1034.98679 398 980.986792 398 987.736792 407 1028.23679 407"></polygon>
            <polygon id="Shape" fill="#D4CCBE" points="1027.98679 407 986.986792 407 986.986792 416 1027.98679 416"></polygon>
            <polygon id="Shape" fill="#F7F4EF" points="926.986792 770 980.986792 770 974.236792 761 933.736792 761"></polygon>
            <polygon id="Shape" fill="#D4CCBE" points="933.986792 761 974.986792 761 974.986792 752 933.986792 752"></polygon>
            <polygon id="Shape" fill="#F7F4EF" points="980.986792 398 926.986792 398 933.736792 407 974.236792 407"></polygon>
            <polygon id="Shape" fill="#D4CCBE" points="973.986792 407 932.986792 407 932.986792 416 973.986792 416"></polygon>
            <polygon id="Shape" fill="#F7F4EF" points="574.986792 744 520.986792 744 527.736792 735 568.236792 735"></polygon>
            <polygon id="Shape" fill="#D4CCBE" points="567.986792 735 526.986792 735 526.986792 726 567.986792 726"></polygon>
            <polygon id="Shape" fill="#F7F4EF" points="531.986792 416 563.986792 416 563.986792 726 531.986792 726"></polygon>
            <polygon id="Shape" fill="#F7F4EF" points="520.986792 398 574.986792 398 568.236792 407 527.736792 407"></polygon>
            <polygon id="Shape" fill="#D4CCBE" points="527.986792 407 568.986792 407 568.986792 416 527.986792 416"></polygon>
            <polygon id="Shape" fill="#F7F4EF" points="628.986792 770 574.986792 770 581.736792 761 622.236792 761"></polygon>
            <polygon id="Shape" fill="#D4CCBE" points="621.986792 761 580.986792 761 580.986792 752 621.986792 752"></polygon>
            <polygon id="Shape" fill="#F7F4EF" points="574.986792 398 628.986792 398 622.236792 407 581.736792 407"></polygon>
            <polygon id="Shape" fill="#D4CCBE" points="581.986792 407 622.986792 407 622.986792 416 581.986792 416"></polygon>
            <polygon id="Shape" fill="#F7F4EF" points="617.986792 752 585.986792 752 585.986792 416 617.986792 416"></polygon>
            <path d="M1283.98679,291 C1285.09136,291 1285.98679,291.895431 1285.98679,293 C1285.98679,294.054362 1285.17091,294.918165 1284.13605,294.994514 L1283.98679,295 L1272.39214,295 C1271.28757,295 1270.39214,294.104569 1270.39214,293 C1270.39214,291.945638 1271.20802,291.081835 1272.24288,291.005486 L1272.39214,291 L1283.98679,291 Z" id="Shape" fill="#ADA28F" fill-rule="nonzero"></path>
            <path d="M1283.98679,240 C1285.09136,240 1285.98679,240.895431 1285.98679,242 C1285.98679,243.054362 1285.17091,243.918165 1284.13605,243.994514 L1283.98679,244 L1272.39214,244 C1271.28757,244 1270.39214,243.104569 1270.39214,242 C1270.39214,240.945638 1271.20802,240.081835 1272.24288,240.005486 L1272.39214,240 L1283.98679,240 Z" id="Shape" fill="#ADA28F" fill-rule="nonzero"></path>
            <path d="M1184.98679,222.037131 C1186.04115,222.037131 1186.90496,222.853009 1186.98131,223.887869 L1186.98679,224.037131 L1186.98679,235.999 L1263.23651,236 C1264.29087,236 1265.15468,236.815878 1265.23103,237.850738 L1265.23651,238 C1265.23651,239.054362 1264.42063,239.918165 1263.38577,239.994514 L1263.23651,240 L1184.98679,240 C1183.93243,240 1183.06863,239.184122 1182.99228,238.149262 L1182.98679,238 L1182.98679,224.037131 C1182.98679,222.932562 1183.88222,222.037131 1184.98679,222.037131 Z" id="Shape" fill="#2E3D89" fill-rule="nonzero"></path>
            <path d="M1400.98679,473.5 C1401.76649,473.5 1402.40724,474.094888 1402.47993,474.85554 L1402.48679,475 L1402.48679,500.5 L1384.98679,500.5 C1384.15837,500.5 1383.48679,499.828427 1383.48679,499 C1383.48679,498.220304 1384.08168,497.579551 1384.84233,497.506867 L1384.98679,497.5 L1399.48679,497.5 L1399.48679,475 C1399.48679,474.220304 1400.08168,473.579551 1400.84233,473.506867 L1400.98679,473.5 Z" id="Shape" fill="#4757A4" fill-rule="nonzero"></path>
            <path d="M1244.98679,473.5 C1245.76649,473.5 1246.40724,474.094888 1246.47993,474.85554 L1246.48679,475 L1246.48679,500.5 L1228.98679,500.5 C1228.15837,500.5 1227.48679,499.828427 1227.48679,499 C1227.48679,498.220304 1228.08168,497.579551 1228.84233,497.506867 L1228.98679,497.5 L1243.48679,497.5 L1243.48679,475 C1243.48679,474.220304 1244.08168,473.579551 1244.84233,473.506867 L1244.98679,473.5 Z" id="Shape" fill="#4757A4" fill-rule="nonzero"></path>
            <path d="M1322.98679,580.5 C1323.76649,580.5 1324.40724,581.094888 1324.47993,581.85554 L1324.48679,582 L1324.48679,595.5 L1306.98679,595.5 C1306.15837,595.5 1305.48679,594.828427 1305.48679,594 C1305.48679,593.220304 1306.08168,592.579551 1306.84233,592.506867 L1306.98679,592.5 L1321.48679,592.5 L1321.48679,582 C1321.48679,581.220304 1322.08168,580.579551 1322.84233,580.506867 L1322.98679,580.5 Z" id="Shape" fill="#4757A4" fill-rule="nonzero"></path>
            <path d="M1166.98679,580.5 C1167.76649,580.5 1168.40724,581.094888 1168.47993,581.85554 L1168.48679,582 L1168.48679,595.5 L1150.98679,595.5 C1150.15837,595.5 1149.48679,594.828427 1149.48679,594 C1149.48679,593.220304 1150.08168,592.579551 1150.84233,592.506867 L1150.98679,592.5 L1165.48679,592.5 L1165.48679,582 C1165.48679,581.220304 1166.08168,580.579551 1166.84233,580.506867 L1166.98679,580.5 Z" id="Shape" fill="#4757A4" fill-rule="nonzero"></path>
            <path d="M1088.98679,473.5 C1089.76649,473.5 1090.40724,474.094888 1090.47993,474.85554 L1090.48679,475 L1090.48679,500.5 L1072.98679,500.5 C1072.15837,500.5 1071.48679,499.828427 1071.48679,499 C1071.48679,498.220304 1072.08168,497.579551 1072.84233,497.506867 L1072.98679,497.5 L1087.48679,497.5 L1087.48679,475 C1087.48679,474.220304 1088.08168,473.579551 1088.84233,473.506867 L1088.98679,473.5 Z" id="Shape" fill="#4757A4" fill-rule="nonzero"></path>
            <ellipse id="Shape" fill="#F7F4EF" cx="778.486792" cy="329.5" rx="43" ry="42.5"></ellipse>
            <path d="M878.986792,422.5 L676.986792,422.5 C653.51469,422.5 634.486792,441.527898 634.486792,465 L634.486792,492.5 L921.486792,492.5 L921.486792,465 C921.486792,441.527898 902.458894,422.5 878.986792,422.5 Z M878.986792,427.5 L879.606923,427.505024 C900.031578,427.836179 916.486792,444.496429 916.486792,465 L916.486792,487.5 L639.486792,487.5 L639.486792,465 C639.486792,444.289322 656.276114,427.5 676.986792,427.5 L878.986792,427.5 Z" id="Shape" fill="#FFFFFF" fill-rule="nonzero"></path>
            <polygon id="Shape" fill="#FFFFFF" points="636.986792 458 918.986792 458 918.986792 463 636.986792 463"></polygon>
            <path d="M680.986792,425 L680.986792,490 L675.986792,490 L675.986792,425 L680.986792,425 Z M720.986792,425 L720.986792,490 L715.986792,490 L715.986792,425 L720.986792,425 Z M760.986792,425 L760.986792,490 L755.986792,490 L755.986792,425 L760.986792,425 Z M800.986792,425 L800.986792,490 L795.986792,490 L795.986792,425 L800.986792,425 Z M840.986792,425 L840.986792,490 L835.986792,490 L835.986792,425 L840.986792,425 Z M880.986792,425 L880.986792,490 L875.986792,490 L875.986792,425 L880.986792,425 Z" id="Shape" fill="#FFFFFF"></path>
            <path d="M763.986792,526 L669.986792,526 C668.329938,526 666.986792,527.343146 666.986792,529 L666.986792,577 C666.986792,578.656854 668.329938,580 669.986792,580 L763.986792,580 C765.643647,580 766.986792,578.656854 766.986792,577 L766.986792,529 C766.986792,527.343146 765.643647,526 763.986792,526 Z M669.986792,528 L763.986792,528 C764.539077,528 764.986792,528.447715 764.986792,529 L764.986792,577 C764.986792,577.552285 764.539077,578 763.986792,578 L669.986792,578 C669.434508,578 668.986792,577.552285 668.986792,577 L668.986792,529 C668.986792,528.447715 669.434508,528 669.986792,528 Z" id="Shape" fill="#8A5D65" fill-rule="nonzero"></path>
            <path d="M888.986792,526 L794.986792,526 C793.329938,526 791.986792,527.343146 791.986792,529 L791.986792,577 C791.986792,578.656854 793.329938,580 794.986792,580 L888.986792,580 C890.643647,580 891.986792,578.656854 891.986792,577 L891.986792,529 C891.986792,527.343146 890.643647,526 888.986792,526 Z M794.986792,528 L888.986792,528 C889.539077,528 889.986792,528.447715 889.986792,529 L889.986792,577 C889.986792,577.552285 889.539077,578 888.986792,578 L794.986792,578 C794.434508,578 793.986792,577.552285 793.986792,577 L793.986792,529 C793.986792,528.447715 794.434508,528 794.986792,528 Z" id="Shape" fill="#8A5D65" fill-rule="nonzero"></path>
            <path d="M763.986792,589 L669.986792,589 C668.329938,589 666.986792,590.343146 666.986792,592 L666.986792,640 C666.986792,641.656854 668.329938,643 669.986792,643 L763.986792,643 C765.643647,643 766.986792,641.656854 766.986792,640 L766.986792,592 C766.986792,590.343146 765.643647,589 763.986792,589 Z M669.986792,591 L763.986792,591 C764.539077,591 764.986792,591.447715 764.986792,592 L764.986792,640 C764.986792,640.552285 764.539077,641 763.986792,641 L669.986792,641 C669.434508,641 668.986792,640.552285 668.986792,640 L668.986792,592 C668.986792,591.447715 669.434508,591 669.986792,591 Z" id="Shape" fill="#8A5D65" fill-rule="nonzero"></path>
            <path d="M888.986792,589 L794.986792,589 C793.329938,589 791.986792,590.343146 791.986792,592 L791.986792,640 C791.986792,641.656854 793.329938,643 794.986792,643 L888.986792,643 C890.643647,643 891.986792,641.656854 891.986792,640 L891.986792,592 C891.986792,590.343146 890.643647,589 888.986792,589 Z M794.986792,591 L888.986792,591 C889.539077,591 889.986792,591.447715 889.986792,592 L889.986792,640 C889.986792,640.552285 889.539077,641 888.986792,641 L794.986792,641 C794.434508,641 793.986792,640.552285 793.986792,640 L793.986792,592 C793.986792,591.447715 794.434508,591 794.986792,591 Z" id="Shape" fill="#8A5D65" fill-rule="nonzero"></path>
            <path d="M763.986792,652 L669.986792,652 C668.329938,652 666.986792,653.343146 666.986792,655 L666.986792,679 C666.986792,680.656854 668.329938,682 669.986792,682 L763.986792,682 C765.643647,682 766.986792,680.656854 766.986792,679 L766.986792,655 C766.986792,653.343146 765.643647,652 763.986792,652 Z M669.986792,654 L763.986792,654 C764.539077,654 764.986792,654.447715 764.986792,655 L764.986792,679 C764.986792,679.552285 764.539077,680 763.986792,680 L669.986792,680 C669.434508,680 668.986792,679.552285 668.986792,679 L668.986792,655 C668.986792,654.447715 669.434508,654 669.986792,654 Z" id="Shape" fill="#8A5D65" fill-rule="nonzero"></path>
            <path d="M888.986792,652 L794.986792,652 C793.329938,652 791.986792,653.343146 791.986792,655 L791.986792,679 C791.986792,680.656854 793.329938,682 794.986792,682 L888.986792,682 C890.643647,682 891.986792,680.656854 891.986792,679 L891.986792,655 C891.986792,653.343146 890.643647,652 888.986792,652 Z M794.986792,654 L888.986792,654 C889.539077,654 889.986792,654.447715 889.986792,655 L889.986792,679 C889.986792,679.552285 889.539077,680 888.986792,680 L794.986792,680 C794.434508,680 793.986792,679.552285 793.986792,679 L793.986792,655 C793.986792,654.447715 794.434508,654 794.986792,654 Z" id="Shape" fill="#8A5D65" fill-rule="nonzero"></path>
            <path d="M1204.70967,48.863076 L1203.15458,49.0867686 C1189.76687,51.0664201 1178.56483,54.1450573 1158.07621,60.9318366 L1147.37462,64.4972719 C1127.30149,71.1326788 1116.91103,73.9779618 1103.84764,75.9902848 L1103.36257,76.06444 C1084.73345,78.8907519 1066.74496,78.2164409 1047.54152,73.3354917 L1046.49285,73.065082 C1002.34062,61.5175765 974.357289,67.3906216 963.177155,91.1484059 L961.835228,94 L1334.37741,94 L1329.12696,90.356824 C1282.08398,57.7147452 1240.616,43.8394181 1204.70967,48.863076 Z M1321.50079,89.999 L968.286792,89.999 L968.438465,89.7361842 C979.481,70.961112 1004.58346,66.4611664 1044.27354,76.6225104 L1045.48074,76.934918 C1065.62102,82.2023775 1084.47185,82.9762135 1103.96256,80.019185 L1104.95032,79.8670387 C1118.87259,77.6897553 1129.89039,74.5556877 1152.46113,67.0222897 L1156.92435,65.5298767 C1179.55848,57.982273 1190.95781,54.8260604 1205.26391,52.8244919 C1238.30014,48.2023904 1276.54969,60.2232842 1320.00112,89.00069 L1321.50079,89.999 Z" id="Shape" fill="#F0DECF" fill-rule="nonzero"></path>
            <path d="M625.709671,14.0014133 L624.670597,14.1495019 C611.224953,16.1014031 600.112071,19.1188393 579.859677,25.8109669 L569.122522,29.3881147 C548.306845,36.2837147 537.818064,39.1613801 524.362568,41.2027773 C505.733449,44.0290892 487.744956,43.3547782 468.541524,38.4738289 L467.492848,38.2034192 C423.340621,26.6559138 395.357289,32.5289589 384.177155,56.2867432 L382.835228,59.1383373 L755.377413,59.1383373 L750.126956,55.4951613 C703.083982,22.8530825 661.616,8.97775539 625.709671,14.0014133 Z M742.500792,55.138 L389.285792,55.138 L389.438465,54.8745215 C400.481,36.0994493 425.583464,31.5995036 465.273542,41.7608477 L466.480737,42.0732553 C486.621023,47.3407148 505.471848,48.1145508 524.962561,45.1575223 L526.440513,44.9281278 C539.318376,42.8831687 549.834261,39.9767488 569.595045,33.445083 L579.522161,30.1365241 C601.102956,22.970969 612.29843,19.9167413 626.263913,17.9628291 C659.300139,13.3407276 697.549693,25.3616215 741.001124,54.1390273 L742.500792,55.138 Z" id="Shape" fill="#F0DECF" fill-rule="nonzero"></path>
        </g>
    </g>
</svg>